<svg width="99" height="99" viewBox="0 0 99 99" fill="none" xmlns="http://www.w3.org/2000/svg">
<path d="M72.408 64.0476C58.9528 68.7896 51.4325 84.2408 49.2306 88.2043V32.8202C51.3731 28.9636 58.551 16.0434 71.3322 11.1002C72.4284 10.6763 72.9764 10.4643 73.4111 10.7622C73.8457 11.0601 73.8457 11.676 73.8457 12.9078V62.0805C73.8457 62.7943 73.8457 63.1512 73.6619 63.4108C73.4781 63.6705 73.1214 63.7962 72.408 64.0476Z" stroke="#FF7738" stroke-width="1.5" stroke-linecap="round" stroke-linejoin="round" stroke-dasharray="10 10"/>
<path d="M49.2303 32.0225C46.4123 29.0624 38.2427 22.0322 24.5354 19.5673C17.5912 18.3186 14.1191 17.6942 11.1621 20.0873C8.20508 22.4804 8.20508 26.3664 8.20508 34.1385V62.0699C8.20508 69.1763 8.20508 72.7296 10.1029 74.948C12.0007 77.1664 16.1789 77.9177 24.5354 79.4204C31.9847 80.7599 37.7984 82.8943 42.0065 85.039C46.1468 87.1492 48.217 88.2043 49.2303 88.2043C50.2436 88.2043 52.3138 87.1492 56.4541 85.039C60.6622 82.8943 66.476 80.7599 73.9252 79.4204C82.2817 77.9177 86.4599 77.1664 88.3577 74.948C90.2555 72.7296 90.2555 69.1763 90.2555 62.0699V34.1385C90.2555 26.3664 90.2555 22.4804 87.2985 20.0873C84.3415 17.6942 77.948 19.5673 73.8454 22.5639" stroke="#F5F5F5" stroke-width="1.5" stroke-linecap="round" stroke-linejoin="round"/>
</svg>
