<svg width="99" height="99" viewBox="0 0 99 99" fill="none" xmlns="http://www.w3.org/2000/svg">
<path d="M14.3584 41.0252C14.3584 25.5537 14.3584 17.8179 19.4652 13.0115C24.572 8.20505 32.7913 8.20505 49.2298 8.20505H52.4C65.7792 8.20505 72.4687 8.20505 77.1144 11.4782C78.4455 12.416 79.6272 13.5282 80.6236 14.7809C84.1013 19.1533 84.1013 25.4494 84.1013 38.0416V48.4844C84.1013 60.6409 84.1013 66.7191 82.1775 71.5737C79.0847 79.378 72.5439 85.534 64.2518 88.4449C59.0938 90.2555 52.6357 90.2555 39.7195 90.2555C32.3387 90.2555 28.6484 90.2555 25.701 89.2209C20.9626 87.5575 17.225 84.0398 15.4577 79.5802C14.3584 76.8061 14.3584 73.3329 14.3584 66.3863V41.0252Z" stroke="#F5F5F5" stroke-width="1.5" stroke-linejoin="round"/>
<path d="M84.1014 49.2303C84.1014 56.7828 77.9789 62.9054 70.4263 62.9054C67.6949 62.9054 64.4748 62.4268 61.8191 63.1384C59.4595 63.7706 57.6165 65.6136 56.9842 67.9732C56.2726 70.6289 56.7512 73.8491 56.7512 76.5805C56.7512 84.133 50.6287 90.2555 43.0762 90.2555" stroke="#FF7738" stroke-width="1.5" stroke-linecap="round" stroke-linejoin="round" stroke-dasharray="10 10"/>
<path d="M32.8193 28.7177H61.537" stroke="#F5F5F5" stroke-width="1.5" stroke-linecap="round" stroke-linejoin="round"/>
<path d="M32.8193 45.1278H45.1269" stroke="#F5F5F5" stroke-width="1.5" stroke-linecap="round" stroke-linejoin="round"/>
</svg>
