<svg width="99" height="99" viewBox="0 0 99 99" fill="none" xmlns="http://www.w3.org/2000/svg">
<path d="M69.742 8.20505V16.4101M49.2294 8.20505V16.4101M28.7168 8.20505L28.7168 16.4101" stroke="#F5F5F5" stroke-width="1.5" stroke-linecap="round" stroke-linejoin="round"/>
<path d="M14.3584 41.0252C14.3584 27.4876 14.3584 20.7188 18.564 16.5132C22.7696 12.3076 29.5384 12.3076 43.0761 12.3076L55.3836 12.3076C68.9213 12.3076 75.6901 12.3076 79.8957 16.5132C84.1013 20.7188 84.1013 27.4876 84.1013 41.0252L84.1013 61.5379C84.1013 75.0755 84.1013 81.8443 79.8957 86.0499C75.6901 90.2555 68.9213 90.2555 55.3836 90.2555L43.0761 90.2555C29.5384 90.2555 22.7696 90.2555 18.564 86.0499C14.3584 81.8443 14.3584 75.0755 14.3584 61.5379L14.3584 41.0252Z" stroke="#F5F5F5" stroke-width="1.5" stroke-linecap="round" stroke-linejoin="round"/>
<path d="M32.8193 60.7879C32.4051 60.7879 32.0693 61.1236 32.0693 61.5379C32.0693 61.9521 32.4051 62.2879 32.8193 62.2879V61.5379V60.7879ZM49.2294 62.2879C49.6436 62.2879 49.9794 61.9521 49.9794 61.5379C49.9794 61.1236 49.6436 60.7879 49.2294 60.7879V61.5379V62.2879ZM32.8193 40.2752C32.4051 40.2752 32.0693 40.611 32.0693 41.0252C32.0693 41.4395 32.4051 41.7752 32.8193 41.7752V41.0252V40.2752ZM65.6395 41.7752C66.0537 41.7752 66.3895 41.4395 66.3895 41.0252C66.3895 40.611 66.0537 40.2752 65.6395 40.2752V41.0252V41.7752ZM36.9219 62.2879C37.3361 62.2879 37.6719 61.9521 37.6719 61.5379C37.6719 61.1236 37.3361 60.7879 36.9219 60.7879V61.5379V62.2879ZM45.1269 60.7879C44.7127 60.7879 44.3769 61.1236 44.3769 61.5379C44.3769 61.9521 44.7127 62.2879 45.1269 62.2879V61.5379V60.7879ZM36.9219 41.7752C37.3361 41.7752 37.6719 41.4395 37.6719 41.0252C37.6719 40.611 37.3361 40.2752 36.9219 40.2752V41.0252V41.7752ZM45.1269 40.2752C44.7127 40.2752 44.3769 40.611 44.3769 41.0252C44.3769 41.4395 44.7127 41.7752 45.1269 41.7752V41.0252V40.2752ZM53.332 41.7752C53.7462 41.7752 54.082 41.4395 54.082 41.0252C54.082 40.611 53.7462 40.2752 53.332 40.2752V41.0252V41.7752ZM61.537 40.2752C61.1228 40.2752 60.787 40.611 60.787 41.0252C60.787 41.4395 61.1228 41.7752 61.537 41.7752V41.0252V40.2752ZM32.8193 61.5379V62.2879H36.9219V61.5379V60.7879H32.8193V61.5379ZM45.1269 61.5379V62.2879H49.2294V61.5379V60.7879H45.1269V61.5379ZM32.8193 41.0252V41.7752H36.9219V41.0252V40.2752H32.8193V41.0252ZM45.1269 41.0252V41.7752L53.332 41.7752V41.0252V40.2752L45.1269 40.2752V41.0252ZM61.537 41.0252V41.7752H65.6395V41.0252V40.2752H61.537V41.0252Z" fill="#FF7738"/>
</svg>
