<svg width="12" height="13" viewBox="0 0 12 13" fill="none" xmlns="http://www.w3.org/2000/svg">
<path fill-rule="evenodd" clip-rule="evenodd" d="M6.71799e-08 6.11056C3.00775e-08 6.55072 0.356818 6.90753 0.796975 6.90753L10.3607 6.90753C10.8008 6.90753 11.1576 6.55072 11.1576 6.11056C11.1576 5.6704 10.8008 5.31359 10.3607 5.31359L0.796975 5.31359C0.356818 5.31359 1.04282e-07 5.6704 6.71799e-08 6.11056Z" fill="white"/>
<path fill-rule="evenodd" clip-rule="evenodd" d="M5.54593 11.987C5.85717 12.2982 6.36178 12.2982 6.67302 11.987L11.2348 7.4252C11.2434 7.41662 11.252 7.408 11.2607 7.39933C11.4149 7.24527 11.5816 7.07868 11.7033 6.91909C11.846 6.73213 11.9995 6.46462 11.9995 6.11026C11.9995 5.7559 11.846 5.48839 11.7033 5.30144C11.5816 5.14185 11.4149 4.97526 11.2607 4.8212C11.252 4.81253 11.2434 4.80391 11.2348 4.79532L6.67302 0.233553C6.36178 -0.0776853 5.85717 -0.0776853 5.54593 0.233553C5.23469 0.544789 5.23469 1.04941 5.54593 1.36064L10.1077 5.92241C10.1821 5.99686 10.2425 6.05723 10.2938 6.11026C10.2425 6.16329 10.1821 6.22366 10.1077 6.29811L5.54593 10.8599C5.23469 11.1711 5.23469 11.6757 5.54593 11.987Z" fill="white"/>
</svg>
