<svg width="16" height="16" viewBox="0 0 16 16" fill="none" xmlns="http://www.w3.org/2000/svg">
<path fill-rule="evenodd" clip-rule="evenodd" d="M8 9.29169C7.96673 9.25948 7.92885 9.22164 7.88215 9.17493L4.35355 5.64633C4.15829 5.45107 3.84171 5.45107 3.64645 5.64633C3.45118 5.8416 3.45118 6.15818 3.64645 6.35344L7.17504 9.88204C7.18043 9.88742 7.18584 9.89284 7.19127 9.89828C7.28793 9.99501 7.39244 10.0996 7.49256 10.176C7.60985 10.2655 7.77769 10.3618 8 10.3618C8.22231 10.3618 8.39015 10.2655 8.50744 10.176C8.60756 10.0996 8.71207 9.99501 8.80873 9.89828C8.81416 9.89284 8.81957 9.88742 8.82496 9.88204L12.3536 6.35344C12.5488 6.15818 12.5488 5.8416 12.3536 5.64633C12.1583 5.45107 11.8417 5.45107 11.6464 5.64633L8.11785 9.17493C8.07115 9.22164 8.03327 9.25948 8 9.29169Z" fill="white"/>
</svg>
