<svg width="16" height="16" viewBox="0 0 16 16" fill="none" xmlns="http://www.w3.org/2000/svg">
<path fill-rule="evenodd" clip-rule="evenodd" d="M8 6.70831C7.96673 6.74052 7.92885 6.77836 7.88215 6.82507L4.35355 10.3537C4.15829 10.5489 3.84171 10.5489 3.64645 10.3537C3.45118 10.1584 3.45118 9.84182 3.64645 9.64656L7.17504 6.11796C7.18043 6.11258 7.18584 6.10716 7.19127 6.10172C7.28793 6.00499 7.39244 5.9004 7.49256 5.82401C7.60985 5.73452 7.77769 5.63818 8 5.63818C8.22231 5.63818 8.39015 5.73452 8.50744 5.82401C8.60756 5.9004 8.71207 6.00499 8.80873 6.10172C8.81416 6.10716 8.81957 6.11258 8.82496 6.11796L12.3536 9.64656C12.5488 9.84182 12.5488 10.1584 12.3536 10.3537C12.1583 10.5489 11.8417 10.5489 11.6464 10.3537L8.11785 6.82507C8.07115 6.77836 8.03327 6.74052 8 6.70831Z" fill="white"/>
</svg>
