<svg width="195" height="22" viewBox="0 0 195 22" fill="none" xmlns="http://www.w3.org/2000/svg">
<g filter="url(#filter0_f_135323_40231)">
<path d="M4.2168 11.5086C4.2168 11.5086 16.5056 8.78581 19.7288 10.4573C22.952 12.1288 24.5294 13.0638 29.2435 10.8441C35.1361 8.06947 37.2601 17.1677 50.0046 15.1029C62.7491 13.038 68.7102 5.03668 76.2472 5.23026C83.7843 5.42384 92.2638 17.7283 101.175 15.8443C110.087 13.9604 111.905 7.61864 123.454 6.42445C135.002 5.23027 137.912 11.0488 144.914 10.9631C151.916 10.8775 155.651 1.51138 162.59 6.42445C175.082 15.2698 181.969 10.9631 190.297 10.9631" stroke="white" stroke-width="2"/>
</g>
<defs>
<filter id="filter0_f_135323_40231" x="0" y="0" width="194.297" height="21.0405" filterUnits="userSpaceOnUse" color-interpolation-filters="sRGB">
<feFlood flood-opacity="0" result="BackgroundImageFix"/>
<feBlend mode="normal" in="SourceGraphic" in2="BackgroundImageFix" result="shape"/>
<feGaussianBlur stdDeviation="2" result="effect1_foregroundBlur_135323_40231"/>
</filter>
</defs>
</svg>
