<svg width="38" height="38" viewBox="0 0 38 38" fill="none" xmlns="http://www.w3.org/2000/svg">
<g clip-path="url(#clip0_135720_2258)">
<path d="M20.8793 5.24037C28.2219 6.53507 33.1246 13.537 31.83 20.8795C30.5353 28.2221 23.5334 33.1249 16.1908 31.8302C8.84822 30.5355 3.94545 23.5336 5.24014 16.191C6.53484 8.84845 13.5367 3.94568 20.8793 5.24037Z" stroke="white"/>
<path d="M23.9882 22.4133C23.8744 22.3932 23.7573 22.4716 23.6161 22.6631C22.0187 24.8417 19.6886 26.1716 17.3367 25.7569C14.6173 25.2774 13.3661 22.5256 13.9641 19.1342C14.977 13.3895 18.7635 10.6324 21.5749 11.1281C22.8886 11.3598 23.5453 12.3268 23.3136 13.6406C23.0387 15.1998 22.0072 15.8692 21.9103 16.4191C21.8667 16.666 21.9939 16.8425 22.2984 16.8962C23.5217 17.1119 25.2053 15.9594 25.5555 13.9737C25.895 12.0482 24.4687 10.3375 21.6574 9.84179C17.0112 9.02253 12.1224 12.6019 11.0715 18.5619C10.258 23.1753 12.3549 26.6884 16.4197 27.4051C20.734 28.1659 23.9855 24.3133 24.2312 22.92C24.2856 22.6115 24.1528 22.4423 23.9882 22.4133Z" fill="white"/>
</g>
<defs>
<clipPath id="clip0_135720_2258">
<rect width="32" height="32" fill="white" transform="translate(5.55674) rotate(10)"/>
</clipPath>
</defs>
</svg>
