<svg xmlns="http://www.w3.org/2000/svg" viewBox="0 0 28 40" fill="none" aria-hidden="true">
<path d="M21.9467 1H22.7238C24.0313 1.20743 25.051 1.61251 25.8537 2.70639C28.3277 6.07783 27.5488 14.0524 27.3896 18.0969C27.36 18.8497 27.3583 19.6089 27.3691 20.3622C27.3746 20.7438 27.4398 21.2141 27.3793 21.5863C27.3661 21.6672 27.3257 21.6955 27.2593 21.7429L27.2284 21.7646C26.913 23.3901 26.6597 24.3063 25.8543 25.8084C25.1065 27.239 23.9934 28.3274 22.9466 29.5355C20.6957 32.1334 18.406 34.4712 15.5267 36.414C12.4255 38.5065 7.46397 40.7599 4.80704 36.7654C3.05962 34.1382 2.7942 30.607 2.54366 27.5644C2.48044 26.7359 2.5306 25.6254 2.42871 24.8612V18.3015C2.47239 18.2701 2.54119 18.2093 2.55162 18.158C2.6802 17.5251 2.80094 16.923 2.99277 16.3053C3.39001 15.0136 4.00564 13.7977 4.81354 12.7092C5.94884 11.1679 7.34844 10.112 8.77137 8.81913C12.0476 5.84227 15.6353 2.77141 19.947 1.40487C20.6143 1.19337 21.26 1.10665 21.9467 1ZM3.35211 21.7174C4.29856 24.9976 5.63577 27.5993 8.36283 29.7408C8.53466 29.7556 8.74042 29.7789 8.91013 29.7784C14.9281 29.519 23.2974 18.1292 26.496 18.2179C25.7311 15.529 24.532 13.0787 22.4417 11.1609C21.9253 11.0553 21.443 10.9632 20.9157 11.039C15.4054 11.3444 6.51678 22.0029 3.35211 21.7174ZM4.56089 21.2168C6.10325 20.4586 7.38284 19.3502 8.7646 18.2798C12.1198 15.6806 15.7316 12.2094 19.8714 10.9665C20.5133 10.7737 21.1938 10.767 21.8436 10.7858C21.2141 10.6262 20.7592 10.524 20.0958 10.56C14.1798 11.2892 8.87497 18.0799 3.87036 20.9041C3.71041 20.9944 3.39069 20.9284 3.21519 21.0427L3.16997 21.1147C3.20648 21.2206 3.2425 21.4045 3.35289 21.4493C3.67173 21.5785 4.27266 21.3604 4.56089 21.2168ZM4.44912 20.3069C9.11028 17.4261 15.2065 10.0273 21.06 10.3526C20.2961 10.1558 19.8213 10.0665 19.0238 10.1178C17.5466 10.3384 16.4324 10.7313 15.1237 11.4362C11.1133 13.5966 7.8802 16.8319 4.37299 19.6652C3.94908 20.0077 3.4995 20.1941 3.065 20.486C3.02094 20.591 3.02474 20.5434 3.07179 20.6742C3.41375 20.9813 4.11349 20.5129 4.44912 20.3069ZM4.38526 19.3401C6.97566 17.2485 9.39404 14.9273 12.1375 13.0088C14.2911 11.5027 16.9816 9.82316 19.723 9.8677C19.8413 9.86964 20.1004 9.92854 20.1926 9.87696C19.5169 9.67532 18.5793 9.63507 17.8801 9.68324C12.1162 10.6197 7.13256 16.1504 3.02767 19.8897C2.986 19.9277 2.96008 20.0316 2.95397 20.0845L2.99005 20.1986L3.03143 20.215C3.72228 19.8896 3.82229 19.7206 4.38526 19.3401ZM9.00792 30.038L9.52318 30.0965C13.8413 30.1315 19.2381 24.6305 22.3531 21.9263C23.5629 20.8761 25.1183 19.27 26.6664 18.8287C26.6273 18.6845 26.6119 18.5577 26.4931 18.4696C26.3559 18.4302 26.3323 18.4377 26.195 18.4644C25.365 18.5872 24.1492 19.5267 23.4871 20.0683C20.6129 22.4194 18.0021 25.0777 14.9921 27.2699C13.1076 28.6424 11.3757 29.734 9.00792 30.038ZM17.8486 33.6616C17.8496 33.661 18.3843 33.341 18.3008 33.3542L18.2204 33.4506L18.2236 33.3418C18.1405 33.3738 17.8912 33.5361 17.8171 33.5901C15.3557 34.8414 12.7605 35.6315 9.98511 34.7802C7.53377 34.0283 5.77543 31.991 4.64034 29.7996C4.22062 28.9893 3.8277 28.0377 3.56622 27.1601C3.55577 27.125 3.56593 27.1446 3.53539 27.11C3.40056 27.47 4.49714 30.2758 4.73652 30.8061C6.9383 35.6841 10.8832 37.0349 15.7683 34.7989C16.4876 34.4679 17.1827 34.0879 17.8486 33.6616ZM26.6292 19.0873C25.1016 19.4555 21.6917 22.9173 20.341 24.0626C17.4488 26.5152 14.5393 29.3314 10.7114 30.261C10.5441 30.3016 9.98619 30.3058 9.89717 30.3579L10.1096 30.3864C13.598 30.6206 17.4862 27.466 19.967 25.3263C20.9191 24.4966 21.8548 23.6488 22.7736 22.7832C23.7111 21.9091 25.7567 19.866 26.8162 19.4116C26.7738 19.2552 26.7872 19.2038 26.6881 19.1022L26.6292 19.0873ZM2.95102 18.1315C3.43768 17.4141 3.67547 16.9015 4.24736 16.1375C6.84183 12.7513 11.0641 9.26951 15.4648 8.61223C16.6619 8.43343 17.0401 8.5489 18.1592 8.62161C17.3195 8.31156 15.9583 8.29422 15.0585 8.33871C14.5944 8.38364 14.1227 8.4427 13.6669 8.53956C8.98217 9.53484 4.35226 13.5908 2.95102 18.1315ZM3.30414 27.4652C3.31633 27.8275 3.52945 28.7542 3.62389 29.1291C4.174 31.3133 5.03557 33.7319 6.7315 35.3059C7.93643 36.4242 9.3481 36.8848 10.9831 36.7975C12.5107 36.7161 14.0103 36.1612 15.3597 35.4659C15.8128 35.2324 16.2279 34.9635 16.6611 34.735C16.7723 34.6609 17.0085 34.5179 17.0829 34.4236C16.6597 34.607 16.3258 34.8277 15.9183 35.0097C13.78 35.9643 11.2824 36.5409 9.01985 35.6516C5.83755 34.3853 4.26008 30.9398 3.43658 27.8677C3.40759 27.7596 3.35908 27.5546 3.30414 27.4652ZM18.5847 32.8548C18.6622 32.8109 18.8053 32.7346 18.8731 32.6857L18.8651 32.6556L18.9175 32.654L18.9111 32.6327C17.8735 33.0268 16.9626 33.5893 15.8463 33.8247C15.3552 33.9283 14.9363 34.0194 14.4357 34.092C9.9767 34.7384 6.23804 31.9545 4.3701 28.1434C4.29554 27.9913 3.79321 26.8839 3.73762 26.8347C3.82363 27.2798 4.06777 27.8964 4.23982 28.3208C5.07882 30.3904 6.29552 32.3554 8.17646 33.6465C11.2213 35.7366 15.0238 34.9139 18.016 33.1992C18.209 33.0886 18.4 32.9807 18.5847 32.8548ZM26.377 6.16119C26.8381 7.6557 27.1054 9.13509 27.2209 10.6936C27.2378 10.9229 27.3077 12.121 27.3557 12.2024C27.4276 11.6087 27.3629 10.5274 27.3418 9.91678C27.2273 6.6086 26.6916 0.922839 22.066 1.25946C20.085 1.34819 18.1023 2.30631 16.4021 3.24661C16.3868 3.25509 16.3777 3.27639 16.3701 3.29113C16.3938 3.29057 17.5032 2.8065 17.618 2.75897C20.9098 1.39562 24.3345 1.51943 25.9571 5.11386C26.1005 5.43159 26.2303 5.84888 26.377 6.16119ZM26.8019 19.6705C26.0235 20.0746 24.9715 21.0713 24.3141 21.6799L21.9694 23.8634C19.1308 26.4753 15.6162 29.614 11.7343 30.5445C11.5665 30.5847 10.7963 30.6333 10.7259 30.6807L10.7866 30.7076C13.064 30.8239 14.8794 30.0576 16.7717 28.8872C20.5279 26.564 23.5243 23.2973 26.5944 20.19C26.6945 20.0885 26.8425 19.9979 26.8884 19.8623C26.861 19.7225 26.8867 19.7683 26.8019 19.6705ZM15.8885 35.5671C16.004 35.4893 16.267 35.322 16.3552 35.2333C15.3647 35.7355 14.6341 36.1247 13.5833 36.5026C9.79189 37.8659 6.64508 36.7136 4.80736 33.1234C3.87116 31.2944 3.57255 29.946 3.11609 27.9841C3.11661 28.5476 3.25932 29.1963 3.35852 29.7511C4.78222 37.7136 8.764 39.9052 15.8885 35.5671ZM16.3064 8.77528C11.1554 9.01646 4.59154 14.5498 2.8033 19.1699C3.20007 18.5631 3.60394 18.1436 3.98423 17.6071C6.48434 14.7429 9.43028 12.0437 12.8431 10.2816C14.3811 9.4875 16.2082 8.91029 17.9488 8.97066C18.1836 8.97881 18.4613 9.06028 18.6874 9.0222L18.6885 8.9956C17.888 8.81217 17.1312 8.72512 16.3064 8.77528ZM25.1987 7.86521C26.0732 9.54165 26.4733 11.2271 26.8382 13.0575C26.8844 12.7917 26.7487 12.0322 26.7076 11.7387C26.2516 8.47591 25.0669 3.84728 21.1899 3.21408C20.708 3.13796 20.2185 3.12 19.7321 3.1606C18.0761 3.27012 16.4542 3.90174 14.9872 4.64003C14.8484 4.70989 14.2692 5.00326 14.2044 5.0928C14.7665 4.89897 15.299 4.63048 15.8702 4.43709C17.8201 3.77686 19.9873 3.52624 21.9048 4.43068C23.246 5.06327 24.6131 6.51147 25.1987 7.86521ZM26.9063 20.2367C25.8946 21.1542 24.9913 22.2281 23.9958 23.1864C20.7983 26.2648 17.2032 29.815 12.7125 30.8535C12.5778 30.8846 11.551 30.9812 11.546 30.988L11.5896 30.9921C14.5121 31.3693 17.6364 29.5447 19.8741 27.8423C22.1521 26.0789 24.1972 24.0399 25.9614 21.7731C26.2611 21.3825 26.7438 20.7504 26.9495 20.3176L26.9371 20.2475L26.9063 20.2367ZM19.5531 8.76304C19.3562 8.66405 18.9694 8.48129 18.7526 8.52479C18.9306 8.60847 19.3629 8.7594 19.5531 8.76304ZM14.9903 36.4667C15.0819 36.4099 15.3192 36.281 15.3618 36.2011C15.0514 36.3332 14.7822 36.4971 14.489 36.6508C12.5601 37.6621 9.91463 38.527 7.78297 37.665C4.52311 36.3468 3.48002 32.1039 2.98121 29.0039C2.9534 28.831 2.94177 28.6125 2.875 28.4568C2.85398 29.0065 2.9831 29.9205 3.06109 30.4821C3.50769 33.6979 4.55911 38.5449 8.64142 38.7267C10.4399 38.8044 12.2455 38.0244 13.7987 37.1896C14.0931 37.0317 14.735 36.6694 14.9903 36.4667ZM17.4763 9.21239C12.9487 9.3813 8.21851 13.4361 5.27371 16.5385C4.53244 17.3195 3.18773 18.8553 2.71424 19.8077C3.12257 19.4871 3.52823 19.1041 3.90197 18.7424C7.4393 15.3152 13.3484 9.54992 18.5935 9.42128C18.8477 9.41502 19.0634 9.49261 19.3415 9.43303C19.0495 9.28008 17.8404 9.21204 17.4763 9.21239ZM5.04008 27.668C4.80336 27.2683 4.46602 26.6327 4.2208 26.2771L4.16726 26.2768L4.17889 26.2259L4.1569 26.2395C4.25554 26.5594 4.77122 27.4256 4.96634 27.7431C5.12329 27.9547 5.26469 28.1786 5.42182 28.3934C7.1219 30.7168 9.44217 32.3326 12.3363 32.833C15.2113 33.33 18.5118 32.4472 20.8683 30.7797C20.8501 30.7696 19.5976 31.3418 19.453 31.4001C17.4273 32.2164 15.0681 32.4514 12.913 32.0974C10.8516 31.7587 9.24094 31.0024 7.51967 29.8631C7.22158 29.6658 6.90386 29.4994 6.60692 29.3011C5.95712 28.8671 5.49047 28.2911 5.04008 27.668ZM12.1777 31.303C17.5945 32.0307 23.7216 26.591 26.2689 22.2795C26.3996 22.0583 26.9044 21.1857 26.8429 20.9808C24.0821 24.8849 18.6745 30.223 13.6928 31.1648C13.1729 31.2631 12.6786 31.2871 12.1529 31.2965L12.1777 31.303ZM17.4404 5.05314C15.6159 5.23273 13.5077 5.90457 11.971 6.88901L11.9825 6.91272C12.2847 6.79928 12.5769 6.66774 12.877 6.55002C15.3148 5.5938 18.1153 5.36414 20.5511 6.46056C21.8129 7.02858 22.8566 7.86601 23.7606 8.896C23.8211 8.96496 24.0825 9.27604 24.1016 9.33158C24.9146 10.3487 25.5218 11.5192 26.0228 12.7128C26.0553 12.7902 26.3757 13.6923 26.3772 13.7249L26.4165 13.7419C26.4267 13.5374 26.2148 12.9295 26.1511 12.6973C25.1494 9.04365 22.7368 5.15878 18.47 5.03421C18.1619 5.02523 17.7467 5.01027 17.4404 5.05314ZM25.4304 25.2254C23.0684 28.5432 19.5599 31.258 15.3873 31.8385C15.2125 31.8629 14.1484 31.9377 14.0912 31.977C14.8377 32.0034 15.4873 32.0079 16.2368 31.9352C18.5911 31.7069 21.1612 30.6043 22.9085 29.0301C23.5132 28.4852 25.0292 26.0668 25.4325 25.2833L25.4304 25.2254ZM23.6573 10.0792C24.4778 10.9843 25.1574 11.9256 25.7078 13.015C25.7924 13.1824 26.0408 13.7643 26.1211 13.8524C26.1548 13.7887 26.1421 13.7464 26.1175 13.6762C25.1502 10.9147 23.5336 8.25816 20.8301 6.86542C19.2759 6.06469 17.8496 5.91312 16.1401 6.00226C14.5705 6.23141 13.3605 6.52366 11.9254 7.2324C11.5985 7.39386 11.1713 7.57693 10.8757 7.78387C10.9185 7.79222 12.4423 7.22092 12.6827 7.15271C15.8634 6.24986 19.1411 6.63025 21.8859 8.53801C22.5036 8.96737 23.1687 9.50377 23.6573 10.0792ZM15.0253 6.95345C13.436 7.08356 11.8861 7.56846 10.4583 8.26418C10.2209 8.37984 9.80967 8.58619 9.62834 8.75909C10.4115 8.46819 10.8441 8.25155 11.6967 8.02553C14.4823 7.29977 17.4358 7.54522 20.0597 8.72053C21.1562 9.21517 22.1736 9.8656 23.0797 10.6512C24.4132 11.7715 25.0919 12.782 25.9474 14.2328C26.0013 14.0538 25.5876 13.3422 25.496 13.1516C23.6252 9.25653 19.5058 6.44556 15.0253 6.95345ZM14.5588 7.8649C12.4497 7.98887 9.3819 8.63567 7.85882 10.2457C7.4216 10.7079 5.6401 12.8112 5.46835 13.2851C6.24996 12.4423 6.80178 11.907 7.68919 11.1762C10.4465 9.03387 13.805 7.65661 17.3524 8.18315C17.5464 8.21197 18.1427 8.37101 18.272 8.34786C17.519 8.03618 15.3616 7.78823 14.5588 7.8649ZM19.5909 31.9072C19.7103 31.8347 19.8818 31.7397 19.9792 31.6468C19.3922 31.9086 18.7998 32.206 18.209 32.4368C12.62 34.6207 6.76842 32.0473 4.14361 26.8299C4.06792 26.6795 3.91582 26.3674 3.82162 26.2435C3.94009 26.7036 4.21592 27.2866 4.42592 27.7172C5.41663 29.7491 6.83902 31.5767 8.80998 32.7557C12.1117 34.7307 16.1127 33.9962 19.2596 32.126C19.3109 32.0956 19.5628 31.9429 19.5909 31.9072ZM24.6345 8.59026C25.2465 9.62252 25.7391 10.6023 26.1146 11.7442C26.1618 11.8876 26.5527 13.171 26.5652 13.187C26.5959 12.872 26.4106 12.2216 26.3427 11.905C25.5955 8.42441 23.7544 4.34284 19.6285 4.0934C19.4266 4.0812 18.7759 4.05071 18.5853 4.10313C17.3758 4.2251 16.1915 4.52518 15.0718 4.9934C14.7013 5.14715 13.4233 5.73995 13.1506 5.95065L13.1557 5.99047C13.281 5.96672 13.3756 5.89527 13.4908 5.84456C16.2372 4.63563 19.5533 4.1999 22.1606 5.99003C23.2389 6.7304 23.927 7.54803 24.6345 8.59026ZM13.0951 31.6163C13.4496 31.7149 14.0318 31.6955 14.4032 31.6822C16.2809 31.6089 18.1493 30.9991 19.778 30.0798C22.483 28.553 24.8566 26.1643 26.212 23.3806C26.3429 23.1116 26.8229 22.1046 26.7587 21.8897C24.775 25.6864 20.2376 29.838 16.06 31.1448C14.9853 31.4809 14.2052 31.5839 13.0951 31.6163ZM26.8912 11.322C26.9545 11.5446 27.0143 12.5689 27.0952 12.6665C27.1056 12.288 27.0496 11.6961 27.0242 11.3057C26.9199 7.77877 25.7401 1.87635 21.0553 2.198C19.3491 2.31514 16.6113 3.19706 15.2266 4.22435C15.4521 4.18345 16.4378 3.71364 16.7517 3.59959C18.5901 2.93161 20.7773 2.51936 22.6186 3.39971C25.546 4.79939 26.4058 8.43692 26.8912 11.322Z" fill="#ffffff"/>
<path d="M4.96666 27.7437C4.77155 27.4262 4.25587 26.5601 4.15723 26.2402L4.17922 26.2266L4.16759 26.2775L4.22113 26.2777C4.46634 26.6334 4.80368 27.269 5.0404 27.6687L4.96666 27.7437Z" fill="#ffffff"/>
<path d="M26.8906 11.323L27.0237 11.3066C27.0491 11.697 27.105 12.289 27.0946 12.6674C27.0138 12.5699 26.9539 11.5456 26.8906 11.323Z" fill="#ffffff"/>
<path d="M18.7529 8.52416C18.9698 8.48066 19.3565 8.66341 19.5535 8.76241C19.3633 8.75877 18.931 8.60784 18.7529 8.52416Z" fill="#ffffff"/>
<path d="M17.8174 33.5901C17.8915 33.5361 18.1408 33.3738 18.224 33.3418L18.2208 33.4506L18.3011 33.3542C18.3847 33.341 17.8499 33.661 17.849 33.6615L17.8174 33.5901Z" fill="#ffffff"/>
</svg>