<svg width="175" height="64" viewBox="0 0 175 64" fill="none" xmlns="http://www.w3.org/2000/svg">
<path d="M128.985 27.0424C133.08 26.6094 136.752 29.5446 137.18 33.5925C137.608 37.6405 134.629 41.2628 130.533 41.676C126.451 42.0879 122.802 39.1562 122.375 35.1222C121.948 31.0881 124.905 27.4738 128.985 27.0424ZM130.456 38.7972C131.69 38.4851 132.615 37.9914 133.361 36.7662C135.163 33.8059 133.039 29.47 129.29 29.9219C129.277 29.9252 129.264 29.9286 129.251 29.9319C126.654 30.3354 125.226 32.6991 125.63 35.1884C125.819 36.3521 126.465 37.3948 127.43 38.0882C128.345 38.742 129.347 38.9213 130.456 38.7972Z" fill="white"/>
<path d="M80.33 27.0437C84.4229 26.604 88.0994 29.5324 88.5345 33.5791C88.9702 37.6258 85.9991 41.253 81.9042 41.6738C77.8228 42.0934 74.1675 39.1682 73.7337 35.1349C73.2999 31.1015 76.2505 27.482 80.33 27.0437ZM81.8536 38.7832C85.9402 37.7714 86.6052 32.6145 83.1415 30.4011C82.552 30.0244 81.2981 29.7642 80.6087 29.9327C78.0445 30.3083 76.5894 32.6895 76.9777 35.142C77.1578 36.3267 77.8107 37.3905 78.7903 38.0952C79.6925 38.7371 80.7612 38.9438 81.8536 38.7832Z" fill="white"/>
<path d="M155.985 19.397C156.223 19.7818 156.586 20.6365 156.793 21.0713C157.336 22.213 157.845 23.39 158.395 24.5286L163.755 35.8959C164.554 37.5933 165.364 39.3959 166.205 41.0586L162.548 41.0542C162.46 40.8143 162.334 40.534 162.225 40.301C161.522 38.7895 160.9 37.1979 160.162 35.706H156.091H151.816C151.011 37.4952 150.194 39.2796 149.368 41.0591H145.792C146.057 40.3237 146.816 38.8353 147.177 38.0652L150.1 31.9037C152.063 27.8152 153.956 23.4329 155.985 19.397ZM153.095 32.8573H156.091H158.957C158.211 31.2244 157.464 29.5886 156.733 27.948C156.528 27.4877 156.155 26.1192 155.988 25.8254C155.576 27.5461 154.882 28.9641 154.148 30.5597C153.821 31.269 153.447 32.1773 153.095 32.8573Z" fill="white"/>
<path d="M63.5705 19.7384C66.59 19.7093 68.3006 20.264 70.8398 21.8561C70.7353 23.0041 70.7392 24.1423 70.6142 25.2732C69.3321 24.2808 68.1301 23.5486 66.5328 23.1477C64.367 22.6044 61.9329 22.7633 59.9879 23.9064C58.3013 24.907 57.0888 26.532 56.6197 28.4202C56.0757 30.5413 56.3114 33.0955 57.464 34.9958C58.4325 36.6255 60.0201 37.8045 61.8731 38.2705C64.197 38.8416 66.794 38.3168 68.826 37.1052C69.3437 36.864 70.1593 36.2216 70.5899 35.8472V39.7087C70.3368 39.8515 70.0991 40.0127 69.8492 40.1559C65.6992 42.5398 59.8063 42.0279 56.2545 38.8037C51.8457 34.8018 51.5813 27.5186 55.642 23.1987C57.818 20.8837 60.4278 19.8659 63.5705 19.7384Z" fill="white"/>
<path d="M99.3064 27.1609C101.719 26.8434 104.468 27.6159 104.99 30.2584C105.251 31.5785 105.165 33.3017 105.165 34.6668L105.163 41.0563H101.996L102 35.808C102.001 34.7173 102.059 33.5132 101.922 32.454C101.746 31.0985 101.45 30.1228 99.9593 29.8415C98.5658 29.5789 97.5906 29.7936 96.4142 30.5163C96.3174 30.6065 96.2213 30.6981 96.1272 30.7911C94.8175 32.0904 95.0937 34.7825 95.0937 36.5327L95.0969 41.0563H91.9746V27.5758H94.9271V29.7648C96.0368 28.1824 97.3381 27.3127 99.3064 27.1609Z" fill="white"/>
<path d="M106.994 27.5784L110.401 27.5781C111.437 30.2708 112.898 32.8988 113.845 35.6365C113.97 35.9951 113.948 36.2723 114.116 36.648C114.088 36.6748 114.921 34.384 115.043 34.11C116.006 31.9372 116.929 29.7425 117.913 27.5781H121.321C120.77 28.5709 120.135 29.9165 119.614 30.9494C119.165 31.9983 118.254 33.672 117.712 34.7527L114.131 41.8643C112.125 38.0292 110.284 34.075 108.299 30.2272C107.861 29.3777 107.368 28.4512 106.994 27.5784Z" fill="white"/>
<path d="M168.024 27.5781H171.183V41.0586H168.024V27.5781Z" fill="white"/>
<path d="M140.765 27.5781H143.893V41.0586H140.765V27.5781Z" fill="white"/>
<path d="M141.797 19.8704C142.849 19.5835 143.937 20.1973 144.222 21.2391C144.508 22.2808 143.882 23.3533 142.827 23.6305C141.779 23.906 140.702 23.2922 140.418 22.2572C140.135 21.2222 140.751 20.1554 141.797 19.8704Z" fill="white"/>
<path d="M169.077 19.8677C169.762 19.684 170.494 19.8791 170.993 20.3783C171.492 20.8775 171.681 21.6036 171.486 22.2786C171.293 22.9537 170.746 23.4733 170.056 23.6387C169.009 23.8896 167.952 23.2624 167.684 22.2309C167.417 21.1994 168.037 20.1464 169.077 19.8677Z" fill="white"/>
<path d="M35.1155 1.6001H36.3588C38.4509 1.93198 40.0824 2.58012 41.3667 4.33032C45.3251 9.72463 44.0789 22.484 43.8242 28.9551C43.7767 30.1596 43.7741 31.3744 43.7914 32.5797C43.8001 33.1901 43.9044 33.9426 43.8076 34.5382C43.7866 34.6676 43.7219 34.7129 43.6156 34.7887L43.5662 34.8235C43.0616 37.4242 42.6562 38.8902 41.3677 41.2936C40.1712 43.5824 38.3902 45.3239 36.7153 47.2569C33.1139 51.4135 29.4504 55.154 24.8434 58.2625C19.8817 61.6105 11.9431 65.2159 7.69204 58.8247C4.89617 54.6213 4.47149 48.9713 4.07064 44.1031C3.96949 42.7776 4.04974 41.0007 3.88672 39.7781V29.2825C3.95661 29.2323 4.06668 29.135 4.08337 29.0528C4.2891 28.0402 4.48229 27.0769 4.78921 26.0886C5.4248 24.0219 6.4098 22.0765 7.70245 20.3349C9.51893 17.8687 11.7583 16.1794 14.035 14.1107C19.2769 9.34773 25.0172 4.43435 31.916 2.24788C32.9837 1.90949 34.0168 1.77073 35.1155 1.6001ZM5.36416 34.748C6.87848 39.9963 9.01802 44.159 13.3813 47.5854C13.6562 47.6091 13.9854 47.6464 14.257 47.6455C23.8857 47.2306 37.2766 29.0068 42.3944 29.1487C41.1706 24.8465 39.252 20.9259 35.9075 17.8576C35.0812 17.6885 34.3095 17.5413 33.4659 17.6626C24.6494 18.1512 10.4276 35.2047 5.36416 34.748ZM7.29821 33.947C9.76598 32.7338 11.8133 30.9605 14.0241 29.2478C19.3924 25.089 25.1713 19.5352 31.795 17.5464C32.822 17.238 33.9109 17.2273 34.9506 17.2574C33.9433 17.002 33.2155 16.8385 32.154 16.896C22.6885 18.0628 14.2007 28.9279 6.19336 33.4466C5.93744 33.5911 5.42588 33.4856 5.14508 33.6685L5.07274 33.7836C5.13115 33.953 5.18878 34.2474 5.3654 34.3189C5.87555 34.5258 6.83704 34.1767 7.29821 33.947ZM7.11937 32.4911C14.5772 27.8819 24.3312 16.0437 33.6968 16.5642C32.4745 16.2494 31.7149 16.1065 30.4388 16.1886C28.0754 16.5416 26.2926 17.1702 24.1987 18.2981C17.782 21.7547 12.6091 26.9312 6.99756 31.4644C6.31932 32.0124 5.59999 32.3106 4.90479 32.7777C4.83428 32.9457 4.84037 32.8695 4.91565 33.0788C5.46279 33.5701 6.58237 32.8207 7.11937 32.4911ZM7.01719 30.9443C11.1618 27.5977 15.0312 23.8838 19.4208 20.8141C22.8666 18.4044 27.1714 15.7172 31.5575 15.7884C31.7468 15.7915 32.1614 15.8858 32.309 15.8032C31.2278 15.4806 29.7276 15.4162 28.6089 15.4933C19.3866 16.9917 11.4129 25.8407 4.84505 31.8237C4.77838 31.8844 4.73691 32.0507 4.72713 32.1353L4.78486 32.3179L4.85106 32.3441C5.95642 31.8235 6.11644 31.5531 7.01719 30.9443ZM14.4135 48.0609L15.2379 48.1545C22.1469 48.2105 30.7817 39.4089 35.7658 35.0822C37.7014 33.4018 40.19 30.8322 42.667 30.126C42.6045 29.8953 42.5798 29.6925 42.3897 29.5514C42.1702 29.4884 42.1324 29.5005 41.9127 29.5431C40.5848 29.7395 38.6395 31.2428 37.5801 32.1094C32.9815 35.8712 28.8041 40.1244 23.9882 43.6319C20.9729 45.8279 18.2019 47.5745 14.4135 48.0609ZM28.5586 53.8586C28.5602 53.8578 29.4157 53.3458 29.2821 53.3669L29.1535 53.521L29.1586 53.347C29.0256 53.3982 28.6267 53.6579 28.5081 53.7443C24.5699 55.7463 20.4176 57.0106 15.9769 55.6484C12.0548 54.4453 9.24147 51.1857 7.42532 47.6794C6.75377 46.3829 6.1251 44.8604 5.70674 43.4562C5.69001 43.4001 5.70626 43.4314 5.65741 43.3761C5.44167 43.9521 7.1962 48.4414 7.57922 49.2899C11.1021 57.0947 17.414 59.2559 25.2301 55.6783C26.3809 55.1487 27.4931 54.5407 28.5586 53.8586ZM42.6075 30.5398C40.1634 31.1289 34.7075 36.6678 32.5464 38.5003C27.9189 42.4244 23.2637 46.9303 17.1391 48.4176C16.8714 48.4827 15.9787 48.4894 15.8362 48.5727L16.1762 48.6184C21.7575 48.993 27.9787 43.9457 31.948 40.5221C33.4713 39.1946 34.9684 37.8381 36.4385 36.4532C37.9385 35.0547 41.2115 31.7857 42.9068 31.0586C42.8389 30.8085 42.8604 30.7262 42.7018 30.5636L42.6075 30.5398ZM4.72241 29.0106C5.50107 27.8627 5.88154 27.0424 6.79656 25.82C10.9477 20.4022 17.7033 14.8313 24.7444 13.7797C26.6598 13.4936 27.2649 13.6783 29.0556 13.7947C27.712 13.2986 25.5341 13.2708 24.0944 13.342C23.3519 13.4139 22.5972 13.5084 21.8678 13.6634C14.3723 15.2558 6.9644 21.7454 4.72241 29.0106ZM5.28741 43.9444C5.30691 44.5241 5.6479 46.0068 5.79901 46.6067C6.67919 50.1014 8.05769 53.9711 10.7712 56.4895C12.6991 58.2788 14.9577 59.0158 17.5737 58.8762C20.0179 58.7458 22.4173 57.858 24.5763 56.7456C25.3013 56.372 25.9654 55.9417 26.6585 55.5761C26.8365 55.4576 27.2143 55.2287 27.3334 55.0779C26.6564 55.3714 26.1221 55.7245 25.4701 56.0156C22.0488 57.5429 18.0526 58.4655 14.4325 57.0426C9.34085 55.0166 6.8169 49.5038 5.49931 44.5885C5.45293 44.4155 5.3753 44.0875 5.28741 43.9444ZM29.7363 52.5678C29.8603 52.4976 30.0892 52.3754 30.1978 52.2972L30.1849 52.2491L30.2688 52.2464L30.2585 52.2124C28.5983 52.8429 27.141 53.7429 25.3549 54.1196C24.5691 54.2853 23.8988 54.4312 23.098 54.5473C15.9635 55.5816 9.98164 51.1273 6.99294 45.0295C6.87365 44.7862 6.06992 43.0143 5.98097 42.9356C6.1186 43.6478 6.50921 44.6343 6.7845 45.3134C8.12689 48.6247 10.0736 51.7687 13.0831 53.8345C17.9549 57.1787 24.0388 55.8624 28.8264 53.1189C29.1352 52.9419 29.4408 52.7692 29.7363 52.5678ZM42.204 9.85801C42.9417 12.2492 43.3694 14.6162 43.5542 17.1099C43.5813 17.4767 43.6931 19.3937 43.7699 19.5239C43.885 18.5741 43.7814 16.8439 43.7476 15.8669C43.5645 10.5739 42.7074 1.47664 35.3064 2.01523C32.1367 2.1572 28.9645 3.69019 26.2442 5.19468C26.2196 5.20824 26.2051 5.24232 26.1929 5.26591C26.2309 5.265 28.0059 4.49049 28.1896 4.41445C33.4564 2.23309 38.9359 2.43119 41.5321 8.18227C41.7616 8.69065 41.9693 9.3583 42.204 9.85801ZM42.8839 31.4729C41.6383 32.1194 39.9552 33.7142 38.9034 34.6879L35.1517 38.1815C30.61 42.3605 24.9866 47.3825 18.7756 48.8713C18.5071 48.9356 17.2748 49.0134 17.1623 49.0891L17.2594 49.1322C20.9032 49.3184 23.8078 48.0922 26.8355 46.2196C32.8455 42.5025 37.6397 37.2757 42.5519 32.304C42.712 32.1417 42.9487 31.9967 43.0223 31.7797C42.9783 31.5561 43.0195 31.6293 42.8839 31.4729ZM25.4223 56.9075C25.6072 56.783 26.0279 56.5154 26.169 56.3734C24.5843 57.1769 23.4153 57.7996 21.734 58.4042C15.6678 60.5855 10.6329 58.7418 7.69256 52.9975C6.19464 50.0712 5.71685 47.9137 4.98652 44.7746C4.98736 45.6763 5.21569 46.7141 5.37441 47.6018C7.65234 60.3418 14.0232 63.8483 25.4223 56.9075ZM26.0911 14.0405C17.8495 14.4264 7.34724 23.2798 4.48606 30.6719C5.1209 29.7011 5.76708 29.0298 6.37555 28.1715C10.3757 23.5887 15.0892 19.27 20.5497 16.4507C23.0105 15.1801 25.9339 14.2566 28.7189 14.3532C29.0945 14.3662 29.5389 14.4965 29.9007 14.4356L29.9023 14.3931C28.6216 14.0996 27.4108 13.9603 26.0911 14.0405ZM40.3187 12.5844C41.7179 15.2667 42.358 17.9635 42.9419 20.8921C43.0158 20.4668 42.7987 19.2515 42.733 18.782C42.0033 13.5615 40.1079 6.15574 33.9046 5.14263C33.1336 5.02083 32.3504 4.9921 31.5722 5.05705C28.9225 5.23229 26.3275 6.24288 23.9804 7.42415C23.7582 7.53593 22.8316 8.00532 22.7278 8.14858C23.6272 7.83845 24.4792 7.40887 25.393 7.09945C28.5129 6.04307 31.9805 5.64208 35.0485 7.08918C37.1944 8.10133 39.3817 10.4184 40.3187 12.5844ZM43.0509 32.3788C41.4322 33.8468 39.9869 35.565 38.3941 37.0984C33.2781 42.0237 27.5258 47.7041 20.3408 49.3657C20.1253 49.4155 18.4824 49.5701 18.4744 49.5809L18.5441 49.5875C23.2202 50.191 28.2191 47.2717 31.7994 44.5478C35.4442 41.7264 38.7164 38.464 41.5391 34.837C42.0185 34.2121 42.7909 33.2008 43.12 32.5083L43.1002 32.3961L43.0509 32.3788ZM31.2857 14.021C30.9706 13.8626 30.3518 13.5702 30.0049 13.6398C30.2897 13.7737 30.9814 14.0151 31.2857 14.021ZM23.9852 58.3468C24.1318 58.2559 24.5115 58.0497 24.5796 57.9219C24.083 58.1332 23.6523 58.3955 23.1833 58.6414C20.0969 60.2594 15.8642 61.6433 12.4535 60.2641C7.23776 58.155 5.56881 51.3663 4.77072 46.4063C4.72622 46.1297 4.70761 45.7801 4.60079 45.531C4.56715 46.4105 4.77375 47.873 4.89853 48.7715C5.61309 53.9168 7.29536 61.6719 13.8271 61.9629C16.7046 62.0872 19.5936 60.8392 22.0787 59.5035C22.5497 59.2509 23.5767 58.6711 23.9852 58.3468ZM27.9629 14.7399C20.7187 15.0102 13.1504 21.4979 8.43872 26.4617C7.25269 27.7112 5.10115 30.1685 4.34357 31.6924C4.9969 31.1794 5.64595 30.5666 6.24394 29.9879C11.9037 24.5043 21.3581 15.28 29.7504 15.0741C30.1571 15.0641 30.5023 15.1883 30.9472 15.0929C30.48 14.8482 28.5454 14.7394 27.9629 14.7399ZM8.0649 44.2689C7.68615 43.6294 7.14641 42.6125 6.75406 42.0434L6.6684 42.043L6.68701 41.9615L6.65182 41.9833C6.80964 42.4951 7.63473 43.881 7.94692 44.389C8.19805 44.7277 8.42428 45.0859 8.67569 45.4295C11.3958 49.1469 15.1083 51.7322 19.7389 52.5328C24.3389 53.328 29.6196 51.9156 33.3901 49.2476C33.361 49.2315 31.357 50.147 31.1256 50.2403C27.8844 51.5464 24.1098 51.9224 20.6615 51.3559C17.3634 50.8141 14.7863 49.604 12.0323 47.7811C11.5553 47.4654 11.047 47.1992 10.5719 46.8819C9.53218 46.1875 8.78553 45.2658 8.0649 44.2689ZM19.485 50.0849C28.1519 51.2492 37.9553 42.5457 42.031 35.6473C42.2402 35.2933 43.0478 33.8973 42.9494 33.5693C38.5321 39.8159 29.88 48.3569 21.9092 49.8638C21.0774 50.0211 20.2865 50.0595 19.4454 50.0744L19.485 50.0849ZM27.9055 8.08511C24.9862 8.37246 21.6131 9.44741 19.1544 11.0225L19.1728 11.0605C19.6564 10.8789 20.1239 10.6685 20.604 10.4801C24.5044 8.95018 28.9853 8.58273 32.8825 10.337C34.9014 11.2458 36.5714 12.5857 38.0177 14.2337C38.1145 14.344 38.5328 14.8418 38.5633 14.9306C39.8641 16.558 40.8357 18.4309 41.6373 20.3406C41.6893 20.4644 42.2018 21.9078 42.2043 21.9599L42.2673 21.9872C42.2835 21.66 41.9445 20.6874 41.8426 20.3158C40.2397 14.4699 36.3797 8.25415 29.5528 8.05484C29.0599 8.04046 28.3956 8.01652 27.9055 8.08511ZM40.6894 40.3607C36.9102 45.6693 31.2967 50.0129 24.6205 50.9418C24.3408 50.9807 22.6383 51.1004 22.5468 51.1632C23.7411 51.2056 24.7804 51.2128 25.9797 51.0964C29.7466 50.7311 33.8586 48.967 36.6543 46.4482C37.6219 45.5764 40.0475 41.7069 40.6927 40.4535L40.6894 40.3607ZM37.8525 16.1269C39.1653 17.5749 40.2527 19.0811 41.1332 20.8241C41.2686 21.092 41.666 22.0229 41.7945 22.1639C41.8485 22.062 41.8281 21.9944 41.7888 21.8821C40.241 17.4636 37.6545 13.2132 33.329 10.9848C30.8422 9.7036 28.5602 9.4611 25.8249 9.60372C23.3135 9.97036 21.3776 10.4379 19.0815 11.5719C18.5584 11.8303 17.8749 12.1232 17.4019 12.4543C17.4704 12.4677 19.9084 11.5536 20.2931 11.4444C25.3823 9.99987 30.6266 10.6085 35.0182 13.6609C36.0065 14.3479 37.0707 15.2061 37.8525 16.1269ZM24.0412 11.1256C21.4984 11.3338 19.0185 12.1096 16.734 13.2228C16.3543 13.4078 15.6962 13.738 15.4061 14.0146C16.6591 13.5492 17.3513 13.2026 18.7155 12.8409C23.1724 11.6797 27.8981 12.0725 32.0963 13.9529C33.8507 14.7444 35.4785 15.7851 36.9283 17.042C39.062 18.8345 40.1478 20.4513 41.5166 22.7726C41.6028 22.4862 40.941 21.3477 40.7944 21.0426C37.8011 14.8105 31.2101 10.313 24.0412 11.1256ZM23.2949 12.5839C19.9203 12.7823 15.0118 13.8172 12.5749 16.3932C11.8753 17.1327 9.02495 20.4981 8.75014 21.2562C10.0007 19.9077 10.8836 19.0513 12.3035 17.8821C16.7151 14.4543 22.0888 12.2507 27.7646 13.0931C28.0751 13.1392 29.0292 13.3937 29.2361 13.3567C28.0312 12.858 24.5793 12.4613 23.2949 12.5839ZM31.3462 51.0517C31.5373 50.9357 31.8116 50.7836 31.9675 50.6351C31.0284 51.0538 30.0804 51.5296 29.1351 51.8989C20.1929 55.3932 10.8303 51.2758 6.63055 42.928C6.50946 42.6873 6.2661 42.1879 6.11538 41.9897C6.30493 42.7259 6.74626 43.6586 7.08225 44.3477C8.66738 47.5987 10.9432 50.5228 14.0967 52.4092C19.3795 55.5692 25.7811 54.3939 30.8162 51.4017C30.8982 51.353 31.3013 51.1088 31.3462 51.0517ZM39.4159 13.7445C40.3952 15.3961 41.1833 16.9638 41.7841 18.7909C41.8596 19.0203 42.485 21.0738 42.5051 21.0993C42.5542 20.5953 42.2578 19.5547 42.149 19.0481C40.9536 13.4792 38.0078 6.94864 31.4063 6.54954C31.0834 6.53002 30.0422 6.48123 29.7372 6.5651C27.802 6.76026 25.9072 7.24039 24.1156 7.98954C23.5229 8.23553 21.4781 9.18401 21.0418 9.52114L21.05 9.58485C21.2504 9.54685 21.4018 9.43253 21.5861 9.3514C25.9803 7.41711 31.2861 6.71994 35.4577 9.58415C37.183 10.7687 38.2841 12.077 39.4159 13.7445ZM20.953 50.5862C21.5201 50.7439 22.4516 50.7128 23.0459 50.6917C26.0502 50.5744 29.0397 49.5986 31.6455 48.1277C35.9735 45.6848 39.7713 41.863 41.9399 37.4091C42.1495 36.9787 42.9175 35.3675 42.8147 35.0236C39.6407 41.0984 32.3809 47.7409 25.6968 49.8317C23.9773 50.3696 22.7292 50.5344 20.953 50.5862ZM43.0266 18.1153C43.1279 18.4715 43.2237 20.1103 43.353 20.2665C43.3697 19.6609 43.2802 18.7138 43.2396 18.0892C43.0726 12.4461 41.1849 3.00225 33.6893 3.51689C30.9594 3.70433 26.5789 5.11539 24.3633 6.75906C24.7242 6.69362 26.3013 5.94192 26.8035 5.75944C29.745 4.69067 33.2444 4.03108 36.1905 5.43964C40.8744 7.67912 42.25 13.4992 43.0266 18.1153Z" fill="#FF7738"/>
<path d="M7.94647 44.3898C7.63428 43.8818 6.80919 42.496 6.65137 41.9842L6.68656 41.9624L6.66795 42.0438L6.75361 42.0443C7.14596 42.6133 7.6857 43.6303 8.06445 44.2698L7.94647 44.3898Z" fill="#FF7738"/>
<path d="M43.0264 18.117L43.2393 18.0908C43.2799 18.7154 43.3694 19.6626 43.3528 20.2681C43.2235 20.112 43.1277 18.4732 43.0264 18.117Z" fill="#FF7738"/>
<path d="M30.0049 13.6385C30.3518 13.5689 30.9706 13.8613 31.2858 14.0197C30.9814 14.0138 30.2897 13.7723 30.0049 13.6385Z" fill="#FF7738"/>
<path d="M28.5078 53.744C28.6264 53.6576 29.0253 53.3979 29.1583 53.3467L29.1532 53.5207L29.2818 53.3666C29.4155 53.3455 28.5599 53.8575 28.5584 53.8583L28.5078 53.744Z" fill="#FF7738"/>
</svg>
