<svg width="24" height="24" viewBox="0 0 24 24" fill="none" xmlns="http://www.w3.org/2000/svg">
<path d="M16.1931 0.492188H16.6641C17.4567 0.617918 18.0748 0.863461 18.5613 1.52651C20.0609 3.5701 19.5888 8.4039 19.4923 10.8554C19.4743 11.3117 19.4733 11.7719 19.4799 12.2286C19.4832 12.4598 19.5227 12.7449 19.486 12.9705C19.4781 13.0196 19.4536 13.0367 19.4133 13.0655L19.3946 13.0786C19.2034 14.0639 19.0498 14.6193 18.5617 15.5298C18.1084 16.3969 17.4337 17.0566 16.7992 17.7889C15.4348 19.3636 14.0469 20.7807 12.3016 21.9583C10.4219 23.2267 7.41442 24.5926 5.80392 22.1713C4.74473 20.5789 4.58384 18.4384 4.43198 16.5941C4.39366 16.092 4.42406 15.4188 4.3623 14.9556V10.9794C4.38878 10.9604 4.43048 10.9236 4.43681 10.8924C4.51474 10.5088 4.58793 10.1439 4.70421 9.76946C4.94499 8.98651 5.31815 8.24951 5.80787 7.58971C6.49602 6.65543 7.34439 6.01544 8.2069 5.23174C10.1928 3.42732 12.3674 1.56592 14.981 0.737596C15.3855 0.609397 15.7768 0.55683 16.1931 0.492188ZM4.92202 13.05C5.49571 15.0383 6.30626 16.6153 7.95926 17.9134C8.06342 17.9224 8.18813 17.9365 8.291 17.9361C11.9388 17.7789 17.0118 10.875 18.9507 10.9288C18.487 9.2989 17.7602 7.81364 16.4931 6.65121C16.1801 6.58717 15.8878 6.53139 15.5682 6.57734C12.2281 6.76244 6.84028 13.223 4.92202 13.05ZM5.65472 12.7466C6.58962 12.287 7.36524 11.6152 8.20279 10.9663C10.2365 9.3908 12.4258 7.28677 14.9352 6.53333C15.3242 6.41651 15.7367 6.41243 16.1306 6.42385C15.749 6.32709 15.4733 6.26516 15.0712 6.28694C11.4852 6.72897 8.26969 10.8451 5.23616 12.557C5.1392 12.6117 4.94541 12.5718 4.83903 12.6411L4.81162 12.6847C4.83375 12.7489 4.85558 12.8604 4.92249 12.8875C5.11576 12.9658 5.48001 12.8336 5.65472 12.7466ZM5.58697 12.195C8.41232 10.4488 12.1076 5.96404 15.6557 6.16122C15.1926 6.04195 14.9048 5.98784 14.4214 6.01891C13.526 6.15265 12.8506 6.39079 12.0574 6.81809C9.62643 8.12759 7.66672 10.0887 5.54082 11.8061C5.28388 12.0137 5.01136 12.1266 4.74799 12.3036C4.72128 12.3672 4.72359 12.3384 4.75211 12.4177C4.95939 12.6038 5.38353 12.3199 5.58697 12.195ZM5.54826 11.609C7.11843 10.3412 8.58432 8.9342 10.2473 7.77127C11.5527 6.85837 13.1835 5.84033 14.8452 5.86732C14.9169 5.8685 15.074 5.9042 15.1299 5.87294C14.7203 5.75072 14.1519 5.72632 13.7281 5.75552C10.2343 6.32317 7.21353 9.67557 4.72536 11.9422C4.70011 11.9652 4.68439 12.0282 4.68069 12.0602L4.70256 12.1294L4.72764 12.1393C5.1464 11.9421 5.20702 11.8397 5.54826 11.609ZM8.35028 18.0935L8.6626 18.129C11.28 18.1502 14.5513 14.8158 16.4394 13.1766C17.1727 12.54 18.1155 11.5665 19.0539 11.299C19.0302 11.2116 19.0209 11.1348 18.9489 11.0813C18.8657 11.0574 18.8514 11.062 18.7682 11.0782C18.2651 11.1526 17.5281 11.7221 17.1268 12.0504C15.3846 13.4755 13.8021 15.0868 11.9776 16.4156C10.8353 17.2476 9.78549 17.9093 8.35028 18.0935ZM13.7091 20.2899C13.7097 20.2896 14.0338 20.0957 13.9831 20.1036L13.9344 20.162L13.9364 20.0961C13.886 20.1155 13.7348 20.2139 13.6899 20.2466C12.198 21.0051 10.6249 21.484 8.9426 20.968C7.45673 20.5122 6.39091 19.2773 5.70288 17.949C5.44847 17.4578 5.2103 16.881 5.05181 16.3491C5.04547 16.3278 5.05163 16.3397 5.03312 16.3187C4.95139 16.5369 5.61608 18.2377 5.76118 18.5591C7.09578 21.5159 9.487 22.3347 12.4481 20.9793C12.8841 20.7787 13.3054 20.5483 13.7091 20.2899ZM19.0314 11.4558C18.1054 11.6789 16.0385 13.7773 15.2198 14.4716C13.4667 15.9582 11.7031 17.6652 9.38287 18.2287C9.28146 18.2533 8.94325 18.2558 8.88929 18.2874L9.01806 18.3047C11.1325 18.4466 13.4894 16.5345 14.9931 15.2375C15.5702 14.7346 16.1374 14.2207 16.6943 13.696C17.2626 13.1662 18.5025 11.9278 19.1448 11.6523C19.1191 11.5576 19.1272 11.5264 19.0671 11.4648L19.0314 11.4558ZM4.6789 10.8764C4.97389 10.4416 5.11803 10.1308 5.46468 9.66773C7.03731 7.61524 9.59662 5.50474 12.2641 5.10633C12.9897 4.99795 13.2189 5.06794 13.8973 5.11201C13.3883 4.92407 12.5632 4.91356 12.0178 4.94053C11.7365 4.96777 11.4506 5.00356 11.1743 5.06228C8.33467 5.66556 5.52826 8.12407 4.6789 10.8764ZM4.89295 16.534C4.90033 16.7536 5.02951 17.3153 5.08676 17.5426C5.42021 18.8665 5.94244 20.3326 6.97043 21.2866C7.7008 21.9645 8.55648 22.2437 9.54752 22.1908C10.4735 22.1414 11.3825 21.8051 12.2004 21.3836C12.4751 21.2421 12.7267 21.0791 12.9892 20.9406C13.0567 20.8957 13.1998 20.809 13.2449 20.7518C12.9884 20.863 12.786 20.9968 12.539 21.1071C11.2429 21.6857 9.72896 22.0352 8.35751 21.4962C6.42856 20.7286 5.47238 18.6401 4.97322 16.778C4.95565 16.7125 4.92624 16.5882 4.89295 16.534ZM14.1552 19.8009C14.2022 19.7743 14.2889 19.728 14.3301 19.6984L14.3252 19.6802L14.357 19.6792L14.353 19.6663C13.7241 19.9051 13.172 20.2461 12.4954 20.3888C12.1977 20.4516 11.9437 20.5068 11.6403 20.5509C8.9375 20.9427 6.67132 19.2552 5.53907 16.9451C5.49388 16.8529 5.18939 16.1817 5.1557 16.1518C5.20783 16.4216 5.35582 16.7954 5.46011 17.0526C5.96866 18.3071 6.70616 19.4982 7.84629 20.2808C9.69192 21.5477 11.9968 21.0491 13.8105 20.0097C13.9275 19.9426 14.0433 19.8772 14.1552 19.8009ZM18.8785 3.62063C19.158 4.52653 19.32 5.42326 19.39 6.36795C19.4003 6.50692 19.4426 7.23315 19.4718 7.2825C19.5153 6.92265 19.4761 6.26717 19.4633 5.89708C19.3939 3.89183 19.0692 0.445417 16.2654 0.649456C15.0646 0.70324 13.8628 1.284 12.8323 1.85397C12.823 1.8591 12.8175 1.87202 12.8128 1.88095C12.8272 1.88061 13.4997 1.58719 13.5693 1.55839C15.5646 0.731991 17.6404 0.80704 18.624 2.98579C18.7109 3.17839 18.7896 3.43133 18.8785 3.62063ZM19.1361 11.8093C18.6642 12.0542 18.0266 12.6584 17.6281 13.0273L16.2068 14.3508C14.4862 15.934 12.3559 17.8365 10.0029 18.4005C9.90113 18.4249 9.43428 18.4544 9.39166 18.4831L9.42843 18.4994C10.8089 18.5699 11.9093 18.1054 13.0563 17.396C15.3331 15.9877 17.1494 14.0076 19.0103 12.1241C19.071 12.0627 19.1607 12.0077 19.1885 11.9255C19.1719 11.8408 19.1875 11.8685 19.1361 11.8093ZM12.5209 21.445C12.5909 21.3978 12.7503 21.2964 12.8038 21.2426C12.2034 21.547 11.7606 21.783 11.1236 22.012C8.82548 22.8384 6.91805 22.1399 5.80412 19.9637C5.23664 18.8551 5.05564 18.0377 4.77896 16.8485C4.77927 17.1901 4.86577 17.5833 4.9259 17.9196C5.78888 22.7461 8.20243 24.0745 12.5209 21.445ZM12.7743 5.20516C9.65199 5.35135 5.6733 8.70538 4.58936 11.5058C4.82986 11.138 5.07467 10.8837 5.30518 10.5586C6.82062 8.82242 8.60629 7.18631 10.675 6.11822C11.6072 5.63687 12.7147 5.287 13.7698 5.32359C13.9121 5.32853 14.0805 5.37791 14.2175 5.35483L14.2181 5.3387C13.7329 5.22752 13.2742 5.17476 12.7743 5.20516ZM18.1643 4.65352C18.6944 5.66969 18.9369 6.69135 19.1581 7.80083C19.1861 7.63971 19.1038 7.17931 19.0789 7.00142C18.8025 5.02369 18.0844 2.21806 15.7344 1.83425C15.4423 1.78811 15.1455 1.77722 14.8507 1.80183C13.8469 1.86822 12.8638 2.25107 11.9746 2.69859C11.8905 2.74093 11.5394 2.91876 11.5001 2.97303C11.8408 2.85554 12.1636 2.6928 12.5098 2.57557C13.6917 2.17537 15.0054 2.02346 16.1677 2.57169C16.9807 2.95513 17.8093 3.83295 18.1643 4.65352ZM19.1993 12.1525C18.5861 12.7086 18.0386 13.3595 17.4352 13.9404C15.497 15.8064 13.3178 17.9583 10.5958 18.5878C10.5142 18.6067 9.89179 18.6653 9.88873 18.6694L9.91514 18.6718C11.6866 18.9005 13.5804 17.7945 14.9368 16.7626C16.3176 15.6937 17.5573 14.4578 18.6266 13.0837C18.8083 12.847 19.1009 12.4639 19.2255 12.2015L19.218 12.159L19.1993 12.1525ZM14.7422 5.19774C14.6228 5.13773 14.3884 5.02696 14.257 5.05333C14.3649 5.10405 14.6269 5.19553 14.7422 5.19774ZM11.9765 21.9902C12.032 21.9558 12.1759 21.8777 12.2017 21.8293C12.0135 21.9093 11.8503 22.0087 11.6727 22.1019C10.5034 22.7148 8.89988 23.2391 7.60778 22.7166C5.63182 21.9176 4.99955 19.3457 4.6972 17.4667C4.68034 17.3619 4.67329 17.2295 4.63282 17.1351C4.62008 17.4683 4.69835 18.0223 4.74562 18.3627C5.01633 20.312 5.65364 23.2499 8.12813 23.3602C9.21825 23.4073 10.3127 22.9345 11.2542 22.4285C11.4326 22.3327 11.8217 22.1131 11.9765 21.9902ZM13.4834 5.47011C10.739 5.57249 7.87178 8.03033 6.0868 9.91083C5.63748 10.3842 4.82238 11.3151 4.53538 11.8924C4.78289 11.6981 5.02877 11.4659 5.25532 11.2467C7.39947 9.16929 10.9812 5.67471 14.1606 5.59673C14.3146 5.59294 14.4454 5.63996 14.614 5.60385C14.437 5.51114 13.704 5.4699 13.4834 5.47011ZM5.94518 16.6569C5.80169 16.4147 5.59721 16.0294 5.44858 15.8138L5.41612 15.8137L5.42317 15.7828L5.40984 15.7911C5.46963 15.985 5.78221 16.51 5.90048 16.7024C5.99562 16.8308 6.08133 16.9665 6.17657 17.0966C7.20707 18.5049 8.6135 19.4844 10.3678 19.7877C12.1105 20.0889 14.111 19.5538 15.5395 18.5431C15.5284 18.537 14.7692 18.8838 14.6815 18.9192C13.4536 19.414 12.0237 19.5564 10.7173 19.3418C9.46785 19.1365 8.49153 18.6781 7.44818 17.9875C7.26749 17.8679 7.07491 17.7671 6.89492 17.6468C6.50104 17.3838 6.21818 17.0346 5.94518 16.6569ZM10.2716 18.8603C13.555 19.3014 17.2689 16.0041 18.813 13.3907C18.8922 13.2566 19.1982 12.7277 19.1609 12.6035C17.4874 14.9699 14.2097 18.2056 11.19 18.7765C10.8749 18.8361 10.5753 18.8507 10.2566 18.8563L10.2716 18.8603ZM13.4616 2.94899C12.3557 3.05785 11.0778 3.46508 10.1464 4.0618L10.1533 4.07617C10.3365 4.00741 10.5136 3.92768 10.6955 3.85632C12.1732 3.27671 13.8707 3.1375 15.3471 3.8021C16.112 4.1464 16.7447 4.654 17.2926 5.27834C17.3293 5.32013 17.4877 5.5087 17.4993 5.54236C17.9921 6.15887 18.3601 6.8684 18.6638 7.5919C18.6835 7.6388 18.8777 8.18561 18.8786 8.20536L18.9025 8.21567C18.9086 8.09172 18.7802 7.72326 18.7416 7.58249C18.1344 5.36783 16.672 3.01303 14.0857 2.93752C13.899 2.93207 13.6473 2.923 13.4616 2.94899ZM18.3047 15.1763C16.873 17.1875 14.7464 18.833 12.2172 19.1849C12.1112 19.1996 11.4662 19.245 11.4315 19.2688C11.884 19.2848 12.2777 19.2876 12.7321 19.2435C14.1591 19.1051 15.7169 18.4368 16.7761 17.4826C17.1426 17.1523 18.0615 15.6864 18.306 15.2115L18.3047 15.1763ZM17.23 5.99554C17.7273 6.54413 18.1393 7.11474 18.4729 7.77506C18.5242 7.87655 18.6747 8.22923 18.7234 8.28264C18.7438 8.24403 18.7361 8.21841 18.7212 8.17587C18.1349 6.50195 17.155 4.89171 15.5163 4.0475C14.5742 3.56214 13.7097 3.47027 12.6734 3.5243C11.722 3.6632 10.9886 3.84034 10.1187 4.26994C9.92055 4.36781 9.66163 4.47878 9.48244 4.60422C9.50836 4.60928 10.432 4.26298 10.5777 4.22164C12.5057 3.67438 14.4925 3.90496 16.1562 5.06134C16.5307 5.3216 16.9338 5.64673 17.23 5.99554ZM11.9977 4.10086C11.0344 4.17973 10.0949 4.47365 9.22941 4.89535C9.08554 4.96546 8.83626 5.09054 8.72635 5.19534C9.20104 5.01901 9.46326 4.8877 9.98007 4.7507C11.6686 4.31078 13.4588 4.45956 15.0493 5.17197C15.7139 5.47179 16.3306 5.86605 16.8799 6.34223C17.6882 7.02131 18.0995 7.63384 18.6181 8.51322C18.6508 8.40472 18.4 7.97341 18.3445 7.85784C17.2105 5.49687 14.7136 3.793 11.9977 4.10086ZM11.715 4.65333C10.4365 4.72848 8.57697 5.12053 7.65375 6.09646C7.38874 6.37658 6.30888 7.65154 6.20478 7.93877C6.67855 7.4279 7.01303 7.10346 7.55093 6.6605C9.22225 5.3619 11.258 4.52708 13.4082 4.84624C13.5259 4.86371 13.8873 4.96011 13.9657 4.94608C13.5093 4.75715 12.2015 4.60686 11.715 4.65333ZM14.7651 19.2265C14.8375 19.1826 14.9414 19.125 15.0005 19.0687C14.6447 19.2274 14.2856 19.4076 13.9275 19.5475C10.5398 20.8713 6.99281 19.3115 5.40179 16.149C5.35591 16.0578 5.26371 15.8686 5.20662 15.7935C5.27842 16.0724 5.44562 16.4257 5.57291 16.6868C6.17342 17.9184 7.03561 19.0262 8.2303 19.7408C10.2316 20.938 12.6568 20.4927 14.5643 19.3592C14.5954 19.3407 14.7481 19.2482 14.7651 19.2265ZM17.8223 5.09301C18.1933 5.71871 18.4918 6.31262 18.7195 7.00478C18.7481 7.09171 18.985 7.86964 18.9926 7.87931C19.0112 7.68837 18.8989 7.29416 18.8577 7.10224C18.4048 4.99248 17.2888 2.51844 14.7879 2.36725C14.6656 2.35985 14.2711 2.34137 14.1556 2.37314C13.4224 2.44708 12.7046 2.62897 12.0259 2.91278C11.8013 3.00597 11.0267 3.3653 10.8614 3.49301L10.8645 3.51715C10.9404 3.50275 10.9978 3.45945 11.0676 3.42871C12.7323 2.69592 14.7423 2.4318 16.3227 3.51689C16.9763 3.96566 17.3935 4.46127 17.8223 5.09301ZM10.8277 19.0502C11.0426 19.11 11.3955 19.0982 11.6206 19.0902C12.7588 19.0457 13.8913 18.6761 14.8785 18.1188C16.5182 17.1934 17.9569 15.7455 18.7785 14.0582C18.8579 13.8951 19.1488 13.2847 19.1099 13.1544C17.9074 15.4558 15.1571 17.9723 12.6249 18.7644C11.9735 18.9681 11.5006 19.0306 10.8277 19.0502ZM19.1902 6.74886C19.2286 6.8838 19.2648 7.50466 19.3138 7.5638C19.3201 7.3344 19.2862 6.97558 19.2708 6.73896C19.2076 4.60112 18.4924 1.02338 15.6528 1.21835C14.6186 1.28936 12.9591 1.82393 12.1197 2.44662C12.2564 2.42183 12.8539 2.13705 13.0442 2.06792C14.1585 1.66303 15.4843 1.41315 16.6003 1.94677C18.3748 2.79518 18.896 5.00006 19.1902 6.74886Z" fill="url(#paint0_linear_135720_1054)"/>
<defs>
<linearGradient id="paint0_linear_135720_1054" x1="4.3623" y1="11.9999" x2="19.6388" y2="11.9999" gradientUnits="userSpaceOnUse">
<stop stop-color="#FF7738"/>
<stop offset="1" stop-color="#EF4444"/>
</linearGradient>
</defs>
</svg>
