<svg width="38" height="38" viewBox="0 0 38 38" fill="none" xmlns="http://www.w3.org/2000/svg">
<circle cx="18.535" cy="18.5353" r="13.5" transform="rotate(10 18.535 18.5353)" stroke="white"/>
<path d="M22.9264 23.657L24.225 19.8735L20.3937 19.198L20.8388 16.6738C21.0266 15.6089 21.7439 14.6645 23.4599 14.9671L25.2029 15.2744L25.7871 11.9615C25.7871 11.9615 24.2523 11.4197 22.7414 11.1533C19.5847 10.5967 17.1946 12.0974 16.5997 15.4709L16.0768 18.4368L12.5692 17.8183L11.8831 21.7097L15.3906 22.3282L13.7318 31.736C14.4169 31.968 15.1276 32.1502 15.8615 32.2796C16.5954 32.409 17.3255 32.4808 18.0487 32.4972L19.7076 23.0894L22.9264 23.657Z" fill="white"/>
</svg>
