<svg width="32" height="32" viewBox="0 0 32 32" fill="none" xmlns="http://www.w3.org/2000/svg">
<path d="M11.9551 2.5H20.0449C21.7953 2.5 23.0784 2.50029 24.0908 2.58301C25.0973 2.66526 25.7928 2.82687 26.376 3.12402C27.4523 3.67257 28.3274 4.54765 28.876 5.62402C29.1731 6.20723 29.3347 6.90271 29.417 7.90918C29.4997 8.92157 29.5 10.2047 29.5 11.9551V20.0449C29.5 21.7953 29.4997 23.0784 29.417 24.0908C29.3347 25.0973 29.1731 25.7928 28.876 26.376C28.3274 27.4523 27.4523 28.3274 26.376 28.876C25.7928 29.1731 25.0973 29.3347 24.0908 29.417C23.0784 29.4997 21.7953 29.5 20.0449 29.5H11.9551C10.2047 29.5 8.92157 29.4997 7.90918 29.417C6.90271 29.3347 6.20723 29.1731 5.62402 28.876C4.54765 28.3274 3.67257 27.4523 3.12402 26.376C2.82687 25.7928 2.66526 25.0973 2.58301 24.0908C2.50029 23.0784 2.5 21.7953 2.5 20.0449V11.9551C2.5 10.2047 2.50029 8.92157 2.58301 7.90918C2.66526 6.90271 2.82687 6.20723 3.12402 5.62402C3.67257 4.54766 4.54766 3.67257 5.62402 3.12402C6.20723 2.82687 6.90271 2.66526 7.90918 2.58301C8.92157 2.50029 10.2047 2.5 11.9551 2.5Z" stroke="white"/>
<path d="M6.31141 11.512C6 12.1044 6 12.8799 6 14.4308V17.5692C6 19.1201 6 19.8956 6.31141 20.488C6.58533 21.009 7.02242 21.4327 7.56003 21.6982C8.1712 22 8.97128 22 10.5714 22H15.3968C16.997 22 17.7971 22 18.4082 21.6982C18.9458 21.4327 19.3829 21.009 19.6568 20.488C19.9683 19.8956 19.9683 19.1201 19.9683 17.5692V14.4308C19.9683 12.8799 19.9683 12.1044 19.6568 11.512C19.3829 10.991 18.9458 10.5673 18.4082 10.3018C17.7971 10 16.997 10 15.3968 10H10.5714C8.97128 10 8.1712 10 7.56003 10.3018C7.02242 10.5673 6.58533 10.991 6.31141 11.512Z" fill="white"/>
<path d="M21.0573 13.4003L24.1751 10.8672C24.8982 10.2797 26 10.778 26 11.6925V20.3334C26 21.2435 24.9074 21.7433 24.1825 21.1647L21.0658 18.6769C20.7729 18.4431 20.6032 18.0946 20.6032 17.7269V14.3435C20.6032 13.9795 20.7694 13.6341 21.0573 13.4003Z" fill="white"/>
</svg>
