<svg width="194" height="162" viewBox="0 0 194 162" fill="none" xmlns="http://www.w3.org/2000/svg">
<g opacity="0.5">
<path opacity="0.0526316" d="M0.761517 191.914C5.92359 198.781 22.4221 210.274 47.1198 201.301C77.9918 190.085 89.9317 160.355 117.485 144.94C137.822 133.562 192.468 116.484 223.89 135.356" stroke="white"/>
<path opacity="0.105263" d="M-4.33004 177.516C0.0858882 184.886 15.2928 198.039 40.793 191.698C72.6682 183.77 87.6504 155.451 116.665 143.001C138.079 133.811 194.211 122.538 223.488 144.591" stroke="white"/>
<path opacity="0.157895" d="M-8.17665 162.924C-4.55525 170.715 9.19339 185.387 35.2168 181.745C67.7461 177.193 85.6063 150.595 115.763 141.246C138.021 134.345 195.023 129.001 221.835 153.993" stroke="white"/>
<path opacity="0.210526" d="M-10.7651 148.269C-7.97795 156.396 4.1618 172.424 30.4233 171.523C63.2502 170.396 83.7928 145.811 114.762 139.665C137.619 135.128 194.867 135.772 218.92 163.43" stroke="white"/>
<path opacity="0.263158" d="M-12.0948 133.684C-10.1724 142.057 0.225455 159.266 26.4373 161.115C59.2021 163.426 82.2021 141.123 113.644 138.247C136.85 136.125 193.718 142.749 214.747 172.77" stroke="#E86224" stroke-dasharray="6 6"/>
<path opacity="0.315789" d="M-12.1807 119.298C-11.1441 127.827 -2.60204 146.028 23.273 150.607C55.6168 156.33 80.822 136.553 112.392 136.98C135.693 137.295 191.557 149.827 209.333 181.882" stroke="white"/>
<path opacity="0.368421" d="M-11.0501 105.241C-10.9106 113.831 -4.318 132.826 20.9367 140.084C52.5052 149.157 79.6396 132.123 110.992 135.847C134.132 138.596 188.38 156.899 202.708 190.636" stroke="white"/>
<path opacity="0.421053" d="M-8.74393 91.6384C-9.50316 100.196 -4.93218 119.776 19.4255 129.634C49.8727 141.957 78.639 127.853 109.43 134.834C132.157 139.986 184.194 163.86 194.917 198.91" stroke="#E86224" stroke-dasharray="6 6"/>
<path opacity="0.473684" d="M-5.31647 78.6105C-6.96607 87.0421 -4.46681 106.993 18.727 119.343C47.7194 134.78 77.8023 123.76 107.695 133.922C129.758 141.422 179.015 170.604 186.016 206.583" stroke="white"/>
<path opacity="0.526316" d="M-0.833479 66.2714C-3.35538 74.4844 -2.95522 94.587 18.8206 109.294C46.0405 127.677 77.1106 119.862 105.777 133.093C126.936 142.858 172.873 177.029 176.074 213.542" stroke="white"/>
<path opacity="0.578947" d="M4.62648 54.7274C1.2599 62.6317 -0.443424 82.666 19.6759 99.5685C44.825 120.697 76.5418 116.172 103.669 132.326C123.69 144.25 165.804 183.035 165.171 219.683" stroke="white"/>
<path opacity="0.631579" d="M10.9757 44.0768C6.80139 51.5859 3.01324 71.3324 21.2555 90.2453C44.0584 113.886 76.0744 112.702 101.364 131.604C120.03 145.554 157.858 188.529 153.398 224.91" stroke="#E86224" stroke-dasharray="6 6"/>
<path opacity="0.684211" d="M18.1159 34.4072C13.1795 41.4389 7.34798 60.6813 23.5134 81.3974C43.7202 107.293 75.6846 109.461 98.86 130.903C115.965 146.728 149.094 193.422 140.856 229.138" stroke="white"/>
<path opacity="0.736842" d="M25.9397 25.7959C20.2953 32.273 12.4844 50.8004 26.3958 73.0928C43.7851 100.958 75.3478 106.456 96.155 130.203C111.512 147.73 139.579 197.63 127.652 232.289" stroke="white"/>
<path opacity="0.789474" d="M34.333 18.309C28.0425 24.1606 18.3378 41.7701 29.8428 65.3945C44.2241 94.925 75.0392 103.692 93.2502 129.483C106.691 148.519 129.388 201.08 113.904 234.303" stroke="#E86224" stroke-dasharray="6 6"/>
<path opacity="0.842105" d="M43.1754 11.9993C36.3077 17.1614 24.8154 33.6599 33.788 58.3575C45.0037 89.2295 74.7336 101.169 90.1489 128.723C101.527 149.06 118.605 203.705 99.7331 235.128" stroke="white"/>
<path opacity="0.894737" d="M52.3406 6.90763C44.9709 11.3236 31.817 26.5305 38.1588 52.0307C46.0861 83.9059 74.405 98.8881 86.8558 127.902C96.0454 149.317 107.318 205.448 85.2652 234.725" stroke="white"/>
<path opacity="0.947368" d="M61.7004 3.06104C53.9095 6.68243 39.2381 20.4311 42.8797 46.4545C47.4317 78.9837 74.0295 96.844 83.3792 127.001C90.28 149.258 95.6239 206.261 70.6313 233.072" stroke="#E86224" stroke-dasharray="6 6"/>
<path d="M71.1229 0.472961C62.9962 3.26015 46.968 15.3999 47.8695 41.6614C48.9963 74.4883 73.5814 95.0309 79.7277 126C84.2641 148.857 83.6204 206.105 55.9621 230.158" stroke="white"/>
</g>
</svg>
