<svg width="38" height="38" viewBox="0 0 38 38" fill="none" xmlns="http://www.w3.org/2000/svg">
<g filter="url(#filter0_d_135720_2424)">
<path d="M12.208 5.94302L20.175 4.53824C21.8988 4.23428 23.1625 4.01176 24.1738 3.91742C25.1793 3.82365 25.8923 3.86203 26.5182 4.0534C27.6735 4.40671 28.6872 5.11654 29.4144 6.0813C29.8083 6.60405 30.0882 7.2609 30.344 8.2378C30.6012 9.22044 30.8243 10.484 31.1283 12.2078L32.5331 20.1748C32.837 21.8986 33.0595 23.1622 33.1539 24.1736C33.2476 25.1791 33.2093 25.892 33.0179 26.518C32.6646 27.6733 31.9548 28.687 30.99 29.4141C30.4673 29.808 29.8104 30.088 28.8335 30.3437C27.8509 30.601 26.5873 30.8241 24.8635 31.128L16.8965 32.5328C15.1727 32.8368 13.9091 33.0593 12.8977 33.1536C11.8922 33.2474 11.1793 33.209 10.5533 33.0177C9.39804 32.6644 8.3843 31.9545 7.65717 30.9898C7.26326 30.467 6.98334 29.8102 6.72756 28.8333C6.4703 27.8506 6.24721 26.5871 5.94325 24.8633L4.53847 16.8963C4.23452 15.1725 4.01199 13.9088 3.91765 12.8975C3.82389 11.892 3.86226 11.179 4.05363 10.5531C4.40694 9.39781 5.11677 8.38407 6.08153 7.65694C6.60428 7.26303 7.26113 6.98311 8.23803 6.72733C9.22068 6.47007 10.4842 6.24698 12.208 5.94302Z" stroke="white"/>
<path d="M11.6172 25.3688L12.3107 29.3019C12.4521 30.1037 13.2235 30.6378 14.0324 30.4952L17.9393 29.8063L16.9898 24.4214L11.6172 25.3688Z" fill="white"/>
<path d="M22.9546 28.9233L26.8579 28.235C27.6668 28.0924 28.209 27.3267 28.0676 26.5248L27.3739 22.5905L22.0049 23.5372L22.9546 28.9233Z" fill="white"/>
<path d="M22.0043 23.5374L16.9902 24.4215L17.9399 29.8075L22.954 28.9234L22.0043 23.5374Z" fill="white"/>
<path d="M10.2128 8.83297C9.40386 8.9756 8.86166 9.7413 9.00305 10.5431L11.6172 25.3689L16.9899 24.4216L15.0764 13.5699L20.0905 12.6858L19.1338 7.25995L10.2128 8.83297Z" fill="white"/>
<path d="M25.4608 11.7389L20.0918 12.6856L22.0052 23.5373L27.3743 22.5906L25.4608 11.7389Z" fill="white"/>
<path d="M20.0915 12.6857L25.4593 11.7392L19.1348 7.25987L20.0915 12.6857Z" fill="white"/>
</g>
<defs>
<filter id="filter0_d_135720_2424" x="-2" y="-0.999899" width="41.0703" height="41.0703" filterUnits="userSpaceOnUse" color-interpolation-filters="sRGB">
<feFlood flood-opacity="0" result="BackgroundImageFix"/>
<feColorMatrix in="SourceAlpha" type="matrix" values="0 0 0 0 0 0 0 0 0 0 0 0 0 0 0 0 0 0 127 0" result="hardAlpha"/>
<feOffset dy="1"/>
<feGaussianBlur stdDeviation="1"/>
<feComposite in2="hardAlpha" operator="out"/>
<feColorMatrix type="matrix" values="0 0 0 0 0.0627451 0 0 0 0 0.0941176 0 0 0 0 0.156863 0 0 0 0.05 0"/>
<feBlend mode="normal" in2="BackgroundImageFix" result="effect1_dropShadow_135720_2424"/>
<feBlend mode="normal" in="SourceGraphic" in2="effect1_dropShadow_135720_2424" result="shape"/>
</filter>
</defs>
</svg>
