<svg width="164" height="166" viewBox="0 0 164 166" fill="none" xmlns="http://www.w3.org/2000/svg">
<g opacity="0.5">
<path opacity="0.5" d="M21.4904 112.071C27.6814 85.7124 45.9499 75.5714 60.9561 73.5112C67.109 72.6664 70.1855 72.2441 71.2148 71.2148C72.2441 70.1855 72.6664 67.1091 73.5112 60.9562C75.5714 45.9499 85.7124 27.6815 112.071 21.4904C146.665 13.3653 195.157 52.1919 182.724 138.293C180.356 154.693 179.172 162.893 171.032 171.032C162.893 179.172 154.693 180.356 138.293 182.724C52.1919 195.157 13.3653 146.665 21.4904 112.071Z" stroke="white" stroke-linecap="round"/>
<path d="M33.1187 112.54C38.547 89.4288 54.5648 80.5371 67.7223 78.7307C73.1171 77.9901 75.8146 77.6197 76.7171 76.7173C77.6195 75.8148 77.9899 73.1174 78.7305 67.7225C80.5369 54.565 89.4286 38.5472 112.54 33.1189C142.871 25.9948 185.39 60.038 174.489 135.532C172.412 149.911 171.374 157.1 164.237 164.237C157.1 171.374 149.911 172.412 135.531 174.489C60.0378 185.39 25.9946 142.872 33.1187 112.54Z" stroke="#FF7738" stroke-linecap="round" stroke-dasharray="10 10"/>
<path opacity="0.5" d="M44.0098 112.976C48.7236 92.9066 62.6329 85.1854 74.0583 83.6168C78.743 82.9736 81.0854 82.652 81.8691 81.8684C82.6527 81.0847 82.9743 78.7423 83.6175 74.0576C85.1861 62.6321 92.9073 48.7229 112.976 44.0091C139.315 37.8228 176.237 67.3847 166.77 132.941C164.967 145.427 164.066 151.67 157.868 157.868C151.671 164.065 145.428 164.966 132.941 166.77C67.3854 176.236 37.8235 139.314 44.0098 112.976Z" stroke="white" stroke-linecap="round"/>
<path d="M56.8126 113.491C60.6865 96.998 72.1174 90.6526 81.5071 89.3635C85.357 88.8349 87.282 88.5706 87.9261 87.9266C88.5701 87.2825 88.8344 85.3576 89.363 81.5076C90.6521 72.1179 96.9975 60.687 113.491 56.8131C135.136 51.7291 165.479 76.0236 157.699 129.899C156.218 140.16 155.477 145.291 150.384 150.384C145.291 155.477 140.16 156.218 129.898 157.7C76.0231 165.48 51.7286 135.137 56.8126 113.491Z" stroke="#FF7738" stroke-linecap="round" stroke-dasharray="10 10"/>
<path opacity="0.5" d="M69.5036 114C72.5448 101.052 81.5189 96.0703 88.8905 95.0583C91.913 94.6433 93.4243 94.4358 93.9299 93.9302C94.4355 93.4246 94.643 91.9133 95.0579 88.8908C96.07 81.5192 101.052 72.5452 114 69.5039C130.993 65.5126 154.815 84.5855 148.707 126.881C147.544 134.937 146.962 138.965 142.964 142.964C138.965 146.962 134.937 147.544 126.881 148.707C84.5852 154.815 65.5123 130.994 69.5036 114Z" stroke="white" stroke-linecap="round"/>
<path d="M82.0746 114.506C84.2912 105.069 90.832 101.438 96.2047 100.701C98.4076 100.398 99.5091 100.247 99.8776 99.8784C100.246 99.5099 100.397 98.4084 100.7 96.2055C101.437 90.8328 105.068 84.2921 114.506 82.0754C126.891 79.1664 144.253 93.0676 139.802 123.895C138.954 129.766 138.53 132.702 135.616 135.616C132.701 138.531 129.766 138.955 123.894 139.802C93.0668 144.254 79.1656 126.892 82.0746 114.506Z" stroke="#FF7738" stroke-linecap="round" stroke-dasharray="10 10"/>
</g>
</svg>
