<svg width="159" height="147" viewBox="0 0 159 147" fill="none" xmlns="http://www.w3.org/2000/svg">
<g opacity="0.5">
<path d="M73.1337 11.6102C68.2425 -1.11592 44.0442 -7.40033 48.0374 17.9385C48.6922 22.0933 48.758 29.2473 48.0374 37.9553C47.3773 45.9323 34.4544 50.2971 30.4876 60.6042C24.2663 76.7689 47.5271 88.0358 43.8255 96.5332C38.9773 107.663 24.1323 112.492 15.9212 118.581C8.19124 124.313 3.26752 133.51 1.37699 142.966C-1.9397 159.555 4.07928 176.94 20.6596 177.805C28.9597 178.238 39.9063 174.531 53.6534 164.513C59.7997 160.033 65.2195 156.341 70.0362 153.356C82.4338 145.674 79.1007 163.847 93.8426 164.513C102.242 164.892 111.016 149.203 117.657 157.572C122.379 163.522 127.798 170.742 135.538 178.165C149.129 191.201 166.121 193.12 168.525 174.515C169.659 165.733 167.543 152.377 160.283 133.458C155.637 121.351 167.193 121.778 168.525 106.263C169.856 90.748 158.968 83.5931 166.85 77.1717L167.008 77.0432C173.016 72.1493 179.423 66.9298 182.922 56.9047C185.936 48.269 185.648 39.716 182.922 33.1439C180.004 26.1102 174.294 21.3455 166.85 21.1764C159.381 21.0068 150.166 25.4641 140.276 36.8988C133.755 44.4378 129.339 26.8956 117.657 28.6888C105.975 30.4821 104.351 47.4081 97.3525 42.4989C85.1957 33.9712 78.8622 26.5148 73.1337 11.6102Z" stroke="white" stroke-opacity="0.5"/>
<path d="M96.7303 81.0285C95.9859 79.0748 92.5168 79.5876 92.3413 81.7049C92.1414 84.1157 93.3599 87.2572 93.2191 89.6737C92.9471 94.3394 91.2988 95.6675 88.0168 98.1267C86.8404 99.0067 86.0911 100.419 85.8034 101.87C85.2986 104.417 86.2146 107.086 88.7379 107.219C90.0011 107.285 91.667 106.716 93.7591 105.178C94.6945 104.49 95.5193 103.924 96.2523 103.465C99.4435 101.311 102.413 102.999 103.5 104.112C104.218 105.026 105.043 106.134 106.221 107.274C108.289 109.275 111.421 109.013 111.241 106.714C110.986 103.465 105.44 91.3406 111.241 89.2263C113.935 88.2443 113.847 86.0197 113.432 85.0107C112.988 83.9309 112.119 83.1995 110.986 83.1735C109.849 83.1475 107.966 85.0107 106.942 85.5872C103.16 87.7151 99.7857 88.8151 96.7303 81.0285Z" stroke="#E86224" stroke-dasharray="6 6"/>
<path d="M52.0829 23.4824C48.539 0.415218 70.6522 6.16539 75.1365 17.832C80.6266 32.0951 86.6962 38.7798 98.1014 46.3464C104.516 50.7869 106.059 35.3322 116.756 33.6525C127.453 31.9727 131.539 47.8915 137.524 41.0335C146.626 30.6324 155.089 26.6431 161.926 26.8949C168.718 27.0942 173.925 31.5022 176.556 37.9742C179.013 44.0262 179.215 51.8803 176.35 59.7815C172.611 69.1732 167.211 75.019 161.726 79.7987C154.563 85.7447 164.403 92.3121 163.099 106.437C161.794 120.562 151.161 120.134 155.295 131.059C161.793 148.17 163.644 160.221 162.546 168.129C160.31 185.006 144.756 183.196 132.274 171.31C125.116 164.53 120.046 157.972 115.604 152.655C109.494 145.082 101.437 159.408 93.7087 159.124C80.2003 158.588 83.1475 142.101 71.7913 149.121C67.3326 151.866 62.3347 155.236 56.6848 159.309C43.9472 168.412 33.9038 171.544 26.3977 170.92C11.3247 170.068 5.87177 154.186 8.92324 139.034C10.6771 130.373 15.2008 121.953 22.2876 116.698C30.0573 110.937 43.7142 106.423 48.1502 95.8766C51.5246 88.0364 30.3357 77.6602 35.9725 62.828C39.558 53.3251 51.293 49.2287 51.9027 41.8623C52.5664 33.8441 52.5894 27.2759 52.0829 23.4824Z" stroke="#E86224" stroke-dasharray="6 6"/>
<path d="M56.3106 29.2598C53.2211 8.53993 73.2169 13.737 77.2877 24.3056C82.5315 37.879 88.3284 43.7703 98.9653 50.3515C104.786 54.3087 106.247 40.3762 115.943 38.8155C125.639 37.2549 129.39 51.4981 134.83 45.3437C143.13 36.0102 150.83 32.5018 157.023 32.8347C163.153 33.0635 167.85 37.1001 170.19 42.9891C172.373 48.5011 172.491 55.6303 169.779 62.771C165.835 71.4103 161.533 77.8578 156.625 82.4696C150.191 87.9205 158.968 93.8789 157.693 106.568C156.418 119.256 146.723 118.83 150.338 128.537C156.065 143.782 157.647 154.49 156.588 161.498C154.522 176.591 140.431 174.897 129.076 164.199C122.51 158.085 117.794 152.21 113.639 147.544C108.071 140.792 100.741 153.707 93.696 153.52C81.4408 153.115 83.9979 138.369 73.6995 144.702C69.6054 147.198 65.0366 150.236 59.8915 153.888C48.1819 162.046 39.0564 164.593 32.3553 163.781C18.8117 162.944 13.9328 148.617 16.7146 134.954C18.3292 127.115 22.4464 119.501 28.8796 114.741C36.1965 109.326 48.6455 105.143 52.6628 95.2143C55.7051 88.0574 36.6191 78.6061 41.663 65.1553C44.862 56.4879 55.392 52.6736 55.9504 45.9422C56.5561 38.6402 56.6679 32.6795 56.3106 29.2598Z" stroke="white" stroke-opacity="0.5"/>
<path d="M60.3549 34.8039C57.7151 16.3558 75.6244 21.0186 79.288 30.5277C84.2937 43.4592 89.8271 48.5788 99.7123 54.199C104.949 57.6876 106.329 45.2265 115.039 43.7793C123.749 42.3321 127.17 54.952 132.074 49.4786C139.586 41.1787 146.533 38.1382 152.094 38.5532C157.571 38.8122 161.764 42.4921 163.817 47.8194C165.731 52.8113 165.763 59.2415 163.2 65.6477C159.046 73.5657 155.834 80.6358 151.496 85.0958C145.78 90.0714 153.508 95.4422 152.26 106.741C151.012 118.04 142.242 117.612 145.343 126.137C150.308 139.574 151.624 148.977 150.602 155.11C148.703 168.476 136.052 166.892 125.806 157.343C119.822 151.872 115.455 146.658 111.58 142.626C106.544 136.671 99.9299 148.221 93.5575 148.132C82.5366 147.855 84.7074 134.796 75.451 140.465C71.7151 142.722 67.5684 145.438 62.9201 148.683C52.2204 155.925 43.9987 157.897 38.0922 156.895C26.0573 156.07 21.7449 143.247 24.2613 131.021C25.7391 123.978 29.4561 117.141 35.2458 112.858C42.1213 107.77 53.3817 103.903 56.9865 94.5575C59.7013 88.0579 42.6887 79.4974 47.1476 67.3791C49.9649 59.516 59.3061 55.9701 59.8141 49.8494C60.3628 43.2372 60.5636 37.8624 60.3549 34.8039Z" stroke="white" stroke-opacity="0.5"/>
<path d="M64.5806 40.3477C62.3953 24.1721 78.1862 28.3005 81.436 36.7498C86.1949 49.0407 91.4549 53.3882 100.571 58.0467C105.213 61.0664 106.512 50.0771 114.22 48.7434C121.928 47.4096 125.014 58.4054 129.373 53.6133C136.082 46.3473 142.266 43.7751 147.183 44.2723C151.998 44.5617 155.68 47.8849 157.442 52.6504C159.083 57.1222 159.029 62.8532 156.62 68.5248C152.262 75.7216 150.147 83.4166 146.386 87.7254C141.4 92.2256 148.064 97.0088 146.846 106.917C145.628 116.826 137.796 116.397 140.379 123.74C144.573 135.367 145.62 143.465 144.637 148.723C142.909 160.36 131.72 158.886 122.602 150.487C117.21 145.659 113.199 141.107 109.612 137.709C105.116 132.55 99.23 142.736 93.5413 142.743C83.7742 142.597 85.5548 131.224 77.3569 136.23C73.9858 138.247 70.2686 140.641 66.1253 143.479C56.4543 149.806 49.1511 151.202 44.0498 150.008C33.5448 149.196 29.8066 137.876 32.0532 127.089C33.3916 120.84 36.7018 114.782 41.8377 110.976C48.2597 106.215 58.3115 102.664 61.4974 93.9C63.88 88.0578 48.9711 80.3881 52.837 69.6025C55.2676 62.5437 63.4033 59.2661 63.86 53.756C64.3508 47.8337 64.6403 43.0448 64.5806 40.3477Z" stroke="white" stroke-opacity="0.5"/>
<path d="M68.8046 46.1526C67.0735 32.2855 80.7457 35.8703 83.5817 43.2409C88.0928 54.8632 93.0787 58.429 101.425 62.1156C105.473 64.6596 106.689 55.1667 113.395 53.9494C120.101 52.7321 122.851 62.0793 126.665 57.9792C132.572 51.7633 137.991 49.665 142.265 50.2434C146.418 50.5625 149.589 53.5214 151.06 57.7145C152.427 61.6562 152.288 66.6752 150.033 71.5994C145.474 78.0588 144.454 86.3608 141.27 90.5087C137.013 94.5233 142.615 98.7083 141.426 107.204C140.237 115.7 133.346 115.272 135.409 121.416C138.832 131.207 139.612 137.982 138.667 142.354C137.11 152.236 127.384 150.875 119.394 143.644C114.594 139.47 110.94 135.59 107.64 132.834C103.686 128.483 98.5281 137.283 93.5233 137.385C85.0104 137.369 86.401 127.709 79.2618 132.04C76.2558 133.812 72.9682 135.879 69.3301 138.304C60.6887 143.701 54.3041 144.518 50.0079 143.136C41.033 142.338 37.869 132.548 39.8456 123.223C41.0446 117.783 43.9479 112.516 48.4296 109.196C54.3973 104.773 63.24 101.545 66.0069 93.3835C68.0572 88.2117 55.2522 81.45 58.5252 72.0212C60.5691 65.7826 67.4994 62.7806 67.9047 57.8936C68.3375 52.6745 68.7155 48.4823 68.8046 46.1526Z" stroke="white" stroke-opacity="0.5"/>
<path d="M72.8449 51.6965C71.5645 40.103 83.1464 43.1532 85.5744 49.4637C89.8473 60.4464 94.5695 63.2395 102.163 65.9635C105.626 68.0383 106.761 60.0178 112.479 58.914C118.197 57.8101 120.618 65.5323 123.894 62.1139C129.011 56.9324 133.677 55.3027 137.317 55.9637C140.816 56.3132 143.482 58.9153 144.666 62.5465C145.762 65.9679 145.538 70.2876 143.432 74.4769C138.661 80.2151 138.735 89.1446 136.121 93.1417C132.585 96.681 137.135 100.278 135.973 107.383C134.812 114.488 128.845 114.059 130.394 119.019C133.054 126.999 133.567 132.468 132.659 135.965C131.269 144.117 122.986 142.866 116.107 136.785C111.89 133.255 108.585 130.037 105.566 127.916C102.145 124.362 97.7043 131.797 93.373 131.996C86.0965 132.109 87.1 124.137 81.0046 127.804C78.3575 129.337 75.4927 131.082 72.3522 133.099C64.7223 137.58 59.2431 137.821 55.7431 136.247C48.2796 135.462 45.6832 127.175 47.394 119.289C48.456 114.644 50.9584 110.156 54.7954 107.313C60.3213 103.217 67.9732 100.304 70.3269 92.7246C72.0491 88.2103 61.3215 82.3397 64.0083 74.2441C65.6698 68.8099 71.4091 66.0761 71.7639 61.7998C72.1396 57.2707 72.6068 53.6646 72.8449 51.6965Z" stroke="#E86224" stroke-dasharray="6 6"/>
<path d="M77.0647 57.24C76.2382 47.9219 85.6992 50.4372 87.7128 55.6871C91.736 66.0325 96.1817 68.0519 103.002 69.8118C105.87 71.4168 106.922 64.8698 111.637 63.8792C116.352 62.8887 118.437 68.9844 121.167 66.2482C125.48 62.102 129.38 60.9416 132.376 61.6855C135.212 62.0658 137.367 64.311 138.26 67.3801C139.083 70.2812 138.774 73.9013 136.823 77.3552C131.854 82.3724 133.021 91.9342 130.983 95.7817C128.177 98.8456 131.664 101.855 130.533 107.568C129.401 113.28 124.376 112.85 125.407 116.626C127.296 122.793 127.541 126.955 126.672 129.574C125.453 135.995 118.635 134.854 112.886 129.924C109.262 127.038 106.315 124.483 103.585 122.998C100.706 120.241 96.9945 126.31 93.3482 126.606C87.3275 126.85 87.9413 120.567 82.9059 123.57C80.6246 124.863 78.1901 126.286 75.5557 127.896C68.9575 131.459 64.3983 131.122 61.7036 129.355C55.7712 128.582 53.7492 121.801 55.1896 115.355C56.1118 111.505 58.2066 107.795 61.3888 105.431C66.458 101.66 72.8989 99.0633 74.8332 92.0639C76.2228 88.2072 67.6006 83.2278 69.6943 76.4659C70.969 71.8363 75.5022 69.3704 75.8055 65.7049C76.1231 61.8661 76.6783 58.8463 77.0647 57.24Z" stroke="white" stroke-opacity="0.5"/>
<path d="M81.1646 62.783C80.7883 55.7433 88.1794 57.7232 89.7896 61.9116C93.5865 71.623 97.7817 72.867 103.868 73.6604C106.157 74.7949 107.131 69.723 110.869 68.8456C114.607 67.9682 116.366 72.4351 118.566 70.382C122.099 67.2725 125.255 66.5823 127.623 67.41C129.811 67.8212 131.466 69.7096 132.073 72.2163C132.627 74.5968 132.231 77.5168 130.423 80.2346C125.225 84.531 127.495 94.7325 126.024 98.4318C123.933 101.02 126.374 103.441 125.267 107.76C124.159 112.079 120.047 111.648 120.565 114.236C121.692 118.587 121.67 121.439 120.835 123.181C119.781 127.868 114.391 126.836 109.739 123.059C106.689 120.817 104.083 118.926 101.626 118.077C99.2737 116.119 96.2709 120.822 93.2896 121.215C88.4918 121.59 88.7186 116.999 84.7158 119.337L84.6047 119.397C82.7102 120.432 80.7291 121.513 78.6273 122.692C73.0241 125.337 69.3599 124.42 67.4566 122.459C63.0238 121.697 61.5657 116.423 62.7436 111.418C63.5312 108.365 65.2299 105.434 67.7746 103.547C72.4162 100.102 77.6816 97.8204 79.2068 91.3997C80.2713 88.2008 73.7087 84.1131 75.2201 78.686C76.1146 74.8613 79.4656 72.6629 79.7192 69.6084C79.9804 66.4602 80.6271 64.0272 81.1646 62.783Z" stroke="white" stroke-opacity="0.5"/>
<path d="M85.3732 68.5949C85.4506 63.8645 90.7142 65.3003 91.9084 68.4086C95.4506 77.4421 99.3637 77.9055 104.669 77.7291C106.362 78.3882 107.252 74.8138 109.983 74.0535C112.714 73.2932 114.135 76.1116 115.786 74.7507C118.512 72.6915 120.9 72.4745 122.622 73.3821C124.145 73.8224 125.287 75.3456 125.603 77.2788C125.884 79.128 125.403 81.3349 123.752 83.3046C118.364 86.8609 121.721 97.6553 120.829 101.19C119.469 103.291 120.846 105.113 119.769 108.019C118.693 110.925 115.528 110.494 115.526 111.884C115.883 114.401 115.593 115.931 114.799 116.787C113.917 119.719 109.997 118.802 106.48 116.193C104.027 114.606 101.781 113.387 99.6161 113.179C97.8082 112.029 95.5375 115.343 93.2442 115.832C89.7067 116.335 89.5442 113.457 86.6051 115.12C85.045 115.928 83.46 116.701 81.8252 117.489C77.2599 119.204 74.5192 117.711 73.4224 115.565C70.5242 114.818 69.6415 111.074 70.5478 107.533C71.1947 105.29 72.4843 103.151 74.3716 101.751C78.5508 98.6468 82.5998 96.69 83.7042 90.8771C84.4351 88.3503 79.9836 85.1724 80.9008 81.1041C81.4079 78.1014 83.5502 76.1804 83.7521 73.7505C83.955 71.3068 84.6886 69.4715 85.3732 68.5949Z" stroke="#E86224" stroke-dasharray="6 6"/>
<path d="M89.6441 74.1457C90.173 71.708 93.3259 72.6041 94.1077 74.6419C97.4007 83.0179 101.038 82.704 105.574 81.5606C106.674 81.747 107.481 79.6583 109.214 79.0132C110.947 78.3681 112.033 79.5488 113.141 78.8751C115.067 77.859 116.692 78.1133 117.773 79.1023C118.638 79.5725 119.27 80.7346 119.297 82.1C119.306 83.4233 118.74 84.9238 117.244 86.1517C111.659 88.9774 116.103 100.385 115.785 103.762C115.151 105.382 115.47 106.61 114.424 108.114C113.379 109.617 111.149 109.186 110.633 109.385C110.223 110.077 109.667 110.292 108.911 110.267C108.2 111.456 105.737 110.65 103.344 109.202C101.483 108.264 99.5928 107.712 97.7161 108.143C96.4478 107.795 94.9028 109.733 93.2913 110.318C91.0036 110.951 90.4535 109.774 88.5694 110.766C87.3735 111.332 86.2169 111.781 85.0857 112.158C81.5476 112.949 79.7225 110.88 79.4271 108.544C78.0523 107.811 77.7412 105.585 78.3784 103.496C78.8861 102.055 79.7701 100.702 81.0056 99.7842C84.7297 97.0133 87.5733 95.3767 88.2603 90.1579C88.6603 88.2959 86.304 86.0187 86.631 83.2968C86.7533 81.1075 87.6954 79.4591 87.846 77.647C87.9911 75.9008 88.8121 74.6575 89.6441 74.1457Z" stroke="white" stroke-opacity="0.5"/>
</g>
</svg>
