<svg width="16" height="16" viewBox="0 0 16 16" fill="none" xmlns="http://www.w3.org/2000/svg">
<path d="M6.0411 3.21756L2.15941 6.61422C1.82653 6.90551 2.04972 7.42286 2.50826 7.42286C2.78839 7.42286 3.01549 7.63262 3.01549 7.89137V10.0537C3.01549 11.914 3.01549 12.8442 3.64117 13.4221C4.26686 14 5.27388 14 7.28793 14H8.71207C10.7261 14 11.7331 14 12.3588 13.4221C12.9845 12.8442 12.9845 11.914 12.9845 10.0537V7.89137C12.9845 7.63262 13.2116 7.42286 13.4917 7.42286C13.9503 7.42286 14.1735 6.90551 13.8406 6.61422L9.9589 3.21755C9.03129 2.40585 8.56748 2 8 2C7.43252 2 6.96871 2.40585 6.0411 3.21756Z" stroke="#F5F5F5" stroke-width="1.2" stroke-linecap="round" stroke-linejoin="round"/>
<path d="M8 10.6667H8.00599" stroke="#F5F5F5" stroke-width="1.6" stroke-linecap="round" stroke-linejoin="round"/>
</svg>
