<svg width="32" height="32" viewBox="0 0 32 32" fill="none" xmlns="http://www.w3.org/2000/svg">
<rect x="2" y="2" width="28" height="28" rx="14" fill="white" fill-opacity="0.2"/>
<path d="M21.8412 11.4106C21.8412 12.1019 21.2809 12.6622 20.5896 12.6622C19.8984 12.6622 19.338 12.1019 19.338 11.4106C19.338 10.7194 19.8984 10.159 20.5896 10.159C21.2809 10.159 21.8412 10.7194 21.8412 11.4106Z" fill="white"/>
<path fill-rule="evenodd" clip-rule="evenodd" d="M16.0004 20.1719C18.3045 20.1719 20.1724 18.304 20.1724 15.9999C20.1724 13.6957 18.3045 11.8278 16.0004 11.8278C13.6962 11.8278 11.8283 13.6957 11.8283 15.9999C11.8283 18.304 13.6962 20.1719 16.0004 20.1719ZM16.0004 18.5031C17.3829 18.5031 18.5036 17.3824 18.5036 15.9999C18.5036 14.6174 17.3829 13.4966 16.0004 13.4966C14.6179 13.4966 13.4971 14.6174 13.4971 15.9999C13.4971 17.3824 14.6179 18.5031 16.0004 18.5031Z" fill="white"/>
<path fill-rule="evenodd" clip-rule="evenodd" d="M7.65625 15.6661C7.65625 12.8622 7.65625 11.4603 8.20192 10.3893C8.68191 9.44731 9.4478 8.68142 10.3898 8.20143C11.4608 7.65576 12.8627 7.65576 15.6666 7.65576H16.3341C19.138 7.65576 20.54 7.65576 21.6109 8.20143C22.5529 8.68142 23.3188 9.44731 23.7988 10.3893C24.3445 11.4603 24.3445 12.8622 24.3445 15.6661V16.3336C24.3445 19.1375 24.3445 20.5395 23.7988 21.6104C23.3188 22.5524 22.5529 23.3183 21.6109 23.7983C20.54 24.344 19.138 24.344 16.3341 24.344H15.6666C12.8627 24.344 11.4608 24.344 10.3898 23.7983C9.4478 23.3183 8.68191 22.5524 8.20192 21.6104C7.65625 20.5395 7.65625 19.1375 7.65625 16.3336V15.6661ZM15.6666 9.32458H16.3341C17.7636 9.32458 18.7354 9.32588 19.4865 9.38725C20.2181 9.44703 20.5923 9.55538 20.8533 9.68837C21.4813 10.0084 21.9919 10.519 22.3119 11.147C22.4449 11.408 22.5532 11.7821 22.613 12.5138C22.6744 13.2649 22.6757 14.2366 22.6757 15.6661V16.3336C22.6757 17.7631 22.6744 18.7349 22.613 19.486C22.5532 20.2176 22.4449 20.5918 22.3119 20.8528C21.9919 21.4808 21.4813 21.9914 20.8533 22.3114C20.5923 22.4444 20.2181 22.5527 19.4865 22.6125C18.7354 22.6739 17.7636 22.6752 16.3341 22.6752H15.6666C14.2371 22.6752 13.2654 22.6739 12.5143 22.6125C11.7826 22.5527 11.4085 22.4444 11.1475 22.3114C10.5194 21.9914 10.0088 21.4808 9.68885 20.8528C9.55587 20.5918 9.44752 20.2176 9.38774 19.486C9.32637 18.7349 9.32507 17.7631 9.32507 16.3336V15.6661C9.32507 14.2366 9.32637 13.2649 9.38774 12.5138C9.44752 11.7821 9.55587 11.408 9.68885 11.147C10.0088 10.519 10.5194 10.0084 11.1475 9.68837C11.4085 9.55538 11.7826 9.44703 12.5143 9.38725C13.2654 9.32588 14.2371 9.32458 15.6666 9.32458Z" fill="white"/>
</svg>
