<svg width="136" height="168" viewBox="0 0 136 168" fill="none" xmlns="http://www.w3.org/2000/svg">
<g opacity="0.5">
<path opacity="0.0344828" d="M22.41 84.6342C11.897 81.8362 13.5147 66.4444 24.3798 65.8933L32.4179 65.4856C40.6158 65.0698 44.4667 55.2017 38.8028 49.3433L38.6672 49.2057L32.9666 43.5243C25.261 35.8447 34.3578 23.3238 44.0427 28.279L51.2081 31.9448L51.3806 32.0314C58.7026 35.6077 66.8973 28.8961 64.7596 20.971L62.6636 13.2001C59.8303 2.69649 73.9689 -3.5982 79.8787 5.53565L84.2506 12.293C88.7448 19.2389 99.3464 17.5597 101.474 9.56493L103.544 1.78726C106.342 -8.72579 121.734 -7.10804 122.285 3.75701L122.693 11.7951L122.704 11.9881C123.268 20.1172 133.178 23.8585 138.973 18.0445L144.654 12.3434C152.274 4.69816 164.659 13.5938 160.012 23.193L159.899 23.4199L156.233 30.5853C152.465 37.9503 159.22 46.2914 167.207 44.1368L174.978 42.0409C185.482 39.2075 191.776 53.3461 182.643 59.2559L182.435 58.9343C191.202 53.2619 185.16 39.6912 175.078 42.4106L167.307 44.5069C158.999 46.7481 151.973 38.0715 155.892 30.4107L159.558 23.2453C164.314 13.9494 152.296 5.21815 144.925 12.6142L139.244 18.3148C133.169 24.41 122.746 20.4089 122.31 11.8147L121.902 3.77621C121.373 -6.65226 106.6 -8.20498 103.914 1.8856L101.844 9.66361C99.6307 17.9794 88.6036 19.7259 83.929 12.501L79.557 5.7437C73.8846 -3.02326 60.314 3.01854 63.0333 13.1001L65.1296 20.8711C67.3708 29.1795 58.6942 36.2057 51.0334 32.286L43.8685 28.6199C34.5725 23.8636 25.8409 35.8818 33.2369 43.253L38.9376 48.9343C45.0327 55.009 41.0317 65.4319 32.4375 65.8679L24.399 66.2759C13.9705 66.805 12.4178 81.5782 22.5084 84.2639L30.2864 86.3342C38.6022 88.5475 40.3487 99.5746 33.1238 104.249L26.3665 108.621C17.5994 114.294 23.6416 127.865 33.7233 125.145L41.4939 123.049C49.8023 120.807 56.8284 129.484 52.9088 137.145L49.2427 144.31C44.4864 153.606 56.5045 162.337 63.8757 154.941L69.5571 149.241C75.6317 143.146 86.0547 147.147 86.4907 155.741L86.8987 163.779C87.4278 174.208 102.201 175.76 104.887 165.67L106.957 157.892C109.17 149.576 120.197 147.83 124.872 155.054L129.244 161.812C134.916 170.579 148.487 164.537 145.768 154.455L143.671 146.684C141.43 138.376 150.107 131.35 157.768 135.269L164.933 138.936C174.229 143.692 182.96 131.674 175.564 124.303L169.863 118.621C163.768 112.547 167.769 102.124 176.364 101.688L184.402 101.28C194.831 100.75 196.383 85.9773 186.293 83.2916L178.515 81.2213C170.199 79.0079 168.452 67.9809 175.677 63.3062L182.435 58.9343L182.643 59.2559L175.885 63.6279C168.939 68.122 170.619 78.7236 178.613 80.8514L186.391 82.9213C196.822 85.6975 195.311 100.872 184.674 101.647L184.421 101.662L176.383 102.07C168.121 102.489 164.274 112.51 170.134 118.35L175.834 124.031L175.834 124.032C183.48 131.651 174.584 144.036 164.985 139.389L164.758 139.276L157.593 135.611C150.228 131.842 141.887 138.597 144.041 146.584L146.137 154.355C148.949 164.777 135.052 171.055 129.063 162.231L128.922 162.02L124.55 155.263C120.056 148.317 109.455 149.996 107.327 157.991L105.257 165.768C102.481 176.199 87.3067 174.688 86.5316 164.051L86.516 163.798L86.1084 155.76C85.6926 147.562 75.8245 143.712 69.966 149.375L69.8284 149.511L64.1471 155.212C56.4674 162.917 43.9465 153.821 48.9018 144.136L52.5676 136.97C56.3064 129.663 49.6861 121.394 41.7806 123.37L41.5938 123.419L33.8228 125.515C23.3193 128.348 17.0246 114.209 26.1584 108.3L32.9157 103.928C39.8074 99.4686 38.2083 88.9974 30.3741 86.7557L30.1877 86.7041L22.41 84.6342Z" fill="#FF7738"/>
<path opacity="0.0689655" d="M24.1968 80.6142C13.8446 77.2698 16.2657 61.9838 27.1447 62.0021L34.0811 62.0138C42.2895 62.0276 46.6514 52.3749 41.3021 46.2281L41.1739 46.0836L36.5237 40.9364C29.2306 32.864 38.9706 20.8364 48.3829 26.2917L54.3839 29.7702C61.5416 33.9188 70.2252 27.6097 68.4916 19.5203L67.0382 12.7378C64.7585 2.10038 79.2072 -3.44612 84.6309 5.98453L88.0887 11.9976L88.1866 12.1642C92.3795 19.1514 102.908 17.9857 105.431 10.1747L107.564 3.5742C110.908 -6.77787 126.194 -4.35684 126.176 6.52207L126.164 13.4585L126.166 13.6518C126.303 21.7993 136.004 26.0539 142.094 20.5512L147.242 15.9011C155.314 8.60809 167.342 18.348 161.886 27.7603L158.408 33.7616C154.259 40.9193 160.568 49.6029 168.658 47.8693L175.44 46.4156C185.995 44.1536 191.537 58.36 182.412 63.8796L182.193 64.0082L176.18 67.4661C169.009 71.5906 170.131 82.2655 178.003 84.8088L184.604 86.9412L184.844 87.0216C194.838 90.4958 192.488 105.335 181.909 105.551L181.656 105.553L174.72 105.542C166.446 105.528 162.081 115.333 167.627 121.472L172.277 126.619L172.444 126.809C179.363 134.815 169.908 146.491 160.638 141.388L160.418 141.264L154.416 137.786C147.259 133.637 138.575 139.946 140.309 148.035L141.762 154.818L141.813 155.066C143.817 165.541 129.551 170.928 124.17 161.571L120.712 155.558C116.587 148.386 105.912 149.508 103.369 157.381L101.237 163.981C97.9186 174.253 82.8444 171.949 82.627 161.287L82.6247 161.033L82.6364 154.097C82.6502 145.888 72.9972 141.526 66.8503 146.876L66.7058 147.004L61.559 151.654C53.4866 158.947 41.459 149.207 46.9143 139.795L50.3924 133.794C54.5086 126.692 48.3301 118.088 40.332 119.647L40.1429 119.686L33.3604 121.14C22.723 123.42 17.1765 108.971 26.6071 103.547L32.6202 100.089C39.7358 95.997 38.6869 85.4565 30.9808 82.8078L30.7973 82.7466L24.1968 80.6142ZM27.1442 62.3853C16.7021 62.3677 14.3783 77.0396 24.3148 80.2496L30.9152 82.3824C39.1038 85.0278 40.2708 96.1312 32.8111 100.421L26.7981 103.879C17.7462 109.085 23.0698 122.954 33.28 120.765L40.0626 119.312C48.4768 117.508 55.0392 126.541 50.7241 133.986L47.2456 139.987C42.0094 149.022 53.554 158.37 61.3022 151.37L66.449 146.72C72.8343 140.951 83.0336 145.492 83.0192 154.097L83.0079 161.034C82.9903 171.476 97.6622 173.8 100.872 163.863L103.005 157.263C105.65 149.074 116.753 147.907 121.044 155.367L124.502 161.38C129.708 170.432 143.576 165.108 141.388 154.898L139.934 148.115C138.131 139.701 147.163 133.139 154.609 137.454L160.61 140.932C169.644 146.169 178.993 134.624 171.993 126.876L167.342 121.729C161.574 115.344 166.115 105.144 174.72 105.159L181.656 105.17C192.098 105.188 194.422 90.5158 184.486 87.3058L177.885 85.1734C169.697 82.528 168.53 71.4245 175.989 67.1344L182.003 63.6762C191.054 58.4703 185.731 44.602 175.521 46.79L168.738 48.2438C160.324 50.0471 153.761 41.0147 158.077 33.5694L161.555 27.5681C166.791 18.5339 155.247 9.18529 147.498 16.1853L142.351 20.8354C135.966 26.6043 125.767 22.0633 125.781 13.458L125.793 6.52158C125.81 -3.92045 111.138 -6.24428 107.928 3.69215L105.796 10.2926C103.15 18.4812 92.0468 19.6482 87.7566 12.1885L84.2988 6.17545C79.093 -2.87635 65.2246 2.44725 67.4127 12.6574L68.8664 19.4399C70.6697 27.8542 61.6373 34.4167 54.1921 30.1015L48.1907 26.623C39.1564 21.3868 29.8078 32.9314 36.8079 40.6796L41.458 45.8267C47.2268 52.212 42.6859 62.4114 34.0806 62.397L27.1442 62.3853Z" fill="#FF7738"/>
<path opacity="0.103448" d="M26.174 76.783C16.011 72.9014 19.2288 57.763 30.0919 58.3506L35.9078 58.6652C44.1042 59.1086 48.9654 49.6975 43.9451 43.2791L43.8246 43.128L40.1517 38.6077C33.2911 30.1646 43.6468 18.6632 52.7607 24.6036L57.64 27.7842C64.5708 32.3017 73.5727 26.4558 72.2648 18.2868L71.3442 12.5353C69.6244 1.79316 84.3435 -2.98919 89.2661 6.71235L91.9014 11.9063L91.9904 12.0778C95.8118 19.2749 106.387 18.662 109.316 10.9939L111.394 5.5525C115.276 -4.61033 130.414 -1.39258 129.826 9.47042L129.512 15.2867L129.503 15.4794C129.214 23.6231 138.678 28.3796 145.049 23.2031L149.569 19.5302C157.946 12.7232 169.334 22.8648 163.709 31.9256L163.573 32.1392L160.393 37.0189C155.875 43.9496 161.721 52.9515 169.89 51.6437L175.642 50.7228C186.384 49.003 191.166 63.722 181.465 68.6446L176.271 71.2803C168.893 75.0238 169.455 85.7423 177.183 88.6942L182.624 90.7724L182.86 90.8653C192.659 94.8578 189.535 109.554 178.96 109.216L178.706 109.205L172.89 108.89C164.629 108.443 159.756 118.007 164.974 124.428L168.647 128.948L168.804 129.146C175.294 137.503 165.241 148.669 156.251 143.088L156.038 142.952L151.158 139.771C144.227 135.254 135.225 141.1 136.533 149.269L137.454 155.02L137.491 155.271C138.933 165.753 124.644 170.396 119.649 161.068L119.532 160.843L116.897 155.649C113.182 148.329 102.601 148.825 99.553 156.382L99.4826 156.562L97.4045 162.003C93.5532 172.086 78.6202 168.998 78.9612 158.338L78.9721 158.085L79.2867 152.269C79.7301 144.073 70.3186 139.211 63.9002 144.232L63.7492 144.352L59.2291 148.026L59.0304 148.183C50.6072 154.724 39.3311 144.459 45.2251 135.416L48.4053 130.537C52.9229 123.606 47.0769 114.604 38.9079 115.912L33.1568 116.833C22.4146 118.553 17.6323 103.833 27.3338 98.9107L32.5278 96.2754C39.8478 92.5612 39.352 81.9802 31.795 78.9319L31.615 78.8611L26.174 76.783ZM30.071 58.7332C19.6444 58.1693 16.5558 72.6996 26.3104 76.4253L31.7518 78.5036C39.7907 81.574 40.375 92.7232 32.701 96.6171L27.5071 99.2524C18.1953 103.977 22.7854 118.105 33.0961 116.454L38.8476 115.534C47.3447 114.173 53.4254 123.537 48.7265 130.746L45.5459 135.625C39.844 144.373 50.8836 154.313 58.9875 147.728L63.5076 144.055C70.186 138.628 80.1337 143.697 79.669 152.29L79.3543 158.106C78.7904 168.532 93.3207 171.621 97.0465 161.866L99.1247 156.425C102.195 148.386 113.344 147.802 117.238 155.476L119.874 160.67C124.599 169.982 138.727 165.391 137.076 155.081L136.155 149.329C134.795 140.832 144.158 134.751 151.367 139.45L156.247 142.631C164.994 148.333 174.934 137.293 168.349 129.189L164.676 124.669C159.25 117.991 164.318 108.043 172.911 108.508L178.727 108.822C189.154 109.386 192.242 94.856 182.487 91.1303L177.046 89.0522C169.007 85.9818 168.423 74.8325 176.097 70.9387L181.291 68.303C190.603 63.5781 186.013 49.45 175.702 51.1008L169.951 52.0218C161.454 53.3823 155.373 44.0188 160.072 36.8096L163.252 31.9303C168.954 23.1824 157.915 13.2424 149.811 19.8274L145.29 23.5003C138.612 28.9271 128.664 23.8586 129.129 15.2658L129.444 9.44989C130.008 -0.976943 115.477 -4.0655 111.751 5.68931L109.673 11.1303C106.603 19.1693 95.4536 19.7535 91.5598 12.0795L88.9245 6.88563C84.1996 -2.42631 70.0714 2.16419 71.7223 12.4749L72.6433 18.2261C74.0038 26.7232 64.6403 32.8039 57.4311 28.105L52.5518 24.9244C43.8039 19.2225 33.8639 30.2621 40.4489 38.366L44.1218 42.8864C49.5486 49.5649 44.48 59.5127 35.8873 59.0478L30.071 58.7332Z" fill="#FF7738"/>
<path opacity="0.137931" d="M28.3305 73.1491C18.3847 68.741 22.3903 53.7917 33.2077 54.9471L37.8935 55.4475C46.0555 56.3193 51.4026 47.1754 46.725 40.5031L46.6126 40.346L43.8362 36.5381C37.4269 27.7475 48.3707 16.8039 57.1612 23.2132L60.9687 25.9896C67.6013 30.8256 76.8041 25.5802 76.0894 17.4631L76.0705 17.2706L75.5703 12.5847C74.4149 1.76727 89.3642 -2.23818 93.7724 7.70772L95.6816 12.016C99.0338 19.5794 109.768 19.5793 113.12 12.0159L115.029 7.70773C119.437 -2.23818 134.387 1.76746 133.231 12.5849L132.731 17.2707L132.712 17.4627C131.997 25.58 141.2 30.8256 147.832 25.9898L151.64 23.2134C160.362 16.8542 171.204 27.5776 165.112 36.3316L164.965 36.5381L162.189 40.3459C157.315 47.0308 162.682 56.3264 170.908 55.4477L175.594 54.9471C186.327 53.8009 190.354 68.5086 180.702 73.0441L180.471 73.1492L176.162 75.0588C168.599 78.4111 168.599 89.1444 176.163 92.4966L180.471 94.4061L180.702 94.5114C190.278 99.0112 186.389 113.523 175.846 112.632L175.594 112.608L170.908 112.108C162.682 111.229 157.315 120.525 162.189 127.21L164.965 131.017L165.112 131.224C171.156 139.909 160.532 150.533 151.847 144.489L151.64 144.342L147.833 141.566C141.148 136.692 131.852 142.059 132.731 150.285L133.231 154.971L133.256 155.223C134.147 165.766 119.634 169.655 115.134 160.079L115.029 159.848L113.12 155.54C109.794 148.035 99.2012 147.977 95.7616 155.364L95.6818 155.54L93.7723 159.848C89.3986 169.716 74.6477 165.85 75.5461 155.223L75.5703 154.971L76.0707 150.285C76.9424 142.123 67.7983 136.776 61.1259 141.453L60.9688 141.566L57.1612 144.342C48.3707 150.752 37.427 139.808 43.8364 131.017L46.6124 127.21C51.4865 120.525 46.1197 111.229 37.8934 112.108L33.2079 112.608C22.3904 113.764 18.3846 98.8143 28.3305 94.4061L32.6388 92.4969C40.1431 89.1708 40.2018 78.5784 32.8147 75.1387L32.6387 75.0587L28.3305 73.1491ZM33.1672 55.3282C22.7842 54.2192 18.9394 68.5681 28.4858 72.7992L32.794 74.7088C40.6612 78.1957 40.6612 89.3602 32.7939 92.8471L28.4857 94.7563C18.9392 98.9874 22.784 113.336 33.167 112.227L37.853 111.727C46.4096 110.813 51.9919 120.482 46.9222 127.435L44.1457 131.243C37.9938 139.681 48.498 150.185 56.9355 144.033L60.743 141.256C67.6964 136.187 77.3652 141.769 76.4514 150.326L75.951 155.011C74.842 165.394 89.1909 169.239 93.422 159.693L95.3316 155.384C98.8185 147.517 109.983 147.517 113.47 155.385L115.379 159.693C119.611 169.239 133.959 165.394 132.85 155.011L132.35 150.326C131.436 141.769 141.105 136.187 148.058 141.256L151.866 144.033C160.303 150.185 170.808 139.68 164.656 131.243L161.879 127.435C156.809 120.482 162.392 110.813 170.949 111.727L175.634 112.228C186.017 113.337 189.862 98.9876 180.316 94.7565L176.008 92.847C168.14 89.3601 168.14 78.1955 176.007 74.7085L180.316 72.799C189.862 68.5679 186.017 54.2192 175.634 55.3282L170.949 55.8285C162.392 56.7424 156.81 47.0735 161.879 40.1201L164.656 36.3125C170.807 27.8751 160.304 17.371 151.866 23.5229L148.058 26.2993C141.105 31.369 131.436 25.7865 132.35 17.2298L132.85 12.5441C133.959 2.16109 119.61 -1.68369 115.379 7.86269L113.47 12.1708C109.983 20.0381 98.8182 20.0384 95.3313 12.1711L93.4221 7.86288C89.191 -1.68356 74.842 2.16122 75.951 12.5442L76.4517 17.2298C77.3656 25.7865 67.6967 31.3689 60.7433 26.2991L56.9353 23.5229C48.4979 17.371 37.9939 27.8749 44.1457 36.3123L46.9221 40.1202C51.9919 47.0736 46.4096 56.7424 37.8529 55.8285L33.1672 55.3282Z" fill="#FF7738"/>
<path opacity="0.172414" d="M30.6453 69.7208C20.9442 64.798 25.7269 50.0789 36.4689 51.7988L40.0239 52.3682C48.1292 53.6659 53.9476 44.8142 49.6256 37.9061L49.5215 37.7433L47.5557 34.727C41.6152 25.6131 53.1164 15.2572 61.5595 22.1177L64.3536 24.3884C70.724 29.5648 80.1887 24.8083 79.8998 16.6649L79.891 16.4717L79.6967 12.8766C79.1091 2.01352 94.2471 -1.20432 98.1288 8.95841L99.4135 12.3221C102.365 20.0507 113.084 20.6123 116.828 13.2347L118.457 10.0239C123.379 0.322347 138.099 5.10499 136.379 15.8472L135.809 19.4022L135.781 19.5934C134.642 27.6621 143.558 33.382 150.434 28.8998L153.451 26.9336C162.493 21.0398 172.758 32.3159 166.217 40.7391L166.06 40.9377L163.789 43.7319C158.572 50.1525 163.445 59.7162 171.706 59.2693L175.301 59.0746C186.079 58.4916 189.331 73.39 179.455 77.4141L179.219 77.5071L175.856 78.7917C168.127 81.7435 167.565 92.4626 174.943 96.2061L178.154 97.8349L178.378 97.9524C187.706 102.947 183.063 117.236 172.581 115.794L172.331 115.757L168.775 115.188C160.606 113.88 154.76 122.882 159.278 129.813L161.244 132.829L161.244 132.829C167.138 141.872 155.862 152.137 147.439 145.596L147.24 145.438L144.446 143.167C138.025 137.95 128.461 142.823 128.908 151.084L129.103 154.679L129.114 154.933C129.452 165.508 114.756 168.632 110.764 158.833L110.671 158.597L109.386 155.234C106.434 147.505 95.7151 146.944 91.9716 154.321L90.3427 157.532C85.4585 167.158 70.9302 162.525 72.3835 151.959L72.4209 151.709L72.99 148.154C74.2877 140.048 65.4359 134.23 58.5279 138.552L58.3651 138.656L55.3488 140.622C46.2348 146.562 35.8792 135.061 42.7398 126.618L45.0101 123.824C50.2274 117.403 45.3544 107.84 37.0934 108.287L33.4983 108.481C22.6353 109.069 19.4175 93.9305 29.5802 90.0488L32.9439 88.7642C40.612 85.8354 41.225 75.2605 34.028 71.439L33.8564 71.3498L30.6457 69.721L30.6453 69.7208ZM36.4082 52.1771C26.0975 50.5264 21.5074 64.6544 30.8192 69.3793L34.0299 71.0085C41.7038 74.9024 41.1194 86.0517 33.0805 89.122L29.7173 90.4064C19.9625 94.1321 23.051 108.663 33.4778 108.099L37.0729 107.904C45.6656 107.44 50.7341 117.387 45.3073 124.065L43.0369 126.86C36.452 134.964 46.3921 146.003 55.1399 140.301L58.1559 138.335C65.365 133.636 74.7284 139.717 73.368 148.214L72.7988 151.769C71.1481 162.08 85.2761 166.67 90.0011 157.358L91.6303 154.148C95.5242 146.474 106.673 147.058 109.744 155.097L111.029 158.461C114.754 168.215 129.284 165.127 128.72 154.7L128.526 151.105C128.061 142.512 138.009 137.444 144.687 142.87L147.482 145.141C155.586 151.726 166.625 141.786 160.923 133.038L158.957 130.022C154.258 122.813 160.339 113.449 168.836 114.81L172.391 115.379C182.702 117.03 187.292 102.902 177.981 98.1767L174.77 96.5474C167.096 92.6535 167.68 81.5042 175.719 78.4339L179.083 77.1492C188.837 73.4234 185.749 58.8934 175.322 59.4574L171.727 59.6516C163.134 60.1163 158.065 50.1687 163.492 43.4902L165.763 40.6959C172.347 32.592 162.408 21.5529 153.66 27.2545L150.644 29.2207C143.434 33.9196 134.071 27.839 135.431 19.3419L136.001 15.7864C137.651 5.4758 123.523 0.885401 118.798 10.1971L117.169 13.4081C113.275 21.082 102.126 20.4977 99.0556 12.4587L97.7713 9.09514C94.0456 -0.659586 79.5152 2.42899 80.0791 12.8557L80.2733 16.4511C80.7381 25.0439 70.7908 30.1123 64.1123 24.6856L61.3177 22.4151C53.2137 15.8303 42.1747 25.77 47.8766 34.5178L49.8424 37.5341C54.5414 44.7433 48.4607 54.1067 39.9636 52.7463L36.4082 52.1771Z" fill="#FF7738"/>
<path opacity="0.206897" d="M33.108 66.5041C23.6773 61.0804 29.2238 46.6314 39.8612 48.9112L42.2942 49.4329C50.3204 51.153 56.5942 42.6179 52.6396 35.4931L52.5442 35.3251L51.2964 33.1721C45.8411 23.7598 57.8683 14.0204 65.9407 21.3133L67.7874 22.9814L67.932 23.1098C74.0305 28.417 83.5797 24.1652 83.7162 16.0819L83.7179 15.8887L83.7138 13.4005C83.6955 2.52153 98.9813 0.100277 102.326 10.4523L103.091 12.8203L103.152 13.0036C105.8 20.7099 116.341 21.7587 120.433 14.643L121.674 12.4859C127.097 3.05527 141.546 8.60172 139.267 19.2392L138.745 21.6722L138.706 21.8617C137.147 29.8597 145.751 36.0383 152.853 31.9222L155.006 30.6743C164.418 25.2191 174.157 37.2467 166.864 45.319L165.197 47.1654C159.65 53.3041 164.016 63.1098 172.289 63.0958L174.777 63.0917C185.571 63.0736 188.039 78.1214 177.966 81.6233L177.726 81.7037L175.358 82.4687C167.485 85.012 166.363 95.6869 173.535 99.8114L175.692 101.052L175.91 101.181C185.036 106.7 179.493 120.907 168.939 118.645L166.506 118.123C158.416 116.389 152.107 125.073 156.256 132.231L157.504 134.384L157.628 134.604C162.731 143.874 151.055 153.329 143.049 146.41L142.859 146.242L141.012 144.574C134.874 139.028 125.068 143.394 125.082 151.667L125.086 154.156C125.104 164.95 110.056 167.417 106.555 157.344L106.474 157.103L105.709 154.735C103.166 146.863 92.4909 145.741 88.3664 152.913L87.1261 155.07C81.7448 164.427 67.4789 159.04 69.4832 148.565L69.5333 148.317L70.0549 145.884C71.7886 137.794 63.1049 131.485 55.9471 135.634L53.7941 136.881C44.3818 142.337 34.6424 130.309 41.9355 122.237L43.6034 120.39C49.1495 114.252 44.7838 104.446 36.5107 104.46L34.0222 104.464C23.1433 104.482 20.7223 89.1966 31.0744 85.8522L33.4424 85.0871C41.2533 82.5637 42.4189 72.0354 35.4318 67.8424L35.2651 67.7444L33.108 66.5041ZM39.7807 49.2858C29.5706 47.0977 24.2471 60.966 33.2988 66.1718L35.4561 67.4127C42.9158 71.7028 41.7487 82.8062 33.5601 85.4516L31.1922 86.2163C21.2558 89.4264 23.5797 104.099 34.0217 104.081L36.5102 104.077C45.1155 104.063 49.6564 114.262 43.8876 120.647L42.2195 122.494C35.2193 130.242 44.568 141.786 53.6023 136.55L55.755 135.302C63.2002 130.987 72.2325 137.549 70.4293 145.964L69.9078 148.397C67.7198 158.607 81.5881 163.931 86.7939 154.879L88.0347 152.722C92.3249 145.262 103.428 146.429 106.074 154.618L106.838 156.986C110.048 166.922 124.721 164.598 124.703 154.156L124.699 151.668C124.685 143.062 134.884 138.521 141.269 144.29L143.116 145.958C150.864 152.959 162.409 143.61 157.172 134.576L155.924 132.423C151.609 124.978 158.171 115.945 166.586 117.749L169.019 118.27C179.229 120.458 184.553 106.59 175.501 101.384L173.344 100.143C165.884 95.853 167.051 84.7496 175.24 82.1042L177.608 81.3395C187.544 78.1294 185.22 63.4571 174.778 63.4747L172.29 63.4787C163.684 63.4931 159.143 53.2942 164.912 46.9088L166.58 45.0622C173.581 37.314 164.232 25.7694 155.198 31.0056L153.045 32.2536C145.6 36.5688 136.567 30.0064 138.371 21.5922L138.892 19.1587C141.08 8.94862 127.212 3.62509 122.006 12.6767L120.765 14.8341C116.475 22.2937 105.372 21.1267 102.726 12.938L101.962 10.5702C98.7515 0.633764 84.0792 2.9576 84.0968 13.3997L84.1007 15.8882C84.1152 24.4935 73.9162 29.0343 67.5309 23.2655L65.6842 21.5974C57.936 14.5973 46.3914 23.946 51.6276 32.9803L52.8756 35.133C57.1908 42.5782 50.6285 51.6105 42.2142 49.8072L39.7807 49.2858Z" fill="#FF7738"/>
<path opacity="0.241379" d="M35.7 63.5045C26.5661 57.5948 32.861 43.4563 43.3646 46.2896L44.6934 46.6478C52.681 48.8025 59.4358 40.4612 55.6676 33.0962L55.0405 31.8707C50.0853 22.1858 62.6063 13.0889 70.2859 20.7944L71.2576 21.7692L71.3953 21.905C77.2077 27.5241 86.9663 23.778 87.5257 15.7129L87.5375 15.5199L87.6073 14.1454C88.1585 3.28039 103.55 1.66267 106.348 12.1757L106.702 13.5056L106.753 13.6919C108.995 21.5262 119.466 23.1255 123.925 16.2338L124.673 15.0779C130.583 5.94423 144.721 12.2391 141.888 22.7425L141.53 24.0717L141.481 24.2586C139.505 32.1641 147.774 38.7844 155.081 35.0455L156.307 34.4188C165.916 29.5022 174.947 41.7899 167.561 49.4833L167.383 49.6639L166.408 50.6356C160.549 56.4756 164.395 66.4963 172.658 66.9154L174.032 66.9853C184.897 67.5365 186.515 82.9282 176.002 85.7262L174.672 86.0803C166.677 88.2081 164.998 98.8092 171.944 103.303L173.1 104.051L173.311 104.191C182.065 110.134 175.954 123.859 165.68 121.33L165.435 121.266L164.106 120.908C156.118 118.753 149.364 127.095 153.132 134.46L153.759 135.685C158.675 145.294 146.388 154.325 138.694 146.939L138.514 146.761L137.542 145.786C131.702 139.927 121.681 143.773 121.262 152.036L121.192 153.41C120.641 164.275 105.249 165.893 102.451 155.38L102.097 154.05C99.9861 146.118 89.5336 144.403 84.9807 151.161L84.8741 151.322L84.1263 152.477C78.2165 161.611 64.0779 155.316 66.9113 144.813L67.2699 143.484C69.4246 135.497 61.083 128.742 53.7179 132.51L52.4925 133.137C42.8076 138.092 33.7107 125.571 41.4162 117.892L42.3912 116.92C48.2052 111.126 44.464 101.216 36.3349 100.652L36.142 100.64L34.7674 100.57C23.9025 100.019 22.2846 84.6277 32.7974 81.8296L34.1277 81.4756C42.06 79.3644 43.775 68.9115 37.0169 64.3587L36.8556 64.252L35.7 63.5045ZM43.2651 46.6593C33.1834 43.9397 27.1413 57.5105 35.9083 63.1829L37.0637 63.9307C44.2886 68.6054 42.542 79.6325 34.2262 81.8458L32.8964 82.1995C22.8056 84.8852 24.3581 99.6587 34.7866 100.188L36.1615 100.258C44.7557 100.694 48.7566 111.116 42.6616 117.191L41.6867 118.163C34.2908 125.534 43.0225 137.552 52.3184 132.796L53.5434 132.169C61.2042 128.249 69.8807 135.275 67.6396 143.584L67.2813 144.913C64.5617 154.994 78.1326 161.036 83.805 152.269L84.5525 151.114C89.2271 143.889 100.254 145.635 102.467 153.951L102.822 155.281C105.507 165.372 120.281 163.819 120.81 153.391L120.88 152.016C121.316 143.422 131.738 139.421 137.813 145.516L138.785 146.491C146.156 153.887 158.174 145.155 153.418 135.859L152.791 134.634C148.871 126.973 155.897 118.297 164.206 120.538L165.535 120.896C175.616 123.616 181.658 110.045 172.891 104.373L171.736 103.625C164.511 98.9505 166.257 87.9233 174.573 85.7101L175.903 85.356C185.994 82.6703 184.441 67.8965 174.013 67.3676L172.638 67.2981C164.044 66.8621 160.043 56.439 166.138 50.3643L167.113 49.3928C174.509 42.0216 165.777 30.0035 156.481 34.7598L155.256 35.3865C147.595 39.3062 138.919 32.2801 141.16 23.9717L141.518 22.643C144.238 12.5613 130.667 6.51919 124.995 15.2862L124.247 16.4416C119.572 23.6666 108.545 21.92 106.332 13.6041L105.978 12.2743C103.292 2.1835 88.5186 3.73625 87.9897 14.1649L87.9198 15.5395C87.4839 24.1337 77.0611 28.1348 70.9864 22.0399L70.0145 21.0646C62.6433 13.6688 50.6256 22.4005 55.3818 31.6964L56.0086 32.9217C59.9282 40.5825 52.9022 49.259 44.5938 47.0179L43.2651 46.6593Z" fill="#FF7738"/>
<path opacity="0.275862" d="M38.565 60.8423C29.753 54.4626 36.8067 40.6189 47.1476 43.9981C55.0114 46.5678 62.2309 38.5496 58.8532 30.9975C54.4117 21.0665 67.4424 12.6044 74.7082 20.7013L74.8385 20.8437C80.3495 26.7593 90.3427 23.5125 91.3243 15.4874L91.3458 15.2952C92.4649 4.47403 107.981 3.66097 110.225 14.3059C111.931 22.4011 122.485 24.6443 127.336 17.9432C133.716 9.13119 147.56 16.1849 144.18 26.5258C141.611 34.3896 149.629 41.609 157.181 38.2314C167.034 33.8245 175.442 46.618 167.664 53.915L167.477 54.0861C161.32 59.6115 164.654 69.8731 172.883 70.724C183.704 71.8431 184.518 87.3588 173.873 89.6027C165.777 91.3092 163.534 101.863 170.235 106.714C179.047 113.094 171.994 126.938 161.653 123.559C153.789 120.989 146.569 129.007 149.947 136.559C154.354 146.413 141.561 154.82 134.264 147.042L134.092 146.856C128.567 140.698 118.306 144.032 117.455 152.261L117.426 152.513C116.094 163.095 100.802 163.813 98.5757 153.251C96.8693 145.156 86.3156 142.912 81.4641 149.613C75.0844 158.425 61.2407 151.372 64.6199 141.031C67.1896 133.167 59.1714 125.948 51.6193 129.325C41.6883 133.767 33.2262 120.736 41.3231 113.47C47.4324 107.988 44.198 97.8434 36.1092 96.8542L35.9173 96.8328C25.096 95.7139 24.2828 80.198 34.9277 77.9539C43.0229 76.2475 45.2663 65.6938 38.565 60.8423ZM47.0289 44.362C37.1033 41.1186 30.3317 54.4085 38.7899 60.532C45.7601 65.5784 43.4269 76.5538 35.0067 78.3288C24.7894 80.4828 25.5701 95.3775 35.9566 96.4515C44.5164 97.3366 47.9838 108.008 41.5791 113.756C33.8075 120.73 41.9308 133.238 51.4628 128.976C59.3183 125.462 67.657 132.97 64.9842 141.15C61.7407 151.075 75.0307 157.847 81.1541 149.389C86.2005 142.419 97.1756 144.751 98.9507 153.171C101.105 163.389 116 162.609 117.074 152.222C117.959 143.662 128.63 140.195 134.377 146.599C141.351 154.371 153.86 146.248 149.597 136.716C146.084 128.86 153.592 120.521 161.772 123.194C171.697 126.438 178.469 113.148 170.011 107.024C163.04 101.978 165.373 91.0029 173.794 89.2279C184.011 87.0741 183.23 72.1788 172.844 71.1048C164.284 70.2197 160.817 59.5486 167.221 53.8013C174.993 46.8272 166.87 34.3179 157.337 38.5811C149.482 42.0944 141.144 34.5865 143.817 26.4068C147.06 16.4812 133.77 9.70965 127.647 18.1678C122.6 25.1381 111.625 22.8052 109.85 14.3849C107.696 4.16746 92.8009 4.94821 91.7269 15.3349C90.8417 23.8945 80.1704 27.3616 74.423 20.957C67.449 13.1854 54.94 21.3091 59.2032 30.8412C62.7164 38.6966 55.2085 47.0348 47.0289 44.362Z" fill="#FF7738"/>
<path opacity="0.310345" d="M78.1064 20.342L78.4045 20.1016C83.5066 26.4238 93.6479 23.7663 95.0438 15.8231L95.0752 15.6348C96.7416 4.99741 112.059 4.99728 113.726 15.6346L113.757 15.8233C115.153 23.7663 125.294 26.4236 130.396 20.1015C137.158 11.7225 150.423 19.3813 146.548 29.4267C143.601 37.0659 151.112 44.5774 158.751 41.6302C168.797 37.7547 176.455 51.0201 168.076 57.782C161.705 62.9242 164.454 73.1853 172.543 74.4527C183.098 76.1061 183.18 91.198 172.791 93.0614L172.543 93.1031C164.454 94.3703 161.705 104.631 168.076 109.773C176.455 116.535 168.797 129.801 158.751 125.925C151.112 122.978 143.601 130.49 146.548 138.129L146.635 138.364C150.188 148.215 137.311 155.65 130.556 147.648L130.396 147.454C125.254 141.082 114.992 143.832 113.725 151.921L113.347 151.862C114.666 143.444 125.343 140.583 130.694 147.213C137.182 155.252 149.909 147.904 146.19 138.267C143.124 130.318 150.94 122.501 158.889 125.568C168.527 129.286 175.875 116.559 167.836 110.072C161.206 104.721 164.067 94.0433 172.484 92.7246C182.69 91.1258 182.69 76.4299 172.484 74.8311C164.067 73.5124 161.206 62.8347 167.836 57.4839C175.875 50.9964 168.527 38.2694 158.889 41.9876C150.94 45.0543 143.123 37.2378 146.19 29.2886C149.908 19.6509 137.182 12.3032 130.694 20.342C125.343 26.9725 114.666 24.1114 113.347 15.6938C111.748 5.48827 97.0525 5.48825 95.4536 15.6938C94.1349 24.1114 83.4572 26.9725 78.1064 20.342ZM40.7241 57.7821C32.3451 51.0202 40.0038 37.7549 50.0492 41.6304C57.6288 44.5545 65.0829 37.1825 62.3201 29.6055L62.253 29.4269C58.3776 19.3815 71.6423 11.7228 78.4042 20.1015L78.1064 20.342C71.6189 12.3032 58.8922 19.6512 62.6104 29.2889C65.677 37.238 57.8606 45.0546 49.9115 41.9879C40.2737 38.2697 32.9259 50.9965 40.9648 57.484C47.5952 62.8348 44.7341 73.5123 36.3166 74.8311C26.111 76.4299 26.1109 91.1255 36.3164 92.7244C44.7339 94.0431 47.595 104.721 40.9645 110.072C32.9258 116.559 40.2737 129.286 49.9115 125.568C57.8606 122.501 65.6771 130.317 62.6105 138.267C58.8923 147.904 71.619 155.252 78.1065 147.213C83.4573 140.583 94.1348 143.444 95.4536 151.861C97.0524 162.067 111.748 162.067 113.347 151.862L113.725 151.921C112.072 162.475 96.9801 162.558 95.1166 152.168L95.0751 151.921C93.8077 143.831 83.5467 141.082 78.4046 147.454C71.6427 155.833 58.3774 148.174 62.2529 138.129C65.177 130.549 57.8053 123.095 50.2284 125.858L50.0494 125.925C40.0039 129.8 32.3452 116.535 40.7242 109.773C47.0463 104.672 44.389 94.5304 36.4459 93.1344L36.2573 93.1028C25.6199 91.4364 25.62 76.1191 36.2574 74.4526C44.3466 73.1853 47.0959 62.9242 40.7241 57.7821Z" fill="white" fill-opacity="0.5"/>
<path opacity="0.344828" d="M43.0194 54.8845C35.1151 47.7915 43.3438 35.1204 53.0385 39.4563C60.3535 42.7279 68.0762 35.8514 65.7461 28.2454L65.6895 28.0655C62.3907 17.9706 75.8522 11.1115 82.0802 19.7138L82.1923 19.8655C86.9383 26.1714 96.92 24.0497 98.6909 16.3586L98.7316 16.1745C100.922 5.7827 116.01 6.57348 117.102 17.1374C117.933 25.1709 127.898 28.4088 133.292 22.3978C140.386 14.4935 153.057 22.7222 148.721 32.417L148.645 32.5898C145.533 39.9106 152.495 47.557 160.112 45.068C170.128 41.7949 176.958 55.0216 168.662 61.3116L168.463 61.4587C161.921 66.1949 164.1 76.4442 172.002 78.11C182.313 80.2836 181.615 95.1533 171.285 96.4525L171.04 96.4806C163.006 97.3113 159.768 107.277 165.779 112.671L165.961 112.838C173.495 119.905 165.507 132.206 155.987 128.197L155.76 128.099C148.387 124.802 140.6 131.813 143.109 139.49C146.382 149.506 133.155 156.337 126.865 148.04L126.718 147.842C121.982 141.3 111.733 143.478 110.067 151.381L110.013 151.622C107.66 161.68 93.0135 160.912 91.7245 150.664L91.6963 150.418C90.8657 142.385 80.9 139.147 75.506 145.158C68.413 153.062 55.7419 144.833 60.0779 135.138C63.3494 127.824 56.4729 120.101 48.8669 122.431L48.687 122.487C38.5921 125.786 31.7331 112.325 40.3354 106.097C46.8772 101.361 44.6987 91.1113 36.796 89.4454C26.4043 87.2547 27.195 72.1672 37.7589 71.0748C45.7924 70.2441 49.0303 60.2785 43.0194 54.8845ZM52.8822 39.8062C43.5863 35.6486 35.6963 47.7982 43.2754 54.5994C49.5335 60.2154 46.1623 70.5906 37.7984 71.4555C27.6691 72.5029 26.911 86.9701 36.8753 89.0705C45.1029 90.805 47.3711 101.476 40.5603 106.407C32.3118 112.379 38.8887 125.287 48.5683 122.124C56.5609 119.512 63.8606 127.619 60.4277 135.295C56.2702 144.591 68.4197 152.481 75.221 144.902C80.8369 138.643 91.2121 142.015 92.0771 150.379C93.1245 160.508 107.592 161.266 109.692 151.302C111.427 143.074 122.097 140.806 127.028 147.617C133 155.865 145.908 149.288 142.745 139.609C140.133 131.616 148.24 124.316 155.916 127.749C165.212 131.907 173.102 119.757 165.523 112.956C159.265 107.34 162.636 96.9649 171 96.0999C181.129 95.0525 181.888 80.5851 171.923 78.4846C163.696 76.7502 161.428 66.0797 168.239 61.1487C176.487 55.177 169.91 42.2688 160.23 45.4319C152.238 48.0435 144.938 39.9365 148.371 32.2607C152.528 22.9648 140.379 15.0748 133.578 22.6539C127.962 28.912 117.586 25.5408 116.721 17.1769C115.674 7.0476 101.207 6.28947 99.1065 16.2538C97.3719 24.4814 86.7012 26.7494 81.7702 19.9385C75.7985 11.6899 62.8903 18.2671 66.0534 27.9468C68.6651 35.9393 60.558 43.2391 52.8822 39.8062Z" fill="white" fill-opacity="0.5"/>
<path opacity="0.37931" d="M45.4428 52.1552C38.0246 44.7618 46.7824 32.7079 56.1062 37.4783C63.1413 41.0778 71.1019 34.7042 69.1997 27.0934L69.153 26.9133C66.4253 16.8013 80.0368 10.7413 85.7263 19.5347L85.8287 19.6896C90.1774 26.1446 100.117 24.5704 102.258 17.0874L102.308 16.9085C105.001 6.78735 119.819 8.34459 120.35 18.8046L120.361 18.9902C120.904 26.8163 130.444 30.4181 136.023 24.8208C143.416 17.4027 155.47 26.1604 150.7 35.4842L150.616 35.6506C147.173 42.6996 153.635 50.5891 161.265 48.5309C171.377 45.8033 177.437 59.4148 168.643 65.1042C161.956 69.4309 163.573 79.6369 171.269 81.6855C181.312 84.3581 179.857 98.9664 169.617 99.7127L169.373 99.7277C161.419 100.131 157.716 109.778 163.357 115.401L163.528 115.575C170.582 122.923 162.081 134.625 152.912 130.186L152.694 130.078C145.603 126.45 137.573 132.953 139.647 140.643L139.708 140.879C142.143 150.77 128.929 156.653 123.208 148.225L123.074 148.021C118.747 141.334 108.541 142.951 106.492 150.647L106.427 150.883C103.59 160.666 89.2056 159.154 88.4652 148.995L88.4502 148.751C88.0499 140.859 78.5498 137.152 72.9097 142.604L72.7773 142.735C65.4416 150.095 53.5179 141.531 57.9917 132.29L58.1004 132.072C61.6999 125.037 55.3262 117.076 47.7154 118.978L47.5354 119.025C37.4234 121.753 31.3634 108.141 40.1567 102.452C46.7913 98.1588 45.2517 88.0781 37.7095 85.92L37.5305 85.8704C27.4094 83.1767 28.9666 68.3587 39.4266 67.8282C47.3189 67.4279 51.026 57.9281 45.5734 52.288L45.4428 52.1552ZM55.9318 37.8195C46.9969 33.248 38.6046 44.799 45.7135 51.8839C51.5901 57.7409 47.7322 67.7905 39.446 68.2108C29.4224 68.7192 27.9299 82.919 37.6288 85.5003C45.6466 87.6342 47.3306 98.2662 40.3646 102.773C31.9381 108.225 37.7454 121.269 47.4356 118.655C55.4461 116.494 62.2207 124.86 58.4416 132.246C53.8701 141.181 65.421 149.573 72.506 142.464C78.3629 136.588 88.4125 140.446 88.8328 148.732C89.3413 158.756 103.541 160.248 106.122 150.549C108.256 142.531 118.888 140.847 123.395 147.813C128.847 156.24 141.891 150.432 139.277 140.742C137.116 132.732 145.482 125.957 152.868 129.736C161.803 134.308 170.195 122.757 163.087 115.672C157.21 109.815 161.068 99.7654 169.354 99.3452C179.378 98.8366 180.87 84.637 171.171 82.0556C163.153 79.9217 161.469 69.2897 168.435 64.7826C176.862 59.3305 171.054 46.287 161.364 48.9008C153.354 51.0617 146.579 42.6961 150.358 35.3098C154.93 26.3749 143.379 17.9826 136.294 25.0914C130.437 30.9681 120.387 27.1102 119.967 18.8239C119.459 8.80037 105.259 7.30796 102.678 17.0068C100.544 25.0246 89.9118 26.7086 85.4046 19.7426C79.9525 11.3161 66.909 17.1234 69.5228 26.8135C71.6837 34.8241 63.3181 41.5986 55.9318 37.8195Z" fill="white" fill-opacity="0.5"/>
<path opacity="0.413793" d="M47.9816 49.599C41.059 41.9365 50.3041 30.5197 59.2384 35.698C66.0327 39.6359 74.2754 33.6473 72.6297 25.9686C70.4658 15.8713 84.181 10.6066 89.3292 19.5584L89.4219 19.7167C93.3707 26.2968 103.239 25.2594 105.733 18.0021L105.791 17.8282C108.966 8.00164 123.476 10.3 123.458 20.6266L123.46 20.8097C123.59 28.5435 132.798 32.5824 138.58 27.3591C146.242 20.4364 157.659 29.6815 152.481 38.616L152.39 38.7752C148.636 45.5381 154.591 53.6399 162.21 52.0073C172.229 49.8601 177.49 63.3451 168.828 68.5844L168.621 68.7064C161.813 72.6215 162.878 82.7541 170.351 85.1683C180.177 88.3429 177.879 102.853 167.552 102.835C159.699 102.822 155.555 112.13 160.82 117.957L160.979 118.137C167.546 125.737 158.571 136.82 149.772 131.977L149.563 131.858C142.769 127.92 134.526 133.909 136.172 141.587L136.219 141.823C138.107 151.688 124.793 156.799 119.594 148.205L119.472 147.998C115.557 141.19 105.425 142.255 103.011 149.728L102.934 149.956C99.61 159.518 85.3261 157.176 85.3433 146.93C85.3564 139.138 76.1937 134.998 70.3589 140.075L70.2218 140.197C62.6191 147.066 51.3204 138.018 56.2023 129.15L56.3207 128.94C60.2279 122.199 54.363 114.032 46.771 115.512L46.5914 115.549C36.4941 117.713 31.2293 103.998 40.1811 98.8497C46.9354 94.9652 45.9397 84.96 38.6248 82.4459L38.4509 82.3878C28.6244 79.2133 30.9225 64.7031 41.2491 64.7205C49.0407 64.7336 53.181 55.5712 48.1032 49.7365L47.9816 49.599ZM59.0464 36.0296C50.49 31.0703 41.636 42.0042 48.2658 49.3425C53.7529 55.4162 49.4336 65.1173 41.2484 65.1036C31.3588 65.0869 29.1578 78.983 38.5685 82.0234C46.3574 84.5396 47.4674 95.101 40.3719 99.1818C31.799 104.112 36.841 117.247 46.5111 115.175C54.5146 113.459 60.7565 122.05 56.6521 129.132C51.6928 137.689 62.6267 146.543 69.965 139.913C76.0386 134.426 85.7401 138.745 85.7263 146.93C85.7098 156.82 99.6056 159.021 102.646 149.61C105.162 141.821 115.723 140.711 119.804 147.807C124.735 156.38 137.87 151.338 135.797 141.668C134.082 133.664 142.673 127.422 149.755 131.527C158.311 136.486 167.165 125.552 160.536 118.214C155.048 112.14 159.368 102.439 167.553 102.452C177.443 102.469 179.643 88.5731 170.233 85.5328C162.444 83.0165 161.334 72.4552 168.429 68.3744C177.002 63.444 171.96 50.3093 162.29 52.3818C154.287 54.097 148.045 45.5054 152.149 38.4237C157.109 29.8673 146.175 21.0132 138.836 27.6431C132.763 33.1303 123.061 28.8111 123.075 20.6259C123.092 10.7362 109.196 8.53521 106.155 17.946C103.639 25.7348 93.0776 26.8449 88.9969 19.7494C84.0665 11.1764 70.9319 16.2183 73.0043 25.8883C74.7196 33.8918 66.1282 40.1341 59.0464 36.0296Z" fill="white" fill-opacity="0.5"/>
<path opacity="0.448276" d="M50.6225 47.2202C44.203 39.3198 53.8931 28.5578 62.4212 34.1164C68.9066 38.3435 77.3298 32.8735 76.1059 25.2294C74.4966 15.1777 88.2698 10.7026 92.876 19.7806C96.3789 26.6841 106.409 26.1584 109.171 18.9266C112.803 9.41683 126.968 12.4277 126.419 22.5927C126 30.3227 134.95 34.8826 140.958 30.0007C148.858 23.5811 159.62 33.2713 154.061 41.7995L153.964 41.9518C149.92 48.4158 155.364 56.6984 162.948 55.4841C173 53.8747 177.475 67.648 168.397 72.2543C161.494 75.7572 162.019 85.7869 169.251 88.549C178.761 92.1811 175.75 106.347 165.585 105.797C157.855 105.379 153.295 114.328 158.177 120.335L158.325 120.521C164.398 128.341 154.99 138.789 146.579 133.567L146.379 133.439C139.893 129.212 131.47 134.682 132.694 142.326C134.303 152.378 120.53 156.853 115.923 147.775C112.421 140.872 102.391 141.397 99.6287 148.629C95.9966 158.139 81.8311 155.128 82.3809 144.963C82.7958 137.294 73.9895 132.745 67.9836 137.443L67.8423 137.555C60.0036 143.925 49.3479 134.435 54.6112 125.957L54.7385 125.757C58.9656 119.271 53.4953 110.848 45.8512 112.072C35.7996 113.681 31.3244 99.9079 40.4024 95.3017C47.3059 91.7988 46.7803 81.769 39.5484 79.0069C30.0387 75.3748 33.0496 61.2093 43.2145 61.7591C50.8841 62.174 55.4329 53.3677 50.7351 47.3618L50.6225 47.2202ZM62.2121 34.4375C54.05 29.1174 44.7757 39.4176 50.9198 46.9789C56.0111 53.2448 51.2555 62.5777 43.1937 62.1416C33.5413 61.6196 30.629 74.962 39.4739 78.5658L39.8606 78.7177C47.1775 81.6691 47.7114 91.8566 40.7431 95.5566L40.3744 95.7481C31.9546 100.257 36.2456 113.222 45.7906 111.694C53.7627 110.417 59.4678 119.202 55.0593 125.966C49.7392 134.128 60.0394 143.402 67.6007 137.258C73.8666 132.167 83.1995 136.922 82.7634 144.984C82.2372 154.713 95.7946 157.594 99.2709 148.493C102.129 141.01 112.449 140.411 116.178 147.435L116.37 147.803C120.879 156.223 133.844 151.932 132.315 142.387C131.039 134.415 139.824 128.71 146.588 133.119C154.75 138.439 164.024 128.138 157.88 120.577C152.789 114.311 157.544 104.978 165.606 105.414C175.334 105.941 178.216 92.3831 169.115 88.9068C161.572 86.0262 161.024 75.5659 168.224 71.9126C176.912 67.5041 172.629 54.322 163.009 55.8623C155.037 57.1388 149.332 48.3538 153.74 41.5901C159.06 33.428 148.76 24.1538 141.199 30.2977C134.933 35.3892 125.6 30.6338 126.036 22.5719C126.558 12.9193 113.216 10.007 109.612 18.8521L109.46 19.2388C106.485 26.6136 96.1591 27.0973 92.5344 19.9537C88.1258 11.2656 74.9439 15.5486 76.4841 25.1688C77.7605 33.1409 68.9759 38.846 62.2121 34.4375Z" fill="white" fill-opacity="0.5"/>
<path opacity="0.482759" d="M53.3569 45.0231C47.4461 36.9162 57.5388 26.8235 65.6457 32.7343C71.7625 37.1942 80.2495 32.3567 79.5902 24.8707L79.573 24.6937C78.5075 14.7175 92.2942 11.0231 96.3596 20.1953L96.4331 20.3577C99.5802 27.1168 109.221 27.1168 112.368 20.3577L112.442 20.1956C116.507 11.0232 130.294 14.7173 129.228 24.6934L129.211 24.8707C128.551 32.3568 137.038 37.1942 143.155 32.7343C151.262 26.8235 161.355 36.9162 155.444 45.0231L155.34 45.168C151.026 51.3215 155.958 59.7541 163.485 58.9501C173.383 57.893 177.097 71.4572 168.195 75.6399L167.983 75.737C161.008 78.8286 161.008 88.7272 167.983 91.8187C177.084 95.8524 173.518 109.456 163.717 108.628L163.485 108.606C155.898 107.795 150.949 116.368 155.444 122.533L155.579 122.723C161.153 130.733 151.355 140.53 143.346 134.957L143.155 134.821C136.99 130.326 128.418 135.276 129.228 142.862L129.25 143.095C130.072 152.818 116.688 156.405 112.538 147.573L112.442 147.36C109.35 140.385 99.4512 140.385 96.3596 147.36L96.2625 147.573C92.1127 156.404 78.7287 152.818 79.5508 143.095L79.573 142.862C80.3768 135.335 71.944 130.404 65.7906 134.718L65.6457 134.821C57.5388 140.732 47.4461 130.64 53.3569 122.533C57.8168 116.416 52.9794 107.929 45.4933 108.588L45.3163 108.605C35.3401 109.671 31.6458 95.8844 40.8182 91.819C47.739 88.7516 47.7931 78.9826 40.9803 75.8105L40.8182 75.7367C31.6458 71.6714 35.3401 57.8849 45.3163 58.9504C52.9028 59.7605 57.8519 51.188 53.3569 45.0231ZM65.42 33.044C57.6662 27.3906 48.0132 37.0436 53.6666 44.7974C58.3573 51.2309 53.1924 60.1767 45.2756 59.3313C35.7338 58.3122 32.2005 71.4985 40.9735 75.3868C48.2524 78.613 48.2524 88.9427 40.9735 92.1689C32.2005 96.0572 35.7338 109.244 45.2756 108.224C53.1924 107.379 58.3573 116.325 53.6666 122.758C48.0132 130.512 57.6662 140.165 65.42 134.512C71.8535 129.821 80.7993 134.986 79.9539 142.903C78.9348 152.445 92.1211 155.978 96.0094 147.205C99.2356 139.926 109.565 139.926 112.792 147.205C116.68 155.978 129.866 152.445 128.847 142.903C128.002 134.986 136.947 129.821 143.381 134.512C151.135 140.165 160.788 130.512 155.134 122.758C150.444 116.325 155.609 107.379 163.525 108.224C173.067 109.244 176.6 96.0572 167.827 92.1689C160.549 88.9427 160.549 78.6131 167.827 75.3868C176.6 71.4985 173.067 58.3122 163.525 59.3313C155.609 60.1767 150.444 51.2309 155.134 44.7974C160.788 37.0436 151.135 27.3906 143.381 33.044C136.947 37.7346 128.002 32.5698 128.847 24.653C129.866 15.1112 116.68 11.5779 112.792 20.3509C109.565 27.6298 99.2356 27.6298 96.0094 20.3509C92.1211 11.5779 78.9348 15.1112 79.9539 24.653C80.7993 32.5698 71.8535 37.7347 65.42 33.044Z" fill="white" fill-opacity="0.5"/>
<path opacity="0.517241" d="M56.1715 43.0104C50.7733 34.7282 61.2251 25.3174 68.8976 31.5518C74.6867 36.2559 83.2876 31.9334 83.0249 24.533L83.0171 24.3577C82.4831 14.4861 96.2396 11.562 99.767 20.7972L99.8313 20.9608C102.58 27.7741 112.066 28.2713 115.511 21.7826L115.592 21.6268C120.065 12.8107 133.441 17.1566 131.878 26.9184C130.69 34.342 138.87 39.6542 145.168 35.549C153.45 30.1508 162.861 40.6025 156.627 48.275L156.517 48.4123C151.955 54.2449 156.372 62.7975 163.821 62.3945C173.616 61.8647 176.571 75.4032 167.595 79.06L167.381 79.1447C160.358 81.8272 159.848 91.5674 166.552 94.9693C175.299 99.4077 171.089 112.61 161.488 111.289L161.26 111.256C153.837 110.067 148.524 118.247 152.63 124.546L152.753 124.74C157.825 132.909 147.678 142.045 140.084 136.148L139.904 136.004C134.069 131.263 125.378 135.691 125.784 143.198C126.314 152.993 112.775 155.948 109.119 146.973L109.034 146.759C106.351 139.735 96.6107 139.225 93.2089 145.929L92.8678 145.756C96.42 138.755 106.591 139.289 109.392 146.622C112.763 155.449 125.912 152.654 125.402 143.219C124.978 135.38 134.053 130.756 140.145 135.707C147.479 141.666 157.468 132.671 152.309 124.755C148.022 118.178 153.569 109.636 161.321 110.877C170.651 112.371 174.805 99.5866 166.379 95.3109C159.378 91.7587 159.911 81.5878 167.245 78.7869C176.072 75.4154 173.277 62.2667 163.842 62.777C156.003 63.2011 151.379 54.126 156.329 48.0335C162.288 40.7001 153.294 30.7104 145.377 35.8701C138.801 40.1567 130.259 34.6094 131.5 26.8578C132.994 17.5275 120.209 13.3735 115.933 21.8C112.381 28.8006 102.21 28.2676 99.4094 20.934C96.038 12.1067 82.8892 14.9016 83.3996 24.337C83.8236 32.1758 74.7486 36.7998 68.656 31.8493C61.3226 25.8904 51.3329 34.8852 56.4926 42.8013C60.7792 49.3779 55.232 57.9199 47.4804 56.6788C38.15 55.1849 33.996 67.9695 42.4225 72.2452L42.2491 72.5865L42.0452 72.4802C33.5013 67.9053 37.8554 54.7498 47.541 56.3006C54.9645 57.4891 60.2768 49.3086 56.1715 43.0104ZM42.4225 72.2452C49.4232 75.7974 48.8902 85.9683 41.5565 88.7692C32.7293 92.1407 35.5242 105.289 44.9596 104.779C52.7984 104.355 57.4224 113.43 52.4719 119.523C46.5129 126.856 55.5077 136.846 63.4238 131.686C70.0004 127.399 78.5424 132.947 77.3013 140.698C75.8075 150.029 88.5921 154.183 92.8678 145.756L93.2091 145.93C88.7706 154.677 75.5687 150.467 76.8892 140.866L76.9231 140.638C78.1024 133.272 70.0585 127.985 63.7809 131.913L63.6329 132.007C55.3508 137.405 45.94 126.954 52.1744 119.281C56.8784 113.492 52.5559 104.891 45.1555 105.154L44.9803 105.162C35.1086 105.696 32.1845 91.9391 41.4198 88.4117C48.443 85.7292 48.9535 75.9884 42.2491 72.5865L42.4225 72.2452Z" fill="white" fill-opacity="0.5"/>
<path opacity="0.551724" d="M59.0542 41.184C54.1705 32.7578 64.938 24.0384 72.1648 30.5673C77.6175 35.4936 86.3017 31.6847 86.4249 24.3908L86.4264 24.2178C86.41 14.4785 100.095 12.3112 103.089 21.5789L103.143 21.7429C105.496 28.5874 114.803 29.5656 118.527 23.3597L118.614 23.2104C123.47 14.7678 136.405 19.7332 134.364 29.2562L134.329 29.4255C132.933 36.5857 140.636 42.1172 146.994 38.4324C155.42 33.5485 164.139 44.3162 157.61 51.543L157.495 51.6721C152.706 57.175 156.612 65.8167 163.96 65.8043C173.623 65.7881 175.832 79.2597 166.814 82.3945L166.599 82.4666C159.551 84.7435 158.547 94.3001 164.967 97.9925C173.344 102.81 168.521 115.581 159.144 113.787L158.922 113.742C151.68 112.19 146.032 119.964 149.746 126.372L149.857 126.569C154.461 134.933 143.805 143.466 136.635 136.988C131.139 132.023 122.361 135.932 122.374 143.338L122.372 143.565C122.178 153.035 108.893 155.139 105.783 146.192L105.711 145.977C103.434 138.929 93.8778 137.925 90.1854 144.345L90.0699 144.541C85.1674 152.646 72.6106 147.826 74.3907 138.522L74.4359 138.3C75.9758 131.114 68.3347 125.498 61.9563 129.038L61.8061 129.124C53.3798 134.007 44.6604 123.24 51.1893 116.013C56.1157 110.56 52.3066 101.876 45.0126 101.753L44.8398 101.752C35.1005 101.768 32.933 88.083 42.2007 85.0889C49.1933 82.8299 50.2368 73.4048 43.9818 69.6511L43.8325 69.5636C35.3898 64.7081 40.3552 51.7729 49.8783 53.8138C57.1202 55.3658 62.7682 47.5919 59.0542 41.184ZM71.908 30.8517C65.0055 24.6156 54.721 32.9437 59.3858 40.992C63.2664 47.6874 57.3648 55.81 49.798 54.1884C40.7021 52.239 35.9596 64.5936 44.0235 69.2313C50.7319 73.0893 49.6824 83.0747 42.3185 85.4537C33.4666 88.3134 35.5368 101.384 44.8391 101.368C52.5778 101.355 56.6616 110.528 51.4738 116.27C45.2376 123.172 53.5658 133.457 61.6141 128.792C68.3094 124.912 76.4321 130.813 74.8104 138.38C72.8611 147.476 85.2157 152.218 89.8533 144.154C93.7114 137.446 103.697 138.495 106.076 145.859C108.936 154.711 122.006 152.641 121.991 143.339C121.977 135.6 131.15 131.516 136.892 136.704C143.794 142.94 154.079 134.612 149.414 126.564C145.534 119.868 151.435 111.746 159.002 113.367C168.098 115.317 172.84 102.962 164.776 98.3246C158.068 94.4665 159.118 84.4811 166.481 82.1021C175.333 79.2423 173.263 66.1718 163.961 66.1874C156.222 66.2004 152.138 57.0282 157.326 51.286C163.562 44.3834 155.234 34.0991 147.186 38.7637C140.49 42.6444 132.368 36.7428 133.99 29.1759C135.939 20.0802 123.584 15.3377 118.947 23.4015C115.089 30.1099 105.103 29.0604 102.724 21.6964C99.8644 12.8446 86.7938 14.9148 86.8094 24.2171C86.8224 31.9557 77.6503 36.0395 71.908 30.8517Z" fill="white" fill-opacity="0.5"/>
<path opacity="0.586207" d="M61.9955 39.5463C57.6264 31.0067 68.6665 22.9855 75.438 29.7797C80.5875 34.9466 89.423 31.5551 89.7925 24.2697C90.2784 14.6895 103.85 13.263 106.317 22.5328L106.363 22.6969C108.323 29.5504 117.427 30.9924 121.41 25.0805L121.504 24.9384C126.715 16.8846 139.181 22.4349 136.683 31.6964C134.783 38.7394 142.138 44.6955 148.632 41.3728C157.172 37.0035 165.193 48.0438 158.399 54.8153L158.279 54.9364C153.285 60.1021 156.681 68.8031 163.909 69.1698C173.414 69.6519 174.893 83.0163 165.861 85.6348L165.646 85.6947C158.597 87.5709 157.116 96.9182 163.241 100.881C171.294 106.092 165.744 118.559 156.482 116.06C149.439 114.16 143.483 121.515 146.806 128.009L146.906 128.209C150.971 136.607 140.253 144.394 133.523 137.932L133.364 137.776C128.214 132.609 119.378 136.001 119.009 143.286C118.527 152.792 105.163 154.27 102.544 145.238L102.484 145.023C100.608 137.974 91.2604 136.493 87.2977 142.618L87.1742 142.804C81.8928 150.585 69.6396 145.049 72.1184 135.86C74.0034 128.872 66.7776 122.954 60.3216 126.107L60.1691 126.183C51.6963 130.518 43.7338 119.684 50.2461 112.9L50.4026 112.741C55.5694 107.591 52.1777 98.7556 44.8923 98.3861C35.3122 97.9001 33.8859 84.3287 43.1557 81.8616C50.15 80 51.6621 70.783 45.7031 66.7686L45.561 66.6749C37.5073 61.464 43.0576 48.9975 52.319 51.4957C59.307 53.3807 65.2249 46.155 62.0717 39.6989L61.9955 39.5463ZM75.1667 30.0503C68.7036 23.5655 58.1664 31.2212 62.3367 39.3719C65.8107 46.1618 59.583 53.852 52.2192 51.8655C43.3798 49.4812 38.0822 61.3796 45.7689 66.3532C52.1724 70.4964 50.6244 80.2701 43.254 82.2317C34.4066 84.5865 35.7681 97.5396 44.9117 98.0036C52.5289 98.3899 56.0754 107.628 50.6732 113.012C44.1884 119.475 51.8441 130.012 59.9947 125.842C66.7846 122.368 74.4746 128.596 72.4882 135.959C70.1038 144.799 82.0023 150.096 86.9759 142.41C91.1191 136.006 100.893 137.554 102.854 144.925C105.209 153.772 118.162 152.411 118.626 143.267C119.013 135.65 128.251 132.104 133.635 137.506C140.098 143.99 150.635 136.335 146.465 128.184C142.991 121.394 149.218 113.704 156.582 115.69C165.422 118.075 170.719 106.176 163.032 101.203C156.629 97.0595 158.177 87.2859 165.547 85.3242C174.395 82.9695 173.033 70.0162 163.89 69.5524C156.272 69.166 152.726 59.9278 158.129 54.5438C164.613 48.0808 156.958 37.5438 148.807 41.7138C142.017 45.1879 134.327 38.9604 136.313 31.5966C138.698 22.757 126.799 17.4594 121.825 25.1462C117.682 31.5498 107.909 30.0018 105.947 22.6313C103.592 13.7839 90.6389 15.1453 90.175 24.289C89.7887 31.9062 80.5507 35.4525 75.1667 30.0503Z" fill="white" fill-opacity="0.5"/>
<path opacity="0.62069" d="M64.981 38.0975C61.1247 29.475 72.3943 22.1564 78.7029 29.1864C83.5003 34.5326 92.3633 31.6529 93.1021 24.5079C94.0737 15.1123 107.493 14.4091 109.441 23.6516C110.911 30.6253 119.897 32.5873 124.151 26.9346L124.251 26.7995C129.79 19.1485 141.763 25.249 138.829 34.2275L138.779 34.3874C136.706 41.1521 143.575 47.2683 150.081 44.3585C158.703 40.5022 166.022 51.7718 158.992 58.0804L158.868 58.1935C153.691 63.0158 156.581 71.7466 163.67 72.4797C172.993 73.4436 173.758 86.6616 164.742 88.7711L164.527 88.8187C157.498 90.3003 155.56 99.4161 161.379 103.628C168.97 109.124 163.024 120.954 154.161 118.273L153.951 118.207C147.123 115.976 140.887 122.901 143.82 129.458L143.908 129.66C147.472 138.127 136.532 145.232 130.247 138.531L130.098 138.369C125.301 133.023 116.437 135.903 115.699 143.048L115.673 143.267C114.527 152.382 101.5 153.064 99.4072 144.119L99.3596 143.904C97.8779 136.876 88.7621 134.938 84.5498 140.756C79.0106 148.407 67.0377 142.307 69.9716 133.328C72.1854 126.554 65.3851 120.362 58.874 123.13L58.7202 123.198C50.165 127.024 42.8934 115.959 49.6469 109.624L49.8091 109.476C55.1134 104.716 52.32 95.9533 45.2973 95.0949L45.1304 95.0762C35.7349 94.1046 35.0316 80.6855 44.2741 78.7371C51.3027 77.2555 53.2403 68.1397 47.422 63.9273C39.771 58.3882 45.8715 46.4152 54.8499 49.3491C61.6243 51.5629 67.816 44.7626 65.048 38.2515L64.981 38.0975ZM78.4178 29.4424C72.401 22.7375 61.6525 29.7177 65.3305 37.9414C68.3988 44.8019 61.8745 52.0476 54.7309 49.7132C46.1678 46.9151 40.3495 58.3344 47.6466 63.6173C53.734 68.0245 51.7069 77.5615 44.3532 79.1117C35.5382 80.9698 36.2088 93.7684 45.1697 94.6951C52.6452 95.4681 55.6583 104.741 50.0649 109.76C43.36 115.777 50.3402 126.526 58.5639 122.848C65.4243 119.779 72.6701 126.304 70.3357 133.447C67.5375 142.01 78.9569 147.829 84.2398 140.532C88.647 134.444 98.1842 136.472 99.7343 143.825C101.593 152.64 114.391 151.969 115.318 143.009C116.091 135.533 125.364 132.52 130.383 138.113C136.4 144.818 147.148 137.838 143.47 129.614C140.402 122.754 146.926 115.508 154.07 117.843C162.633 120.641 168.451 109.222 161.154 103.939C155.067 99.5316 157.094 89.9941 164.448 88.4439C173.263 86.5856 172.592 73.7873 163.631 72.8607C156.156 72.0877 153.142 62.8147 158.736 57.7953C165.441 51.7786 158.461 41.03 150.237 44.7081C143.376 47.7762 136.131 41.252 138.465 34.1084C141.263 25.5454 129.844 19.7271 124.561 27.0239C120.154 33.1114 110.617 31.0844 109.067 23.7307C107.208 14.9157 94.4098 15.5863 93.4831 24.5472C92.7102 32.0227 83.4371 35.0358 78.4178 29.4424Z" fill="white" fill-opacity="0.5"/>
<path opacity="0.655172" d="M49.648 61.029C55.4095 65.6786 52.9234 74.957 45.609 76.1029C36.8538 77.4745 36.854 90.0816 45.6091 91.4531C52.9235 92.5992 55.4094 101.877 49.6479 106.527C42.7516 112.092 49.0552 123.01 57.3231 119.821C64.2305 117.156 71.0226 123.948 68.3579 130.855C65.1682 139.123 76.0862 145.427 81.6515 138.53C86.3012 132.769 95.5795 135.255 96.7254 142.569C98.097 151.325 110.704 151.324 112.076 142.569C113.222 135.255 122.5 132.769 127.149 138.53C132.715 145.427 143.633 139.123 140.443 130.855L140.8 130.718C144.121 139.325 132.869 145.904 126.989 138.938L126.852 138.771C122.411 133.268 113.548 135.643 112.454 142.629C111.026 151.744 97.9921 151.815 96.3828 142.842L96.3469 142.629C95.2524 135.643 86.3905 133.268 81.9496 138.771L81.8118 138.938C75.978 145.849 64.8564 139.428 67.9247 130.92L68.0007 130.718C70.546 124.12 64.0582 117.633 57.4607 120.178C48.853 123.499 42.2744 112.247 49.2401 106.367L49.4073 106.229C54.8674 101.823 52.5724 93.0642 45.7124 91.8587L45.5497 91.8313C36.363 90.3921 36.3628 77.1637 45.5494 75.7244C52.5356 74.6299 54.9102 65.768 49.4071 61.327L49.648 61.029ZM159.153 61.0291L159.394 61.3269C153.891 65.7678 156.265 74.6302 163.251 75.7247C172.366 77.1526 172.438 90.1863 163.465 91.7956L163.252 91.8316C156.265 92.926 153.891 101.788 159.394 106.229C166.573 112.023 160.118 123.346 151.543 120.254L151.34 120.178C144.743 117.632 138.255 124.12 140.8 130.717L140.443 130.855C137.778 123.948 144.57 117.156 151.478 119.821C159.746 123.01 166.049 112.092 159.153 106.527C153.391 101.877 155.878 92.599 163.192 91.453C171.947 90.0815 171.947 77.4744 163.192 76.1028C155.877 74.9567 153.392 65.6787 159.153 61.0291ZM68.0005 36.8382C64.6538 28.1627 76.1096 21.5487 81.9494 28.7848C86.3557 34.2449 95.1142 31.9499 96.3197 25.0899L96.3472 24.9272C97.7863 15.7405 111.015 15.7403 112.454 24.9269L112.481 25.09C113.677 31.8959 122.307 34.2083 126.746 28.9123L126.851 28.7846C132.691 21.5485 144.147 28.1628 140.8 36.8384C138.255 43.4358 144.743 49.9233 151.34 47.378C160.016 44.0312 166.63 55.4873 159.393 61.3271L159.153 61.0291C166.049 55.4637 159.746 44.5455 151.478 47.7353C144.57 50.4001 137.778 43.6082 140.443 36.7007C143.633 28.4328 132.715 22.1291 127.149 29.0255C122.5 34.787 113.221 32.3009 112.076 24.9865C110.704 16.2313 98.0969 16.2315 96.7253 24.9866C95.5792 32.3009 86.3012 34.7869 81.6516 29.0254C76.0862 22.129 65.1681 28.4326 68.3578 36.7006C71.0226 43.608 64.2307 50.4 57.3233 47.7354C49.0553 44.5456 42.7516 55.4636 49.648 61.029L49.4071 61.327C42.171 55.4872 48.7853 44.0312 57.4609 47.3782C64.0068 49.9036 70.4443 43.5368 68.0584 36.9931L68.0005 36.8382Z" fill="white" fill-opacity="0.5"/>
<path opacity="0.689655" d="M71.0417 35.7645C68.1991 27.0653 79.7997 21.1546 85.1667 28.5675C89.2162 34.161 97.9429 32.3565 99.4812 25.6761L99.5163 25.5176C101.404 16.5624 114.406 17.2438 115.347 26.3473L115.365 26.5086C116.19 33.2596 124.554 35.977 129.189 31.0003L129.299 30.8805C135.411 24.0689 146.331 31.16 142.594 39.5145C139.753 45.8678 145.795 52.5779 152.41 50.4162C161.109 47.5735 167.02 59.1742 159.607 64.5411C153.97 68.6226 155.847 77.455 162.657 78.8906C171.543 80.7636 170.941 93.5777 162.039 94.6972L161.828 94.7216C154.905 95.4374 152.114 104.025 157.294 108.673C164.053 114.738 157.125 125.535 148.856 122.054L148.66 121.969C142.307 119.127 135.597 125.169 137.758 131.785C140.601 140.484 129 146.395 123.633 138.982C119.552 133.344 110.72 135.222 109.284 142.032C107.411 150.917 94.597 150.316 93.4774 141.414L93.4534 141.202C92.7375 134.279 84.1499 131.489 79.5016 136.669L79.3574 136.826C73.2678 143.318 62.6676 136.434 66.1214 128.231L66.2064 128.035C69.0479 121.682 63.0055 114.971 56.39 117.133C47.6908 119.975 41.78 108.375 49.193 103.008C54.7865 98.9585 52.9822 90.2321 46.3018 88.6938L46.1433 88.6587C37.1881 86.771 37.8695 73.7691 46.973 72.8278C53.8416 72.1174 56.642 63.6581 51.626 58.9858L51.5062 58.8759C44.6946 52.7635 51.7857 41.8442 60.1402 45.5807C66.4935 48.4221 73.2036 42.38 71.0417 35.7645ZM84.8567 28.7922C79.746 21.7329 68.699 27.3616 71.406 35.6457C73.6711 42.577 66.6403 48.9075 59.9837 45.9304C52.0281 42.3723 45.2755 52.7701 51.7618 58.5908C57.1891 63.461 54.2656 72.4587 47.0122 73.2087C38.3434 74.1052 37.6946 86.4863 46.2222 88.2839C53.3575 89.788 55.3244 99.0421 49.4179 103.318C42.3586 108.429 47.9873 119.476 56.2713 116.769C63.2027 114.504 69.5332 121.535 66.5561 128.191C62.9979 136.147 73.3958 142.899 79.2164 136.413C84.0867 130.986 93.0843 133.909 93.8344 141.163C94.7309 149.832 107.112 150.48 108.91 141.953C110.414 134.817 119.668 132.85 123.944 138.757C129.055 145.816 140.102 140.188 137.395 131.904C135.13 124.972 142.16 118.642 148.817 121.619C156.772 125.177 163.525 114.779 157.039 108.959C151.612 104.088 154.535 95.0906 161.788 94.3406C170.457 93.4441 171.106 81.0631 162.578 79.2654C155.443 77.7613 153.476 68.5073 159.383 64.231C166.442 59.1203 160.813 48.0734 152.529 50.7804C145.598 53.0454 139.267 46.0147 142.245 39.3581C145.803 31.4025 135.405 24.65 129.584 31.1362C124.714 36.5634 115.716 33.6399 114.966 26.3865C114.07 17.7177 101.689 17.0689 99.8911 25.5966C98.387 32.7318 89.1329 34.6988 84.8567 28.7922Z" fill="white" fill-opacity="0.5"/>
<path opacity="0.724138" d="M74.0944 34.8817C71.7492 26.1874 83.4523 20.9769 88.3442 28.5372C92.0352 34.2419 100.703 32.9183 102.558 26.4335L102.601 26.2793C104.917 17.577 117.658 18.9162 118.114 27.9098L118.124 28.0693C118.587 34.7454 126.665 37.8461 131.476 33.1948L131.59 33.0825C137.947 26.7044 148.311 34.2345 144.21 42.2513L144.138 42.3942C141.177 48.455 146.733 55.2384 153.293 53.4688C161.988 51.1235 167.198 62.8268 159.638 67.7186C153.888 71.4387 155.278 80.2142 161.896 81.9755C170.53 84.2736 169.279 96.8338 160.475 97.4754L160.265 97.4883C153.426 97.8352 150.242 106.13 155.092 110.964C161.421 117.272 154.057 127.524 146.112 123.677L145.924 123.584C139.827 120.465 132.923 126.056 134.706 132.668C137.051 141.362 125.348 146.573 120.456 139.012C116.736 133.262 107.961 134.652 106.2 141.27L106.143 141.472C103.705 149.884 91.3361 148.584 90.6995 139.849L90.6866 139.64C90.3397 132.8 82.045 129.616 77.2107 134.467L77.0612 134.614C70.7431 140.679 60.6816 133.369 64.4978 125.486L64.5914 125.298C67.7107 119.202 62.119 112.297 55.5073 114.08C46.813 116.426 41.6024 104.723 49.1628 99.8307C54.8675 96.1396 53.544 87.4719 47.0591 85.6164L46.9051 85.574C38.2028 83.2579 39.5418 70.517 48.5354 70.0608C55.3214 69.7166 58.5088 61.5484 53.8204 56.699L53.7082 56.5851C47.3299 50.2282 54.8602 39.8639 62.877 43.9657C68.9735 47.0848 75.8779 41.4934 74.0944 34.8817ZM88.0229 28.7454C83.3684 21.5516 72.2329 26.5095 74.4644 34.782C76.3345 41.7146 69.0947 47.5772 62.7025 44.3067C55.0747 40.4039 47.91 50.2651 53.9788 56.3136C59.0646 61.3824 55.726 70.0799 48.5548 70.4436C39.9976 70.8777 38.7235 83.0001 47.0035 85.2038C53.9423 87.0506 55.3997 96.2517 49.3711 100.152C42.1773 104.807 47.1352 115.942 55.4078 113.711C62.3404 111.841 68.203 119.08 64.9324 125.473C61.0297 133.101 70.8909 140.265 76.9394 134.196C82.0081 129.111 90.7054 132.449 91.0692 139.62C91.5033 148.177 103.626 149.452 105.83 141.172C107.676 134.233 116.877 132.776 120.778 138.804C125.433 145.998 136.568 141.04 134.337 132.767C132.466 125.835 139.706 119.972 146.099 123.243C153.726 127.145 160.891 117.284 154.822 111.236C149.736 106.167 153.075 97.4697 160.246 97.106C168.803 96.672 170.077 84.5495 161.797 82.3457C154.859 80.4989 153.401 71.2978 159.43 67.3972C166.623 62.7427 161.666 51.6073 153.393 53.8387C146.461 55.7088 140.598 48.469 143.869 42.0767C147.771 34.4489 137.91 27.2843 131.861 33.3532C126.793 38.4389 118.095 35.1002 117.732 27.929C117.297 19.3719 105.175 18.0978 102.971 26.3778C101.125 33.3166 91.9235 34.7739 88.0229 28.7454Z" fill="white" fill-opacity="0.5"/>
<path opacity="0.758621" d="M77.1462 34.1846C75.29 25.523 87.0547 21.007 91.4711 28.6857C94.8295 34.5254 103.522 33.6119 105.593 27.2017C108.316 18.7723 120.763 20.7436 120.748 29.6019L120.749 29.7593C120.86 36.3413 128.636 39.8031 133.602 35.4817L133.719 35.3775C140.292 29.439 150.086 37.3696 145.644 45.0337C142.266 50.862 147.403 57.9327 153.99 56.521C162.652 54.6647 167.168 66.4296 159.489 70.8459L159.353 70.9256C153.664 74.3397 154.613 82.9126 160.973 84.9673C169.337 87.6693 167.461 99.9437 158.779 100.121L158.573 100.123C151.836 100.111 148.282 108.096 152.797 113.094C158.736 119.667 150.805 129.461 143.141 125.019C137.313 121.641 130.242 126.778 131.654 133.365L131.695 133.567C133.314 142.029 121.893 146.413 117.433 139.042L117.329 138.864C113.97 133.024 105.278 133.938 103.207 140.348C100.505 148.711 88.2312 146.836 88.0542 138.154L88.0523 137.947C88.0636 131.211 80.0791 127.656 75.0806 132.172L74.9259 132.309C68.3553 137.987 58.7486 130.12 63.1559 122.516C66.5339 116.688 61.3966 109.617 54.8097 111.028C46.1482 112.885 41.6322 101.12 49.3109 96.7036C55.1505 93.3452 54.2371 84.653 47.8268 82.5821C39.3975 79.8589 41.3689 67.4123 50.2272 67.4272C56.911 67.4384 60.4627 59.5783 56.1068 54.5731L56.0027 54.4553C50.0642 47.8822 57.9947 38.0887 65.6588 42.5308C71.4871 45.9088 78.5579 40.7715 77.1462 34.1846ZM91.1393 28.8768C86.9409 21.5765 75.7561 25.87 77.5209 34.1044C79.0022 41.0162 71.5825 46.4068 65.4667 42.8621C58.1807 38.6393 50.6413 47.9499 56.2868 54.1987C61.0254 59.4438 57.2953 67.8218 50.2267 67.81C41.8053 67.7958 39.931 79.6287 47.9445 82.2176C54.671 84.3907 55.6298 93.5116 49.5021 97.0357C42.2018 101.234 46.4953 112.419 54.7297 110.654C61.6415 109.173 67.032 116.592 63.4873 122.708C59.2644 129.994 68.575 137.533 74.8239 131.888C80.069 127.149 88.4472 130.88 88.4353 137.948C88.4212 146.37 100.254 148.244 102.843 140.23C105.016 133.504 114.137 132.545 117.661 138.673C121.859 145.973 133.044 141.679 131.279 133.445C129.798 126.533 137.217 121.143 143.333 124.687C150.619 128.91 158.159 119.6 152.513 113.351C147.774 108.106 151.505 99.7275 158.573 99.7394C166.995 99.7535 168.869 87.9208 160.855 85.3319C154.129 83.1588 153.17 74.0383 159.298 70.5142C166.598 66.3157 162.305 55.131 154.07 56.8957C147.158 58.3769 141.768 50.9573 145.313 44.8416C149.535 37.5555 140.225 30.0161 133.976 35.6615C128.731 40.4003 120.353 36.6702 120.365 29.6015C120.379 21.1801 108.546 19.3058 105.957 27.3194C103.784 34.0458 94.6634 35.0044 91.1393 28.8768Z" fill="white" fill-opacity="0.5"/>
<path opacity="0.793103" d="M80.1875 33.6707C78.8102 25.0687 90.5967 21.2391 94.5386 29.0078C97.5363 34.9154 106.119 34.4654 108.483 28.2767C111.591 20.1386 123.714 22.7152 123.243 31.414C122.891 37.9257 130.306 41.8086 135.442 37.9434L135.685 37.7535C142.446 32.2599 151.656 40.5526 146.899 47.8507L146.736 48.1119C143.428 53.6238 148.065 60.5926 154.505 59.5616C163.106 58.1845 166.936 69.9708 159.167 73.9127L158.895 74.0575C153.275 77.1773 153.806 85.5306 159.898 87.8574C167.973 90.9413 165.499 102.899 156.964 102.626L156.761 102.617C150.146 102.26 146.244 109.918 150.421 115.06C155.872 121.768 147.751 130.886 140.496 126.382L140.324 126.273C134.774 122.656 127.566 127.337 128.613 133.879L128.643 134.079C129.797 142.473 118.356 146.191 114.356 138.722L114.262 138.542C111.264 132.634 102.681 133.084 100.318 139.272L100.243 139.461C97.0457 147.308 85.2777 144.806 85.5485 136.338L85.5574 136.135C85.9152 129.52 78.2567 125.618 73.1153 129.796C66.3544 135.289 57.1445 126.997 61.9014 119.698C65.4624 114.235 60.9821 107.165 54.6015 107.945L54.2965 107.987C45.7617 109.354 41.9248 97.7618 49.4532 93.7302L49.6335 93.6363C55.4489 90.6854 55.1038 82.3221 49.1884 79.8069L48.9025 79.6918C40.7643 76.5835 43.341 64.4612 52.0397 64.9316C58.5515 65.2839 62.4344 57.8686 58.5692 52.7326L58.3793 52.4895C52.8857 45.7286 61.1783 36.5188 68.4764 41.2757C73.9397 44.8366 81.0098 40.3563 80.2304 33.9758L80.1875 33.6707ZM94.1972 29.1808C90.453 21.8018 79.2576 25.4394 80.5658 33.61C81.6657 40.4796 74.0956 45.3955 68.2672 41.5965C61.3351 37.0783 53.4583 45.8264 58.6765 52.2482C63.0638 57.6475 58.9661 65.6897 52.0192 65.3139C43.7567 64.867 41.3091 76.3815 49.0391 79.3339C55.5383 81.8162 56.0108 90.83 49.8067 93.978C42.4277 97.7222 46.0653 108.918 54.2358 107.609C61.1054 106.51 66.0212 114.079 62.2223 119.908C57.704 126.84 66.4522 134.717 72.874 129.498C78.2733 125.111 86.3154 129.209 85.9397 136.156C85.4927 144.418 97.0073 146.866 99.9596 139.136C102.442 132.637 111.456 132.164 114.604 138.368C118.348 145.747 129.543 142.11 128.235 133.939C127.135 127.069 134.705 122.154 140.533 125.953C147.465 130.471 155.342 121.723 150.124 115.301C145.737 109.902 149.835 101.859 156.781 102.235C165.044 102.682 167.492 91.1676 159.762 88.2152C153.262 85.733 152.79 76.7195 158.994 73.5715C166.373 69.8273 162.735 58.6318 154.565 59.94C147.695 61.0399 142.779 53.4698 146.578 47.6415C151.097 40.7094 142.348 32.8325 135.927 38.0507C130.527 42.438 122.485 38.3404 122.861 31.3934C123.308 23.1309 111.793 20.6834 108.841 28.4133C106.359 34.9125 97.3452 35.3849 94.1972 29.1808Z" fill="white" fill-opacity="0.5"/>
<path opacity="0.827586" d="M83.2054 33.3369C82.2958 24.8206 94.0648 21.6671 97.5352 29.4973C100.133 35.3586 108.362 35.45 111.136 29.7717L111.264 29.4969C114.734 21.667 126.503 24.8206 125.594 33.3369L125.567 33.6387C125.13 39.9432 132.302 43.9782 137.483 40.2009C144.403 35.1551 153.019 43.7707 147.973 50.6912C144.136 55.954 148.361 63.2723 154.837 62.5806C163.354 61.671 166.507 73.44 158.677 76.9104C152.723 79.5496 152.723 88 158.677 90.6391C166.446 94.0824 163.402 105.695 155.036 104.988L154.837 104.969C148.361 104.277 144.136 111.595 147.973 116.858C152.98 123.724 144.537 132.26 137.645 127.464L137.483 127.348C132.22 123.511 124.902 127.736 125.594 134.212C126.496 142.662 114.917 145.833 111.347 138.234L111.264 138.052C108.625 132.098 100.174 132.098 97.5351 138.052C94.0647 145.882 82.2956 142.729 83.2052 134.213C83.8969 127.736 76.579 123.511 71.3162 127.348L71.1536 127.464C64.316 132.222 55.9521 123.858 60.71 117.021L60.8257 116.858C64.6029 111.678 60.568 104.505 54.2636 104.942L53.9617 104.969C45.5119 105.871 42.3413 94.2923 49.9405 90.7217L50.1221 90.639C56.0765 87.9998 56.0762 79.5495 50.1217 76.9104C42.2918 73.4399 45.4454 61.6708 53.9617 62.5804C60.3368 63.2612 64.5305 56.1808 60.9999 50.9395L60.8258 50.6914C55.7799 43.7709 64.3955 35.1552 71.316 40.2009C76.4965 43.9781 83.6685 39.9433 83.2318 33.6389L83.2054 33.3369ZM97.1852 29.6522C93.8919 22.2216 82.7228 25.2143 83.586 33.2961C84.313 40.1028 76.6216 44.5436 71.0903 40.5107C64.5229 35.7223 56.347 43.8981 61.1355 50.4655C65.1684 55.9968 60.7276 63.6885 53.9209 62.9615C45.8391 62.0983 42.8466 73.2667 50.2772 76.5601C56.5355 79.3339 56.5353 88.2152 50.277 90.989C42.8464 94.2824 45.8391 105.451 53.9209 104.588C60.7277 103.861 65.1685 111.553 61.1355 117.084C56.3471 123.651 64.5229 131.827 71.0904 127.039C76.6217 123.006 84.3133 127.447 83.5863 134.253C82.7232 142.335 93.8915 145.328 97.1849 137.897C99.9587 131.639 108.84 131.639 111.614 137.897C114.907 145.328 126.076 142.335 125.213 134.253C124.486 127.447 132.177 123.006 137.709 127.039C144.276 131.827 152.452 123.651 147.664 117.084C143.631 111.553 148.071 103.861 154.878 104.588C162.96 105.451 165.952 94.2827 158.522 90.9893C152.264 88.2155 152.264 79.3342 158.522 76.5604C165.953 73.267 162.96 62.0981 154.878 62.9612C148.071 63.6882 143.631 55.9968 147.663 50.4655C152.452 43.8981 144.276 35.7222 137.709 40.5106C132.177 44.5436 124.486 40.1028 125.213 33.2961C126.076 25.2143 114.907 22.2218 111.614 29.6524C108.84 35.9107 99.959 35.9105 97.1852 29.6522Z" fill="#FF7738"/>
<path opacity="0.862069" d="M86.1925 33.1794C85.7378 24.7738 97.4513 22.284 100.455 30.1479C102.703 36.0345 110.775 36.5475 113.79 31.117L113.93 30.854C117.739 23.3472 129.128 27.0477 127.797 35.3597L127.755 35.6546C127.014 41.7223 133.619 46.0116 138.861 42.8664L139.113 42.7087C146.165 38.1122 154.178 47.0116 148.87 53.5446L148.686 53.779C144.951 58.7419 148.703 65.9075 154.996 65.5671C163.401 65.1124 165.891 76.826 158.027 79.8294C152.047 82.1135 151.612 90.4075 157.321 93.3041C164.769 97.0834 161.184 108.325 153.009 107.2L152.815 107.172C146.494 106.159 141.971 113.125 145.466 118.488C150.027 125.485 141.302 133.428 134.784 128.366L134.631 128.245C129.662 124.208 122.262 127.978 122.608 134.37C123.059 142.71 111.531 145.227 108.417 137.584L108.346 137.402C106.062 131.422 97.7676 130.987 94.8709 136.696L94.7801 136.87C90.9153 144.087 79.8589 140.495 80.9744 132.384L81.0035 132.19C82.0156 125.869 75.05 121.345 69.6871 124.841L69.5217 124.946C62.5658 129.264 54.787 120.625 59.8083 114.159L59.9305 114.005C63.9043 109.115 60.3127 101.868 54.1024 101.972L53.8048 101.983C45.4648 102.434 42.9484 90.9056 50.5908 87.792L50.7732 87.7203C56.6599 85.4719 57.173 77.3997 51.7423 74.3851L51.4794 74.2456C43.9725 70.4366 47.673 59.0473 55.9851 60.3782C62.2073 61.3743 66.6876 54.6403 63.4918 49.3143L63.3341 49.0617C58.7375 42.0096 67.6369 33.9966 74.1699 39.3052C79.0604 43.2789 86.3075 39.6874 86.203 33.477L86.1925 33.1794ZM100.097 30.2844C97.2492 22.8288 86.1436 25.1893 86.5747 33.1586C86.9384 39.8825 79.1543 43.8488 73.9283 39.6024C67.7344 34.5694 59.2969 42.1664 63.6548 48.8524C67.3318 54.4937 62.5735 61.8209 55.9243 60.7563C48.0438 59.4947 44.5355 70.2927 51.6526 73.904C57.6575 76.951 57.2002 85.6753 50.9097 88.0779C43.454 90.9255 45.8146 102.031 53.7839 101.6C60.5078 101.236 64.4743 109.021 60.2278 114.247C55.1948 120.441 62.7917 128.878 69.4778 124.52C75.119 120.843 82.4461 125.601 81.3816 132.25C80.1198 140.131 90.918 143.64 94.5293 136.522C97.5763 130.517 106.301 130.975 108.703 137.265C111.551 144.721 122.656 142.36 122.225 134.391C121.862 127.667 129.646 123.701 134.872 127.947C141.066 132.98 149.504 125.383 145.146 118.697C141.469 113.056 146.227 105.729 152.876 106.794C160.756 108.055 164.265 97.2571 157.148 93.6458C151.143 90.5988 151.6 81.874 157.891 79.4714C165.346 76.6238 162.986 65.5184 155.016 65.9493C148.293 66.3131 144.326 58.529 148.573 53.303C153.606 47.109 146.008 38.6715 139.322 43.0295C133.681 46.7064 126.354 41.9481 127.419 35.299C128.68 27.4185 117.882 23.9101 114.271 31.0273C111.224 37.0323 102.499 36.575 100.097 30.2844Z" fill="#FF7738"/>
<path opacity="0.896552" d="M89.1363 33.1936C89.1223 24.9225 100.744 23.0818 103.287 30.9524C105.19 36.8439 113.084 37.7625 116.321 32.5892L116.472 32.3381C120.595 25.1682 131.58 29.3848 129.847 37.4723C128.55 43.5264 134.927 48.2689 140.317 45.4071L140.573 45.2651C147.729 41.1175 155.134 50.2616 149.589 56.3989L149.397 56.6199C145.477 61.2974 148.79 68.5209 154.982 68.5105C163.253 68.4966 165.093 80.1184 157.223 82.6611L156.946 82.7561C151.212 84.847 150.47 92.7594 155.837 95.8462C163.007 99.9697 158.79 110.955 150.703 109.221C144.552 107.903 139.756 114.505 142.91 119.947C147.025 127.047 138.055 134.393 131.92 129.091L131.776 128.964C127.109 124.747 119.654 128.066 119.664 134.356L119.663 134.549C119.499 142.591 108.217 144.378 105.575 136.78L105.514 136.597C103.58 130.612 95.4644 129.759 92.3286 135.211L92.2307 135.377C88.0672 142.26 77.4036 138.167 78.9153 130.266L78.9535 130.077C80.2715 123.927 73.6695 119.13 68.2276 122.284C61.1275 126.399 53.7825 117.43 59.0841 111.295L59.2116 111.15C63.3623 106.556 60.2108 99.2601 54.1117 99.0434L53.8193 99.0386C45.6128 99.0524 43.7366 87.6118 51.3954 84.9495L51.5781 84.888C57.4696 82.9846 58.3883 75.0909 53.2149 71.8536L52.9638 71.7029C45.7939 67.5794 50.0106 56.5946 58.098 58.3278C64.1521 59.6253 68.8947 53.2482 66.0328 47.8578L65.8907 47.602C61.7432 40.446 70.8874 33.0412 77.0247 38.5859C81.619 42.7367 88.9147 39.5851 89.1314 33.486L89.1363 33.1936ZM102.922 31.07C100.514 23.6153 89.5062 25.3587 89.5194 33.1928C89.5305 39.8149 81.6816 43.3095 76.7678 38.8701C70.9548 33.6184 62.2936 40.6322 66.222 47.4101C69.5427 53.1394 64.4929 60.0898 58.0179 58.7022C50.3577 57.0605 46.3637 67.4651 53.1547 71.3708C58.8952 74.6722 57.9971 83.2169 51.6956 85.2527C44.2409 87.661 45.9844 98.6686 53.8184 98.6555C60.4406 98.6443 63.9352 106.493 59.4958 111.407C54.244 117.22 61.2578 125.881 68.0358 121.953C73.7651 118.632 80.7156 123.682 79.3279 130.157C77.6864 137.817 88.0908 141.811 91.9966 135.021C95.298 129.28 103.843 130.178 105.878 136.479C108.287 143.934 119.294 142.191 119.281 134.356C119.27 127.734 127.119 124.24 132.033 128.679C137.846 133.931 146.507 126.917 142.579 120.139C139.258 114.41 144.308 107.459 150.783 108.847C158.443 110.489 162.437 100.084 155.646 96.1783C149.906 92.8769 150.803 84.3323 157.105 82.2965C164.56 79.8881 162.816 68.8805 154.982 68.8937C148.36 68.9048 144.866 61.0558 149.305 56.1421C154.557 50.3291 147.543 41.668 140.765 45.5963C135.036 48.917 128.085 43.8672 129.473 37.3922C131.114 29.732 120.71 25.7379 116.804 32.529C113.503 38.2695 104.958 37.3714 102.922 31.07Z" fill="#FF7738"/>
<path opacity="0.931035" d="M92.027 33.375C92.4385 25.2612 103.933 24.0531 106.023 31.9041C107.612 37.8743 115.528 39.1281 118.884 33.9411C123.298 27.1201 133.856 31.8209 131.74 39.6647L131.671 39.9436C130.347 45.6928 136.254 50.4765 141.603 47.9865L141.861 47.86C149.093 44.1597 155.887 53.5101 150.132 59.2451L149.933 59.4519C145.847 63.8386 148.726 71.0944 154.799 71.4025C162.913 71.8141 164.121 83.3084 156.27 85.398L155.994 85.477C150.262 87.2331 149.127 94.9562 154.233 98.26C161.001 102.639 156.426 113.067 148.693 111.163L148.509 111.116C142.544 109.507 137.5 115.736 140.314 121.236C144.014 128.469 134.664 135.262 128.929 129.508C124.568 125.132 117.085 128.005 116.772 134.175L116.76 134.364C116.185 142.244 105.027 143.417 102.827 135.828L102.776 135.646C101.187 129.676 93.2703 128.421 89.9141 133.608L89.8096 133.766C85.3719 140.304 75.1218 135.741 77.0108 128.068L77.0581 127.885C78.6672 121.92 72.4378 116.875 66.9377 119.69L66.7683 119.774C59.5998 123.244 52.9568 113.995 58.6662 108.304C62.9737 104.011 60.2577 96.6932 54.2864 96.1669L53.9996 96.1471C45.9491 95.7387 44.6968 84.42 52.3462 82.2023L52.5286 82.1516C58.4055 80.5873 59.7123 72.8917 54.804 69.4503L54.5656 69.2896C47.7446 64.8763 52.4455 54.3179 60.2892 56.4336C66.2542 58.0426 71.2987 51.8133 68.4845 46.3132C64.7843 39.0807 74.1346 32.2874 79.8696 38.0417C84.1627 42.3493 91.4808 39.6332 92.0071 33.6619L92.027 33.375ZM105.652 32.0024C103.675 24.5738 92.7991 25.7169 92.4097 33.3943C92.0799 39.8964 84.1941 42.9234 79.5983 38.3121C74.1717 32.8672 65.3243 39.2953 68.8258 46.1389C71.7912 51.9348 66.4754 58.4991 60.1897 56.8036C52.7677 54.8015 48.3195 64.792 54.7736 68.9679C60.2397 72.5046 58.9184 80.8474 52.6269 82.5219C45.1983 84.499 46.3414 95.3749 54.0188 95.7644C60.5209 96.0942 63.5479 103.98 58.9366 108.576C53.4917 114.002 59.9199 122.85 66.7635 119.349C72.5593 116.383 79.1236 121.699 77.4281 127.984C75.426 135.406 85.4165 139.855 89.5925 133.4C93.1291 127.934 101.472 129.256 103.146 135.547C105.123 142.976 116 141.833 116.389 134.155C116.719 127.653 124.604 124.626 129.2 129.237C134.627 134.682 143.475 128.254 139.973 121.411C137.008 115.615 142.323 109.051 148.609 110.746C156.031 112.748 160.479 102.758 154.025 98.5816C148.559 95.0449 149.88 86.7022 156.172 85.0277C163.6 83.0506 162.457 72.1746 154.78 71.7852C148.278 71.4554 145.251 63.5696 149.862 58.9738C155.307 53.5471 148.879 44.6998 142.035 48.2013C136.239 51.1666 129.675 45.8509 131.371 39.5652C133.373 32.1431 123.382 27.6949 119.206 34.1491C115.669 39.6152 107.327 38.2939 105.652 32.0024Z" fill="white" fill-opacity="0.2"/>
<path opacity="0.965517" d="M94.8581 33.7179C95.6787 25.7828 107.012 25.1888 108.657 32.9947C109.909 38.9307 117.607 40.567 121.165 35.6531C125.843 29.1913 135.955 34.3438 133.477 41.9266L133.395 42.1965C131.801 47.7659 137.348 52.7598 142.72 50.5931L142.98 50.4829C150.262 47.2259 156.443 56.7435 150.506 62.0715L150.299 62.264C146.067 66.3555 148.517 73.6186 154.457 74.2329C162.392 75.0534 162.986 86.3867 155.18 88.0322L154.905 88.0956C149.195 89.5232 147.685 97.0376 152.522 100.54C158.984 105.218 153.831 115.33 146.248 112.852C140.482 110.968 135.215 116.817 137.692 122.354C140.949 129.637 131.431 135.818 126.103 129.881L125.911 129.674C121.819 125.442 114.556 127.892 113.942 133.832L113.921 134.016C112.945 141.776 101.775 142.3 100.143 134.555C98.8914 128.619 91.1925 126.983 87.635 131.897L87.5244 132.046C82.8369 138.228 73.0208 133.227 75.2673 125.801L75.3232 125.623C77.2074 119.857 71.3584 114.59 65.8205 117.067L65.6499 117.141C58.4423 120.175 52.4034 110.764 58.294 105.478L58.2944 105.478C62.7389 101.489 60.4517 94.1741 54.6233 93.3512L54.3432 93.3168C46.47 92.5027 45.8237 81.3392 53.4386 79.5577L53.62 79.5175C59.556 78.2661 61.1923 70.5673 56.2784 67.0097C49.8168 62.3315 54.9691 52.22 62.5519 54.6979C68.2282 56.5527 73.4199 50.914 71.2184 45.4551L71.1081 45.1953C67.8512 37.913 77.3687 31.732 82.6967 37.6691C86.6851 42.1137 94.0009 39.8265 94.8238 33.998L94.8581 33.7179ZM108.282 33.0736C106.727 25.6953 96.0149 26.2567 95.2393 33.7571C94.5811 40.122 86.6856 42.6874 82.412 37.9249C77.3758 32.3128 68.3791 38.1553 71.4576 45.0387C74.0701 50.88 68.5151 57.0495 62.4328 55.0619C55.2653 52.7197 50.3951 62.2779 56.503 66.6998C61.686 70.4522 59.9601 78.5726 53.6988 79.8925C46.3206 81.4479 46.882 92.1601 54.3824 92.9357C60.7473 93.5938 63.3126 101.489 58.5502 105.763C52.938 110.799 58.7806 119.796 65.664 116.717C71.5052 114.105 77.6747 119.66 75.6871 125.742C73.345 132.91 82.9031 137.78 87.3251 131.672C91.0775 126.489 99.1979 128.215 100.518 134.476C102.073 141.854 112.785 141.293 113.561 133.793C114.219 127.428 122.115 124.862 126.388 129.625C131.424 135.237 140.421 129.394 137.343 122.511C134.73 116.67 140.285 110.5 146.367 112.488C153.535 114.83 158.405 105.272 152.297 100.85C147.114 97.0975 148.84 88.9771 155.101 87.6572C162.48 86.1018 161.918 75.3897 154.418 74.614C148.053 73.9559 145.488 66.0604 150.25 61.7867C155.862 56.7506 150.02 47.7539 143.136 50.8324C137.295 53.4449 131.126 47.8898 133.113 41.8075C135.455 34.64 125.897 29.7699 121.475 35.8777C117.723 41.0608 109.602 39.3348 108.282 33.0736Z" fill="white" fill-opacity="0.2"/>
<path d="M97.6189 34.2162C98.8308 26.48 109.971 26.48 111.183 34.2162C112.09 40.0074 119.335 42.0354 123.129 37.677L123.307 37.4646C128.225 31.371 137.872 36.941 135.054 44.2467L134.959 44.507C133.111 49.8846 138.291 55.065 143.669 53.2171L143.929 53.1221C151.235 50.3036 156.804 59.951 150.711 64.8687C146.077 68.6085 148.076 76.0712 153.959 76.9928C161.696 78.2048 161.696 89.3447 153.959 90.5567L153.686 90.6046C148.015 91.7107 146.149 98.9995 150.711 102.681C156.757 107.56 151.321 117.095 144.1 114.491L143.929 114.427C138.373 112.284 132.91 117.747 135.054 123.303C137.85 130.552 128.374 136.091 123.423 130.225L123.307 130.085C119.567 125.45 112.104 127.45 111.183 133.333L111.152 133.513C109.808 141.01 98.9937 141.01 97.6492 133.513L97.6189 133.333C96.6972 127.45 89.2345 125.451 85.4948 130.085C80.6155 136.131 71.0803 130.695 73.6845 123.474L73.7481 123.303C75.8915 117.747 70.4285 112.284 64.8727 114.427L64.7018 114.491C57.5375 117.075 52.1302 107.709 57.95 102.797L58.0906 102.681C62.6524 98.9995 60.7861 91.7105 55.115 90.6046L54.8423 90.5567C47.1664 89.3542 47.1064 78.3783 54.6623 77.0231L54.8423 76.9928C60.7253 76.0711 62.7247 68.6085 58.0906 64.8687C51.997 59.951 57.567 50.3035 64.8727 53.1221C70.3417 55.2319 75.7208 49.9713 73.8431 44.507L73.7481 44.2467C70.9296 36.941 80.577 31.3709 85.4948 37.4646C89.1761 42.0263 96.4651 40.1601 97.571 34.4889L97.6189 34.2162ZM110.804 34.2753C109.66 26.9709 99.1418 26.9709 97.9974 34.2753C97.0244 40.4867 89.1451 42.5981 85.1967 37.7055C80.5534 31.9517 71.4443 37.2106 74.1053 44.1087C76.3683 49.9745 70.6005 55.7423 64.7347 53.4793C57.8367 50.8182 52.5778 59.9273 58.3315 64.5706C63.2241 68.5191 61.1128 76.3983 54.9014 77.3714C47.5969 78.5158 47.5969 89.0337 54.9014 90.1781C61.1128 91.1512 63.2242 99.0305 58.3315 102.979C52.5778 107.622 57.8366 116.731 64.7347 114.07C70.6005 111.807 76.3683 117.575 74.1053 123.44C71.4441 130.339 80.5533 135.598 85.1967 129.844C89.1451 124.951 97.0244 127.063 97.9974 133.274C99.1419 140.579 109.66 140.579 110.804 133.274C111.777 127.063 119.657 124.951 123.605 129.844C128.248 135.598 137.357 130.339 134.696 123.44C132.433 117.575 138.201 111.807 144.067 114.07C150.965 116.731 156.224 107.622 150.47 102.979C145.577 99.0305 147.689 91.1512 153.9 90.1781C161.205 89.0337 161.205 78.5159 153.9 77.3714C147.689 76.3983 145.577 68.519 150.47 64.5706C156.224 59.9273 150.965 50.818 144.067 53.4793C138.201 55.7422 132.433 49.9744 134.696 44.1087C137.357 37.2106 128.248 31.9517 123.605 37.7055C119.657 42.5981 111.777 40.4867 110.804 34.2753Z" fill="white" fill-opacity="0.2"/>
</g>
</svg>
