<svg width="38" height="38" viewBox="0 0 38 38" fill="none" xmlns="http://www.w3.org/2000/svg">
<g clip-path="url(#clip0_135720_2360)">
<rect x="2.89661" y="7.58488" width="27" height="27" transform="rotate(-10 2.89661 7.58488)" stroke="white"/>
<path d="M23.1026 27.1611L24.896 25.4598C25.1432 25.9316 26.3601 26.9411 27.6327 26.7167C28.9054 26.4923 29.3737 25.693 29.2925 25.2322C29.071 23.9763 27.6934 23.7627 27.0317 23.6601C26.9239 23.6434 26.835 23.6296 26.7733 23.6147C26.7417 23.6071 26.6943 23.598 26.6334 23.5862C25.8924 23.4434 23.1587 22.9165 22.6586 20.0802C22.1077 16.956 25.0594 16.0651 25.7412 15.9449C26.1872 15.8662 28.3416 15.5427 29.7637 17.3617L28.0365 19.0836C27.4504 18.2849 26.682 18.1225 26.2404 18.2003C25.1496 18.3927 25.0633 19.2325 25.1275 19.5965C25.3076 20.618 26.5735 20.8668 27.6424 21.0769C27.9221 21.1319 28.1882 21.1842 28.4179 21.247C29.5997 21.5702 31.3544 22.1305 31.8227 24.786C32.0572 26.1161 31.3213 28.4661 28.5128 28.9614C24.7402 29.6266 23.3409 27.5379 23.1026 27.1611Z" fill="white"/>
<path d="M13.3016 29.1644L15.1809 27.4486C15.4348 27.9189 16.2415 28.7265 17.1763 28.5617C18.1112 28.3968 18.4203 27.3523 18.3391 26.8917L16.7424 17.8363L19.3448 17.3774L20.9415 26.4328C21.2039 27.6744 20.9516 30.2946 17.8944 30.8337C15.0836 31.3293 13.6205 29.8648 13.3016 29.1644Z" fill="white"/>
</g>
<defs>
<clipPath id="clip0_135720_2360">
<rect width="32" height="32" fill="white" transform="translate(0 5.55674) rotate(-10)"/>
</clipPath>
</defs>
</svg>
