<svg width="32" height="32" viewBox="0 0 32 32" fill="none" xmlns="http://www.w3.org/2000/svg">
<path d="M10.0498 2.5H21.9502C23.382 2.5 24.4253 2.50015 25.2471 2.56836C26.0629 2.63611 26.6156 2.76864 27.0742 3.00684C27.8961 3.43378 28.5662 4.10389 28.9932 4.92578C29.2314 5.38435 29.3639 5.93711 29.4316 6.75293C29.4999 7.57466 29.5 8.61803 29.5 10.0498V21.9502C29.5 23.382 29.4999 24.4253 29.4316 25.2471C29.3639 26.0629 29.2314 26.6156 28.9932 27.0742C28.5662 27.8961 27.8961 28.5662 27.0742 28.9932C26.6156 29.2314 26.0629 29.3639 25.2471 29.4316C24.4253 29.4999 23.382 29.5 21.9502 29.5H10.0498C8.61803 29.5 7.57466 29.4999 6.75293 29.4316C5.93711 29.3639 5.38435 29.2314 4.92578 28.9932C4.10389 28.5662 3.43378 27.8961 3.00684 27.0742C2.76864 26.6156 2.63611 26.0629 2.56836 25.2471C2.50015 24.4253 2.5 23.382 2.5 21.9502V10.0498C2.5 8.61803 2.50015 7.57466 2.56836 6.75293C2.63611 5.93711 2.76864 5.38435 3.00684 4.92578C3.43378 4.10389 4.10389 3.43378 4.92578 3.00684C5.38435 2.76864 5.93711 2.63611 6.75293 2.56836C7.16386 2.53425 7.63022 2.51742 8.17285 2.50879L10.0498 2.5Z" stroke="white"/>
<path d="M14.6209 24.1936L7.80664 17.3794C8.3887 20.8625 11.1378 23.6116 14.6209 24.1936Z" fill="white"/>
<path d="M7.70508 15.5376L16.4626 24.2952C16.9821 24.2666 17.489 24.1904 17.9788 24.0707L7.92952 14.0215C7.80983 14.5113 7.73364 15.0181 7.70508 15.5376Z" fill="white"/>
<path d="M8.36719 12.7175L19.2838 23.634C19.6808 23.463 20.0619 23.262 20.4241 23.0338L8.96744 11.5771C8.73919 11.9393 8.53819 12.3204 8.36719 12.7175Z" fill="white"/>
<path d="M9.70508 10.5768C11.2285 8.81044 13.4829 7.69238 15.9986 7.69238C20.5868 7.69238 24.3063 11.4119 24.3063 16.0001C24.3063 18.5157 23.1882 20.7701 21.4218 22.2936L9.70508 10.5768Z" fill="white"/>
</svg>
