<svg width="38" height="38" viewBox="0 0 38 38" fill="none" xmlns="http://www.w3.org/2000/svg">
<g clip-path="url(#clip0_135720_2382)">
<path d="M29.5025 13.9257C29.7948 11.9541 29.2224 9.95339 27.9321 8.43273C25.983 6.10157 22.746 5.29674 19.9277 6.43372C19.1541 5.82365 18.2596 5.38498 17.3035 5.14677C16.3475 4.90857 15.3517 4.87627 14.3823 5.05202C11.3898 5.57968 9.07055 7.97558 8.64557 10.9832C6.78877 11.7214 5.34273 13.2182 4.67052 15.0945C3.62705 17.9533 4.54488 21.154 6.94738 23.0231C6.65504 24.9948 7.2275 26.9955 8.51616 28.5069C10.4668 30.8473 13.7039 31.6521 16.5314 30.5135C18.0866 31.7486 20.1067 32.2617 22.0692 31.9061C25.0617 31.3785 27.3809 28.9825 27.8059 25.9749C29.6628 25.2367 31.1088 23.7399 31.7717 21.8653C32.8244 19.0048 31.9066 15.804 29.5041 13.935L29.5025 13.9257ZM26.5433 9.6042C27.3192 10.5373 27.7556 11.7118 27.7592 12.9244C27.7173 12.9031 27.6366 12.8791 27.5854 12.8595L21.5822 10.67C21.4315 10.6167 21.2695 10.6033 21.1121 10.6311C20.9546 10.6589 20.807 10.7268 20.6835 10.8285L14.9503 15.6415L14.4733 12.9362L19.2075 8.9585C21.4127 7.10808 24.6929 7.39898 26.5433 9.6042ZM15.2591 17.3925L17.6714 15.3623L20.6326 16.445L21.1799 19.5487L18.7676 21.5789L15.8063 20.4962L15.2591 17.3925ZM14.6883 6.84169C15.8927 6.62932 17.1243 6.84207 18.1864 7.44767C18.1526 7.47273 18.0867 7.53212 18.036 7.56972L13.1421 11.6711C12.8919 11.8776 12.7774 12.2035 12.8346 12.5277L14.135 19.9026L11.5524 18.9632L10.4775 12.8669C9.97761 10.0319 11.8625 7.34 14.6959 6.83085L14.6883 6.84169ZM6.38545 15.7188C6.8047 14.5749 7.59997 13.6132 8.65675 12.997L9.79865 19.473C9.85582 19.7972 10.0733 20.0551 10.3806 20.1728L17.4033 22.727L15.2902 24.5039L9.49198 22.3929C6.79614 21.4067 5.40084 18.4239 6.38544 15.7188L6.38545 15.7188ZM9.91749 27.3523C9.13393 26.4301 8.70518 25.2448 8.70155 24.0322C8.7435 24.0534 8.82415 24.0774 8.87536 24.097L14.8785 26.2865C15.0293 26.3398 15.1912 26.3532 15.3487 26.3254C15.5062 26.2977 15.6538 26.2297 15.7772 26.1281L21.5012 21.3167L21.9782 24.0221L17.2424 27.9905C15.0355 29.8316 11.757 29.5499 9.90822 27.354L9.91749 27.3523ZM21.7632 30.1165C20.568 30.3272 19.3272 30.1161 18.2743 29.5089C18.3256 29.4696 18.3758 29.4289 18.4248 29.3868L23.3187 25.2855C23.5688 25.079 23.6926 24.7514 23.6262 24.4288L22.3274 17.0632L24.9099 18.0026L25.9832 24.0896C26.4831 26.9246 24.5906 29.6274 21.7648 30.1257L21.7632 30.1164L21.7632 30.1165ZM30.0753 21.2378C29.656 22.3816 28.8515 23.345 27.8023 23.9503L26.6604 17.4742C26.6032 17.15 26.3842 16.8829 26.0785 16.7744L19.0449 14.2126L21.1504 12.4466L26.9579 14.5559C29.663 15.5405 31.049 18.525 30.0644 21.2301L30.0753 21.2377L30.0753 21.2378Z" fill="white"/>
</g>
<defs>
<clipPath id="clip0_135720_2382">
<rect width="32" height="32" fill="white" transform="translate(0 5.55674) rotate(-10)"/>
</clipPath>
</defs>
</svg>
