<svg width="38" height="38" viewBox="0 0 38 38" fill="none" xmlns="http://www.w3.org/2000/svg">
<path d="M26.1413 10.7132C26.0954 8.6579 25.5532 7.3779 24.2618 6.33582C22.8409 5.15784 20.5929 4.97224 17.8305 5.45933L9.90141 6.85744C9.3387 6.95666 8.95068 7.44834 8.9479 8.03082L9.3324 29.6553C9.35362 30.0748 9.72389 30.3799 10.1331 30.3077L15.0441 29.4418L15.066 31.6601C15.0782 32.0283 15.3882 32.2911 15.7975 32.2189L19.941 31.4883C20.4526 31.3981 20.7985 30.9667 20.7682 30.4959L20.6788 24.9034C20.6485 24.4326 21.0456 23.9922 21.506 23.911L22.1199 23.8028C26.11 23.0992 28.9921 20.898 29.0805 16.0148C29.0948 14.0018 28.6427 12.3356 27.4206 11.3871C27.0503 11.082 26.647 10.8886 26.1413 10.7132Z" fill="white"/>
<path d="M26.1413 10.7132C26.0954 8.6579 25.5532 7.3779 24.2618 6.33582C22.8409 5.15784 20.5929 4.97224 17.8305 5.45933L9.90141 6.85744C9.3387 6.95666 8.95068 7.44834 8.9479 8.03082L9.3324 29.6553C9.35362 30.0748 9.72389 30.3799 10.1331 30.3077L15.0441 29.4418L14.8816 21.6401C14.8843 21.0576 15.2724 20.5659 15.8351 20.4667L18.1882 20.0518C22.7922 19.24 26.0473 16.7613 26.1114 11.1418C26.1444 11.0301 26.1173 10.8762 26.1413 10.7132Z" fill="black"/>
<path d="M14.7427 12.776C14.7305 12.4078 15.1095 11.8648 15.5699 11.7836L21.8109 10.6832C22.527 10.5569 23.2523 10.4819 23.8842 10.4763C24.465 10.4797 25.5334 10.5559 26.0992 10.7736C26.0533 8.71824 25.5111 7.43823 24.2197 6.39615C22.8409 5.15784 20.5929 4.97224 17.8305 5.45933L9.90141 6.85744C9.3387 6.95666 8.95068 7.44834 8.9479 8.03082L9.3324 29.6553C9.35362 30.0748 9.72389 30.3799 10.1331 30.3077L15.0441 29.4418L14.7427 12.776Z" fill="white"/>
</svg>
