<svg width="128" height="130" viewBox="0 0 128 130" fill="none" xmlns="http://www.w3.org/2000/svg">
<g opacity="0.5">
<path d="M41.3168 0.64801L65.3562 21.3956H77.3759L95.155 0.64801L111.181 10.3969L135.221 3.89763L132.716 39.8934H148.743L153.501 63.1407L142.482 88.8877L164.769 98.3866L173.533 164.129H126.206L119.946 180.127H85.389L69.3628 168.878L32.5525 185.626L20.5328 173.628V142.382L8.51312 125.633L20.5328 98.3866V71.1398L0.5 63.1407V21.3956L41.3168 0.64801Z" stroke="white"/>
<path d="M77.9727 85.4601L82.32 83.2399H88.0543L92.0549 87.4396L93.0951 92.6825L95.4688 93.699L96.4022 100.734H91.3614L85.3072 101.242L81.3865 103.035L80.1063 101.751V98.407V90.7833L77.9727 89.9273V85.4601Z" stroke="#FF7738" stroke-dasharray="6 6"/>
<path d="M44.3033 7.00117L66.6607 26.0674H78.1968L94.7622 7.07731L109.71 16.2378L131.94 10.4401L129.668 43.8687L144.644 43.9469L149.072 65.6765L138.937 89.7135L159.316 98.4818L167.212 159.167L123.292 159.187L117.281 173.974L85.0807 174.111L70.238 163.679L36.21 179.089L25.1149 167.885V138.913L14.0198 122.867L25.0329 97.6834L24.9508 72.4995L6.45898 64.944V26.2382L44.3033 7.00117Z" stroke="#FF7738" stroke-dasharray="6 6"/>
<path d="M47.2907 13.3545L67.9661 30.7394H79.0188L94.3704 13.5068L108.239 22.0789L128.66 16.9828L126.621 47.8441L140.547 48.0005L144.644 68.2124L135.393 90.5395L153.863 98.5771L160.892 154.205L120.38 154.244L114.617 167.82L84.7733 168.096L71.1142 158.479L39.8685 172.552L29.698 162.142V135.445L19.5275 120.101L29.5339 96.9803L29.3698 73.8595L12.4189 66.7474V31.0809L47.2907 13.3545Z" stroke="white"/>
<path d="M50.2771 19.7077L69.2706 35.4112H79.8397L93.9776 19.9361L106.767 27.9198L125.379 23.5253L123.573 51.8193L136.448 52.0539L140.216 70.7482L131.848 91.3653L148.41 98.6722L154.57 149.243L117.466 149.302L111.952 161.667L84.465 162.08L71.9894 153.279L43.5261 166.014L34.2802 156.399V131.977L25.0343 117.335L34.034 96.2771L33.7878 75.2192L18.3779 68.5506V35.9235L50.2771 19.7077Z" stroke="#FF7738" stroke-dasharray="6 6"/>
<path d="M53.2645 26.0609L70.576 40.083H80.6617L93.5858 26.3654L105.296 33.7607L122.099 30.0678L120.525 55.7946L132.351 56.1074L135.788 73.284L128.304 92.1912L142.958 98.7673L148.25 144.281L114.553 144.359L109.288 155.513L84.1576 156.065L72.8656 148.08L47.1846 159.477L38.8633 150.656V128.509L30.542 114.569L38.535 95.5738L38.2068 76.579L24.3379 70.3539V40.7661L53.2645 26.0609Z" stroke="white"/>
<path d="M56.251 32.4142L71.8804 44.755H81.4826L93.193 32.7949L103.825 39.6018L118.818 36.6105L117.477 59.77L128.252 60.161L131.36 75.8199L124.759 93.0172L137.504 98.8626L141.928 139.319L111.64 139.417L106.623 149.36L83.8493 150.049L73.7408 142.88L50.8421 152.94L43.4454 144.913V125.041L36.0487 111.803L43.0351 94.8708L42.6248 77.9389L30.2969 72.1573V45.6089L56.251 32.4142Z" stroke="#FF7738" stroke-dasharray="6 6"/>
<path d="M59.2384 38.7673L73.1859 49.4268H82.3046L92.8012 39.2242L102.354 45.4427L115.538 43.153L114.43 63.7453L124.155 64.2144L126.932 78.3557L121.215 93.843L132.052 98.9578L135.608 134.357L108.727 134.475L103.959 143.206L83.5419 144.034L74.617 137.68L54.5006 146.402L48.0285 139.17V121.573L41.5564 109.036L47.5361 94.1675L47.0437 79.2986L36.2568 73.9605V50.4515L59.2384 38.7673Z" stroke="white"/>
<path d="M62.2248 45.1205L74.4903 54.0986H83.1255L92.4084 45.6534L100.882 51.2836L112.257 49.6955L111.382 67.7205L120.057 68.2679L122.504 80.8915L117.67 94.6688L126.599 99.0529L129.287 129.396L105.813 129.532L101.294 137.053L83.2336 138.018L75.4922 132.481L58.1582 139.865L52.6106 133.427V118.105L47.0631 106.27L52.0362 93.4643L51.4617 80.6584L42.2158 75.7638V55.2941L62.2248 45.1205Z" stroke="#FF7738" stroke-dasharray="6 6"/>
<path d="M65.2122 51.4737L75.7958 58.7704H83.9475L92.0166 52.0827L99.4115 57.1245L108.977 56.238L108.334 71.6958L115.959 72.3213L118.076 83.4272L114.126 95.4946L121.146 99.148L122.966 124.434L102.901 124.59L98.6299 130.899L82.9262 132.002L76.3684 127.281L61.8167 133.327L57.1937 127.684V114.637L52.5708 103.504L56.5372 92.761L55.8807 82.0181L48.1758 77.567V60.1367L65.2122 51.4737Z" stroke="white"/>
<path d="M68.1986 57.827L77.1002 63.4423H84.7684L91.6238 58.5122L97.9398 62.9656L105.697 62.7807L105.286 75.6712L111.861 76.3749L113.648 85.9632L110.581 96.3206L115.693 99.2433L116.645 119.472L99.9869 119.648L95.965 124.746L82.6179 125.987L77.2436 122.081L65.4742 126.79L61.7759 121.941V111.169L58.0775 100.738L61.0373 92.0579L60.2987 83.378L54.1348 79.3704V64.9794L68.1986 57.827Z" stroke="#FF7738" stroke-dasharray="6 6"/>
<path d="M71.1851 64.1802L78.4047 68.1142H85.5894L91.231 64.9415L96.4681 68.8065L102.416 69.3232L102.238 79.6465L107.762 80.4284L109.219 88.499L107.036 97.1464L110.24 99.3385L110.324 114.51L97.0733 114.705L93.3 118.593L82.3096 119.971L78.1188 116.882L69.1318 120.253L66.358 116.198V107.701L63.5842 97.9717L65.5373 91.3547L64.7167 84.7378L60.0938 81.1737V69.822L71.1851 64.1802Z" stroke="white"/>
<path d="M74.1725 70.5334L79.7101 72.786H86.4114L90.8392 71.3708L94.9973 74.6474L99.1358 75.8657L99.1906 83.6217L103.665 84.4818L104.792 91.0347L103.491 97.9722L104.787 99.4336L104.003 109.548L94.1606 109.763L90.6361 112.439L82.0022 113.956L78.995 111.682L72.7903 113.715L70.9411 110.455V104.233L69.0919 95.2054L70.0384 90.6515L69.1357 86.0975L66.0537 82.9769V74.6646L74.1725 70.5334Z" stroke="#FF7738" stroke-dasharray="6 6"/>
<path d="M77.1589 76.8867L81.0146 77.4579H87.2323L90.4464 77.8003L93.5256 80.4885L95.8549 82.4084L96.1423 87.5971L99.5662 88.5354L100.363 93.5707L99.9464 98.7982L99.3342 99.5289L97.6818 104.586L91.247 104.821L87.9711 106.286L81.6939 107.94L79.8702 106.482L76.4478 107.178L75.5232 104.712V100.765L74.5986 92.4394L74.5385 89.9484L73.5537 87.4574L72.0127 84.7803V79.5074L77.1589 76.8867Z" stroke="white"/>
</g>
</svg>
