<svg width="38" height="38" viewBox="0 0 38 38" fill="none" xmlns="http://www.w3.org/2000/svg">
<path d="M26.5369 8.38302C26.4933 8.24716 26.3578 8.19165 26.2558 8.20098C26.1537 8.2103 24.1856 8.52657 24.1856 8.52657C24.1856 8.52657 22.2629 7.22171 22.0721 7.08804C21.8813 6.95436 21.5732 7.05944 21.4566 7.11731C21.4549 7.11817 21.1654 7.26701 20.6768 7.51816C20.5411 7.2532 20.3532 6.93154 20.111 6.61774C19.3298 5.60577 18.37 5.16644 17.3354 5.34731C17.3343 5.34752 17.3332 5.34771 17.3319 5.34793C17.2603 5.36057 17.19 5.3799 17.1196 5.39903C17.0828 5.36776 17.0456 5.33689 17.0071 5.30797C16.4719 4.9054 15.8522 4.77255 15.1637 4.91489C13.8343 5.18877 12.6746 6.388 11.898 8.29149C11.3513 9.63123 11.0415 11.2478 11.0842 12.4491C9.63422 13.1945 8.61973 13.7161 8.5978 13.7274C7.86645 14.1069 7.84639 14.1355 7.87348 14.8828C7.894 15.4486 8.6306 31.4703 8.6306 31.4703L26.1257 31.4126L33.1613 28.2862C33.1613 28.2862 26.5805 8.51889 26.5369 8.38302ZM11.9834 11.9868C12.064 9.75934 13.2947 6.22195 15.3461 5.7991C15.6586 5.73723 15.9349 5.75948 16.1867 5.86818C15.8589 6.11917 15.5573 6.45 15.2918 6.85887C14.6038 7.91879 14.203 9.44681 14.1841 10.8555C13.4193 11.2486 12.6714 11.6331 11.9834 11.9868ZM17.7875 9.00324C16.9467 9.43543 16.0287 9.90732 15.1078 10.3807C15.1971 9.2833 15.532 8.14733 16.0492 7.3506C16.2416 7.05424 16.5235 6.71166 16.888 6.48019C17.3936 7.18552 17.6663 8.26372 17.7875 9.00324ZM18.6271 8.57165C18.498 7.8969 18.2513 6.97021 17.7927 6.21238C18.8402 6.2257 19.5416 7.28463 19.8728 7.93136C19.5035 8.12114 19.0828 8.33737 18.6271 8.57165Z" fill="white"/>
<path d="M26.2562 8.20115C26.1542 8.21048 24.1861 8.52675 24.1861 8.52675C24.1861 8.52675 22.2634 7.22189 22.0726 7.08821C22.0014 7.03834 21.9139 7.02183 21.8262 7.02354L26.127 31.4125L33.1618 28.2864C33.1618 28.2864 26.581 8.51905 26.5374 8.38319C26.4938 8.24734 26.3583 8.19182 26.2562 8.20115Z" fill="white"/>
<path d="M18.7498 13.4255L18.4588 16.7732C18.4588 16.7732 17.429 16.5072 16.3114 16.7778C14.6728 17.1747 14.8395 18.2231 14.9022 18.4821C15.2446 19.8961 19.0611 19.5452 19.8631 22.8569C20.494 25.4623 19.2479 27.5403 17.0196 28.08C14.3456 28.7275 12.5753 27.3944 12.5753 27.3944L12.7184 24.8556C12.7184 24.8556 14.4162 25.7219 15.6023 25.4347C16.3771 25.247 16.5447 24.5604 16.4368 24.1148C15.9901 22.2704 12.9466 22.9203 12.2127 19.8898C11.595 17.3393 12.828 14.4277 16.5236 13.5327C17.9475 13.1879 18.7498 13.4255 18.7498 13.4255Z" fill="white"/>
</svg>
