<svg width="32" height="32" viewBox="0 0 32 32" fill="none" xmlns="http://www.w3.org/2000/svg">
<path d="M8.28516 2.5H23.7148C26.9097 2.5 29.5 5.09034 29.5 8.28516V23.7148C29.5 26.9097 26.9097 29.5 23.7148 29.5H8.28516C5.09034 29.5 2.5 26.9097 2.5 23.7148V8.28516L2.50781 7.9873C2.65763 5.02923 5.02923 2.65763 7.9873 2.50781L8.28516 2.5Z" stroke="white"/>
<path fill-rule="evenodd" clip-rule="evenodd" d="M14.899 12.8623C14.899 12.1931 15.4518 11.8925 16.3441 11.8925C17.8227 11.9244 19.2736 12.2996 20.5824 12.9884V9.02166C19.2358 8.49361 17.8001 8.23018 16.3538 8.24577C12.9011 8.24577 10.5928 10.0497 10.5928 13.0951C10.5928 17.8086 17.0715 17.0424 17.0715 19.0792C17.0715 19.8648 16.3829 20.1169 15.4421 20.1169C13.7848 20.0255 12.1713 19.5508 10.7286 18.73V22.7937C12.1986 23.429 13.7825 23.759 15.3839 23.7636C18.9239 23.7636 21.368 22.0179 21.368 18.9143C21.3971 13.8613 14.899 14.773 14.899 12.8623Z" fill="white"/>
</svg>
