<svg width="70" height="106" viewBox="0 0 70 106" fill="none" xmlns="http://www.w3.org/2000/svg">
<g filter="url(#filter0_i_135720_2519)">
<path fill-rule="evenodd" clip-rule="evenodd" d="M53.8916 0.450684C52.0114 0.745732 50.2435 0.985515 48.4165 1.57067C36.611 5.35167 26.7872 13.8482 17.817 22.0847C13.9211 25.6618 10.0888 28.5832 6.9805 32.8477C4.76857 35.8593 3.08339 39.2234 1.99574 42.7971C1.47053 44.5063 1.13977 46.1724 0.787724 47.9234C0.759144 48.0655 0.570771 48.2334 0.451172 48.3202V66.4706C0.730086 68.5848 0.592361 71.6573 0.765435 73.9494C1.45139 82.3677 2.17841 92.138 6.96267 99.4069C14.2374 110.459 27.8231 104.225 36.314 98.4352C44.1977 93.0597 50.4668 86.5911 56.6297 79.4033C59.4958 76.0606 62.5436 73.0486 64.591 69.0905C66.7958 64.9348 67.4899 62.3999 68.3532 57.903L68.438 57.8428C68.6198 57.7116 68.7307 57.633 68.7667 57.4093C68.9324 56.3795 68.7538 55.0782 68.7388 54.0226C68.7092 51.9383 68.7134 49.8369 68.7946 47.754C69.2305 36.5637 71.3626 14.4995 64.5888 5.17132C62.3911 2.1449 59.599 1.02459 56.019 0.450684H53.8916Z" fill="url(#paint0_linear_135720_2519)" fill-opacity="0.2"/>
</g>
<path fill-rule="evenodd" clip-rule="evenodd" d="M53.8916 0.450684C52.0114 0.745732 50.2435 0.985515 48.4165 1.57067C36.611 5.35167 26.7872 13.8482 17.817 22.0847C13.9211 25.6618 10.0888 28.5832 6.9805 32.8477C4.76857 35.8593 3.08339 39.2234 1.99574 42.7971C1.47053 44.5063 1.13977 46.1724 0.787724 47.9234C0.759144 48.0655 0.570771 48.2334 0.451172 48.3202V66.4706C0.730086 68.5848 0.592361 71.6573 0.765435 73.9494C1.45139 82.3677 2.17841 92.138 6.96267 99.4069C14.2374 110.459 27.8231 104.225 36.314 98.4352C44.1977 93.0597 50.4668 86.5911 56.6297 79.4033C59.4958 76.0606 62.5436 73.0486 64.591 69.0905C66.7958 64.9348 67.4899 62.3999 68.3532 57.903L68.438 57.8428C68.6198 57.7116 68.7307 57.633 68.7667 57.4093C68.9324 56.3795 68.7538 55.0782 68.7388 54.0226C68.7092 51.9383 68.7134 49.8369 68.7946 47.754C69.2305 36.5637 71.3626 14.4995 64.5888 5.17132C62.3911 2.1449 59.599 1.02459 56.019 0.450684H53.8916Z" stroke="url(#paint1_radial_135720_2519)" stroke-width="0.901559"/>
<defs>
<filter id="filter0_i_135720_2519" x="0" y="0" width="69.9062" height="105.958" filterUnits="userSpaceOnUse" color-interpolation-filters="sRGB">
<feFlood flood-opacity="0" result="BackgroundImageFix"/>
<feBlend mode="normal" in="SourceGraphic" in2="BackgroundImageFix" result="shape"/>
<feColorMatrix in="SourceAlpha" type="matrix" values="0 0 0 0 0 0 0 0 0 0 0 0 0 0 0 0 0 0 127 0" result="hardAlpha"/>
<feOffset/>
<feGaussianBlur stdDeviation="4.50779"/>
<feComposite in2="hardAlpha" operator="arithmetic" k2="-1" k3="1"/>
<feColorMatrix type="matrix" values="0 0 0 0 0 0 0 0 0 0 0 0 0 0 0 0 0 0 0.25 0"/>
<feBlend mode="normal" in2="shape" result="effect1_innerShadow_135720_2519"/>
</filter>
<linearGradient id="paint0_linear_135720_2519" x1="0.451172" y1="52.9788" x2="69.456" y2="52.9788" gradientUnits="userSpaceOnUse">
<stop stop-color="#FF7738"/>
<stop offset="1" stop-color="#EF4444"/>
</linearGradient>
<radialGradient id="paint1_radial_135720_2519" cx="0" cy="0" r="1" gradientUnits="userSpaceOnUse" gradientTransform="translate(34.9536 0.450684) rotate(90) scale(105.056 34.5024)">
<stop stop-color="white"/>
<stop offset="0.105805" stop-color="#FFDFD1"/>
<stop offset="0.626117" stop-color="#FF7738"/>
</radialGradient>
</defs>
</svg>
