<svg width="64" height="97" viewBox="0 0 64 97" fill="none" xmlns="http://www.w3.org/2000/svg">
<g filter="url(#filter0_i_135720_2520)">
<path fill-rule="evenodd" clip-rule="evenodd" d="M48.9901 0.450684C47.2824 0.718671 45.6767 0.936461 44.0172 1.46794C33.2945 4.90216 24.3718 12.6194 16.2243 20.1005C12.6857 23.3495 9.2049 26.003 6.38164 29.8763C4.37259 32.6117 2.84196 35.6673 1.85408 38.9132C1.37704 40.4656 1.07661 41.9789 0.756856 43.5693C0.730897 43.6984 0.559802 43.8509 0.451172 43.9297V60.4154C0.704505 62.3357 0.579412 65.1264 0.736612 67.2082C1.35965 74.8545 2.01999 83.7286 6.36545 90.3309C12.9729 100.369 25.3126 94.7067 33.0247 89.4482C40.1853 84.5658 45.8795 78.6905 51.4771 72.1619C54.0803 69.1259 56.8487 66.39 58.7083 62.795C60.7108 59.0205 61.3412 56.718 62.1254 52.6336L62.2024 52.5789C62.3675 52.4598 62.4683 52.3884 62.501 52.1852C62.6514 51.2498 62.4892 50.0679 62.4757 49.1091C62.4488 47.216 62.4526 45.3073 62.5263 43.4155C62.9223 33.2515 64.8587 13.2109 58.7062 4.73836C56.7101 1.98951 54.1741 0.971949 50.9224 0.450684H48.9901Z" fill="url(#paint0_linear_135720_2520)" fill-opacity="0.2"/>
</g>
<path fill-rule="evenodd" clip-rule="evenodd" d="M48.9901 0.450684C47.2824 0.718671 45.6767 0.936461 44.0172 1.46794C33.2945 4.90216 24.3718 12.6194 16.2243 20.1005C12.6857 23.3495 9.2049 26.003 6.38164 29.8763C4.37259 32.6117 2.84196 35.6673 1.85408 38.9132C1.37704 40.4656 1.07661 41.9789 0.756856 43.5693C0.730897 43.6984 0.559802 43.8509 0.451172 43.9297V60.4154C0.704505 62.3357 0.579412 65.1264 0.736612 67.2082C1.35965 74.8545 2.01999 83.7286 6.36545 90.3309C12.9729 100.369 25.3126 94.7067 33.0247 89.4482C40.1853 84.5658 45.8795 78.6905 51.4771 72.1619C54.0803 69.1259 56.8487 66.39 58.7083 62.795C60.7108 59.0205 61.3412 56.718 62.1254 52.6336L62.2024 52.5789C62.3675 52.4598 62.4683 52.3884 62.501 52.1852C62.6514 51.2498 62.4892 50.0679 62.4757 49.1091C62.4488 47.216 62.4526 45.3073 62.5263 43.4155C62.9223 33.2515 64.8587 13.2109 58.7062 4.73836C56.7101 1.98951 54.1741 0.971949 50.9224 0.450684H48.9901Z" stroke="url(#paint1_radial_135720_2520)" stroke-width="0.901559"/>
<defs>
<filter id="filter0_i_135720_2520" x="0" y="0" width="63.5781" height="96.3223" filterUnits="userSpaceOnUse" color-interpolation-filters="sRGB">
<feFlood flood-opacity="0" result="BackgroundImageFix"/>
<feBlend mode="normal" in="SourceGraphic" in2="BackgroundImageFix" result="shape"/>
<feColorMatrix in="SourceAlpha" type="matrix" values="0 0 0 0 0 0 0 0 0 0 0 0 0 0 0 0 0 0 127 0" result="hardAlpha"/>
<feOffset/>
<feGaussianBlur stdDeviation="4.50779"/>
<feComposite in2="hardAlpha" operator="arithmetic" k2="-1" k3="1"/>
<feColorMatrix type="matrix" values="0 0 0 0 0 0 0 0 0 0 0 0 0 0 0 0 0 0 0.25 0"/>
<feBlend mode="normal" in2="shape" result="effect1_innerShadow_135720_2520"/>
</filter>
<linearGradient id="paint0_linear_135720_2520" x1="0.451172" y1="48.1611" x2="63.127" y2="48.1611" gradientUnits="userSpaceOnUse">
<stop stop-color="#FF7738"/>
<stop offset="1" stop-color="#EF4444"/>
</linearGradient>
<radialGradient id="paint1_radial_135720_2520" cx="0" cy="0" r="1" gradientUnits="userSpaceOnUse" gradientTransform="translate(31.7891 0.450684) rotate(90) scale(95.4208 31.3379)">
<stop stop-color="white"/>
<stop offset="0.105805" stop-color="#FFDFD1"/>
<stop offset="0.626117" stop-color="#FF7738"/>
</radialGradient>
</defs>
</svg>
