<svg width="57" height="86" viewBox="0 0 57 86" fill="none" xmlns="http://www.w3.org/2000/svg">
<g filter="url(#filter0_i_135720_2521)">
<path fill-rule="evenodd" clip-rule="evenodd" d="M43.4217 0.450684C41.9099 0.687927 40.4884 0.880733 39.0193 1.35124C29.5267 4.39149 21.6276 11.2234 14.4148 17.8463C11.2822 20.7226 8.20068 23.0716 5.7013 26.5006C3.92272 28.9222 2.56769 31.6272 1.69314 34.5008C1.27082 35.8751 1.00486 37.2148 0.721788 38.6228C0.698807 38.737 0.54734 38.872 0.451172 38.9418V53.5362C0.675442 55.2363 0.5647 57.7068 0.703866 59.5498C1.25543 66.3189 1.84002 74.175 5.68696 80.0198C11.5364 88.9066 22.4605 83.8937 29.2879 79.2385C35.627 74.9161 40.668 69.7148 45.6234 63.9352C47.928 61.2474 50.3787 58.8255 52.025 55.6429C53.7979 52.3014 54.3559 50.2631 55.0502 46.6472L55.1183 46.5988C55.2645 46.4933 55.3537 46.4301 55.3826 46.2502C55.5158 45.4221 55.3722 44.3758 55.3602 43.527C55.3364 41.8511 55.3398 40.1614 55.405 38.4866C55.7556 29.4886 57.4699 11.7471 52.0232 4.24648C50.2561 1.81298 48.011 0.912149 45.1324 0.450684H43.4217Z" fill="url(#paint0_linear_135720_2521)" fill-opacity="0.2"/>
</g>
<path fill-rule="evenodd" clip-rule="evenodd" d="M43.4217 0.450684C41.9099 0.687927 40.4884 0.880733 39.0193 1.35124C29.5267 4.39149 21.6276 11.2234 14.4148 17.8463C11.2822 20.7226 8.20068 23.0716 5.7013 26.5006C3.92272 28.9222 2.56769 31.6272 1.69314 34.5008C1.27082 35.8751 1.00486 37.2148 0.721788 38.6228C0.698807 38.737 0.54734 38.872 0.451172 38.9418V53.5362C0.675442 55.2363 0.5647 57.7068 0.703866 59.5498C1.25543 66.3189 1.84002 74.175 5.68696 80.0198C11.5364 88.9066 22.4605 83.8937 29.2879 79.2385C35.627 74.9161 40.668 69.7148 45.6234 63.9352C47.928 61.2474 50.3787 58.8255 52.025 55.6429C53.7979 52.3014 54.3559 50.2631 55.0502 46.6472L55.1183 46.5988C55.2645 46.4933 55.3537 46.4301 55.3826 46.2502C55.5158 45.4221 55.3722 44.3758 55.3602 43.527C55.3364 41.8511 55.3398 40.1614 55.405 38.4866C55.7556 29.4886 57.4699 11.7471 52.0232 4.24648C50.2561 1.81298 48.011 0.912149 45.1324 0.450684H43.4217Z" stroke="url(#paint1_radial_135720_2521)" stroke-width="0.901559"/>
<defs>
<filter id="filter0_i_135720_2521" x="0" y="0" width="56.3877" height="85.3755" filterUnits="userSpaceOnUse" color-interpolation-filters="sRGB">
<feFlood flood-opacity="0" result="BackgroundImageFix"/>
<feBlend mode="normal" in="SourceGraphic" in2="BackgroundImageFix" result="shape"/>
<feColorMatrix in="SourceAlpha" type="matrix" values="0 0 0 0 0 0 0 0 0 0 0 0 0 0 0 0 0 0 127 0" result="hardAlpha"/>
<feOffset/>
<feGaussianBlur stdDeviation="4.50779"/>
<feComposite in2="hardAlpha" operator="arithmetic" k2="-1" k3="1"/>
<feColorMatrix type="matrix" values="0 0 0 0 0 0 0 0 0 0 0 0 0 0 0 0 0 0 0.25 0"/>
<feBlend mode="normal" in2="shape" result="effect1_innerShadow_135720_2521"/>
</filter>
<linearGradient id="paint0_linear_135720_2521" x1="0.451172" y1="42.6877" x2="55.9369" y2="42.6877" gradientUnits="userSpaceOnUse">
<stop stop-color="#FF7738"/>
<stop offset="1" stop-color="#EF4444"/>
</linearGradient>
<radialGradient id="paint1_radial_135720_2521" cx="0" cy="0" r="1" gradientUnits="userSpaceOnUse" gradientTransform="translate(28.194 0.450684) rotate(90) scale(84.4741 27.7428)">
<stop stop-color="white"/>
<stop offset="0.105805" stop-color="#FFDFD1"/>
<stop offset="0.626117" stop-color="#FF7738"/>
</radialGradient>
</defs>
</svg>
