<svg width="194" height="130" viewBox="0 0 194 130" fill="none" xmlns="http://www.w3.org/2000/svg">
<g opacity="0.5">
<path opacity="0.4" d="M68.7134 91.5631C84.8866 68.4654 101.687 49.085 115.768 36.4226C122.812 30.0888 129.154 25.4548 134.381 22.8711C136.995 21.5792 139.306 20.8118 141.271 20.589C143.231 20.3667 144.815 20.689 146.026 21.5365C147.236 22.384 148.08 23.7619 148.542 25.6801C149.004 27.6025 149.074 30.0371 148.754 32.935C148.114 38.7302 145.928 46.2748 142.385 55.0599C135.302 72.6225 122.838 95.0391 106.665 118.137C90.4914 141.235 73.6894 160.615 59.6083 173.278C52.5648 179.612 46.2226 184.246 40.9958 186.829C38.3822 188.121 36.0706 188.888 34.1059 189.111C32.1456 189.334 30.562 189.012 29.3517 188.164C28.1414 187.317 27.2967 185.939 26.8351 184.02C26.3725 182.098 26.303 179.663 26.6231 176.765C27.2633 170.97 29.4486 163.425 32.9914 154.64C40.0743 137.078 52.54 114.661 68.7134 91.5631Z" stroke="white"/>
<path opacity="0.4" d="M70.7598 89.9599C88.8846 68.3597 107.311 50.5173 122.442 39.1303C130.01 33.4345 136.732 29.3709 142.164 27.2526C144.881 26.1934 147.25 25.6304 149.227 25.5797C151.199 25.5291 152.749 25.9882 153.881 26.938C155.013 27.8877 155.734 29.334 156.026 31.2851C156.32 33.2405 156.177 35.6719 155.605 38.5309C154.462 44.2483 151.628 51.5737 147.333 60.0165C138.746 76.895 124.375 98.14 106.251 119.74C88.1257 141.341 69.6986 159.183 54.5674 170.57C46.9987 176.266 40.2768 180.329 34.8447 182.448C32.1284 183.507 29.7588 184.07 27.7821 184.121C25.8099 184.171 24.2604 183.713 23.1286 182.763C21.9967 181.813 21.2754 180.367 20.9827 178.415C20.6894 176.46 20.8323 174.028 21.4038 171.169C22.5466 165.452 25.3812 158.127 29.6762 149.684C38.2628 132.805 52.6349 111.56 70.7598 89.9599Z" stroke="white"/>
<path opacity="0.4" d="M72.941 88.4699C92.8794 68.5316 112.79 52.3631 128.856 42.3381C136.893 37.3236 143.943 33.8614 149.539 32.2246C152.337 31.4061 154.747 31.0518 156.721 31.1736C158.69 31.2951 160.194 31.8876 161.239 32.9324C162.284 33.9771 162.875 35.4807 162.997 37.4498C163.119 39.4234 162.764 41.8331 161.946 44.6314C160.309 50.2274 156.847 57.2779 151.832 65.3143C141.807 81.3802 125.64 101.292 105.701 121.23C85.7627 141.169 65.8506 157.337 49.7846 167.362C41.7482 172.377 34.6978 175.839 29.1017 177.476C26.3034 178.294 23.8937 178.648 21.9202 178.527C19.951 178.405 18.4474 177.813 17.4027 176.769C16.3579 175.724 15.7654 174.22 15.6439 172.25C15.5222 170.277 15.8765 167.867 16.6949 165.069C18.3317 159.473 21.7939 152.422 26.8085 144.386C36.8335 128.32 53.0024 108.408 72.941 88.4699Z" stroke="white"/>
<path opacity="0.4" d="M75.2464 87.1053C96.8468 68.9804 118.092 54.6084 134.97 46.0218C143.413 41.7267 150.739 38.8922 156.456 37.7493C159.315 37.1779 161.746 37.035 163.702 37.3283C165.653 37.6209 167.1 38.3422 168.049 39.4741C168.999 40.6059 169.458 42.1554 169.407 44.1276C169.356 46.1043 168.793 48.474 167.734 51.1903C165.616 56.6224 161.552 63.3442 155.857 70.913C144.469 86.0441 126.627 104.471 105.027 122.596C83.4265 140.721 62.1815 155.092 45.303 163.678C36.8602 167.973 29.5348 170.808 23.8174 171.951C20.9584 172.522 18.527 172.665 16.5716 172.372C14.6205 172.079 13.1742 171.359 12.2245 170.227C11.2747 169.095 10.8156 167.545 10.8662 165.573C10.9169 163.596 11.4799 161.226 12.5391 158.51C14.6574 153.078 18.721 146.356 24.4168 138.787C35.8038 123.656 53.6462 105.23 75.2464 87.1053Z" stroke="white"/>
<path opacity="0.4" d="M77.6661 85.8751C100.764 69.7017 123.181 57.236 140.743 50.1531C149.528 46.6103 157.073 44.425 162.868 43.7848C165.766 43.4647 168.201 43.5342 170.123 43.9968C172.042 44.4584 173.42 45.3031 174.267 46.5134C175.115 47.7237 175.437 49.3073 175.214 51.2676C174.992 53.2323 174.224 55.5439 172.932 58.1575C170.349 63.3843 165.715 69.7265 159.381 76.77C146.718 90.8511 127.338 107.653 104.24 123.826C81.1422 140 58.7255 152.464 41.1629 159.547C32.3778 163.09 24.8333 165.275 19.038 165.915C16.1401 166.235 13.7055 166.166 11.7831 165.703C9.86498 165.242 8.487 164.398 7.63953 163.188C6.79203 161.977 6.4697 160.393 6.69203 158.433C6.91485 156.468 7.68222 154.156 8.97412 151.543C11.5578 146.316 16.1918 139.974 22.5256 132.93C35.188 118.849 54.5684 102.048 77.6661 85.8751Z" stroke="white"/>
<path opacity="0.4" d="M80.1866 84.7887C104.606 70.6902 128.023 60.226 146.136 54.7008C155.197 51.9371 162.903 50.4176 168.732 50.2849C171.647 50.2186 174.066 50.5001 175.941 51.1285C177.812 51.7556 179.111 52.7171 179.85 53.9967C180.589 55.2763 180.771 56.8818 180.379 58.8153C179.986 60.7531 179.02 62.989 177.505 65.4801C174.476 70.4619 169.307 76.376 162.383 82.8407C148.541 95.7645 127.771 110.813 103.352 124.912C78.932 139.01 55.5137 149.474 37.4005 154.999C28.3401 157.763 20.6338 159.283 14.8048 159.415C11.89 159.481 9.47073 159.2 7.59592 158.572C5.72534 157.945 4.42618 156.984 3.68741 155.704C2.94862 154.425 2.76557 152.819 3.15793 150.885C3.55114 148.947 4.51705 146.711 6.03184 144.22C9.06121 139.238 14.2303 133.324 21.1539 126.859C34.9955 113.936 55.767 98.8874 80.1866 84.7887Z" stroke="white"/>
<path opacity="0.4" d="M82.7954 83.8557C108.351 71.939 132.591 63.5556 151.117 59.6301C160.383 57.6665 168.193 56.8245 174.011 57.2004C176.921 57.3884 179.306 57.8796 181.119 58.669C182.928 59.4568 184.139 60.5279 184.763 61.867C185.388 63.2061 185.429 64.8214 184.87 66.7134C184.31 68.6096 183.153 70.7528 181.426 73.1024C177.974 77.8011 172.31 83.2423 164.849 89.0789C149.934 100.747 127.931 113.928 102.375 125.845C76.8198 137.762 52.5787 146.145 34.0528 150.07C24.786 152.034 16.9766 152.876 11.1582 152.5C8.24877 152.312 5.86322 151.821 4.05031 151.031C2.24151 150.243 1.03103 149.173 0.406582 147.834C-0.21787 146.495 -0.26024 144.879 0.299163 142.987C0.859764 141.091 2.01688 138.947 3.74301 136.598C7.19503 131.899 12.8599 126.458 20.3206 120.621C35.2359 108.953 57.2399 95.7724 82.7954 83.8557Z" stroke="#FF7738"/>
<path opacity="0.4" d="M85.4798 83.0823C111.976 73.4383 136.855 67.1994 155.652 64.9035C165.055 63.7551 172.908 63.5969 178.672 64.4785C181.554 64.9193 183.887 65.6166 185.624 66.561C187.358 67.5034 188.471 68.676 188.976 70.0645C189.481 71.4528 189.382 73.0657 188.66 74.9017C187.937 76.7418 186.597 78.776 184.673 80.9662C180.824 85.3462 174.707 90.2729 166.766 95.4371C150.89 105.761 127.822 116.974 101.326 126.618C74.8287 136.262 49.9492 142.501 31.1517 144.797C21.749 145.945 13.896 146.103 8.1325 145.222C5.2505 144.781 2.91684 144.083 1.17963 143.139C-0.553644 142.197 -1.66622 141.025 -2.17159 139.637C-2.67695 138.248 -2.57832 136.635 -1.85613 134.798C-1.1324 132.958 0.207104 130.924 2.13145 128.734C5.97985 124.354 12.0974 119.427 20.0384 114.263C35.9139 103.939 58.9829 92.7264 85.4798 83.0823Z" stroke="#FF7738"/>
<path opacity="0.4" d="M88.222 82.4746C115.458 75.1767 140.786 71.1299 159.712 70.481C169.179 70.1564 177.016 70.6833 182.681 72.0638C185.513 72.7541 187.777 73.6522 189.425 74.7444C191.07 75.8343 192.077 77.0994 192.459 78.5266C192.841 79.9537 192.602 81.5518 191.723 83.3179C190.841 85.088 189.33 86.9977 187.222 89.0118C183.006 93.0398 176.483 97.4145 168.122 101.867C151.407 110.768 127.449 119.928 100.213 127.226C72.9765 134.524 47.648 138.57 28.7219 139.219C19.2549 139.544 11.4179 139.017 5.75321 137.636C2.9206 136.946 0.656597 136.048 -0.991691 134.956C-2.63624 133.866 -3.64244 132.601 -4.02489 131.174C-4.40731 129.747 -4.16844 128.148 -3.28896 126.382C-2.40761 124.612 -0.895906 122.702 1.212 120.688C5.4275 116.66 11.9512 112.285 20.312 107.833C37.0269 98.932 60.9854 89.7726 88.222 82.4746Z" stroke="white"/>
<path opacity="0.4" d="M91.0116 82.0369C118.78 77.1406 144.364 75.3166 163.275 76.3197C172.734 76.8214 180.495 78.0294 186.018 79.8983C188.78 80.8329 190.957 81.9249 192.504 83.1566C194.047 84.3857 194.939 85.7337 195.196 87.1888C195.453 88.6438 195.075 90.215 194.045 91.8977C193.013 93.5842 191.34 95.3549 189.065 97.1777C184.514 100.823 177.634 104.612 168.917 108.319C151.49 115.73 126.826 122.767 99.0567 127.663C71.2877 132.56 45.7029 134.383 26.7923 133.38C17.3331 132.878 9.57184 131.67 4.04903 129.801C1.28736 128.866 -0.889761 127.774 -2.43658 126.543C-3.97989 125.314 -4.87206 123.966 -5.12868 122.511C-5.38525 121.056 -5.00795 119.484 -3.97788 117.802C-2.94561 116.115 -1.27322 114.344 1.00221 112.522C5.55273 108.876 12.4329 105.087 21.15 101.38C38.577 93.9697 63.2426 86.9334 91.0116 82.0369Z" stroke="#FF7738"/>
<path opacity="0.4" d="M93.8314 81.7732C121.921 79.3157 147.567 79.7285 166.318 82.3759C175.697 83.7001 183.324 85.58 188.663 87.9231C191.332 89.0949 193.406 90.3724 194.84 91.7342C196.27 93.0932 197.042 94.5138 197.17 95.9858C197.299 97.4576 196.786 98.9899 195.613 100.576C194.438 102.167 192.618 103.785 190.192 105.402C185.341 108.637 178.157 111.813 169.15 114.745C151.143 120.609 125.959 125.469 97.8693 127.927C69.7792 130.385 44.1329 129.971 25.3817 127.323C16.0022 125.999 8.37575 124.119 3.03684 121.776C0.367148 120.604 -1.70653 119.327 -3.14011 117.965C-4.57043 116.606 -5.34178 115.186 -5.47061 113.715C-5.59939 112.243 -5.08653 110.71 -3.9137 109.123C-2.73838 107.533 -0.918014 105.915 1.50762 104.297C6.35851 101.062 13.5428 97.8868 22.5498 94.954C40.5564 89.0906 65.7414 84.2308 93.8314 81.7732Z" stroke="#FF7738"/>
<path opacity="0.4" d="M96.666 81.685C124.863 81.685 150.375 84.3314 168.824 88.603C178.052 90.7396 185.486 93.277 190.601 96.0766C193.158 97.4765 195.112 98.93 196.422 100.412C197.729 101.89 198.373 103.372 198.373 104.85C198.373 106.327 197.728 107.809 196.422 109.288C195.112 110.769 193.158 112.223 190.601 113.622C185.486 116.422 178.053 118.959 168.824 121.096C150.375 125.368 124.863 128.015 96.666 128.015C68.4686 128.015 42.956 125.368 24.5068 121.096C15.2784 118.959 7.84483 116.422 2.73047 113.622C0.173054 112.223 -1.78139 110.769 -3.09082 109.288C-4.39727 107.809 -5.04193 106.327 -5.04199 104.85C-5.04199 103.372 -4.39748 101.89 -3.09082 100.412C-1.78139 98.9299 0.173089 97.4765 2.73047 96.0766C7.84482 93.277 15.2785 90.7396 24.5068 88.6029C42.956 84.3313 68.4687 81.685 96.666 81.685Z" stroke="white"/>
<path opacity="0.4" d="M99.5011 81.7731C127.591 84.2307 152.775 89.0905 170.782 94.9537C179.789 97.8866 186.973 101.062 191.824 104.297C194.25 105.914 196.07 107.533 197.245 109.123C198.418 110.709 198.931 112.242 198.802 113.714C198.673 115.186 197.902 116.606 196.472 117.965C195.038 119.327 192.964 120.604 190.295 121.776C184.956 124.119 177.329 125.999 167.95 127.323C149.199 129.971 123.553 130.384 95.4632 127.927C67.373 125.469 42.1882 120.609 24.1816 114.745C15.1745 111.812 7.99035 108.637 3.13945 105.402C0.713786 103.785 -1.10655 102.166 -2.28187 100.576C-3.4545 98.9897 -3.96756 97.4574 -3.83886 95.9855C-3.71008 94.5136 -2.93882 93.093 -1.50828 91.734C-0.0746937 90.3722 1.99902 89.0946 4.66868 87.9229C10.0076 85.5797 17.6342 83.6999 27.0136 82.3757C45.7648 79.7282 71.411 79.3155 99.5011 81.7731Z" stroke="#FF7738"/>
<path opacity="0.4" d="M102.321 82.0369C130.09 86.9333 154.755 93.9696 172.182 101.38C180.899 105.087 187.779 108.876 192.33 112.521C194.605 114.344 196.278 116.115 197.31 117.801C198.34 119.484 198.717 121.056 198.461 122.511C198.204 123.966 197.312 125.314 195.769 126.543C194.222 127.774 192.045 128.866 189.283 129.801C183.76 131.67 175.999 132.878 166.54 133.379C147.629 134.383 122.045 132.56 94.2762 127.663C66.5072 122.767 41.8418 115.729 24.4148 108.319C15.6976 104.612 8.81751 100.823 4.267 97.1775C1.99154 95.3547 0.319169 93.584 -0.713093 91.8975C-1.74299 90.2148 -2.12055 88.6436 -1.86406 87.1886C-1.60748 85.7335 -0.715335 84.3855 0.828204 83.1564C2.37502 81.9247 4.55219 80.8327 7.31381 79.8981C12.8366 78.0292 20.598 76.8212 30.0571 76.3195C48.9677 75.3164 74.5524 77.1405 102.321 82.0369Z" stroke="#FF7738"/>
<path opacity="0.4" d="M105.11 82.4744C132.346 89.7723 156.304 98.9315 173.019 107.833C181.379 112.285 187.903 116.66 192.119 120.688C194.227 122.702 195.738 124.612 196.62 126.382C197.499 128.148 197.738 129.747 197.356 131.174C196.973 132.601 195.967 133.865 194.322 134.955C192.674 136.047 190.41 136.945 187.577 137.636C181.913 139.016 174.076 139.543 164.609 139.219C145.683 138.57 120.355 134.524 93.1185 127.226C65.8819 119.928 41.9238 110.767 25.2088 101.866C16.8479 97.414 10.3243 93.0392 6.10881 89.0113C4.00088 86.9971 2.4892 85.0874 1.60785 83.3174C0.728535 81.5513 0.489346 79.9532 0.871671 78.5261C1.2541 77.0989 2.26033 75.8338 3.90512 74.7438C5.5534 73.6516 7.81745 72.7536 10.65 72.0633C16.3147 70.6828 24.1518 70.1558 33.6187 70.4804C52.5448 71.1293 77.8731 75.1763 105.11 82.4744Z" stroke="white"/>
<path opacity="0.4" d="M107.854 83.0823C134.35 92.7263 157.419 103.939 173.294 114.263C181.235 119.427 187.353 124.354 191.201 128.733C193.125 130.924 194.465 132.958 195.189 134.798C195.911 136.634 196.009 138.248 195.504 139.636C194.999 141.024 193.886 142.196 192.153 143.139C190.416 144.083 188.082 144.78 185.2 145.221C179.436 146.103 171.583 145.945 162.181 144.796C143.383 142.5 118.504 136.262 92.0077 126.618C65.5108 116.974 42.4422 105.761 26.5667 95.4367C18.6256 90.2726 12.5082 85.3459 8.65976 80.9658C6.73539 78.7756 5.39591 76.7414 4.67218 74.9013C3.95014 73.0653 3.85114 71.4524 4.35639 70.0641C4.86176 68.6756 5.97442 67.503 7.70794 66.5606C9.44515 65.6162 11.7789 64.9189 14.6608 64.4781C20.4242 63.5966 28.2775 63.7547 37.68 64.9031C56.4775 67.1991 81.3567 73.4382 107.854 83.0823Z" stroke="white"/>
<path opacity="0.4" d="M110.537 83.8556C136.092 95.7722 158.095 108.953 173.011 120.621C180.471 126.457 186.136 131.899 189.588 136.597C191.314 138.947 192.472 141.09 193.032 142.986C193.592 144.878 193.549 146.494 192.925 147.833C192.3 149.172 191.09 150.243 189.281 151.031C187.468 151.82 185.083 152.311 182.173 152.499C176.355 152.875 168.545 152.033 159.279 150.07C140.753 146.144 116.512 137.762 90.9569 125.845C65.4014 113.928 43.3978 100.747 28.4825 89.0784C21.0218 83.2418 15.3569 77.8007 11.9049 73.1019C10.1788 70.7523 9.02168 68.6091 8.46109 66.7129C7.90181 64.821 7.94376 63.2056 8.56809 61.8666C9.19254 60.5275 10.4032 59.4563 12.2122 58.6686C14.0251 57.8792 16.4107 57.3879 19.3201 57.2C25.1385 56.8241 32.9481 57.6661 42.2147 59.6296C60.7406 63.5552 84.9813 71.9389 110.537 83.8556Z" stroke="#FF7738"/>
<path opacity="0.4" d="M113.145 84.7888C137.564 98.8874 158.335 113.935 172.176 126.859C179.1 133.324 184.269 139.238 187.299 144.22C188.813 146.711 189.779 148.947 190.172 150.884C190.565 152.818 190.382 154.424 189.643 155.704C188.904 156.983 187.605 157.944 185.734 158.571C183.86 159.2 181.44 159.481 178.526 159.415C172.697 159.282 164.99 157.763 155.93 154.999C137.817 149.474 114.399 139.01 89.9796 124.912C65.5599 110.813 44.789 95.7641 30.9474 82.8402C24.0237 76.3756 18.8546 70.4614 15.8253 65.4797C14.3105 62.9886 13.3446 60.7527 12.9514 58.8148C12.5591 56.8814 12.7417 55.2758 13.4804 53.9963C14.2192 52.7167 15.5185 51.7551 17.3894 51.128C19.2642 50.4996 21.6835 50.2182 24.5982 50.2845C30.4272 50.4172 38.1337 51.9366 47.1939 54.7003C65.3072 60.2255 88.725 70.6901 113.145 84.7888Z" stroke="#FF7738"/>
<path opacity="0.4" d="M115.664 85.8747C138.761 102.048 158.142 118.849 170.804 132.93C177.138 139.973 181.772 146.316 184.356 151.542C185.648 154.156 186.415 156.468 186.638 158.432C186.86 160.393 186.538 161.977 185.69 163.187C184.843 164.397 183.465 165.241 181.547 165.703C179.624 166.166 177.19 166.235 174.292 165.915C168.497 165.275 160.952 163.09 152.167 159.547C134.604 152.464 112.188 139.999 89.0898 123.826C65.9919 107.653 46.6116 90.8507 33.949 76.7696C27.6151 69.7261 22.9812 63.3839 20.3976 58.1571C19.1057 55.5435 18.3383 53.2319 18.1155 51.2672C17.8932 49.3069 18.2151 47.7233 19.0624 46.5131C19.9099 45.3027 21.2882 44.458 23.2065 43.9964C25.129 43.5338 27.5636 43.4643 30.4615 43.7844C36.2567 44.4246 43.8014 46.6099 52.5863 50.1527C70.1491 57.2356 92.5657 69.7013 115.664 85.8747Z" stroke="#FF7738"/>
<path opacity="0.4" d="M118.085 87.1049C139.685 105.23 157.527 123.656 168.914 138.787C174.61 146.355 178.674 153.077 180.792 158.509C181.851 161.226 182.414 163.595 182.465 165.572C182.516 167.545 182.057 169.094 181.107 170.226C180.157 171.358 178.711 172.079 176.76 172.371C174.804 172.665 172.373 172.522 169.514 171.95C163.796 170.808 156.471 167.973 148.028 163.678C131.15 155.091 109.905 140.721 88.3044 122.596C66.704 104.471 48.8618 86.0436 37.4747 70.9125C31.7788 63.3438 27.7153 56.6219 25.597 51.1898C24.5378 48.4735 23.9748 46.1038 23.9241 44.1272C23.8735 42.1549 24.3322 40.6055 25.2818 39.4736C26.2315 38.3418 27.6782 37.6204 29.6295 37.3278C31.5849 37.0345 34.0164 37.1774 36.8753 37.7488C42.5926 38.8917 49.9182 41.7263 58.3609 46.0213C75.2395 54.6079 96.4844 68.9799 118.085 87.1049Z" stroke="#FF7738"/>
<path opacity="0.4" d="M120.39 88.4701C140.328 108.409 156.497 128.32 166.522 144.385C171.536 152.422 174.999 159.472 176.635 165.068C177.454 167.867 177.808 170.276 177.686 172.25C177.565 174.219 176.972 175.723 175.928 176.768C174.883 177.813 173.379 178.405 171.41 178.526C169.437 178.648 167.027 178.294 164.229 177.475C158.633 175.838 151.582 172.376 143.546 167.362C127.48 157.337 107.568 141.169 87.6298 121.23C67.6912 101.292 51.523 81.3798 41.498 65.3137C36.4834 57.2774 33.0212 50.2269 31.3844 44.6309C30.566 41.8326 30.2117 39.4229 30.3334 37.4493C30.455 35.4802 31.0469 33.9766 32.0915 32.9318C33.1363 31.887 34.6403 31.2945 36.6097 31.1731C38.5832 31.0513 40.993 31.4056 43.7912 32.224C49.3872 33.8608 56.4379 37.3231 64.4741 42.3376C80.5401 52.3626 100.452 68.5316 120.39 88.4701Z" stroke="white"/>
<path opacity="0.4" d="M122.571 89.9594C140.696 111.56 155.068 132.805 163.655 149.683C167.95 158.126 170.784 165.452 171.927 171.169C172.499 174.028 172.642 176.459 172.348 178.415C172.056 180.366 171.334 181.813 170.202 182.762C169.071 183.712 167.521 184.171 165.549 184.12C163.572 184.069 161.203 183.506 158.486 182.447C153.054 180.329 146.332 176.265 138.764 170.57C123.632 159.182 105.205 141.34 87.0803 119.74C68.9555 98.1394 54.5847 76.8945 45.9981 60.016C41.7031 51.5731 38.8685 44.2477 37.7257 38.5304C37.1543 35.6714 37.0113 33.24 37.3046 31.2845C37.5973 29.3335 38.318 27.8872 39.4498 26.9375C40.5816 25.9877 42.1315 25.5285 44.104 25.5792C46.0807 25.6299 48.4504 26.1929 51.1666 27.2521C56.5987 29.3704 63.3207 33.4339 70.8894 39.1298C86.0204 50.5168 104.446 68.3591 122.571 89.9594Z" stroke="#FF7738"/>
<path opacity="0.4" d="M124.617 91.5634C140.79 114.661 153.255 137.077 160.338 154.64C163.881 163.425 166.066 170.97 166.707 176.765C167.027 179.663 166.957 182.097 166.495 184.02C166.033 185.938 165.188 187.316 163.978 188.164C162.768 189.011 161.184 189.333 159.224 189.111C157.259 188.888 154.948 188.121 152.334 186.829C147.107 184.245 140.765 179.611 133.721 173.277C119.64 160.615 102.839 141.235 86.6655 118.137C70.4921 95.0393 58.0272 72.6221 50.9444 55.0593C47.4015 46.2743 45.2161 38.7297 44.576 32.9345C44.2559 30.0366 44.3254 27.602 44.788 25.6795C45.2496 23.7614 46.0937 22.3835 47.3039 21.536C48.5142 20.6885 50.0982 20.3661 52.0588 20.5885C54.0235 20.8113 56.3351 21.5787 58.9487 22.8706C64.1755 25.4542 70.5178 30.0882 77.5612 36.422C91.6423 49.0846 108.444 68.4655 124.617 91.5634Z" stroke="white"/>
<path opacity="0.4" d="M126.52 93.2678C140.618 117.687 151.082 141.105 156.608 159.218C159.371 168.278 160.891 175.984 161.023 181.813C161.09 184.728 160.808 187.147 160.18 189.022C159.553 190.893 158.591 192.192 157.312 192.931C156.032 193.67 154.427 193.852 152.493 193.46C150.555 193.067 148.319 192.101 145.828 190.586C140.846 187.557 134.932 182.388 128.468 175.464C115.544 161.623 100.495 140.852 86.3966 116.433C72.2979 92.0132 61.8342 68.5949 56.309 50.4817C53.5452 41.4213 52.0258 33.715 51.8932 27.886C51.8269 24.9712 52.1083 22.5519 52.7367 20.6771C53.3637 18.8066 54.3247 17.5074 55.6041 16.7686C56.8837 16.0298 58.4898 15.8468 60.4235 16.2391C62.3613 16.6324 64.5973 17.5983 67.0884 19.1131C72.07 22.1424 77.9843 27.3115 84.4489 34.2351C97.3728 48.0767 112.421 68.8482 126.52 93.2678Z" stroke="#FF7738"/>
<path opacity="0.4" d="M128.269 95.0604C140.186 120.616 148.569 144.856 152.495 163.382C154.458 172.648 155.3 180.458 154.924 186.276C154.736 189.186 154.245 191.571 153.456 193.384C152.668 195.193 151.597 196.404 150.258 197.028C148.919 197.653 147.303 197.694 145.411 197.135C143.515 196.575 141.372 195.418 139.022 193.691C134.324 190.239 128.883 184.575 123.046 177.114C111.378 162.199 98.1965 140.196 86.2799 114.64C74.3631 89.0848 65.9803 64.8437 62.0548 46.3178C60.0912 37.051 59.2492 29.2416 59.6251 23.4232C59.8131 20.5138 60.3043 18.1282 61.0937 16.3153C61.8814 14.5065 62.9519 13.296 64.2908 12.6716C65.63 12.0471 67.2459 12.0048 69.1381 12.5642C71.0342 13.1248 73.1775 14.2819 75.5271 16.008C80.2258 19.46 85.667 25.1249 91.5036 32.5856C103.172 47.5009 116.352 69.5049 128.269 95.0604Z" stroke="white"/>
<path opacity="0.4" d="M129.857 96.9274C139.501 123.424 145.74 148.303 148.036 167.1C149.185 176.503 149.343 184.356 148.461 190.119C148.02 193.001 147.323 195.335 146.379 197.072C145.436 198.806 144.264 199.918 142.875 200.424C141.487 200.929 139.874 200.83 138.038 200.108C136.198 199.384 134.164 198.045 131.974 196.12C127.594 192.272 122.667 186.154 117.503 178.213C107.179 162.338 95.9655 139.27 86.3214 112.773C76.6774 86.2763 70.4392 61.3968 68.1432 42.5993C66.9948 33.1967 66.8366 25.3436 67.7182 19.5801C68.159 16.6981 68.8563 14.3645 69.8007 12.6273C70.7431 10.894 71.915 9.78141 73.3033 9.27604C74.6917 8.77068 76.3052 8.86931 78.1414 9.59149C79.9815 10.3152 82.0157 11.6547 84.2059 13.5791C88.5859 17.4275 93.5127 23.5451 98.6768 31.486C109.001 47.3615 120.213 70.4306 129.857 96.9274Z" stroke="white"/>
<path opacity="0.4" d="M131.281 98.8548C138.579 126.091 142.626 151.419 143.275 170.345C143.599 179.812 143.072 187.649 141.692 193.313C141.001 196.146 140.103 198.41 139.011 200.058C137.921 201.703 136.656 202.709 135.229 203.092C133.802 203.474 132.204 203.235 130.438 202.356C128.668 201.474 126.758 199.963 124.744 197.855C120.716 193.639 116.341 187.116 111.889 178.755C102.988 162.04 93.8275 138.082 86.5295 110.846C79.2315 83.6093 75.1855 58.2808 74.5366 39.3547C74.212 29.8877 74.7389 22.0507 76.1194 16.386C76.8098 13.5534 77.7078 11.2894 78.8 9.64113C79.8898 7.99658 81.1542 6.99038 82.5813 6.60794C84.0085 6.22551 85.6072 6.46438 87.3735 7.34386C89.1435 8.22521 91.0533 9.73692 93.0674 11.8448C97.0953 16.0603 101.47 22.584 105.923 30.9449C114.824 47.6598 123.983 71.6182 131.281 98.8548Z" stroke="white"/>
<path opacity="0.4" d="M132.534 100.828C137.43 128.597 139.254 154.18 138.251 173.091C137.75 182.55 136.542 190.312 134.673 195.834C133.738 198.596 132.646 200.773 131.415 202.32C130.185 203.863 128.837 204.756 127.382 205.012C125.927 205.269 124.356 204.891 122.673 203.861C120.987 202.829 119.216 201.157 117.393 198.881C113.748 194.331 109.959 187.451 106.252 178.733C98.8415 161.306 91.8043 136.642 86.9079 108.873C82.0115 81.1038 80.1884 55.5191 81.1915 36.6085C81.6932 27.1492 82.9011 19.388 84.7701 13.8652C85.7047 11.1035 86.7966 8.92638 88.0284 7.37956C89.2574 5.83625 90.6047 4.94408 92.0596 4.68747C93.5148 4.43089 95.0866 4.80819 96.7695 5.83826C98.456 6.87053 100.227 8.54292 102.049 10.8184C105.695 15.3689 109.484 22.249 113.191 30.9661C120.601 48.3932 127.638 73.0588 132.534 100.828Z" stroke="#FF7738"/>
<path opacity="0.4" d="M133.614 102.831C136.072 130.921 135.659 156.567 133.011 175.318C131.687 184.697 129.807 192.324 127.464 197.663C126.292 200.332 125.015 202.406 123.653 203.84C122.294 205.27 120.873 206.042 119.401 206.17C117.93 206.299 116.397 205.786 114.811 204.613C113.221 203.438 111.603 201.618 109.985 199.192C106.75 194.341 103.575 187.157 100.642 178.15C94.7786 160.143 89.9178 134.959 87.4602 106.869C85.0027 78.7792 85.4163 53.1329 88.0638 34.3817C89.388 25.0022 91.2678 17.3757 93.611 12.0368C94.7828 9.36714 96.0603 7.29347 97.4221 5.85988C98.781 4.42956 100.201 3.65822 101.673 3.52938C103.145 3.4006 104.678 3.91347 106.264 5.08629C107.854 6.26162 109.473 8.08198 111.09 10.5076C114.325 15.3585 117.5 22.5428 120.433 31.5497C126.297 49.5564 131.156 74.7413 133.614 102.831Z" stroke="#FF7738"/>
<path opacity="0.4" d="M134.519 104.85C134.519 133.047 131.872 158.56 127.601 177.009C125.464 186.237 122.927 193.671 120.127 198.785C118.727 201.342 117.274 203.297 115.792 204.606C114.314 205.913 112.831 206.557 111.354 206.557C109.876 206.557 108.394 205.913 106.916 204.606C105.434 203.297 103.981 201.342 102.581 198.785C99.7814 193.671 97.2441 186.237 95.1074 177.009C90.8358 158.56 88.1885 133.048 88.1885 104.85C88.1885 76.6529 90.8358 51.1403 95.1074 32.6912C97.2441 23.4627 99.7814 16.0291 102.581 10.9148C103.981 8.35737 105.434 6.40293 106.916 5.0935C108.394 3.78705 109.876 3.14239 111.354 3.14233C112.831 3.14233 114.314 3.78684 115.792 5.0935C117.274 6.40293 118.727 8.35741 120.127 10.9148C122.927 16.0291 125.464 23.4629 127.601 32.6912C131.872 51.1403 134.519 76.653 134.519 104.85Z" stroke="#FF7738"/>
</g>
</svg>
