<svg width="32" height="32" viewBox="0 0 32 32" fill="none" xmlns="http://www.w3.org/2000/svg">
<rect x="2" y="2" width="28" height="28" rx="14" fill="white" fill-opacity="0.2"/>
<path d="M12.8865 22.8707C10.9538 22.8707 9.15217 22.3085 7.63574 21.3386C8.92324 21.4219 11.1954 21.2224 12.6086 19.8744C10.4826 19.7768 9.52383 18.1462 9.39877 17.4494C9.57941 17.5191 10.4409 17.6027 10.9273 17.4076C8.48167 16.7944 8.10649 14.6482 8.18986 13.9932C8.64841 14.3137 9.42656 14.4252 9.73226 14.3973C7.4534 12.7668 8.27323 10.314 8.6762 9.7844C10.3116 12.0501 12.7626 13.3226 15.7947 13.3934C15.7375 13.1427 15.7073 12.8816 15.7073 12.6135C15.7073 10.6893 17.2627 9.12939 19.1812 9.12939C20.1836 9.12939 21.0869 9.55523 21.721 10.2364C22.3908 10.0794 23.399 9.71195 23.8918 9.39419C23.6434 10.2861 22.87 11.0302 22.4022 11.3059C22.3984 11.2965 22.4061 11.3153 22.4022 11.3059C22.8131 11.2438 23.925 11.0301 24.3643 10.7321C24.147 11.2332 23.3271 12.0663 22.6542 12.5327C22.7794 18.0541 18.555 22.8707 12.8865 22.8707Z" fill="white"/>
</svg>
