<svg width="38" height="38" viewBox="0 0 38 38" fill="none" xmlns="http://www.w3.org/2000/svg">
<g clip-path="url(#clip0_135720_2300)">
<path d="M20.8793 5.24037C28.2248 6.53559 33.1252 13.534 31.83 20.8795C30.5359 28.2183 23.5362 33.1254 16.1908 31.8302C8.84542 30.535 3.94612 23.5298 5.24014 16.191C6.53536 8.84549 13.5338 3.94516 20.8793 5.24037Z" stroke="white"/>
<path d="M9.81613 15.1255C8.82177 14.9502 7.87809 15.6268 7.7015 16.6283C7.5249 17.6299 8.18697 18.5896 9.1746 18.7638C10.1622 18.9379 11.1126 18.2625 11.2892 17.261C11.467 16.2526 10.8038 15.2997 9.81613 15.1255ZM21.1713 25.6491C20.2224 26.0017 19.7377 27.0613 20.0744 28.0199C20.4178 28.9796 21.46 29.4725 22.4089 29.12C23.3578 28.7674 23.8425 27.7078 23.5058 26.7493C23.1545 25.7951 22.1122 25.3022 21.1713 25.6491ZM13.3922 17.6318C13.7093 15.8331 14.8694 14.4008 16.3892 13.6782L15.4719 11.2193C13.7124 12.0049 12.2629 13.4283 11.4373 15.2428C11.9187 15.8124 12.1554 16.5918 12.0148 17.3889C11.8743 18.186 11.3853 18.8375 10.7381 19.2081C10.8866 21.1943 11.7686 23.0288 13.1533 24.3688L14.8563 22.3719C13.6752 21.1731 13.075 19.4305 13.3922 17.6318ZM19.5697 13.2415C22.3109 13.7248 24.1801 16.2462 23.9359 19.0062L26.5029 19.4167C26.7285 17.3911 26.1857 15.4407 25.0884 13.8844C24.3575 14.0225 23.5786 13.843 22.9697 13.3282C22.3553 12.8053 22.0498 12.063 22.0586 11.3058C21.4259 11.0046 20.7452 10.7792 20.0263 10.6524C18.7833 10.4333 17.5626 10.5201 16.4287 10.8611L17.2795 13.3435C17.9999 13.1473 18.7837 13.1029 19.5697 13.2415ZM17.6956 23.8701C16.9095 23.7315 16.1883 23.4217 15.5717 22.9898L13.9232 25.0315C14.8721 25.7397 15.9962 26.24 17.2324 26.458C17.9513 26.5847 18.668 26.6057 19.3656 26.5391C19.6084 25.8302 20.1573 25.2315 20.9135 24.9504C21.6629 24.668 22.4617 24.7738 23.0947 25.1523C24.6513 24.0639 25.8352 22.418 26.316 20.4375L23.7634 19.9452C23.0569 22.6166 20.4368 24.3535 17.6956 23.8701ZM23.4387 12.7505C24.2098 13.4063 25.3578 13.2996 26.0088 12.5152C26.6597 11.7308 26.5599 10.5681 25.7888 9.91227C25.0178 9.25645 23.8698 9.36313 23.2188 10.1476C22.5746 10.9332 22.6744 12.0959 23.4387 12.7505Z" fill="white"/>
</g>
<defs>
<clipPath id="clip0_135720_2300">
<rect width="32" height="32" fill="white" transform="translate(5.55674) rotate(10)"/>
</clipPath>
</defs>
</svg>
