<svg width="23" height="20" viewBox="0 0 23 20" fill="none" xmlns="http://www.w3.org/2000/svg">
<path opacity="0.2" d="M8.80991 23.4817C9.50374 23.628 10.2016 23.1062 10.3705 22.317C11.0053 19.3355 12.1596 17.392 13.7652 16.2859C15.3975 15.1623 17.7594 14.7211 21.1129 15.3675C21.8057 15.5011 22.4962 14.9741 22.6587 14.1879C22.8205 13.4012 22.3941 12.6478 21.7039 12.5009C18.6425 11.849 16.7456 10.5643 15.7037 8.86554C14.6665 7.17395 14.3256 4.82389 14.8534 1.65039C14.9829 0.872155 14.5444 0.14999 13.8632 0.0200807C13.1828 -0.108986 12.5024 0.398271 12.3271 1.16672C11.6536 4.12982 10.5293 6.13376 8.94425 7.27352C7.3544 8.41613 5.02852 8.88836 1.60745 8.14161C0.916857 7.99143 0.215473 8.50506 0.0401152 9.29024C-0.134033 10.0743 0.280335 10.8367 0.96739 10.9975C4.03178 11.709 6.02667 12.9632 7.1178 14.6392C8.18146 16.273 8.54354 18.5541 7.85506 21.783C7.68746 22.5727 8.11621 23.3341 8.80991 23.4817Z" fill="url(#paint0_radial_135323_40213)"/>
<defs>
<radialGradient id="paint0_radial_135323_40213" cx="0" cy="0" r="1" gradientTransform="matrix(5.75124 -4.27495 -3.46303 -6.2737 9.72153 13.1787)" gradientUnits="userSpaceOnUse">
<stop stop-color="white"/>
<stop offset="1" stop-color="#929292"/>
</radialGradient>
</defs>
</svg>
