<svg width="233" height="14" viewBox="0 0 233 14" fill="none" xmlns="http://www.w3.org/2000/svg">
<path d="M232.783 8.18268H226.907C224.842 8.18268 222.85 8.94676 221.314 10.3278C214.491 15.8639 205.755 11.2698 193.263 2.42445C186.324 -2.48862 182.589 6.87749 175.587 6.96313C168.585 7.04877 165.675 1.23027 154.127 2.42445C142.578 3.61864 140.759 9.96037 131.848 11.8443C122.937 13.7283 114.457 1.42388 106.92 1.2303C99.3829 1.03672 93.4219 9.03803 80.6774 11.1029C67.9329 13.1677 65.956 0.952893 60.0634 3.72754C55.3493 5.94726 48.7899 12.6734 42.9018 12.6734C39.0316 12.6734 36.5063 11.4996 35.23 10.695C34.5347 10.2568 33.8752 9.75318 33.1581 9.35188C31.77 8.57516 30.2059 8.16732 28.6153 8.16732H0" stroke="white" stroke-width="2"/>
</svg>
