<svg width="222" height="35" viewBox="0 0 222 35" fill="none" xmlns="http://www.w3.org/2000/svg">
<path opacity="0.25" d="M221.505 25.6281H218.87C216.125 25.6281 213.464 26.5712 211.332 28.2994C201.562 36.5949 193.39 33.3665 187.944 31.5566C182.499 29.7467 157.834 7.42422 143.42 22.2053C129.006 36.9864 122.378 35.0823 114.271 16.1722C104.993 -5.47238 96.7033 -2.06954 87.5249 14.5131C75.5109 36.2191 68.9466 36.6847 53.7315 26.4285C38.5165 16.1722 40.1876 31.9163 28.1432 33.4142C20.1518 34.4081 13.9022 29.8812 11.9805 28.1215C10.3129 26.5196 8.09023 25.625 5.77788 25.625H0" stroke="#EF4444" stroke-width="2"/>
</svg>
