<svg width="145" height="44" viewBox="0 0 145 44" fill="none" xmlns="http://www.w3.org/2000/svg">
<path d="M2.66602 2.02656e-05C4.13878 2.033e-05 5.33268 1.19393 5.33268 2.66669C5.33268 4.13945 4.13877 5.33335 2.66602 5.33335C1.19326 5.33335 -0.000651186 4.13945 -0.000651121 2.66669C-0.000651057 1.19393 1.19326 2.02012e-05 2.66602 2.02656e-05ZM142.004 38.4162C143.477 38.4162 144.671 39.6101 144.671 41.0828C144.671 42.5556 143.477 43.7495 142.004 43.7495C140.531 43.7495 139.337 42.5556 139.337 41.0828C139.337 39.6101 140.531 38.4162 142.004 38.4162ZM2.66602 2.66669L3.16602 2.66669L3.16601 21.0828L2.66601 21.0828L2.16601 21.0828L2.16602 2.66669L2.66602 2.66669ZM22.666 41.0828L22.666 40.5828L142.004 40.5828L142.004 41.0828L142.004 41.5828L22.666 41.5828L22.666 41.0828ZM2.66601 21.0828L3.16601 21.0828C3.16601 31.8524 11.8965 40.5828 22.666 40.5828L22.666 41.0828L22.666 41.5828C11.3442 41.5828 2.16601 32.4047 2.16601 21.0828L2.66601 21.0828Z" fill="url(#paint0_linear_135323_40205)"/>
<defs>
<linearGradient id="paint0_linear_135323_40205" x1="2.66601" y1="20.8673" x2="142.004" y2="20.8673" gradientUnits="userSpaceOnUse">
<stop stop-color="white" stop-opacity="0.8"/>
<stop offset="0.118397" stop-color="#EF9C44"/>
<stop offset="0.333816" stop-color="#FF7738"/>
<stop offset="0.492014" stop-color="#EF4444" stop-opacity="0.7"/>
</linearGradient>
</defs>
</svg>
