<svg width="218" height="52" viewBox="0 0 218 52" fill="none" xmlns="http://www.w3.org/2000/svg">
<g filter="url(#filter0_f_135323_40222)">
<path d="M51.293 24.9161C51.293 24.9161 60.9732 22.1933 63.5122 23.8648C66.0512 25.5362 67.2937 26.4713 71.0071 24.2516C75.6488 21.4769 77.322 30.5752 87.3611 28.5104C97.4002 26.4455 102.096 18.4442 108.033 18.6377C113.97 18.8313 120.65 31.1358 127.669 29.2518C134.689 27.3678 136.122 21.0261 145.219 19.8319C154.316 18.6377 156.608 24.4562 162.124 24.3706C167.639 24.285 170.582 14.9188 176.047 19.8319C185.888 28.6773 191.313 24.3706 197.873 24.3706" stroke="white" stroke-width="2"/>
</g>
<path d="M207.179 25.5902H202.875C201.063 25.5902 199.339 26.372 198.145 27.7352C192.77 33.2714 185.889 28.6773 176.048 19.8319C170.582 14.9188 167.64 24.285 162.124 24.3706C156.609 24.4562 154.317 18.6377 145.22 19.8319C136.123 21.0261 134.69 27.3678 127.67 29.2518C120.651 31.1358 113.971 18.8314 108.034 18.6378C102.097 18.4442 97.4011 26.4455 87.362 28.5104C77.3229 30.5752 75.7656 18.3604 71.1239 21.135C67.4105 23.3547 62.2435 30.0808 57.6053 30.0808C54.4418 30.0808 52.419 28.8169 51.4525 28.0132C50.975 27.6161 50.5243 27.1815 50.0179 26.8219C48.8759 26.0106 47.5098 25.5748 46.1089 25.5748H23.8105" stroke="white" stroke-width="2"/>
<path opacity="0.25" d="M213.081 25.6283H211.388C209.006 25.6283 206.726 26.5919 205.067 28.2996C197.371 36.5951 190.933 33.3668 186.644 31.5569C182.354 29.7469 162.926 7.42446 151.571 22.2056C140.217 36.9866 134.996 35.0826 128.61 16.1724C121.301 -5.47214 114.771 -2.0693 107.541 14.5134C98.0774 36.2194 92.9065 36.685 80.9213 26.4287C68.936 16.1724 70.2524 31.9165 60.7648 33.4145C54.4697 34.4084 49.5468 29.8814 48.033 28.1218C46.7371 26.5414 44.801 25.6252 42.7572 25.6252H38.5957" stroke="#EF4444" stroke-width="2"/>
<path opacity="0.25" d="M212.696 25.6266H207.587C206.076 25.6266 204.582 25.3089 203.201 24.6942C202.341 24.311 201.543 23.8039 200.775 23.259C194.994 19.1592 189.111 19.3034 184.725 21.0024C180.052 22.8124 156.707 43.6202 144.338 28.8391C131.969 14.058 126.281 15.9621 119.325 34.8722C111.363 56.5168 104.249 53.114 96.3733 36.5313C86.0639 14.8253 80.431 14.3597 67.3748 24.616C54.3186 34.8722 54.7032 24.8415 46.182 23.3332C39.3651 22.1266 36.2732 27.3676 34.6241 29.1273C31.8387 31.8729 26.1362 34.5077 19.5588 30.1677C17.8508 29.0407 16.1625 27.8517 14.2805 27.0483C12.0029 26.076 9.55211 25.5748 7.07571 25.5748H0" stroke="#FF7738" stroke-width="2"/>
<path opacity="0.2" d="M214.004 25.5752H209.451C207.054 25.5752 204.717 26.326 202.769 27.7222C192.833 34.9623 189.257 18.5564 181.094 17.6806C171.253 16.6248 171.506 29.4453 162.801 26.7303C152.58 23.5426 144.76 1.84386 136.433 18.7364C123.174 45.6368 117.257 45.1314 108.299 28.0878C98.6976 9.81796 88.6887 26.2773 81.9373 31.0676C76.9349 34.617 74.9112 23.5911 67.7803 20.5491C63.2336 18.6095 58.6945 19.0162 53.7261 21.9302C48.9331 24.7414 45.6915 29.7898 41.8924 29.7195C37.1435 29.6316 37.0352 22.779 31.4068 22.779C25.7785 22.779 25.6148 29.0205 20.4719 30.3187C18.7533 30.7525 17.4919 30.4782 16.5014 29.8778C13.063 27.7934 10.2123 25.4254 6.19147 25.4254H0" stroke="#FF7738" stroke-width="2"/>
<g filter="url(#filter1_f_135323_40222)">
<path d="M213.725 25.5084H203.919C199.141 25.5084 194.445 26.755 190.296 29.1251C187.575 30.6792 185.204 32.8891 182.365 34.2149C180.17 35.2401 177.245 35.9042 173.821 35.2441C165.999 33.7358 165.999 22.4237 154.014 32.68C142.029 42.9363 136.858 45.0866 127.394 23.3805C120.164 6.79789 113.634 3.39505 106.325 25.0396C99.9395 43.9497 94.7184 43.2379 83.3639 28.4568C72.0095 13.6757 59.0117 36.0363 48.2913 37.8081C43.6979 38.5673 38.6014 38.4079 26.8562 28.8879C24.0627 26.7395 20.6374 25.5747 17.1133 25.5747H10.82" stroke="#FF7738" stroke-width="2"/>
</g>
<path d="M213.725 25.5084H203.919C199.141 25.5084 194.445 26.755 190.296 29.1251C187.575 30.6792 185.204 32.8891 182.365 34.2149C180.17 35.2401 177.245 35.9042 173.821 35.2441C165.999 33.7358 165.999 22.4237 154.014 32.68C142.029 42.9363 136.858 45.0866 127.394 23.3805C120.164 6.79789 113.634 3.39505 106.325 25.0396C99.9395 43.9497 94.7184 43.2379 83.3639 28.4568C72.0095 13.6757 59.0117 36.0363 48.2913 37.8081C43.6979 38.5673 38.6014 38.4079 26.8562 28.8879C24.0627 26.7395 20.6374 25.5747 17.1133 25.5747H10.82" stroke="#FF7738" stroke-width="2"/>
<defs>
<filter id="filter0_f_135323_40222" x="47.0234" y="13.4072" width="154.85" height="21.041" filterUnits="userSpaceOnUse" color-interpolation-filters="sRGB">
<feFlood flood-opacity="0" result="BackgroundImageFix"/>
<feBlend mode="normal" in="SourceGraphic" in2="BackgroundImageFix" result="shape"/>
<feGaussianBlur stdDeviation="2" result="effect1_foregroundBlur_135323_40222"/>
</filter>
<filter id="filter1_f_135323_40222" x="6.82031" y="4.86719" width="210.904" height="40.302" filterUnits="userSpaceOnUse" color-interpolation-filters="sRGB">
<feFlood flood-opacity="0" result="BackgroundImageFix"/>
<feBlend mode="normal" in="SourceGraphic" in2="BackgroundImageFix" result="shape"/>
<feGaussianBlur stdDeviation="2" result="effect1_foregroundBlur_135323_40222"/>
</filter>
</defs>
</svg>
