<svg width="38" height="38" viewBox="0 0 38 38" fill="none" xmlns="http://www.w3.org/2000/svg">
<path fill-rule="evenodd" clip-rule="evenodd" d="M21.1397 33.3072C28.7542 31.9646 33.8386 24.7034 32.4959 17.0888C31.1533 9.47431 23.8921 4.38996 16.2775 5.7326C8.66302 7.07525 3.57866 14.3365 4.92131 21.951C5.35732 24.4237 6.41747 26.6296 7.91119 28.4353L7.35238 35.7383L14.2616 32.7976C16.4057 33.5179 18.7554 33.7276 21.1397 33.3072ZM20.7657 31.1861C27.2087 30.05 31.5109 23.9059 30.3748 17.4628C29.2387 11.0198 23.0946 6.71764 16.6516 7.85373C10.2085 8.98981 5.90635 15.1339 7.04243 21.577C7.48108 24.0647 8.6663 26.2332 10.3271 27.8928L9.97305 31.9956L13.7849 30.2955C15.8941 31.2616 18.3082 31.6194 20.7657 31.1861Z" fill="white"/>
<path fill-rule="evenodd" clip-rule="evenodd" d="M20.9668 32.3228C28.5814 30.9802 33.6657 23.719 32.3231 16.1045C30.9804 8.48994 23.7192 3.40558 16.1047 4.74823C8.49017 6.09087 3.40581 13.3521 4.74846 20.9666C5.18447 23.4393 6.24462 25.6453 7.73834 27.4509L7.17953 34.7539L14.0887 31.8133C16.2329 32.5335 18.5825 32.7433 20.9668 32.3228ZM20.5928 30.2017C27.0359 29.0656 31.338 22.9215 30.202 16.4785C29.0659 10.0354 22.9218 5.73327 16.4787 6.86935C10.0356 8.00543 5.7335 14.1495 6.86958 20.5926C7.30823 23.0803 8.49345 25.2488 10.1542 26.9084L9.8002 31.0112L13.6121 29.3112C15.7213 30.2772 18.1353 30.635 20.5928 30.2017Z" fill="white"/>
<path d="M13.9597 12.7419C13.5158 12.1413 13.0232 12.2883 12.5152 12.3778C11.6073 12.5379 10.3834 13.8751 10.7403 15.899C11.0328 17.5577 12.0838 19.2446 15.0257 21.5265C17.8649 23.7287 21.2272 24.534 23.8119 24.0307C26.3965 23.5273 26.5366 21.2021 26.4037 20.4486C26.3448 20.1146 26.1082 19.9845 25.9574 19.9644C24.9991 19.6962 23.2302 19.1934 22.8332 19.1103C22.4362 19.0273 22.278 19.2622 22.1769 19.3926C21.8972 19.7724 21.3972 20.8343 21.2064 21.0869C21.0156 21.3396 20.6564 21.2921 20.5007 21.2367C19.9428 21.1195 18.4193 20.7402 17.1007 19.8472C15.47 18.7427 15.3064 18.2927 14.9711 17.9255C14.7029 17.6317 14.8211 17.4016 14.8823 17.2994C15.1213 16.9003 15.4414 16.2927 15.5804 15.9943C15.7193 15.6959 15.5007 15.3186 15.3679 15.083C14.7968 14.0699 14.3149 13.2224 13.9597 12.7419Z" fill="white"/>
</svg>
