<svg width="38" height="38" viewBox="0 0 38 38" fill="none" xmlns="http://www.w3.org/2000/svg">
<ellipse cx="27.3063" cy="20.0886" rx="4.09207" ry="4.08308" transform="rotate(10 27.3063 20.0886)" fill="white"/>
<path d="M11.6876 9.20382L15.7496 6.36628C14.753 7.09088 13.9686 8.20362 13.7379 9.5115C13.5326 10.6759 13.6856 12.0302 14.3837 13.0176L23.9429 26.5401L14.5933 33.0714L7.09043 22.3813C4.49362 18.6813 5.39699 13.5828 9.10695 11.0003L11.6876 9.20382Z" fill="white"/>
<path d="M26.3724 12.8659L19.8205 3.53067L15.6098 6.47213C14.6802 7.19703 13.9579 8.2659 13.7382 9.5119C13.5329 10.6763 13.6859 12.0306 14.3839 13.018L18.2751 18.5224L26.3724 12.8659Z" fill="white"/>
</svg>
