<svg xmlns="http://www.w3.org/2000/svg" width="400" height="400" viewBox="0 0 400 400" fill="none">
  <g filter="url(#filter0_f_135778_880)">
    <path d="M144.281 60.7841C150.382 57.0776 156.594 53.3996 163.41 51.0928C161.056 55.0084 157.667 58.1085 154.208 60.996C161.913 58.1921 169.277 53.8899 177.631 53.3782C173.763 55.5877 169.621 57.2545 165.813 59.5503C172.364 59.1647 178.874 56.8974 185.446 57.8512C199.671 61.4774 214.871 55.993 228.864 61.2299C239.895 65.5687 251.562 68.377 262.164 73.8331C278.919 82.8091 291.268 99.2511 295.887 117.629C297.116 128.47 299.495 139.158 299.736 150.122C302.309 162.555 300.89 175.429 297.202 187.484C292.949 197.929 284.106 205.433 278.071 214.753C273.1 223.218 268.593 232.105 266.255 241.691C265.408 242.022 263.751 242.682 262.921 242.993C263.064 259.292 262.17 276.044 266.647 291.877C269.61 302.633 279.264 308.789 287.057 315.801C297.949 329.282 313.507 338.251 323.086 352.912C333.523 366.896 335.969 384.52 338.91 401.185C347.312 424.68 353.58 449.267 354.064 474.331C354.378 489.44 343.72 501.837 342.859 516.738C339.434 555.086 337.318 593.759 328.881 631.442C323.648 654.043 317.863 676.518 312.978 699.185C308.185 725.995 305.449 753.223 304.87 780.444C303.819 790.811 313.243 798.07 313.144 808.316C326.092 833.595 348.64 853.111 358.502 880.128C363.498 892.482 366.155 905.597 368.393 918.687C369.58 926.849 378.73 932.805 375.961 941.66C375.283 950.877 370.059 958.835 369.141 967.996C366.506 987.062 361.748 1006.1 352.65 1023.19C348.648 1031.51 343.887 1039.62 341.506 1048.59C338.781 1059.89 348.405 1068.98 349.54 1079.78C348.808 1082 347.172 1083.75 345.893 1085.67C348.921 1100.21 356.076 1113.39 361.282 1127.19C371.486 1151.83 378.134 1177.97 380.679 1204.52C382.299 1218.88 382.365 1233.56 386.548 1247.51C390.298 1260.46 395.528 1273.05 397.803 1286.41C399.155 1293.56 398.032 1301.09 400.798 1308C403.107 1316.13 408.28 1324.29 405.81 1333.01C411.263 1341.55 418.152 1351.18 415.368 1361.9C428.173 1376.06 434.075 1394.64 439.088 1412.69C443.088 1428.42 446.734 1444.55 445.903 1460.92C444.778 1475.4 447.019 1489.83 447.741 1504.3C450.675 1542.11 452.35 1580.06 456.401 1617.78C454.402 1623.14 449.898 1627.13 447.732 1632.45C444.145 1639.71 452.228 1648.53 445.337 1654.69C450.258 1678.15 462.108 1699.4 473.794 1720.09C478.53 1726.66 479.271 1734.93 480.969 1742.62C480.025 1748.56 473.941 1751.99 468.841 1753.96C474.19 1752.44 479.397 1752.53 484.463 1754.24L481.148 1751.14C491.743 1750.29 502.359 1749.99 512.963 1749.26L514.773 1756.22L515.287 1750.1C523.948 1750.87 532.339 1748.29 540.929 1747.78L523.888 1751.56C533.487 1748.64 546.126 1753.94 554.302 1746.48L546.073 1755.77C552.086 1748.99 561.483 1751.74 569.337 1750.28L569.408 1748.2L579.123 1748.75L561.406 1752.45C569.876 1752.04 578.503 1751.8 586.95 1750.54C589.13 1749.84 591.082 1751.07 592.93 1752.1C602.324 1752.98 611.014 1748.98 620.225 1749.32L603.745 1752.83C612.583 1751.97 622.313 1753.77 630.681 1749.84L640.01 1749.78L621.633 1753.39C633.977 1753.43 646.343 1752.51 658.507 1750.25L640.011 1754.98C646.099 1754.2 652.215 1753.55 658.378 1753.06L658.382 1751.05L668.256 1751.54L650.83 1755.26C657.516 1757.84 665.463 1751.5 671.929 1755.09C675.667 1756.71 679.857 1754.44 683.677 1754.39L675.551 1757.64C679.935 1757.37 688.722 1756.83 693.107 1756.56C685.313 1758.61 677.241 1759.79 668.854 1760.09L687.259 1761.3L678.681 1762.5C674.435 1762.42 665.961 1762.25 661.714 1762.16L678.645 1763.81C669.562 1766.07 660.574 1760.88 651.365 1764.72L668.868 1765.99L659.541 1767.88L659.257 1765.63C651.944 1766.53 645.083 1769.47 637.585 1769.27C630.249 1775.02 619.224 1769.21 611.049 1773.06L627.699 1774.31L618.474 1776.1L618.206 1774.09C609.894 1774.68 601.49 1775 593.28 1776.28L608.419 1777.69C597.746 1777.94 586.98 1777.66 576.192 1778.35L589.452 1780.88L579.41 1780.31L560.907 1781.84L583.178 1782.9C576.127 1783.64 569.049 1782.45 562.004 1783.29C552.074 1783.8 542.072 1785.9 532.178 1783.82L542.654 1787.21C534.669 1786.27 526.71 1787.77 518.762 1788.12C500.792 1789.51 482.681 1790.18 464.9 1793.21C418.569 1797.69 372.136 1800.95 325.653 1802.99C310.665 1802.69 295.663 1803.76 280.719 1804.88C268.866 1805.89 256.892 1805.95 245.189 1808.32L258.455 1804.71C245.521 1807.63 232.1 1803.84 219.43 1807.68L221.956 1800C219.243 1811.23 205.634 1802.66 198.782 1808.6L206.65 1799.31C199.875 1809.97 186.316 1803.43 176.528 1807.27L189.72 1803.4C177.75 1805.32 165.588 1805.79 153.486 1806.09L169.709 1802.53C162.006 1801.22 155.345 1805.73 147.666 1805.27L140.512 1811.8L151.847 1797.94C148.834 1805.13 141.965 1803.56 136.272 1804.03C133.171 1801.93 129.399 1801.89 125.845 1801.34C122.182 1801.56 118.518 1801.76 114.848 1801.89C109.078 1798.92 101.946 1801.38 96.8645 1796.08C100.569 1795.93 104.273 1795.78 107.997 1795.65C108.371 1795.04 109.119 1793.81 109.493 1793.2C112.815 1793.03 116.157 1792.88 119.496 1792.69L119.551 1794.77L130.181 1792.86L112.919 1791.66C122.351 1792.83 134.418 1785.3 142.245 1794.09L128.763 1781.65C136.084 1795.39 151.26 1779.7 159.191 1791.79L148.872 1782.6C157.185 1786.95 166.696 1782.77 175.646 1783.52C175.375 1782.49 174.814 1780.43 174.542 1779.4L172.933 1780.49C173.722 1773.36 174.093 1765.46 178.815 1759.65C183.426 1755.36 190.203 1755.11 195.773 1752.61C205.16 1748.46 215.527 1747.97 225.531 1746.44C225.245 1742.34 225.057 1737.85 227.888 1734.53C231.902 1729.23 239.095 1729.22 244.813 1727.02C247.727 1725.15 249.287 1721.82 251.846 1719.54C256.276 1714.99 263.167 1715.32 268.988 1714.35C270.057 1707.35 275.767 1701.16 283.366 1702.55C287.092 1699.08 285.631 1693.22 289.074 1689.59C290.792 1687.46 293.568 1686.74 295.895 1685.54C297.47 1686.05 300.642 1687.09 302.218 1687.6C303.057 1684.82 303.858 1682.03 304.716 1679.27C312.107 1677.94 313.146 1669.73 317.976 1665.21C323.976 1659.02 325.228 1649.97 330.981 1643.62C333.73 1645.1 336.413 1646.67 339.153 1648.27C337.367 1641.91 337.742 1635.36 340.291 1629.31C338.651 1624.76 335.336 1619.87 338.028 1615.08C340.746 1610.68 337.568 1606.43 335.785 1602.44C332.908 1596.81 338.342 1590.56 335.392 1584.91C329.758 1573.52 332.262 1560.36 328.281 1548.51C322.493 1526.37 307.816 1506.71 306.678 1483.43C309.793 1470.96 303.27 1459.31 298.771 1448.1C293.695 1435.88 294.578 1422.34 295.688 1409.45C295.877 1405.41 296.748 1400.77 293.974 1397.37C289.833 1392.06 283.156 1389.87 277.339 1387.01C267.358 1382.65 257.816 1376.54 251.356 1367.61C241.191 1353.62 236.107 1336.64 234.03 1319.64C228.842 1305.31 225.158 1290.45 223.91 1275.21C223.415 1260.35 214.796 1247.74 207.951 1235.12C185.628 1196.01 162.017 1157.67 139.868 1118.47C132.455 1104.45 124.562 1090.56 119.45 1075.5C116.019 1065.83 116.108 1055.44 115.854 1045.33C115.78 1026.65 115.126 1007.97 114.566 989.331C114.55 977.699 109.476 966.818 109.39 955.227C108.768 937.004 118.196 920.489 119.256 902.476C114.782 898.349 116.315 891.519 112.139 887.244C107.763 882.205 109.994 874.981 107.362 869.204C99.2696 846.774 88.5274 825.055 84.9606 801.258C81.7389 784.468 83.1335 767.355 83.9263 750.447C82.1854 720.887 75.1736 691.876 73.6671 662.299C65.0792 667.503 55.5983 671.337 45.8042 673.544C40.329 673.764 34.833 673.169 29.3674 673.787C22.7142 674.524 15.2766 671.819 12.3484 665.446C9.50531 658.994 7.48959 652.195 5.63867 645.42C1.70241 629.296 15.3371 614.117 10.1784 598.133C7.94278 590.262 11.3879 582.519 12.7375 574.868C13.9514 568.386 15.702 561.288 21.3221 557.18C28.3513 552.23 36.638 549.458 43.9113 544.891C49.8272 541.125 57.7663 540.896 62.2404 534.911C76.7673 518.239 93.7099 501.905 99.5411 479.824C105.271 458.113 112.056 435.93 126.206 418.016C141.783 397.972 160.53 380.479 180.553 364.926C179.787 356.826 180.154 348.337 177.117 340.667C173.097 333.718 168.992 326.829 165.32 319.675C161.442 312.154 152.14 307.404 152.266 298.063C152.432 290.332 154.383 279.885 146.12 275.479C133.932 270.66 120.504 272.468 107.792 270.784C101.536 270.207 96.3063 264.864 95.8327 258.61C94.9235 253.382 98.4795 249.038 99.7205 244.24C98.048 238.721 97.1887 232.91 99.7829 227.51C95.7313 222.175 99.1452 215.54 97.7901 209.637C94.9627 203.927 86.5491 202.812 85.1398 196.133C86.2911 189.276 93.167 186.022 97.4384 181.284C101.617 176.516 106.172 171.939 109.506 166.505C112.787 160.55 106.582 155.004 106.941 148.998C107.371 143.224 107.71 137.184 110.722 132.063C117.06 120.602 119.965 107.461 127.694 96.7181C125.243 96.3821 122.788 96.0101 120.369 95.6175C121.55 94.1034 122.751 92.6241 124.008 91.159C121.537 87.4358 120.1 83.2235 119.413 78.8319C120.634 79.9787 123.115 82.2878 124.355 83.4333C123.802 82.2579 122.677 79.9084 122.124 78.733C123.353 74.8054 123.407 70.6519 123.539 66.5836C125.063 68.416 126.519 70.3256 128.063 72.1928C129.117 67.5707 130.819 63.1389 132.299 58.6502C136.793 59.4232 139.881 55.3838 143.557 53.5321C143.738 55.3496 144.1 58.9666 144.281 60.7841ZM289.435 1692.93C290.091 1693.76 291.386 1695.44 292.043 1696.29C294.57 1694.84 296.679 1692.86 298.134 1690.35C294.785 1689.37 291.821 1690.52 289.435 1692.93ZM276.272 1708.12C274.854 1709.08 273.172 1713.28 276.042 1713.39C279.493 1713.24 280.632 1705.17 276.272 1708.12ZM258.071 1719.16C262.07 1720.89 266.996 1720.85 270.306 1717.65C266.172 1717.61 262.059 1718.13 258.071 1719.16ZM249.809 1725.91C252.052 1725.85 254.292 1725.74 256.547 1725.6C256.617 1724.28 256.72 1721.61 256.791 1720.28C254.337 1721.99 251.965 1723.82 249.809 1725.91Z" fill="black"/>
  </g>
  <defs>
    <filter id="filter0_f_135778_880" x="-95.0859" y="-48.9072" width="888.192" height="1960.71" filterUnits="userSpaceOnUse" color-interpolation-filters="sRGB">
      <feFlood flood-opacity="0" result="BackgroundImageFix"/>
      <feBlend mode="normal" in="SourceGraphic" in2="BackgroundImageFix" result="shape"/>
      <feGaussianBlur stdDeviation="50" result="effect1_foregroundBlur_135778_880"/>
    </filter>
  </defs>
</svg>
