<svg width="15" height="15" viewBox="0 0 15 15" fill="none" xmlns="http://www.w3.org/2000/svg">
<g clip-path="url(#clip0_135973_13153)">
<path d="M7.22559 1.15321C10.5747 1.15321 13.2977 3.8764 13.2979 7.22548C13.2979 10.5747 10.5748 13.2977 7.22559 13.2977C3.87651 13.2976 1.15332 10.5746 1.15332 7.22548C1.15345 3.87648 3.87659 1.15334 7.22559 1.15321Z" stroke="white" stroke-width="0.5"/>
<path fill-rule="evenodd" clip-rule="evenodd" d="M9.3978 8.14607C9.37924 8.11945 9.36053 8.09337 9.34193 8.06744C9.1907 7.85663 9.04656 7.65571 9.04656 7.25295V5.75148C9.04656 5.69929 9.04685 5.64744 9.04715 5.596C9.05044 5.02032 9.05344 4.49501 8.63826 4.09314C8.28223 3.73811 7.69081 3.61285 7.2385 3.61285C6.35389 3.61285 5.36706 3.955 5.16011 5.08875C5.13821 5.20918 5.22256 5.27222 5.29902 5.28994L6.19979 5.39102C6.28414 5.38658 6.34505 5.30061 6.36137 5.21401C6.43861 4.82333 6.75411 4.63565 7.10861 4.63565C7.2998 4.63565 7.51692 4.70815 7.63008 4.88597C7.74676 5.06326 7.74491 5.30001 7.74325 5.51171C7.74306 5.53637 7.74287 5.56069 7.74287 5.58454V5.7104C7.65929 5.72009 7.57172 5.72927 7.48151 5.73872C6.99027 5.79023 6.42107 5.8499 5.99478 6.04368C5.41279 6.30507 5.0041 6.83691 5.0041 7.61866C5.0041 8.6205 5.61224 9.12133 6.39521 9.12133C7.05598 9.12133 7.4176 8.95962 7.92734 8.42075C7.9528 8.45901 7.97569 8.49429 7.99724 8.52753C8.11884 8.71501 8.19821 8.83737 8.46016 9.06334C8.52932 9.10161 8.6208 9.10017 8.68208 9.0426C8.86769 8.87143 9.2047 8.56775 9.39473 8.40263C9.47062 8.33798 9.45717 8.23347 9.3978 8.14607ZM7.569 7.71311C7.42145 7.98497 7.18644 8.1513 6.92532 8.1513C6.56928 8.1513 6.36023 7.86937 6.36023 7.45231C6.36023 6.6313 7.07077 6.48228 7.74269 6.48228C7.74269 6.53141 7.74312 6.5808 7.74356 6.63031C7.74686 7.00198 7.75022 7.38102 7.569 7.71311Z" fill="white"/>
<path d="M10.5087 9.78446C9.61897 10.4725 8.32864 10.8386 7.21739 10.8386C5.66055 10.8386 4.2582 10.2355 3.19707 9.2314C3.11384 9.15245 3.18813 9.04463 3.28813 9.10593C4.43316 9.80425 5.8489 10.2246 7.31111 10.2246C8.29761 10.2246 9.38183 10.0102 10.3794 9.56648C10.5299 9.49978 10.6561 9.67068 10.5087 9.78446Z" fill="white"/>
<path d="M9.83998 9.30525C10.1265 9.26897 10.7653 9.18871 10.879 9.34126C10.9928 9.49369 10.7537 10.1205 10.6459 10.403L10.6451 10.405C10.6127 10.4902 10.6824 10.5242 10.7559 10.4597C11.2334 10.0413 11.3568 9.16439 11.2589 9.0373C11.1618 8.91197 10.3271 8.80346 9.81772 9.17842C9.73944 9.23658 9.75283 9.31584 9.83998 9.30525Z" fill="white"/>
</g>
<defs>
<clipPath id="clip0_135973_13153">
<rect width="14.4514" height="14.4514" rx="6" fill="white"/>
</clipPath>
</defs>
</svg>
