<svg width="24" height="25" viewBox="0 0 24 25" fill="none" xmlns="http://www.w3.org/2000/svg">
<rect y="9.28993" width="23.584" height="15.3212" rx="6" fill="url(#paint0_radial_135973_13162)"/>
<rect y="9.28993" width="23.584" height="15.3212" rx="6" fill="url(#paint1_radial_135973_13162)"/>
<rect y="9.28993" width="23.584" height="15.3212" rx="6" fill="url(#paint2_radial_135973_13162)"/>
<rect y="9.28993" width="23.584" height="15.3212" rx="6" fill="#FF7738" fill-opacity="0.25"/>
<rect width="23.584" height="23.584" rx="6" fill="black" fill-opacity="0.4"/>
<path d="M9.79199 5.11577H13.793C14.6591 5.11577 15.2941 5.11587 15.7949 5.15678C16.2927 5.19746 16.6367 5.27756 16.9248 5.42436C17.4566 5.69547 17.8891 6.12786 18.1602 6.65971C18.307 6.94784 18.3871 7.29174 18.4277 7.7896C18.4686 8.29037 18.4688 8.92541 18.4688 9.79155V13.7925C18.4688 14.6587 18.4686 15.2937 18.4277 15.7945C18.3871 16.2923 18.307 16.6362 18.1602 16.9244C17.8891 17.4562 17.4566 17.8886 16.9248 18.1597C16.6367 18.3065 16.2927 18.3866 15.7949 18.4273C15.2941 18.4682 14.6591 18.4683 13.793 18.4683H9.79199C8.92586 18.4683 8.29081 18.4682 7.79004 18.4273C7.29218 18.3866 6.94828 18.3065 6.66016 18.1597C6.1283 17.8886 5.69592 17.4562 5.4248 16.9244C5.278 16.6362 5.19791 16.2923 5.15723 15.7945C5.11631 15.2937 5.11621 14.6587 5.11621 13.7925V9.79155C5.11621 8.92541 5.11631 8.29037 5.15723 7.7896C5.1979 7.29174 5.278 6.94784 5.4248 6.65971C5.69591 6.12785 6.12829 5.69547 6.66016 5.42436C6.94828 5.27755 7.29218 5.19746 7.79004 5.15678C8.29081 5.11587 8.92586 5.11577 9.79199 5.11577Z" stroke="white" stroke-width="0.5"/>
<path d="M6.99879 9.57167C6.84473 9.86473 6.84473 10.2484 6.84473 11.0157V12.5684C6.84473 13.3356 6.84473 13.7193 6.99879 14.0123C7.13431 14.2701 7.35055 14.4797 7.61652 14.6111C7.91889 14.7604 8.31471 14.7604 9.10635 14.7604H11.4936C12.2853 14.7604 12.6811 14.7604 12.9835 14.6111C13.2494 14.4797 13.4657 14.2701 13.6012 14.0123C13.7553 13.7193 13.7553 13.3356 13.7553 12.5684V11.0157C13.7553 10.2484 13.7553 9.86473 13.6012 9.57167C13.4657 9.31388 13.2494 9.1043 12.9835 8.97295C12.6811 8.82362 12.2853 8.82362 11.4936 8.82362H9.10635C8.31471 8.82362 7.91889 8.82362 7.61652 8.97295C7.35055 9.1043 7.13431 9.31388 6.99879 9.57167Z" fill="white"/>
<path d="M14.294 10.5059L15.8365 9.25267C16.1943 8.96202 16.7393 9.20854 16.7393 9.66098V13.9359C16.7393 14.3861 16.1988 14.6334 15.8402 14.3471L14.2982 13.1164C14.1533 13.0007 14.0694 12.8283 14.0694 12.6463V10.9725C14.0694 10.7924 14.1516 10.6215 14.294 10.5059Z" fill="white"/>
<defs>
<radialGradient id="paint0_radial_135973_13162" cx="0" cy="0" r="1" gradientTransform="matrix(8.10692 -4.65615 2.35976 15.9962 10.3497 24.6111)" gradientUnits="userSpaceOnUse">
<stop stop-color="white"/>
<stop offset="1" stop-color="white" stop-opacity="0.05"/>
</radialGradient>
<radialGradient id="paint1_radial_135973_13162" cx="0" cy="0" r="1" gradientTransform="matrix(-6.5251 8.85131 -4.48588 -12.875 23.584 16.9505)" gradientUnits="userSpaceOnUse">
<stop stop-color="white"/>
<stop offset="1" stop-color="white" stop-opacity="0.05"/>
</radialGradient>
<radialGradient id="paint2_radial_135973_13162" cx="0" cy="0" r="1" gradientTransform="matrix(3.02555 3.53018 -1.78911 5.96987 1.17025e-07 12.1224)" gradientUnits="userSpaceOnUse">
<stop stop-color="white"/>
<stop offset="1" stop-color="white" stop-opacity="0.05"/>
</radialGradient>
</defs>
</svg>
