<svg width="15" height="15" viewBox="0 0 15 15" fill="none" xmlns="http://www.w3.org/2000/svg">
<path fill-rule="evenodd" clip-rule="evenodd" d="M5.02145 6.36048C4.95596 6.27472 4.85044 6.22945 4.74322 6.24111C4.63599 6.25277 4.54266 6.31966 4.4971 6.41749L1.84016 11.7335C1.79095 11.832 1.79621 11.9489 1.85406 12.0426C1.91192 12.1363 2.01412 12.1933 2.12417 12.1934H5.82383C5.94489 12.1962 6.05623 12.1273 6.10784 12.0177C6.9059 10.3674 6.42225 7.85817 5.02145 6.36048Z" fill="white"/>
<path fill-rule="evenodd" clip-rule="evenodd" d="M6.97066 1.52536C5.62382 3.59919 5.46837 6.22968 6.56158 8.44789L8.34522 12.0177C8.399 12.1253 8.50895 12.1934 8.62923 12.1934H12.3282C12.4383 12.1934 12.5405 12.1363 12.5983 12.0426C12.6562 11.949 12.6614 11.832 12.6122 11.7335C12.6122 11.7335 7.63585 1.77251 7.51078 1.52337C7.46033 1.41989 7.35516 1.35441 7.2401 1.35483C7.12503 1.35525 7.02035 1.42151 6.97066 1.52536Z" fill="white"/>
</svg>
