<svg width="18" height="18" viewBox="0 0 18 18" fill="none" xmlns="http://www.w3.org/2000/svg">
<path d="M10.1244 2.80457C13.3858 3.58576 15.3971 6.86305 14.6161 10.1245C13.8349 13.386 10.5567 15.3972 7.29523 14.616C4.03387 13.8347 2.02348 10.5568 2.80467 7.29535C3.58597 4.03407 6.86301 2.02353 10.1244 2.80457Z" stroke="white" stroke-width="0.5"/>
<path fill-rule="evenodd" clip-rule="evenodd" d="M7.35613 4.67063L4.84462 5.46221L6.72496 7.30574L4.21345 8.09732L6.09379 9.94085L8.6053 9.14928L10.4856 10.9928L12.9972 10.2012L11.1168 8.3577L13.6283 7.56612L11.748 5.72259L9.23647 6.51417L7.35613 4.67063ZM9.23647 6.51417L11.1168 8.3577L8.6053 9.14928L6.72496 7.30574L9.23647 6.51417Z" fill="white"/>
<path d="M5.88339 10.8192L8.39491 10.0276L10.2752 11.8712L7.76373 12.6628L5.88339 10.8192Z" fill="white"/>
</svg>
