<svg width="208" height="141" viewBox="0 0 208 141" fill="none" xmlns="http://www.w3.org/2000/svg">
<path d="M107.647 0.0478516C110.226 0.111438 112.78 0.238907 115.307 0.427734L115.288 0.676758C117.858 0.868837 120.401 1.12426 122.911 1.44141L122.941 1.19434C125.502 1.51787 128.03 1.90503 130.521 2.35352L130.477 2.59863C133.016 3.05584 135.517 3.57722 137.976 4.15918L138.032 3.91602C140.548 4.51152 143.02 5.17035 145.443 5.89062H145.444L145.373 6.13086C147.848 6.86646 150.273 7.66555 152.642 8.52539L152.726 8.29102C155.162 9.17531 157.541 10.1219 159.856 11.1309V11.1318L159.757 11.3613C162.128 12.3945 164.432 13.4906 166.665 14.6475L166.779 14.4258C169.082 15.6189 171.309 16.8764 173.454 18.1934L173.324 18.4062C175.534 19.7629 177.658 21.1835 179.688 22.6631L179.834 22.4609V22.46C181.935 23.9918 183.936 25.5889 185.831 27.2432L185.668 27.4307C187.621 29.1356 189.461 30.903 191.18 32.7275L191.36 32.5557C193.143 34.448 194.795 36.4022 196.309 38.4121L196.11 38.5625C197.666 40.6274 199.075 42.7508 200.327 44.9268L200.542 44.8027C201.832 47.0438 202.957 49.3406 203.908 51.6865L203.679 51.7803C204.64 54.1522 205.423 56.5744 206.015 59.0391L206.256 58.9814C206.852 61.4631 207.256 63.9882 207.459 66.5498L207.212 66.5693C207.312 67.8318 207.362 69.1034 207.362 70.3828C207.362 71.6621 207.312 72.9339 207.212 74.1963L207.459 74.2148C207.256 76.7765 206.852 79.3015 206.256 81.7832L206.015 81.7256C205.423 84.1903 204.64 86.6123 203.679 88.9844L203.908 89.0771C202.957 91.4234 201.832 93.7206 200.542 95.9619L200.327 95.8379C199.075 98.0139 197.666 100.138 196.11 102.203L196.309 102.353C194.795 104.362 193.142 106.316 191.36 108.208L191.18 108.038C189.461 109.863 187.621 111.63 185.668 113.335L185.831 113.521C183.936 115.176 181.935 116.773 179.834 118.305L179.688 118.103C177.658 119.582 175.534 121.003 173.324 122.359L173.454 122.571C171.309 123.888 169.083 125.146 166.78 126.339L166.665 126.117C164.432 127.274 162.128 128.371 159.757 129.404L159.855 129.633C157.54 130.642 155.162 131.588 152.726 132.473L152.642 132.24C150.273 133.1 147.848 133.899 145.373 134.635L145.443 134.873C143.02 135.593 140.548 136.252 138.032 136.848L137.976 136.606C135.517 137.188 133.016 137.709 130.477 138.166L130.521 138.411C128.03 138.86 125.502 139.247 122.941 139.57L122.911 139.324C120.401 139.641 117.858 139.897 115.288 140.089L115.306 140.337C112.779 140.526 110.225 140.653 107.647 140.717L107.642 140.468C106.369 140.499 105.091 140.516 103.807 140.516C102.523 140.516 101.243 140.499 99.9707 140.468L99.9648 140.717C97.3867 140.653 94.8325 140.526 92.3057 140.337L92.3242 140.089C89.7541 139.897 87.2121 139.641 84.7021 139.324L84.6709 139.57C82.1102 139.247 79.5826 138.86 77.0918 138.411L77.1357 138.166C74.5964 137.709 72.0954 137.188 69.6367 136.606L69.5791 136.848C67.0632 136.252 64.5914 135.593 62.168 134.873L62.2393 134.635C59.7644 133.899 57.3397 133.1 54.9707 132.24L54.8857 132.473C52.4496 131.588 50.071 130.642 47.7559 129.633L47.8555 129.404C45.4847 128.371 43.1801 127.274 40.9473 126.117L40.832 126.338C38.5294 125.145 36.3025 123.888 34.1572 122.571L34.2881 122.359C32.0782 121.003 29.9554 119.582 27.9258 118.103L27.7783 118.304C25.6772 116.772 23.6765 115.176 21.7812 113.521L21.9443 113.335C19.991 111.63 18.1518 109.862 16.4336 108.038L16.251 108.208C14.469 106.316 12.8166 104.362 11.3027 102.353L11.502 102.203C9.94642 100.138 8.53774 98.0139 7.28516 95.8379L7.06934 95.9619C5.77918 93.7206 4.65411 91.4233 3.70312 89.0771L3.93359 88.9844C2.97212 86.6124 2.18978 84.1903 1.59766 81.7256L1.35547 81.7832C0.759323 79.3016 0.355069 76.7764 0.152344 74.2148L0.400391 74.1963C0.325449 73.2495 0.278686 72.2973 0.259766 71.3408L0.25 70.3828C0.25 69.1034 0.300461 67.8318 0.400391 66.5693L0.152344 66.5498C0.355099 63.9882 0.759296 61.4631 1.35547 58.9814L1.59766 59.0391C2.18979 56.5744 2.97213 54.1522 3.93359 51.7803L3.70312 51.6865C4.65406 49.3406 5.77932 47.0438 7.06934 44.8027L7.28516 44.9268C8.5377 42.7508 9.94648 40.6274 11.502 38.5625L11.3027 38.4121C12.8168 36.4023 14.4688 34.448 16.251 32.5557L16.4336 32.7275C18.1518 30.9031 19.991 29.1356 21.9443 27.4307L21.7812 27.2432C23.4311 25.8032 25.1602 24.4063 26.9668 23.0586L27.7783 22.4609L27.9258 22.6631C29.9554 21.1835 32.0781 19.7629 34.2881 18.4062L34.1572 18.1934C36.3026 16.8764 38.5293 15.6189 40.832 14.4258L40.9473 14.6475C43.18 13.4906 45.4847 12.3945 47.8555 11.3613L47.7559 11.1318L47.7549 11.1309C50.0702 10.1219 52.4493 9.17533 54.8857 8.29102L54.9707 8.52539C57.3397 7.66555 59.7644 6.86646 62.2393 6.13086L62.168 5.89062C64.5913 5.17033 67.0632 4.51155 69.5791 3.91602L69.6367 4.15918C72.0954 3.5772 74.5964 3.05586 77.1357 2.59863L77.0918 2.35352C79.5826 1.90503 82.1102 1.51787 84.6709 1.19434L84.7021 1.44141C87.2121 1.12428 89.754 0.86883 92.3242 0.676758L92.3057 0.427734C94.8325 0.238902 97.3867 0.111443 99.9648 0.0478516L99.9707 0.296875C101.243 0.26548 102.523 0.25 103.807 0.25C105.091 0.250003 106.369 0.265486 107.642 0.296875L107.647 0.0478516Z" stroke="url(#paint0_linear_135973_13057)" stroke-width="0.5" stroke-dasharray="7.5 7.5"/>
<defs>
<linearGradient id="paint0_linear_135973_13057" x1="98.3617" y1="-6.85394e-08" x2="98.3617" y2="140.765" gradientUnits="userSpaceOnUse">
<stop offset="0.20196" stop-color="#FF7738" stop-opacity="0"/>
<stop offset="0.788507" stop-color="#FF7738"/>
<stop offset="1" stop-color="white" stop-opacity="0"/>
</linearGradient>
</defs>
</svg>
