<svg width="158" height="107" viewBox="0 0 158 107" fill="none" xmlns="http://www.w3.org/2000/svg">
<path d="M149.175 29.1895C150.706 31.2219 152.051 33.3295 153.194 35.502L152.975 35.6182C154.146 37.8432 155.104 40.1363 155.833 42.4854L156.07 42.4111C156.812 44.7994 157.318 47.2462 157.572 49.7402L157.325 49.7656C157.45 50.9939 157.515 52.2336 157.515 53.4834C157.515 54.7334 157.45 55.9738 157.325 57.2021L157.572 57.2266C157.318 59.7203 156.812 62.1667 156.07 64.5547L155.833 64.4814C155.104 66.8304 154.146 69.1236 152.975 71.3486L153.194 71.4639C152.051 73.6366 150.706 75.7446 149.175 77.7773L148.976 77.6279C147.51 79.5741 145.871 81.4513 144.074 83.251L144.251 83.4268C142.525 85.156 140.653 86.8128 138.647 88.3896L138.494 88.1943C136.577 89.7016 134.538 91.1356 132.386 92.4893L132.518 92.7002C130.442 94.0055 128.264 95.2363 125.99 96.3857L125.878 96.1631C123.695 97.2667 121.425 98.2959 119.075 99.2441L119.168 99.4746C116.889 100.394 114.535 101.239 112.115 102.002L112.041 101.765C109.699 102.503 107.294 103.166 104.834 103.748L104.891 103.99C102.492 104.558 100.04 105.05 97.542 105.461L97.5029 105.215C95.0734 105.614 92.599 105.938 90.0869 106.181L90.1104 106.428C87.6515 106.665 85.1563 106.826 82.6299 106.906L82.623 106.658C81.3835 106.698 80.1358 106.717 78.8818 106.717C77.628 106.717 76.3811 106.698 75.1416 106.658L75.1338 106.906C72.6074 106.826 70.1121 106.665 67.6533 106.428L67.6768 106.181C65.1648 105.938 62.6912 105.614 60.2617 105.215L60.2217 105.461C57.7235 105.05 55.2719 104.559 52.873 103.991L52.9307 103.748C50.4703 103.166 48.0655 102.503 45.7236 101.765L45.6484 102.002C43.2283 101.239 40.875 100.394 38.5957 99.4746L38.6895 99.2441C36.3396 98.2959 34.0686 97.2667 31.8857 96.1631L31.7734 96.3857C29.4996 95.2361 27.3206 94.0048 25.2451 92.6992L25.3789 92.4893C23.2268 91.1355 21.1864 89.7017 19.2695 88.1943L19.1152 88.3896C17.1103 86.8129 15.2389 85.1558 13.5127 83.4268L13.6895 83.251C11.8927 81.4513 10.2541 79.5741 8.78809 77.6279L8.58887 77.7773C7.05764 75.7447 5.71301 73.6366 4.56934 71.4639L4.79004 71.3486C3.61879 69.1236 2.66096 66.8305 1.93164 64.4814L1.69336 64.5547C0.952008 62.1667 0.445674 59.7203 0.191406 57.2266L0.438477 57.2021C0.313215 55.9738 0.25 54.7334 0.25 53.4834C0.250007 52.2336 0.313237 50.9938 0.438477 49.7656L0.191406 49.7402C0.445733 47.2462 0.951834 44.7994 1.69336 42.4111L1.93164 42.4854C2.66096 40.1363 3.61878 37.8432 4.79004 35.6182L4.56934 35.502C5.61489 33.5158 6.82871 31.5838 8.19922 29.7139L8.58887 29.1895L8.78809 29.3398C10.2542 27.3936 11.8926 25.5156 13.6895 23.7158L13.5127 23.5391C15.2388 21.8102 17.1105 20.1537 19.1152 18.5771L19.2695 18.7734C21.1864 17.266 23.2268 15.8313 25.3789 14.4775L25.2451 14.2666C27.3204 12.9612 29.4989 11.7296 31.7725 10.5801L31.7734 10.5811L31.8857 10.8037C34.0686 9.70006 36.3396 8.67189 38.6895 7.72363L38.5957 7.49121C40.8749 6.57146 43.2285 5.72814 45.6484 4.96484L45.7236 5.20312C48.0655 4.46448 50.4703 3.80115 52.9307 3.21875L52.873 2.97559C55.2716 2.40783 57.7229 1.9157 60.2207 1.50488L60.2217 1.50586L60.2617 1.75195C62.6912 1.3524 65.1648 1.02887 67.6768 0.786133L67.6533 0.538086C70.1121 0.300498 72.6074 0.139704 75.1338 0.0595703L75.1416 0.30957C76.3811 0.270255 77.628 0.250004 78.8818 0.25C80.1358 0.25 81.3835 0.270251 82.623 0.30957L82.6299 0.0595703C85.1563 0.139689 87.6516 0.300513 90.1104 0.538086L90.0869 0.786133C92.599 1.02887 95.0734 1.35238 97.5029 1.75195L97.543 1.50586V1.50488C100.041 1.91569 102.492 2.4088 104.891 2.97656L104.834 3.21875C107.294 3.80114 109.699 4.46449 112.041 5.20312L112.115 4.96484C114.535 5.72817 116.889 6.5724 119.168 7.49219L119.075 7.72363C121.425 8.67182 123.695 9.70016 125.878 10.8037L125.991 10.5811C128.264 11.7304 130.443 12.9614 132.518 14.2666H132.519L132.386 14.4775C134.538 15.8313 136.577 17.2661 138.494 18.7734L138.647 18.5771C140.652 20.1539 142.525 21.81 144.251 23.5391H144.252L144.074 23.7158C145.871 25.5156 147.509 27.3936 148.976 29.3398L149.175 29.1895Z" stroke="url(#paint0_linear_135973_13058)" stroke-width="0.5" stroke-dasharray="7.5 7.5"/>
<defs>
<linearGradient id="paint0_linear_135973_13058" x1="74.7448" y1="-5.20829e-08" x2="74.7448" y2="106.967" gradientUnits="userSpaceOnUse">
<stop offset="0.20196" stop-color="#FF7738" stop-opacity="0"/>
<stop offset="0.788507" stop-color="#FF7738"/>
<stop offset="1" stop-color="white" stop-opacity="0"/>
</linearGradient>
</defs>
</svg>
