<svg width="17" height="17" viewBox="0 0 17 17" fill="none" xmlns="http://www.w3.org/2000/svg">
<path d="M9.42499 2.39039C12.7277 2.97275 14.9337 6.12229 14.3515 9.42501C13.7692 12.7278 10.6188 14.9338 7.31595 14.3514C4.01328 13.7689 1.80818 10.6187 2.39054 7.31597C2.97302 4.01339 6.12236 1.8082 9.42499 2.39039Z" stroke="white" stroke-width="0.5"/>
<path d="M10.3542 10.6838L10.9407 8.97515L9.21044 8.67006L9.41145 7.53013C9.49624 7.04922 9.8202 6.62272 10.5952 6.75937L11.3823 6.89816L11.6461 5.40199C11.6461 5.40199 10.953 5.15734 10.2707 5.03703C8.84506 4.78565 7.76568 5.46339 7.49704 6.98687L7.26087 8.3263L5.67682 8.04699L5.36694 9.8044L6.95099 10.0837L6.20184 14.3324C6.51127 14.4371 6.83222 14.5194 7.16365 14.5779C7.49507 14.6363 7.82481 14.6687 8.15141 14.6761L8.90057 10.4275L10.3542 10.6838Z" fill="white"/>
</svg>
