<svg width="17" height="17" viewBox="0 0 17 17" fill="none" xmlns="http://www.w3.org/2000/svg">
<g filter="url(#filter0_d_135973_13139)">
<path d="M5.5171 2.70759L9.11492 2.0732C9.89371 1.93588 10.4633 1.83529 10.9188 1.7928C11.3713 1.75061 11.6894 1.76866 11.9678 1.85376C12.4847 2.0118 12.9388 2.32893 13.2641 2.7606C13.4393 2.99314 13.5642 3.2868 13.6794 3.7266C13.7953 4.16922 13.8965 4.73854 14.0338 5.51746L14.6682 9.11528C14.8055 9.89407 14.9052 10.4639 14.9477 10.9194C14.9898 11.3717 14.9727 11.6899 14.8877 11.9682C14.7296 12.4852 14.4116 12.9393 13.9799 13.2646C13.7474 13.4397 13.4543 13.5647 13.0148 13.6797C12.5722 13.7956 12.0028 13.8969 11.224 14.0342L7.62614 14.6686C6.84722 14.8059 6.27762 14.9055 5.82206 14.948C5.3694 14.9902 5.05073 14.9733 4.77229 14.8882C4.25537 14.7301 3.80209 14.4119 3.47678 13.9802C3.3016 13.7477 3.17583 13.455 3.06072 13.0153C2.94485 12.5728 2.84455 12.0031 2.70723 11.2243L2.07284 7.6265C1.9355 6.84761 1.83495 6.27814 1.79244 5.82259C1.75022 5.36993 1.7681 5.05109 1.85323 4.77265C2.0113 4.25595 2.32876 3.80256 2.76024 3.4773C2.99278 3.30208 3.28627 3.17622 3.72608 3.06108C4.16869 2.94521 4.7382 2.84493 5.5171 2.70759Z" stroke="white" stroke-width="0.5"/>
<path d="M5.24707 11.4569L5.56027 13.2332C5.62412 13.5953 5.97248 13.8365 6.3378 13.7721L8.1022 13.4609L7.6734 11.0291L5.24707 11.4569Z" fill="white"/>
<path d="M10.3674 13.0621L12.1301 12.7513C12.4955 12.6869 12.7403 12.3411 12.6765 11.979L12.3632 10.2022L9.93848 10.6297L10.3674 13.0621Z" fill="white"/>
<path d="M9.93823 10.6298L7.67383 11.0291L8.10272 13.4615L10.3671 13.0622L9.93823 10.6298Z" fill="white"/>
<path d="M4.61212 3.98913C4.24681 4.05354 4.00195 4.39934 4.0658 4.76145L5.24639 11.4569L7.67272 11.0291L6.80859 6.12837L9.07299 5.7291L8.64093 3.27874L4.61212 3.98913Z" fill="white"/>
<path d="M11.4979 5.30146L9.07324 5.729L9.93737 10.6297L12.3621 10.2022L11.4979 5.30146Z" fill="white"/>
<path d="M9.07367 5.729L11.4978 5.30156L8.6416 3.27864L9.07367 5.729Z" fill="white"/>
</g>
<defs>
<filter id="filter0_d_135973_13139" x="-1" y="-0.5" width="18.7412" height="18.7414" filterUnits="userSpaceOnUse" color-interpolation-filters="sRGB">
<feFlood flood-opacity="0" result="BackgroundImageFix"/>
<feColorMatrix in="SourceAlpha" type="matrix" values="0 0 0 0 0 0 0 0 0 0 0 0 0 0 0 0 0 0 127 0" result="hardAlpha"/>
<feOffset dy="0.5"/>
<feGaussianBlur stdDeviation="0.5"/>
<feComposite in2="hardAlpha" operator="out"/>
<feColorMatrix type="matrix" values="0 0 0 0 0.0627451 0 0 0 0 0.0941176 0 0 0 0 0.156863 0 0 0 0.05 0"/>
<feBlend mode="normal" in2="BackgroundImageFix" result="effect1_dropShadow_135973_13139"/>
<feBlend mode="normal" in="SourceGraphic" in2="effect1_dropShadow_135973_13139" result="shape"/>
</filter>
</defs>
</svg>
