<svg width="17" height="17" viewBox="0 0 17 17" fill="none" xmlns="http://www.w3.org/2000/svg">
<rect x="1.33551" y="3.44492" width="12.1451" height="12.1451" rx="3.75" transform="rotate(-10 1.33551 3.44492)" stroke="white" stroke-width="0.5"/>
<path d="M6.37193 5.83049C6.44522 6.24613 6.14437 6.64659 5.69996 6.72496C5.25555 6.80332 4.83587 6.5299 4.76258 6.11426C4.68929 5.69862 4.99015 5.29816 5.43456 5.21979C5.87897 5.14143 6.29864 5.41485 6.37193 5.83049Z" fill="white"/>
<path d="M5.10286 7.40062L6.47838 7.15808L7.21333 11.3262L5.83782 11.5688L5.10286 7.40062Z" fill="white"/>
<path d="M8.69295 6.76759L7.31744 7.01013L8.05239 11.1783L9.4279 10.9357C9.4279 10.9357 9.19653 9.62353 9.05186 8.80309C8.96503 8.31065 9.04597 7.78641 9.71688 7.66811C10.4751 7.53441 10.5842 8.17965 10.6687 8.67953C10.7791 9.33295 10.9076 9.99698 11.0235 10.6544L12.399 10.4118L12.0111 8.21199C11.7518 6.80938 11.2716 6.22668 10.0675 6.439C9.35236 6.5651 8.96633 6.96791 8.78724 7.30235L8.69295 6.76759Z" fill="white"/>
</svg>
