<svg width="17" height="17" viewBox="0 0 17 17" fill="none" xmlns="http://www.w3.org/2000/svg">
<g clip-path="url(#clip0_135973_13119)">
<path d="M13.3229 6.28888C13.455 5.39846 13.1964 4.49493 12.6137 3.80819C11.7335 2.75542 10.2716 2.39194 8.99889 2.90542C8.64949 2.6299 8.24553 2.43179 7.81377 2.32422C7.38202 2.21664 6.93233 2.20206 6.49451 2.28143C5.14307 2.51972 4.09569 3.60173 3.90377 4.96001C3.06522 5.29338 2.41217 5.96935 2.1086 6.81671C1.63736 8.10775 2.05186 9.55324 3.13685 10.3973C3.00483 11.2878 3.26335 12.1913 3.84532 12.8739C4.72627 13.9308 6.18814 14.2943 7.46507 13.7801C8.16741 14.3378 9.07972 14.5696 9.96602 14.409C11.3175 14.1707 12.3648 13.0887 12.5568 11.7304C13.3953 11.397 14.0483 10.721 14.3477 9.87445C14.8232 8.58264 14.4087 7.13713 13.3237 6.29306L13.3229 6.28888ZM11.9865 4.33724C12.3369 4.75863 12.534 5.28905 12.5357 5.83665C12.5167 5.82705 12.4803 5.81622 12.4572 5.80735L9.74609 4.81856C9.678 4.7945 9.60486 4.78845 9.53375 4.80099C9.46264 4.81353 9.39597 4.84423 9.34022 4.89012L6.75105 7.06373L6.53562 5.84198L8.67362 4.04563C9.66952 3.20996 11.1509 3.34134 11.9865 4.33724ZM6.89048 7.85449L7.97992 6.93763L9.31723 7.42659L9.56438 8.82828L8.47496 9.74514L7.13764 9.25618L6.89048 7.85449ZM6.63271 3.08966C7.17665 2.99375 7.73285 3.08983 8.2125 3.36333C8.19724 3.37464 8.16746 3.40146 8.14455 3.41844L5.93444 5.27066C5.82146 5.36394 5.76974 5.51112 5.79556 5.65753L6.38283 8.98807L5.21654 8.56385L4.73108 5.8107C4.50533 4.53038 5.35658 3.3147 6.63616 3.08476L6.63271 3.08966ZM2.88307 7.09866C3.07241 6.58206 3.43156 6.14773 3.90881 5.86944L4.42451 8.79409C4.45033 8.94051 4.54853 9.05696 4.68733 9.11013L7.85885 10.2636L6.90455 11.0661L4.28601 10.1128C3.06855 9.66736 2.43842 8.32029 2.88307 7.09863L2.88307 7.09866ZM4.47817 12.3524C4.12431 11.936 3.93069 11.4007 3.92905 10.853C3.94799 10.8626 3.98441 10.8735 4.00754 10.8823L6.71862 11.8711C6.78671 11.8952 6.85985 11.9012 6.93096 11.8887C7.00207 11.8762 7.06874 11.8455 7.12449 11.7996L9.70948 9.62672L9.92491 10.8485L7.78617 12.6406C6.78953 13.4721 5.30892 13.3449 4.47399 12.3532L4.47817 12.3524ZM9.82782 13.6008C9.28806 13.6959 8.72768 13.6006 8.25221 13.3264C8.27538 13.3086 8.29803 13.2903 8.32016 13.2712L10.5303 11.419C10.6433 11.3258 10.6992 11.1779 10.6692 11.0322L10.0826 7.7058L11.2489 8.13002L11.7336 10.879C11.9594 12.1593 11.1047 13.3799 9.82855 13.6049L9.82781 13.6007L9.82782 13.6008ZM13.5816 9.59105C13.3923 10.1076 13.0289 10.5427 12.5551 10.8161L12.0394 7.89142C12.0136 7.74497 11.9147 7.62436 11.7766 7.57537L8.6002 6.41843L9.55106 5.62089L12.1738 6.57346C13.3954 7.01811 14.0214 8.36595 13.5767 9.5876L13.5816 9.59105L13.5816 9.59105Z" fill="white"/>
</g>
<defs>
<clipPath id="clip0_135973_13119">
<rect y="2.50948" width="14.4515" height="14.4515" rx="6" transform="rotate(-10 0 2.50948)" fill="white"/>
</clipPath>
</defs>
</svg>
