<svg width="16" height="16" viewBox="0 0 16 16" fill="none" xmlns="http://www.w3.org/2000/svg">
<path d="M11.5585 4.60854C11.6187 3.68206 11.425 3.08488 10.885 2.5653C10.2921 1.97948 9.28797 1.80763 8.02604 1.91819L4.40382 2.23554C4.14676 2.25806 3.95287 2.46402 3.92873 2.72596L3.25177 12.4698C3.24483 12.6594 3.39942 12.8112 3.58637 12.7948L5.82981 12.5983L5.75248 13.5971C5.74349 13.7633 5.87266 13.8937 6.05961 13.8773L7.95251 13.7114C8.1862 13.691 8.35878 13.5105 8.36366 13.2975L8.54324 10.7779C8.54812 10.5649 8.74407 10.3824 8.95439 10.364L9.23482 10.3394C11.0576 10.1797 12.4408 9.30266 12.6725 7.10924C12.758 6.20416 12.6201 5.43675 12.1076 4.962C11.953 4.81019 11.7791 4.70732 11.5585 4.60854Z" fill="white"/>
<path d="M11.5585 4.60854C11.6187 3.68206 11.425 3.08488 10.885 2.5653C10.2921 1.97948 9.28797 1.80763 8.02604 1.91819L4.40382 2.23554C4.14676 2.25806 3.95287 2.46402 3.92873 2.72596L3.25177 12.4698C3.24483 12.6594 3.39942 12.8112 3.58637 12.7948L5.82981 12.5983L6.06334 9.08192C6.08749 8.81998 6.28138 8.61403 6.53844 8.5915L7.61342 8.49732C9.71664 8.31305 11.2785 7.32585 11.5282 4.80017C11.5475 4.75124 11.5413 4.68091 11.5585 4.60854Z" fill="black"/>
<path d="M6.34928 5.08857C6.35827 4.92243 6.55011 4.69304 6.76043 4.67461L9.61146 4.42482C9.93863 4.39616 10.2679 4.39093 10.5524 4.41325C10.8136 4.4376 11.2912 4.51386 11.5372 4.63403C11.5973 3.70755 11.4037 3.11037 10.8637 2.59078C10.2921 1.97948 9.28797 1.80763 8.02604 1.91819L4.40382 2.23554C4.14676 2.25806 3.95287 2.46402 3.92873 2.72596L3.25177 12.4698C3.24483 12.6594 3.39942 12.8112 3.58637 12.7948L5.82981 12.5983L6.34928 5.08857Z" fill="white"/>
</svg>
