<svg width="15" height="15" viewBox="0 0 15 15" fill="none" xmlns="http://www.w3.org/2000/svg">
<path d="M3.74121 1.15321L10.71 1.15321C12.1393 1.15321 13.2986 2.31182 13.2988 3.7411V10.7099C13.2988 12.1393 12.1394 13.2987 10.71 13.2987H3.74121C2.31193 13.2985 1.15332 12.1392 1.15332 10.7099L1.15332 3.7411C1.1535 2.31193 2.31204 1.1534 3.74121 1.15321Z" stroke="white" stroke-width="0.5"/>
<path fill-rule="evenodd" clip-rule="evenodd" d="M6.72889 5.8088C6.72889 5.50658 6.97855 5.3708 7.38151 5.3708C8.04926 5.38524 8.70452 5.55468 9.29557 5.86574V4.07433C8.68745 3.83586 8.03906 3.71688 7.38589 3.72393C5.82662 3.72393 4.78418 4.53861 4.78418 5.91392C4.78418 8.04259 7.71001 7.69658 7.71001 8.61637C7.71001 8.97115 7.39903 9.08503 6.97417 9.08503C6.22571 9.04376 5.49704 8.82936 4.8455 8.45869L4.8455 10.2939C5.5094 10.5808 6.22466 10.7298 6.94789 10.7319C8.54659 10.7319 9.65034 9.94351 9.65034 8.54191C9.66348 6.25994 6.72889 6.67166 6.72889 5.8088Z" fill="white"/>
</svg>
