<svg width="31" height="46" viewBox="0 0 31 46" fill="none" xmlns="http://www.w3.org/2000/svg">
<g filter="url(#filter0_i_135973_13051)">
<path fill-rule="evenodd" clip-rule="evenodd" d="M23.1624 0.225388C22.3554 0.352023 21.5967 0.454939 20.8125 0.706088C15.7455 2.32891 11.5291 5.97568 7.67908 9.51081C6.00696 11.0461 4.36212 12.3 3.028 14.1303C2.07863 15.4229 1.35534 16.8668 0.888523 18.4007C0.663099 19.1343 0.521134 19.8493 0.370035 20.6009C0.357769 20.6619 0.276918 20.7339 0.225586 20.7712V28.5614C0.345297 29.4688 0.286185 30.7876 0.360469 31.7713C0.654885 35.3845 0.966923 39.578 3.02035 42.6978C6.14269 47.4414 11.9737 44.7656 15.6181 42.2807C19.0018 39.9736 21.6925 37.1972 24.3376 34.1122C25.5678 32.6775 26.8759 31.3847 27.7547 29.6859C28.701 27.9023 28.9989 26.8142 29.3694 24.8841L29.4058 24.8583C29.4839 24.802 29.5315 24.7683 29.5469 24.6723C29.618 24.2303 29.5414 23.6717 29.5349 23.2187C29.5222 22.3241 29.524 21.4222 29.5589 20.5282C29.746 15.7252 30.6611 6.25518 27.7537 2.25151C26.8105 0.952553 25.6121 0.471709 24.0755 0.225388H23.1624Z" fill="url(#paint0_linear_135973_13051)" fill-opacity="0.2"/>
</g>
<path fill-rule="evenodd" clip-rule="evenodd" d="M23.1624 0.225388C22.3554 0.352023 21.5967 0.454939 20.8125 0.706088C15.7455 2.32891 11.5291 5.97568 7.67908 9.51081C6.00696 11.0461 4.36212 12.3 3.028 14.1303C2.07863 15.4229 1.35534 16.8668 0.888523 18.4007C0.663099 19.1343 0.521134 19.8493 0.370035 20.6009C0.357769 20.6619 0.276918 20.7339 0.225586 20.7712V28.5614C0.345297 29.4688 0.286185 30.7876 0.360469 31.7713C0.654885 35.3845 0.966923 39.578 3.02035 42.6978C6.14269 47.4414 11.9737 44.7656 15.6181 42.2807C19.0018 39.9736 21.6925 37.1972 24.3376 34.1122C25.5678 32.6775 26.8759 31.3847 27.7547 29.6859C28.701 27.9023 28.9989 26.8142 29.3694 24.8841L29.4058 24.8583C29.4839 24.802 29.5315 24.7683 29.5469 24.6723C29.618 24.2303 29.5414 23.6717 29.5349 23.2187C29.5222 22.3241 29.524 21.4222 29.5589 20.5282C29.746 15.7252 30.6611 6.25518 27.7537 2.25151C26.8105 0.952553 25.6121 0.471709 24.0755 0.225388H23.1624Z" stroke="url(#paint1_radial_135973_13051)" stroke-width="0.450779"/>
<defs>
<filter id="filter0_i_135973_13051" x="0" y="0" width="30.0684" height="45.5414" filterUnits="userSpaceOnUse" color-interpolation-filters="sRGB">
<feFlood flood-opacity="0" result="BackgroundImageFix"/>
<feBlend mode="normal" in="SourceGraphic" in2="BackgroundImageFix" result="shape"/>
<feColorMatrix in="SourceAlpha" type="matrix" values="0 0 0 0 0 0 0 0 0 0 0 0 0 0 0 0 0 0 127 0" result="hardAlpha"/>
<feOffset/>
<feGaussianBlur stdDeviation="2.2539"/>
<feComposite in2="hardAlpha" operator="arithmetic" k2="-1" k3="1"/>
<feColorMatrix type="matrix" values="0 0 0 0 0 0 0 0 0 0 0 0 0 0 0 0 0 0 0.25 0"/>
<feBlend mode="normal" in2="shape" result="effect1_innerShadow_135973_13051"/>
</filter>
<linearGradient id="paint0_linear_135973_13051" x1="0.225586" y1="22.7707" x2="29.8427" y2="22.7707" gradientUnits="userSpaceOnUse">
<stop stop-color="#FF7738"/>
<stop offset="1" stop-color="#EF4444"/>
</linearGradient>
<radialGradient id="paint1_radial_135973_13051" cx="0" cy="0" r="1" gradientUnits="userSpaceOnUse" gradientTransform="translate(15.0342 0.225388) rotate(90) scale(45.0906 14.8086)">
<stop stop-color="white"/>
<stop offset="0.105805" stop-color="#FFDFD1"/>
<stop offset="0.626117" stop-color="#FF7738"/>
</radialGradient>
</defs>
</svg>
