<svg width="27" height="41" viewBox="0 0 27 41" fill="none" xmlns="http://www.w3.org/2000/svg">
<g filter="url(#filter0_i_135973_13052)">
<path fill-rule="evenodd" clip-rule="evenodd" d="M20.5311 0.225388C19.8167 0.337496 19.145 0.428605 18.4508 0.650942C13.9651 2.0876 10.2324 5.316 6.82401 8.44558C5.34372 9.80476 3.88757 10.9148 2.70651 12.5351C1.86605 13.6794 1.22574 14.9577 0.81247 16.3156C0.612907 16.965 0.487229 17.5981 0.353464 18.2634C0.342605 18.3174 0.27103 18.3812 0.225586 18.4142V25.3107C0.331564 26.114 0.279233 27.2815 0.344995 28.1524C0.605636 31.3511 0.881877 35.0634 2.69973 37.8254C5.46388 42.0248 10.626 39.656 13.8522 37.4561C16.8478 35.4137 19.2298 32.9558 21.5715 30.2247C22.6605 28.9546 23.8186 27.8101 24.5965 26.3062C25.4343 24.7272 25.698 23.764 26.0261 22.0553L26.0582 22.0324C26.1273 21.9826 26.1695 21.9527 26.1832 21.8677C26.2461 21.4764 26.1783 20.982 26.1726 20.5809C26.1613 19.7889 26.1629 18.9905 26.1937 18.199C26.3594 13.9471 27.1695 5.56344 24.5957 2.01907C23.7606 0.869133 22.6998 0.443451 21.3395 0.225388H20.5311Z" fill="url(#paint0_linear_135973_13052)" fill-opacity="0.2"/>
</g>
<path fill-rule="evenodd" clip-rule="evenodd" d="M20.5311 0.225388C19.8167 0.337496 19.145 0.428605 18.4508 0.650942C13.9651 2.0876 10.2324 5.316 6.82401 8.44558C5.34372 9.80476 3.88757 10.9148 2.70651 12.5351C1.86605 13.6794 1.22574 14.9577 0.81247 16.3156C0.612907 16.965 0.487229 17.5981 0.353464 18.2634C0.342605 18.3174 0.27103 18.3812 0.225586 18.4142V25.3107C0.331564 26.114 0.279233 27.2815 0.344995 28.1524C0.605636 31.3511 0.881877 35.0634 2.69973 37.8254C5.46388 42.0248 10.626 39.656 13.8522 37.4561C16.8478 35.4137 19.2298 32.9558 21.5715 30.2247C22.6605 28.9546 23.8186 27.8101 24.5965 26.3062C25.4343 24.7272 25.698 23.764 26.0261 22.0553L26.0582 22.0324C26.1273 21.9826 26.1695 21.9527 26.1832 21.8677C26.2461 21.4764 26.1783 20.982 26.1726 20.5809C26.1613 19.7889 26.1629 18.9905 26.1937 18.199C26.3594 13.9471 27.1695 5.56344 24.5957 2.01907C23.7606 0.869133 22.6998 0.443451 21.3395 0.225388H20.5311Z" stroke="url(#paint1_radial_135973_13052)" stroke-width="0.450779"/>
<defs>
<filter id="filter0_i_135973_13052" x="0" y="0" width="26.6709" height="40.3686" filterUnits="userSpaceOnUse" color-interpolation-filters="sRGB">
<feFlood flood-opacity="0" result="BackgroundImageFix"/>
<feBlend mode="normal" in="SourceGraphic" in2="BackgroundImageFix" result="shape"/>
<feColorMatrix in="SourceAlpha" type="matrix" values="0 0 0 0 0 0 0 0 0 0 0 0 0 0 0 0 0 0 127 0" result="hardAlpha"/>
<feOffset/>
<feGaussianBlur stdDeviation="2.2539"/>
<feComposite in2="hardAlpha" operator="arithmetic" k2="-1" k3="1"/>
<feColorMatrix type="matrix" values="0 0 0 0 0 0 0 0 0 0 0 0 0 0 0 0 0 0 0.25 0"/>
<feBlend mode="normal" in2="shape" result="effect1_innerShadow_135973_13052"/>
</filter>
<linearGradient id="paint0_linear_135973_13052" x1="0.225586" y1="20.1843" x2="26.4451" y2="20.1843" gradientUnits="userSpaceOnUse">
<stop stop-color="#FF7738"/>
<stop offset="1" stop-color="#EF4444"/>
</linearGradient>
<radialGradient id="paint1_radial_135973_13052" cx="0" cy="0" r="1" gradientUnits="userSpaceOnUse" gradientTransform="translate(13.3353 0.225388) rotate(90) scale(39.9178 13.1097)">
<stop stop-color="white"/>
<stop offset="0.105805" stop-color="#FFDFD1"/>
<stop offset="0.626117" stop-color="#FF7738"/>
</radialGradient>
</defs>
</svg>
