<svg width="34" height="51" viewBox="0 0 34 51" fill="none" xmlns="http://www.w3.org/2000/svg">
<g filter="url(#filter0_i_135973_13050)">
<path fill-rule="evenodd" clip-rule="evenodd" d="M25.4786 0.225388C24.5901 0.364811 23.7547 0.478119 22.8913 0.754629C17.3127 2.54133 12.6706 6.55634 8.43173 10.4484C6.59076 12.1388 4.77982 13.5193 3.31099 15.5344C2.26575 16.9575 1.46943 18.5473 0.955465 20.236C0.707278 21.0437 0.550978 21.831 0.384622 22.6584C0.371116 22.7255 0.282102 22.8049 0.225586 22.8459V31.4227C0.357385 32.4218 0.292304 33.8737 0.37409 34.9568C0.698235 38.9349 1.04178 43.5518 3.30256 46.9867C6.74019 52.2093 13.16 49.2632 17.1724 46.5275C20.8978 43.9873 23.8602 40.9306 26.7724 37.534C28.1268 35.9545 29.5671 34.5312 30.5345 32.6608C31.5764 30.697 31.9044 29.4992 32.3124 27.3742L32.3524 27.3457C32.4383 27.2838 32.4907 27.2466 32.5077 27.1409C32.586 26.6542 32.5016 26.0393 32.4946 25.5405C32.4806 24.5556 32.4826 23.5626 32.5209 22.5783C32.7269 17.2904 33.7344 6.86407 30.5335 2.4561C29.495 1.02598 28.1756 0.496582 26.4839 0.225388H25.4786Z" fill="url(#paint0_linear_135973_13050)" fill-opacity="0.2"/>
</g>
<path fill-rule="evenodd" clip-rule="evenodd" d="M25.4786 0.225388C24.5901 0.364811 23.7547 0.478119 22.8913 0.754629C17.3127 2.54133 12.6706 6.55634 8.43173 10.4484C6.59076 12.1388 4.77982 13.5193 3.31099 15.5344C2.26575 16.9575 1.46943 18.5473 0.955465 20.236C0.707278 21.0437 0.550978 21.831 0.384622 22.6584C0.371116 22.7255 0.282102 22.8049 0.225586 22.8459V31.4227C0.357385 32.4218 0.292304 33.8737 0.37409 34.9568C0.698235 38.9349 1.04178 43.5518 3.30256 46.9867C6.74019 52.2093 13.16 49.2632 17.1724 46.5275C20.8978 43.9873 23.8602 40.9306 26.7724 37.534C28.1268 35.9545 29.5671 34.5312 30.5345 32.6608C31.5764 30.697 31.9044 29.4992 32.3124 27.3742L32.3524 27.3457C32.4383 27.2838 32.4907 27.2466 32.5077 27.1409C32.586 26.6542 32.5016 26.0393 32.4946 25.5405C32.4806 24.5556 32.4826 23.5626 32.5209 22.5783C32.7269 17.2904 33.7344 6.86407 30.5335 2.4561C29.495 1.02598 28.1756 0.496582 26.4839 0.225388H25.4786Z" stroke="url(#paint1_radial_135973_13050)" stroke-width="0.450779"/>
<defs>
<filter id="filter0_i_135973_13050" x="0" y="0" width="33.0586" height="50.0946" filterUnits="userSpaceOnUse" color-interpolation-filters="sRGB">
<feFlood flood-opacity="0" result="BackgroundImageFix"/>
<feBlend mode="normal" in="SourceGraphic" in2="BackgroundImageFix" result="shape"/>
<feColorMatrix in="SourceAlpha" type="matrix" values="0 0 0 0 0 0 0 0 0 0 0 0 0 0 0 0 0 0 127 0" result="hardAlpha"/>
<feOffset/>
<feGaussianBlur stdDeviation="2.2539"/>
<feComposite in2="hardAlpha" operator="arithmetic" k2="-1" k3="1"/>
<feColorMatrix type="matrix" values="0 0 0 0 0 0 0 0 0 0 0 0 0 0 0 0 0 0 0.25 0"/>
<feBlend mode="normal" in2="shape" result="effect1_innerShadow_135973_13050"/>
</filter>
<linearGradient id="paint0_linear_135973_13050" x1="0.225586" y1="25.0473" x2="32.8335" y2="25.0473" gradientUnits="userSpaceOnUse">
<stop stop-color="#FF7738"/>
<stop offset="1" stop-color="#EF4444"/>
</linearGradient>
<radialGradient id="paint1_radial_135973_13050" cx="0" cy="0" r="1" gradientUnits="userSpaceOnUse" gradientTransform="translate(16.5295 0.225388) rotate(90) scale(49.6438 16.3039)">
<stop stop-color="white"/>
<stop offset="0.105805" stop-color="#FFDFD1"/>
<stop offset="0.626117" stop-color="#FF7738"/>
</radialGradient>
</defs>
</svg>
