<svg width="17" height="17" viewBox="0 0 17 17" fill="none" xmlns="http://www.w3.org/2000/svg">
<path fill-rule="evenodd" clip-rule="evenodd" d="M9.54727 15.0419C12.9861 14.4356 15.2822 11.1563 14.6759 7.71756C14.0695 4.27877 10.7903 1.98263 7.35148 2.58898C3.91269 3.19533 1.61654 6.47456 2.2229 9.91335C2.4198 11.0301 2.89858 12.0263 3.57315 12.8417L3.32079 16.1398L6.44105 14.8118C7.40937 15.1371 8.4705 15.2318 9.54727 15.0419ZM9.37836 14.084C12.2881 13.5709 14.231 10.7962 13.7179 7.88647C13.2049 4.97672 10.4301 3.03383 7.52038 3.5469C4.61064 4.05997 2.66775 6.8347 3.18082 9.74445C3.37891 10.8679 3.91417 11.8472 4.66418 12.5967L4.50431 14.4496L6.22578 13.6818C7.17833 14.1181 8.26853 14.2797 9.37836 14.084Z" fill="white"/>
<path fill-rule="evenodd" clip-rule="evenodd" d="M9.46817 14.5972C12.907 13.9908 15.2031 10.7116 14.5967 7.27281C13.9904 3.83402 10.7112 1.53788 7.27238 2.14423C3.83359 2.75058 1.53744 6.02982 2.14379 9.4686C2.3407 10.5853 2.81948 11.5815 3.49405 12.397L3.24169 15.6951L6.36195 14.3671C7.33027 14.6923 8.3914 14.787 9.46817 14.5972ZM9.29926 13.6393C12.209 13.1262 14.1519 10.3515 13.6388 7.44172C13.1258 4.53198 10.351 2.58908 7.44128 3.10215C4.53154 3.61522 2.58865 6.38995 3.10171 9.2997C3.29981 10.4232 3.83507 11.4025 4.58508 12.152L4.42521 14.0048L6.14668 13.2371C7.09923 13.6734 8.18942 13.835 9.29926 13.6393Z" fill="white"/>
<path d="M6.30435 5.75433C6.10388 5.48308 5.88142 5.54945 5.65199 5.58991C5.24197 5.6622 4.68924 6.26606 4.85041 7.1801C4.9825 7.9292 5.45718 8.691 6.78577 9.72152C8.06797 10.7161 9.5864 11.0797 10.7537 10.8524C11.9209 10.6251 11.9842 9.57501 11.9242 9.23472C11.8976 9.08389 11.7907 9.02514 11.7226 9.01607C11.2898 8.89493 10.491 8.66787 10.3117 8.63036C10.1324 8.59284 10.061 8.69894 10.0153 8.75785C9.88898 8.92934 9.66317 9.4089 9.57702 9.523C9.49087 9.6371 9.32865 9.61565 9.25831 9.59066C9.00636 9.53773 8.31832 9.36644 7.72285 8.96313C6.9864 8.46435 6.91251 8.26109 6.76109 8.09527C6.63996 7.96261 6.69336 7.85869 6.72101 7.81252C6.82894 7.63227 6.97349 7.35788 7.03625 7.22313C7.099 7.08837 7.00028 6.91798 6.9403 6.81159C6.68238 6.35404 6.46473 5.97132 6.30435 5.75433Z" fill="white"/>
</svg>
