<svg width="17" height="17" viewBox="0 0 17 17" fill="none" xmlns="http://www.w3.org/2000/svg">
<ellipse cx="12.3318" cy="9.07224" rx="1.84802" ry="1.84396" transform="rotate(10 12.3318 9.07224)" fill="white"/>
<path d="M5.27869 4.15662L7.1131 2.87516C6.66303 3.2024 6.30879 3.70492 6.20464 4.29557C6.11192 4.82145 6.18102 5.43303 6.49625 5.87896L10.8133 11.9858L6.59093 14.9355L3.20256 10.1077C2.02981 8.43674 2.43778 6.13421 4.11324 4.96792L5.27869 4.15662Z" fill="white"/>
<path d="M11.91 5.81029L8.95108 1.59441L7.0495 2.9228C6.62969 3.25017 6.30349 3.73289 6.20427 4.29559C6.11154 4.82146 6.18064 5.43304 6.49588 5.87897L8.25318 8.36483L11.91 5.81029Z" fill="white"/>
</svg>
