<svg width="18" height="18" viewBox="0 0 18 18" fill="none" xmlns="http://www.w3.org/2000/svg">
<g clip-path="url(#clip0_135973_13084)">
<path d="M9.58112 10.1287C8.67544 10.2698 7.73416 10.0744 6.96015 9.58309C6.81843 8.67823 7.01429 7.73724 7.50507 6.96396C8.41067 6.82223 9.35277 7.01836 10.1265 7.50981C10.2682 8.41453 10.072 9.35569 9.58112 10.1287ZM14.8658 8.78654L11.2504 8.03366L14.3387 6.01113C14.0548 5.36439 13.6626 4.76651 13.1825 4.2482L10.094 6.27068L10.8464 2.65762C10.1879 2.40083 9.48816 2.25529 8.78201 2.22773L8.02961 5.8408L6.00513 2.75356C5.35828 3.03691 4.75966 3.42916 4.24124 3.9084L6.26592 6.99568L2.65056 6.2428C2.41507 6.92653 2.24863 7.58053 2.22091 8.30601L5.83632 9.0589L2.74758 11.0813C3.03231 11.7291 3.42306 12.325 3.90376 12.8445L6.99235 10.8218L6.23992 14.435C6.8985 14.6914 7.59803 14.8372 8.30422 14.8649L9.05666 11.2517L11.0813 14.3391C11.7287 14.0552 12.3261 13.6638 12.845 13.1841L10.8203 10.0968L14.4361 10.8498C14.6928 10.1924 14.8387 9.49171 14.8658 8.78654Z" fill="white"/>
</g>
<defs>
<clipPath id="clip0_135973_13084">
<rect x="2.94629" width="14.4515" height="14.4515" rx="6" transform="rotate(11.7633 2.94629 0)" fill="white"/>
</clipPath>
</defs>
</svg>
