<svg preserveAspectRatio="none" width="100%" height="100%" overflow="visible" style="display: block;" viewBox="0 0 95 33.7584" fill="none" xmlns="http://www.w3.org/2000/svg">
<path id="Vector" d="M3.96856 16.0778H0V10.5894H4.08334V9.11622C4.08334 2.3552 6.86977 0 12.3635 0C13.8543 0 14.9995 0.262359 15.8769 0.437265L15.4547 5.84578C14.8834 5.62715 14.3121 5.49295 13.2778 5.49295C11.5231 5.49295 10.8397 6.88919 10.8397 9.11622V10.5894H15.8135V16.0778H10.8397V33.2367H3.96856V16.0778ZM18.4707 0.517179H25.3444V33.2367H18.4707V0.517179ZM28.772 1.0419H35.6392V6.80173H28.772V1.0419ZM28.772 10.5652H35.6392V33.2337H28.772V10.5652ZM54.2721 17.0066C53.0109 16.1366 51.7549 15.7461 50.1162 15.7461C47.1345 15.7461 44.8468 18.1028 44.8468 22.0261C44.8468 25.6418 47.5171 27.997 50.4936 27.997C52.0596 27.997 53.623 27.608 54.7682 26.9114L54.9226 32.7542C53.2048 33.4071 51.144 33.7584 49.3088 33.7584C42.7464 33.7584 37.7475 29.3948 37.7475 21.8919C37.7475 14.3438 42.7478 9.98472 49.3088 9.98472C51.3709 9.98472 53.2035 10.3798 54.7682 11.2513L54.2708 17.0051L54.2721 17.0066ZM57.7842 0.517179H64.6527V20.0614H64.7279L70.4538 10.5109H77.9714L71.066 20.939L78.5439 33.2352H70.2242L64.7279 21.9794H64.6527V33.2337H57.7842V0.514164V0.517179ZM94.6557 16.791C93.8931 16.5271 93.1331 16.5271 92.3297 16.5271C89.1237 16.5271 87.3268 19.1914 87.3268 23.641V33.2352H80.4623V10.5094H86.7199V14.6966H86.7937C87.9785 11.8167 89.6963 9.98472 92.674 9.98472C93.4748 9.98472 94.3166 10.1129 95 10.2471L94.657 16.791H94.6557Z" fill="var(--fill-0, white)"/>
</svg>
