<svg preserveAspectRatio="none" width="100%" height="100%" overflow="visible" style="display: block;" viewBox="0 0 219.392 40.0005" fill="none" xmlns="http://www.w3.org/2000/svg">
<g id="Group">
<path id="Vector" d="M28.5322 22.8588C33.1554 22.8588 37.3233 20.0736 39.092 15.8021C40.8607 11.5306 39.8819 6.61427 36.612 3.34595C33.3421 0.0776384 28.4253 -0.898851 24.1546 0.871903C19.884 2.64266 17.1007 6.81186 17.103 11.4351C17.103 14.4658 18.3073 17.3723 20.4508 19.5148C22.5944 21.6574 25.5015 22.8603 28.5322 22.8588Z" fill="var(--fill-0, #FFCD00)"/>
<path id="Vector_2" d="M28.6032 28.5712H28.5649C20.7253 28.5693 13.8847 23.2521 11.9485 15.6552C11.3746 13.3705 9.51618 11.4355 7.16037 11.4355H0C0 27.2115 12.789 40.0005 28.5649 40.0005H28.6032V28.5712Z" fill="var(--fill-0, #00ECBB)"/>
<path id="Vector_3" d="M28.5322 28.5712H28.565C36.4054 28.5712 43.247 23.2532 45.1814 15.6552C45.7608 13.3705 47.6192 11.4355 49.9751 11.4355H57.1354C57.1324 27.2124 44.3419 40.0005 28.565 40.0005H28.5322V28.5712Z" fill="var(--fill-0, #AF64FF)"/>
<path id="Vector_4" d="M48.7668 31.6314C43.4098 36.9889 36.1438 39.9987 28.5675 39.9987C20.9912 39.9987 13.7252 36.9889 8.36816 31.6314L16.4468 23.5527C23.1421 30.2438 33.9929 30.2438 40.6882 23.5527L48.7668 31.6314Z" fill="var(--fill-0, #7131FF)"/>
<path id="Vector_5" d="M199.43 10.8617H202.573V24.2423H199.43V10.8617ZM201.015 8.67531C200.485 8.68749 199.97 8.49126 199.583 8.12872C199.204 7.78338 198.993 7.29118 199.004 6.77863C198.997 6.27951 199.208 5.80235 199.583 5.47228C199.968 5.10665 200.484 4.90992 201.015 4.92568C201.545 4.91639 202.058 5.11222 202.447 5.47228C202.822 5.79018 203.035 6.25966 203.026 6.7513C203.035 7.27934 202.825 7.7875 202.447 8.15605C202.057 8.51061 201.541 8.69205 201.015 8.65891V8.67531ZM194.8 24.4172C194.246 24.4295 193.712 24.2133 193.322 23.8194C192.932 23.4255 192.721 22.8885 192.74 22.3347C192.719 21.7755 192.929 21.2325 193.319 20.8315C193.717 20.451 194.25 20.2445 194.8 20.2576C195.354 20.2438 195.889 20.4587 196.278 20.8518C196.668 21.2448 196.879 21.7813 196.861 22.3347C196.881 22.889 196.671 23.4269 196.281 23.8211C195.89 24.2154 195.355 24.4311 194.8 24.4172ZM208.558 23.5426C210.874 24.7065 213.604 24.7065 215.921 23.5426C216.978 22.9849 217.859 22.1424 218.462 21.1103C219.088 20.0298 219.409 18.8002 219.391 17.552C219.412 16.312 219.09 15.0904 218.462 14.021C217.856 12.9855 216.969 12.1424 215.904 11.5887C213.588 10.4248 210.858 10.4248 208.542 11.5887C207.479 12.1471 206.592 12.989 205.978 14.021C205.362 15.0944 205.049 16.3146 205.071 17.552C205.051 18.7977 205.365 20.0259 205.978 21.1103C206.598 22.1426 207.491 22.9841 208.558 23.5426ZM215.09 20.5856C213.487 22.1153 210.965 22.1153 209.361 20.5856C208.608 19.7599 208.215 18.6683 208.268 17.552C208.215 16.4357 208.608 15.344 209.361 14.5184C210.961 12.9802 213.49 12.9802 215.09 14.5184C215.862 15.3346 216.271 16.4293 216.221 17.552C216.271 18.6747 215.862 19.7693 215.09 20.5856ZM126.263 23.5098C125.865 23.8256 125.405 24.0546 124.913 24.1821C124.379 24.3328 123.827 24.4083 123.273 24.4063C122.035 24.4862 120.815 24.0736 119.879 23.2584C119.027 22.3656 118.593 21.1547 118.682 19.9242V8.01393H121.797V11.0475H125.367V13.54H121.797V19.8641C121.762 20.4036 121.932 20.9364 122.273 21.3563C122.64 21.7079 123.138 21.8885 123.645 21.8537C124.273 21.8751 124.89 21.6823 125.394 21.3071L126.263 23.5098ZM81.2292 24.4063C79.9376 24.4268 78.6609 24.1283 77.5124 23.5372C76.448 22.9864 75.5584 22.1497 74.9434 21.1212C74.3192 20.0485 73.9998 18.8257 74.0196 17.5848C73.9975 16.3522 74.3173 15.1376 74.9434 14.0756C75.5523 13.052 76.4318 12.216 77.485 11.6597C78.6425 11.0661 79.9286 10.7676 81.2292 10.7906C82.4257 10.7642 83.6098 11.0386 84.6727 11.5887C85.6454 12.0962 86.4291 12.9029 86.9083 13.8898L84.5306 15.3109C84.1867 14.7194 83.6852 14.235 83.0821 13.9117C82.5077 13.5971 81.8622 13.4353 81.2073 13.4416C80.1272 13.4075 79.081 13.8208 78.3158 14.584C77.5297 15.3837 77.1135 16.4756 77.168 17.5957C77.1076 18.7147 77.5018 19.8107 78.2612 20.6348C79.5682 21.8453 81.4884 22.1197 83.0821 21.3235C83.6779 20.9927 84.1772 20.5123 84.5306 19.9297L86.9083 21.3235C86.4031 22.3056 85.6123 23.1117 84.6399 23.6356C83.5876 24.1754 82.4171 24.4441 81.2347 24.4172L81.2292 24.4063ZM106.919 23.9854C107.953 24.2649 109.019 24.4063 110.089 24.4063C111.953 24.4063 113.429 24.0346 114.506 23.3131C115.537 22.6739 116.159 21.5419 116.146 20.3287C116.195 19.5295 115.926 18.7434 115.397 18.1423C114.919 17.6342 114.319 17.2578 113.653 17.0491C112.793 16.8035 111.916 16.6208 111.029 16.5025C110.227 16.3581 109.438 16.1423 108.674 15.8575C108.206 15.7032 107.9 15.2557 107.925 14.7644C107.923 14.2958 108.194 13.8692 108.619 13.6712C109.271 13.3547 109.994 13.2098 110.718 13.2503C112.06 13.2294 113.382 13.5732 114.544 14.2451L115.747 11.8783C115.045 11.4904 114.287 11.2138 113.5 11.0585C112.604 10.8474 111.687 10.7392 110.767 10.736C109.253 10.6592 107.752 11.0587 106.476 11.8783C105.471 12.5463 104.879 13.6834 104.908 14.8901C104.858 15.7132 105.124 16.5244 105.651 17.1584C106.152 17.6638 106.77 18.0391 107.449 18.2516C108.333 18.5049 109.234 18.6967 110.144 18.8255C110.917 18.9252 111.678 19.0991 112.418 19.3448C112.852 19.4668 113.149 19.8669 113.139 20.3177C113.139 21.298 112.208 21.7862 110.346 21.7826C109.502 21.7784 108.662 21.6626 107.848 21.4383C107.09 21.2214 106.368 20.8935 105.706 20.4653L104.509 22.8321C105.249 23.3556 106.074 23.7493 106.946 23.9963L106.919 23.9854ZM130.712 23.5372C133.012 24.6959 135.726 24.6959 138.026 23.5372C139.074 22.9816 139.946 22.145 140.545 21.1212C141.167 20.0474 141.486 18.8254 141.469 17.5848C141.488 16.3525 141.169 15.1387 140.545 14.0756C139.946 13.0519 139.074 12.2153 138.026 11.6597C135.726 10.501 133.012 10.501 130.712 11.6597C129.659 12.2186 128.779 13.0539 128.165 14.0756C127.558 15.1441 127.248 16.3559 127.269 17.5848C127.25 18.822 127.56 20.0421 128.165 21.1212C128.785 22.1507 129.675 22.9902 130.74 23.5481L130.712 23.5372ZM137.2 20.5965C135.612 22.1271 133.098 22.1271 131.51 20.5965C130.758 19.7788 130.365 18.6944 130.417 17.5848C130.366 16.4754 130.759 15.3914 131.51 14.573C133.102 13.0509 135.609 13.0509 137.2 14.573C137.966 15.3837 138.371 16.4705 138.321 17.5848C138.382 18.699 137.988 19.7904 137.228 20.6074L137.2 20.5965ZM161.25 10.7906C162.727 10.7142 164.171 11.2455 165.246 12.261C166.224 13.223 166.716 14.6714 166.716 16.6337V24.2423H163.595V17.0218C163.682 16.0936 163.43 15.1653 162.885 14.4091C162.318 13.7904 161.503 13.461 160.666 13.5127C159.712 13.4722 158.789 13.8566 158.146 14.5621C157.457 15.3791 157.11 16.4308 157.178 17.4973V24.2423H154.057V17.0218C154.127 16.0861 153.853 15.1571 153.287 14.4091C152.72 13.7911 151.904 13.4618 151.067 13.5127C150.111 13.4705 149.182 13.843 148.52 14.5348C147.846 15.3691 147.51 16.4268 147.58 17.4973V24.2423H144.459V16.8031C144.459 13.0754 147.285 10.7906 150.974 10.7906C152.154 10.775 153.328 10.9693 154.44 11.3645C155.207 11.712 155.851 12.2837 156.287 13.0043C156.848 12.2915 157.577 11.7282 158.408 11.3645C159.317 10.968 160.302 10.7758 161.294 10.8016L161.25 10.7906ZM183.344 18.5905C183.376 18.1933 183.393 17.8872 183.393 17.6722C183.42 16.4217 183.121 15.1857 182.524 14.0866C181.977 13.0642 181.143 12.2243 180.124 11.6706C179.066 11.0797 177.87 10.7798 176.659 10.8016C175.421 10.782 174.2 11.0813 173.111 11.6706C172.078 12.2399 171.225 13.0861 170.646 14.1139C170.053 15.1772 169.751 16.3783 169.772 17.5957C169.751 18.8333 170.06 20.0541 170.668 21.1322C171.292 22.165 172.194 23.0021 173.27 23.5481C175.455 24.5822 177.963 24.6983 180.234 23.8706C181.115 23.5226 181.895 22.9588 182.502 22.2308L180.829 20.3123C179.877 21.2769 178.566 21.8 177.211 21.7553C176.181 21.7922 175.167 21.495 174.319 20.9081C173.564 20.3461 173.052 19.5172 172.887 18.5905H183.344ZM174.112 14.185C174.822 13.5839 175.729 13.2648 176.659 13.2886C177.588 13.2594 178.495 13.5792 179.2 14.185C179.885 14.7854 180.322 15.6195 180.425 16.5244H172.865C172.976 15.6168 173.42 14.7828 174.112 14.185ZM194.101 10.8016V13.7641C193.863 13.7171 193.621 13.6915 193.379 13.6876C192.318 13.6319 191.283 14.0293 190.531 14.7808C189.801 15.6183 189.434 16.7114 189.509 17.8198V24.2423H186.388V17.541C186.388 12.6818 189.509 10.1948 194.101 10.8016ZM95.7139 24.4172C93.932 24.4172 92.0353 23.9252 91.0077 22.9468C89.9801 21.9684 89.4827 20.4817 89.4827 18.5413V10.9382H92.6038V18.1204C92.5304 19.0844 92.8145 20.0417 93.4018 20.8097C94.7279 21.9673 96.7053 21.9673 98.0314 20.8097C98.6164 20.0405 98.9003 19.0842 98.8295 18.1204V10.9382H101.951V18.5413C101.951 20.4835 101.442 21.952 100.426 22.9468C99.387 23.9252 97.4794 24.4172 95.703 24.4172H95.7139Z" fill="var(--fill-0, #2F326A)"/>
</g>
</svg>
