<svg preserveAspectRatio="none" width="100%" height="100%" overflow="visible" style="display: block;" viewBox="0 0 95.0001 30.7315" fill="none" xmlns="http://www.w3.org/2000/svg">
<g id="Group">
<path id="path12" d="M15.0148 7.23657H11.54C10.488 7.23657 9.65911 6.40771 9.65911 5.35571V1.88088C9.65911 0.860744 10.488 0 11.54 0H15.0148C16.035 0 16.8957 0.828863 16.8957 1.88088V5.35571C16.8957 6.40771 16.0668 7.23657 15.0148 7.23657Z" fill="var(--fill-0, white)"/>
<path id="path14" d="M5.99328 15.047H2.10402C0.924501 15.047 0 14.0906 0 12.9429V9.0218C0 7.87415 0.95637 6.91778 2.10402 6.91778H6.02516C7.20469 6.91778 8.12919 7.87415 8.12919 9.0218V12.9429C8.12919 14.1225 7.17281 15.047 5.99328 15.047Z" fill="var(--fill-0, white)"/>
<path id="path16" d="M5.64309 23.1761H3.25215C2.55081 23.1761 1.97699 22.6023 1.97699 21.901V19.51C1.97699 18.8087 2.55081 18.2349 3.25215 18.2349H5.64309C6.34443 18.2349 6.91825 18.8087 6.91825 19.51V21.901C6.91825 22.6023 6.34443 23.1761 5.64309 23.1761Z" fill="var(--fill-0, white)"/>
<path id="path18" d="M12.0496 30.7315H9.21233C8.38348 30.7315 7.68213 30.0621 7.68213 29.2014V26.3641C7.68213 25.5352 8.3516 24.8339 9.21233 24.8339H12.0496C12.8784 24.8339 13.5798 25.5034 13.5798 26.3641V29.2014C13.5798 30.0621 12.9103 30.7315 12.0496 30.7315Z" fill="var(--fill-0, white)"/>
<path id="path20" d="M22.4109 8.67109H20.4663C19.8924 8.67109 19.4143 8.19291 19.4143 7.61908V5.67444C19.4143 5.10062 19.8924 4.62243 20.4663 4.62243H22.4109C22.9847 4.62243 23.4629 5.10062 23.4629 5.67444V7.61908C23.4948 8.19291 23.0166 8.67109 22.4109 8.67109Z" fill="var(--fill-0, white)"/>
<g id="Union">
<path d="M66.4364 8.86242C66.4364 9.46812 65.9582 9.97819 65.3206 9.97819C64.683 9.97819 64.1729 9.46812 64.1729 8.86242C64.1729 8.25671 64.683 7.74665 65.3206 7.74665C65.9263 7.74665 66.4364 8.22484 66.4364 8.86242Z" fill="var(--fill-0, white)"/>
<path fill-rule="evenodd" clip-rule="evenodd" d="M33.4407 12.6879C34.429 11.7953 35.7679 11.2533 37.2025 11.2533C40.3585 11.2533 42.8451 13.7718 42.8451 16.8959C42.8451 19.9882 40.3266 22.5067 37.2025 22.5067C35.7679 22.5067 34.429 21.9647 33.4407 21.0721V25.8859C33.4407 26.364 32.9944 26.7785 32.5162 26.7785C32.0699 26.7785 31.5917 26.364 31.5917 25.8859V12.2416C31.5917 11.7634 32.038 11.349 32.5162 11.349C33.0263 11.349 33.4407 11.7634 33.4407 12.2416V12.6879ZM37.1706 13.1342C35.0666 13.1342 33.4088 14.7919 33.4088 16.8959C33.4088 19 35.0666 20.6577 37.1706 20.6577C39.2746 20.6577 40.9323 19 40.9323 16.8959C40.9642 14.7919 39.3065 13.1342 37.1706 13.1342Z" fill="var(--fill-0, white)"/>
<path d="M24.1012 22.0285C23.9418 22.2835 23.6549 22.411 23.3361 22.411C23.1767 22.411 22.9535 22.3791 22.826 22.2835C22.571 22.1241 22.4116 21.8053 22.4116 21.4865C22.4116 21.3271 22.4435 21.1678 22.5391 21.0402L25.1532 16.9278L22.5391 12.8154C22.4434 12.6879 22.4116 12.4966 22.4116 12.3691C22.4116 12.0503 22.571 11.7315 22.8579 11.5721C23.0173 11.4764 23.1767 11.4446 23.3361 11.4446C23.6549 11.4446 23.9418 11.5721 24.133 11.8272L26.2689 15.2063L28.4367 11.8272C28.5961 11.5721 28.9149 11.4446 29.2337 11.4446C29.3931 11.4446 29.5525 11.4765 29.7119 11.5721C29.9988 11.7315 30.1582 12.0503 30.1582 12.3691C30.1582 12.5285 30.1263 12.6879 30.0307 12.8154L27.4166 16.9278L30.0307 21.0402C30.1263 21.1678 30.1582 21.3271 30.1582 21.4865C30.1582 21.8053 29.9988 22.156 29.7438 22.2835C29.5844 22.3792 29.3931 22.411 29.2337 22.411C28.9149 22.411 28.6599 22.2835 28.4686 22.0285L26.3008 18.6812L24.1012 22.0285Z" fill="var(--fill-0, white)"/>
<path d="M58.8174 15.8758V21.5185C58.8174 21.9966 58.371 22.4111 57.8929 22.4111C57.3828 22.4111 56.9684 21.9966 56.9684 21.5185V12.2416C56.9684 11.7634 57.4147 11.349 57.8929 11.349C58.3392 11.349 58.7855 11.7316 58.8174 12.2097C59.5825 11.6359 60.5707 11.2853 61.6227 11.2853C62.1965 11.2853 62.6429 11.7316 62.6429 12.2097C62.6429 12.7198 62.1965 13.1661 61.6227 13.1661C60.1882 13.198 58.8174 13.7081 58.8174 15.8758Z" fill="var(--fill-0, white)"/>
<path d="M65.321 11.349C64.8109 11.349 64.3965 11.7634 64.3965 12.2416V21.5504C64.3965 22.0285 64.8428 22.443 65.321 22.443C65.7673 22.443 66.2455 22.0285 66.2455 21.5504V12.2416C66.2455 11.7634 65.7992 11.349 65.321 11.349Z" fill="var(--fill-0, white)"/>
<path fill-rule="evenodd" clip-rule="evenodd" d="M77.179 12.2416C77.179 11.7634 77.6253 11.349 78.1035 11.349C78.5498 11.349 79.028 11.7634 79.028 12.2416V21.5503C79.028 22.0285 78.5817 22.4429 78.1035 22.4429C77.5934 22.4429 77.179 22.0285 77.179 21.5503V21.104C76.1589 21.9966 74.8518 22.5386 73.4173 22.5386C70.2612 22.5386 67.7747 20.0201 67.7747 16.896C67.7747 13.8037 70.2931 11.2853 73.4173 11.2853C74.8518 11.2853 76.1589 11.8272 77.179 12.7198V12.2416ZM73.4173 20.6577C75.5213 20.6577 77.179 19 77.179 16.896C77.179 14.792 75.5213 13.1342 73.4173 13.1342C71.3132 13.1342 69.6555 14.792 69.6555 16.896C69.6555 19 71.3132 20.6577 73.4173 20.6577Z" fill="var(--fill-0, white)"/>
<path d="M88.497 16.0034C88.497 14.4413 87.158 13.1024 85.596 13.1024C84.0976 13.1024 82.695 13.7081 82.695 15.9077V21.5503C82.695 22.0285 82.2487 22.4429 81.7705 22.4429C81.2604 22.4429 80.846 22.0285 80.846 21.5503V12.2416C80.846 11.7634 81.2923 11.349 81.7705 11.349C82.2168 11.349 82.6631 11.7316 82.695 12.2097C83.4919 11.604 84.4802 11.2853 85.5641 11.2853C88.0825 11.2853 90.346 13.2618 90.346 15.7483V21.5503C90.346 22.0285 89.8997 22.4429 89.4215 22.4429C88.9114 22.4429 88.497 22.0285 88.497 21.5503V16.0034Z" fill="var(--fill-0, white)"/>
<path fill-rule="evenodd" clip-rule="evenodd" d="M21.8691 16.5772C21.8371 13.7081 19.2869 11.2853 16.2583 11.2853C13.1023 11.2853 10.6157 13.8037 10.6157 16.896C10.6157 20.052 13.1342 22.5386 16.2583 22.5386C17.7567 22.5386 19.1593 21.9648 20.1795 20.9446C20.3707 20.7852 20.4983 20.4983 20.4983 20.2433C20.4983 19.7332 20.052 19.3188 19.5738 19.3188C19.2869 19.3188 19.0318 19.4782 18.8405 19.7014C18.203 20.3708 17.2785 20.6896 16.2902 20.6896C14.4093 20.6896 12.8791 19.4144 12.5604 17.6292H21.0721C21.1041 17.6292 21.1359 17.6292 21.1678 17.5973C21.5503 17.4379 21.8691 17.0554 21.8691 16.5772ZM16.2583 13.1342C17.9479 13.1342 19.3506 14.2181 19.8288 15.7483H12.656C13.1342 14.2181 14.5369 13.1342 16.2583 13.1342Z" fill="var(--fill-0, white)"/>
<path fill-rule="evenodd" clip-rule="evenodd" d="M55.4057 16.5772C55.3739 13.7081 52.7916 11.2853 49.795 11.2853C46.639 11.2853 44.1524 13.8037 44.1524 16.896C44.1524 20.052 46.6708 22.5386 49.795 22.5386C51.2933 22.5386 52.696 21.9648 53.7161 20.9446C53.9074 20.7852 54.0349 20.4983 54.0349 20.2433C54.0349 19.7332 53.5886 19.3188 53.1104 19.3188C52.8235 19.3188 52.5685 19.4782 52.3772 19.7014C51.7396 20.3708 50.8151 20.6896 49.8269 20.6896C47.946 20.6896 46.4158 19.4144 46.097 17.6292H54.6725C55.0551 17.4698 55.4057 17.0554 55.4057 16.5772ZM49.795 13.1342C51.4846 13.1342 52.8873 14.2181 53.3655 15.7483H46.1927C46.6708 14.2181 48.0735 13.1342 49.795 13.1342Z" fill="var(--fill-0, white)"/>
<path d="M92.3217 22.4429C92.2261 22.4429 92.1623 22.3792 92.1623 22.2835V20.7215H91.8117C91.716 20.7215 91.6523 20.6577 91.6523 20.5621C91.6523 20.4664 91.716 20.4027 91.8117 20.4027H92.8318C92.9274 20.4027 92.9912 20.4664 92.9912 20.5621C92.9912 20.6578 92.9274 20.7215 92.8318 20.7215H92.4811V22.2835C92.4811 22.3792 92.4173 22.4429 92.3217 22.4429Z" fill="var(--fill-0, white)"/>
<path d="M94.1393 22.4429C94.0437 22.4429 94.0118 22.3792 93.9799 22.3154L93.5336 21.0403V22.2835C93.5336 22.3792 93.4699 22.4429 93.3742 22.4429C93.2786 22.4429 93.2148 22.3792 93.2148 22.2835V20.6258C93.2148 20.4983 93.3105 20.4027 93.438 20.4027C93.5336 20.4027 93.6293 20.4664 93.6611 20.5621L94.1074 21.8691L94.5538 20.5621C94.5856 20.4664 94.6813 20.4027 94.7769 20.4027C94.9044 20.4027 95.0001 20.4984 95.0001 20.6258V22.2835C95.0001 22.3792 94.9363 22.4429 94.8407 22.4429C94.745 22.4429 94.6813 22.3792 94.6813 22.2835V21.0403C94.662 21.0982 94.6397 21.1679 94.6154 21.2439C94.5596 21.4188 94.4929 21.6276 94.4262 21.8054C94.2668 22.3154 94.235 22.3154 94.235 22.3154C94.2668 22.4111 94.2031 22.4429 94.1393 22.4429Z" fill="var(--fill-0, white)"/>
</g>
</g>
</svg>
