<svg preserveAspectRatio="none" width="100%" height="100%" overflow="visible" style="display: block;" viewBox="0 0 152 40.3053" fill="none" xmlns="http://www.w3.org/2000/svg">
<g id="Group">
<path id="Vector" d="M103.225 26.2291C102.63 26.6153 102.007 26.8232 101.413 26.8232C100.967 26.8232 100.611 26.645 100.313 26.2885C100.046 25.9321 99.8976 25.4865 99.8976 24.9221C99.8976 24.0904 100.106 22.9913 100.521 21.5951L101.71 17.5553L104.502 17.3473L105.096 14.5848L102.571 14.7333L104.442 8.49528L99.6302 9.47554L97.9371 15.0898L96.2142 15.1492L95.6498 17.9711L97.0162 17.9117L96.2439 20.6446C95.8874 21.8625 95.6201 22.9319 95.4716 23.8824C94.0457 25.338 92.9763 26.2588 92.2634 26.6747C91.5505 27.0906 90.7782 27.2985 90.0059 27.2985C87.9859 27.2985 86.7383 26.14 86.263 23.7933C91.5208 22.2487 94.1645 20.2287 94.1645 17.7632C94.1645 16.8424 93.8378 16.07 93.1546 15.5056C92.4714 14.9412 91.5802 14.6442 90.4811 14.6442C88.3424 14.6442 86.3819 15.6839 84.6293 17.7335C83.0252 19.6049 82.1638 21.6546 82.0152 23.9418C80.5597 25.3677 79.4606 26.3182 78.7477 26.7638C78.0051 27.2391 77.3219 27.4767 76.6684 27.4767C76.0445 27.4767 75.5099 27.1797 75.1534 26.5559C74.7672 25.9321 74.589 25.13 74.589 24.0904C74.589 23.6151 74.6484 22.7536 74.7375 21.5357C77.1436 18.9514 78.8962 16.4859 80.025 14.1986C81.1538 11.9113 81.7182 9.53495 81.7182 7.09915C81.7182 6.23771 81.5994 5.55449 81.3914 5.04951C81.1835 4.54453 80.8864 4.27718 80.53 4.27718C80.4706 4.27718 80.3518 4.30689 80.2032 4.33659L75.6287 5.94066C74.084 8.91115 72.7473 12.149 71.6482 15.6839C70.668 18.8623 70.1333 21.6546 70.0442 24.0012C68.1431 26.2885 66.3905 27.4173 64.7864 27.4173C63.6279 27.4173 62.7368 26.7935 62.1427 25.5459L63.6576 18.0306C66.1231 15.7433 67.7866 13.8422 68.6777 12.2975C69.5689 10.7529 70.0145 9.11908 70.0145 7.45561C70.0145 6.47535 69.8659 5.70302 69.5689 5.10892C69.2718 4.51482 68.9154 4.21777 68.4698 4.21777C68.4104 4.21777 67.9648 4.33659 67.1331 4.54453C66.3013 4.75246 65.4993 4.9901 64.7567 5.19804C64.0141 5.43567 63.5685 5.67331 63.3606 5.94066C63.1823 6.208 62.7071 7.18826 61.9644 8.94085C61.2218 10.6934 60.6574 12.2678 60.2713 13.7233C59.8554 15.1492 59.3207 17.4959 58.6969 20.704L55.6967 23.823V23.7933C54.6867 24.8033 53.8847 25.5756 53.3203 26.0509C52.7559 26.5559 52.2509 26.7935 51.7756 26.7935C51.033 26.7935 50.6766 26.2885 50.6766 25.2488C50.6766 24.2686 51.0924 22.4566 51.8945 19.8128L53.4688 14.5551H52.4589L48.7755 16.575C48.1814 15.2086 47.1417 14.4957 45.6267 14.4957C44.4385 14.4957 43.0721 15.0007 41.5275 16.0106C39.9828 17.0206 38.7055 18.3276 37.7252 19.9614C36.9529 21.2387 36.4776 22.5457 36.3291 23.9121C34.9627 25.2786 33.923 26.1994 33.2101 26.6153C32.4972 27.0311 31.7248 27.2391 30.9525 27.2391C28.9326 27.2391 27.685 26.0806 27.2097 23.7339C32.4675 22.1892 35.1112 20.1693 35.1112 17.7038C35.1112 16.7829 34.7844 16.0106 34.1012 15.4462C33.418 14.8818 32.5269 14.5848 31.4278 14.5848C29.289 14.5848 27.3285 15.6245 25.5759 17.6741C23.9719 19.5455 23.1104 21.6248 22.9619 23.9121C21.2093 25.8429 19.3676 26.8232 17.4368 26.8232C16.4268 26.8232 15.2386 26.5559 13.8425 26.0212C12.4464 25.4865 11.377 25.13 10.6344 24.9221C9.89173 24.7439 9.00059 24.6845 7.99062 24.7439C9.56498 23.1101 10.6047 21.4466 11.1987 19.7534C11.7631 18.0603 12.179 16.1294 12.4166 13.9313C12.6543 11.7331 12.8919 10.1588 13.0999 9.17849C13.3078 8.19823 13.694 7.36649 14.2286 6.65358C14.7633 5.94066 15.5357 5.5842 16.5159 5.5842C17.318 5.5842 17.9715 5.88125 18.4467 6.47535C18.922 7.06944 19.1597 7.87148 19.1597 8.91115C19.1597 10.2479 18.8626 11.4064 18.2388 12.3866C17.615 13.3669 16.9021 13.8422 16.1001 13.8422C15.5951 13.8422 15.2089 13.6639 14.8822 13.2778C14.7336 13.7828 14.6742 14.1986 14.6742 14.5848C14.6742 15.2977 14.8822 15.8621 15.3277 16.278C15.7733 16.6938 16.3377 16.9018 17.11 16.9018C18.5656 16.9018 19.8429 16.1888 20.942 14.7927C22.041 13.3669 22.6054 11.7331 22.6054 9.86171C22.6054 8.22794 22.0707 6.89122 21.0014 5.85154C19.932 4.81187 18.5953 4.27718 16.9318 4.27718C14.5257 4.27718 12.2978 5.46538 10.2482 7.87148C8.19855 10.2479 7.06977 13.5748 6.86183 17.7929C6.74301 19.8426 6.59449 21.2981 6.41626 22.1892C6.23803 23.0804 5.79246 24.0012 5.10924 24.9221C3.47547 25.1894 2.22787 25.6647 1.33672 26.3479C0.445574 27.0311 0 27.8332 0 28.754C0 29.1996 0.148525 29.5561 0.445574 29.8531C0.742623 30.1502 1.12879 30.2987 1.57436 30.2987C2.88138 30.2987 4.33692 29.4075 5.97069 27.6549C6.83213 27.8926 7.84209 28.2787 9.00059 28.8134C10.1294 29.3481 11.1096 29.7046 11.9117 29.9422C12.7137 30.1502 13.5454 30.269 14.4069 30.269C17.3774 30.269 20.2587 28.8431 23.1104 25.9618C23.3184 27.0608 23.7639 28.0114 24.5065 28.754C25.5165 29.7937 26.8235 30.3284 28.4573 30.3284C29.9128 30.3284 31.2496 29.9719 32.4675 29.259C33.626 28.5758 34.933 27.5064 36.3885 26.1103C36.5073 27.15 36.8638 28.0708 37.4282 28.8431C38.1708 29.8234 39.0619 30.3284 40.1016 30.3284C41.171 30.3284 42.2107 29.9125 43.2503 29.1105C44.2603 28.3085 45.3594 27.0311 46.5773 25.3083C46.4585 28.6352 47.3496 30.3284 49.2507 30.3284C49.9934 30.3284 50.7954 30.061 51.6271 29.4966C52.4589 28.9323 53.8253 27.7738 55.7264 25.9321L56.9443 24.5953C57.2711 25.5162 57.5087 26.0806 57.6572 26.3182C56.7067 31.5463 56.0532 35.7941 55.667 39.0913C57.4196 38.7349 58.9048 38.4972 60.1524 38.319C60.5386 35.2594 60.9842 32.4374 61.4892 29.7937C62.2912 30.1502 62.915 30.2987 63.3606 30.2987C64.3111 30.2987 65.4102 29.9125 66.6281 29.1699C67.8163 28.4273 69.0045 27.3876 70.2224 26.0509C70.3709 27.15 70.7274 28.0708 71.3215 28.8134C72.0938 29.7937 73.1335 30.2987 74.4108 30.2987C75.5099 30.2987 76.6981 29.9422 77.916 29.2293C79.1339 28.5164 80.5597 27.4173 82.1935 25.9024C82.4014 27.0311 82.847 27.952 83.5896 28.7243C84.5996 29.764 85.9066 30.2987 87.5403 30.2987C88.9959 30.2987 90.3326 29.9422 91.5505 29.2293C92.709 28.5461 94.016 27.4767 95.4716 26.0806C95.531 27.2688 95.8577 28.249 96.4221 28.9917C97.0756 29.8531 97.9074 30.2987 98.9173 30.2987C99.8976 30.2987 100.967 29.9422 102.066 29.2293C103.165 28.5164 104.472 27.4173 105.987 25.9024V23.823C104.71 25.0112 103.819 25.8429 103.225 26.2291ZM77.708 9.56466C78.5398 7.36649 79.1933 6.26741 79.6388 6.26741C79.8468 6.26741 79.9953 6.41594 80.1438 6.68328C80.2626 6.95062 80.3518 7.30708 80.3518 7.75266C80.3518 9.26761 79.8765 11.0796 78.9259 13.1589C77.9754 15.268 76.7575 17.1394 75.2128 18.8326C76.0148 14.8521 76.8466 11.7628 77.708 9.56466ZM66.0934 8.13882C66.6281 6.7724 67.1628 6.05948 67.6975 6.05948C67.9648 6.05948 68.2025 6.208 68.3807 6.53476C68.5589 6.86151 68.648 7.27738 68.648 7.78236C68.648 8.97056 68.2619 10.2776 67.4598 11.6737C66.6578 13.0698 65.5587 14.4066 64.1626 15.6245C64.9052 12.0005 65.5587 9.50525 66.0934 8.13882ZM30.3881 16.0403C31.2199 16.0403 31.6357 16.6047 31.6357 17.7632C31.6357 20.0802 30.0911 21.6843 27.0315 22.5457C27.0315 20.6149 27.3879 19.0405 28.1008 17.8523C28.8138 16.6641 29.5861 16.0403 30.3881 16.0403ZM45.8941 23.7933C44.8247 25.8429 43.6959 26.8529 42.5077 26.8529C42.0027 26.8529 41.6166 26.645 41.2898 26.2588C40.9631 25.8727 40.8145 25.338 40.8145 24.6845C40.8145 22.9616 41.3492 21.0902 42.4186 19.0702C43.488 17.0206 44.6168 16.0106 45.8347 16.0106C46.3397 16.0106 46.7258 16.1888 47.0526 16.575C47.3496 16.9612 47.4981 17.4662 47.4981 18.1494C47.4684 19.8723 46.9337 21.7437 45.8941 23.7933ZM89.4415 16.0403C90.2732 16.0403 90.6891 16.6047 90.6891 17.7632C90.6891 20.0802 89.1444 21.6843 86.0848 22.5457C86.0848 20.6149 86.4413 19.0405 87.1542 17.8523C87.8968 16.6344 88.6691 16.0403 89.4415 16.0403Z" fill="var(--fill-0, #70706F)"/>
<g id="Group_2">
<path id="Vector_2" d="M112.047 16.1295C112.433 16.5751 119.77 19.0109 122.295 21.9814C124.85 24.9519 125.949 27.5956 125.592 30.1502C125.236 32.7048 123.661 32.6454 123.008 33.596C122.325 34.5168 121.374 35.6753 119.592 35.5565C117.216 35.408 114.78 34.2198 113.027 30.1205C111.275 26.0212 111.393 22.1596 111.542 20.0208C111.661 17.8524 112.047 16.1295 112.047 16.1295Z" fill="url(#paint0_linear_0_398)"/>
<path id="Vector_3" d="M112.255 16.8129L123.246 33.21L122.741 33.7744L112.255 16.8129Z" fill="url(#paint1_linear_0_398)"/>
<path id="Vector_4" d="M70.163 39.5966L70.2521 38.8837C73.1929 37.3093 76.8169 36.7152 79.7874 35.2003C80.6786 35.5864 81.0647 35.0221 82.0153 35.0815C82.3717 35.3785 81.5697 35.7944 82.5203 35.735C84.6293 36.0023 86.7087 35.6162 88.788 35.4379C90.9862 35.2597 93.1546 35.4676 95.3231 35.3191C96.0063 35.2894 97.0757 34.3388 97.9074 34.8141C98.2936 35.4973 96.6598 35.5567 97.1054 36.3291C101.413 37.339 112.195 41.6165 114.037 36.9529C114.067 37.2499 113.71 37.7846 114.215 37.7252C117.839 36.0914 124.018 32.5863 125.117 31.6654C126.305 30.6554 127.909 30.6851 129.454 30.3287C132.276 29.6752 135.276 29.0217 137.712 27.5958C139.227 28.6355 142.376 29.1702 144.039 28.784C145.792 28.3979 148.525 25.4868 149.98 24.4471C150.545 24.0312 151.406 23.2589 152 23.7045C151.584 24.0015 152.059 24.8333 151.554 24.6847C151.287 24.1798 150.752 24.7739 150.366 24.655C148.911 25.8729 147.366 27.0017 145.881 28.1602C145.168 28.5761 146.564 29.0217 145.732 29.1702C141.871 29.9425 135.959 28.0117 133.524 30.6851C129.662 32.0219 126.008 32.3486 122.206 34.3983C120.008 35.5864 117.334 37.7252 115.047 38.854C114.661 39.0322 114.097 39.1213 113.651 39.3887C113.087 39.7154 112.968 40.161 112.493 40.2501C111.334 40.4878 108.928 39.8937 107.383 39.6857C102.333 38.9431 96.9271 36.8935 92.1447 36.6261C90.2435 36.537 88.0157 36.8341 85.8769 36.9232C81.3321 37.1311 78.5101 37.2499 74.8564 38.4678C73.4306 38.9728 71.1136 40.3095 70.163 39.5966Z" fill="var(--fill-0, #3D3D3C)"/>
<path id="Vector_5" d="M140.326 0C139.821 0.831737 128.177 6.83213 124.701 12.4464C121.196 18.0903 120.216 22.5163 121.493 26.675C122.77 30.8337 125.176 30.6555 126.543 32.0219C127.909 33.3883 129.781 35.0518 132.781 34.3983C136.702 33.5071 140.474 30.8931 142.346 23.5857C144.217 16.2783 142.999 9.86203 142.197 6.32715C141.395 2.79226 140.326 0 140.326 0Z" fill="url(#paint2_linear_0_398)"/>
<path id="Vector_6" d="M140.118 1.24756L126.008 31.4872L126.84 32.3189L140.118 1.24756Z" fill="url(#paint3_linear_0_398)"/>
</g>
</g>
<defs>
<linearGradient id="paint0_linear_0_398" x1="110.579" y1="24.9482" x2="126.204" y2="26.368" gradientUnits="userSpaceOnUse">
<stop stop-color="#8AC443"/>
<stop offset="1" stop-color="#75B843"/>
</linearGradient>
<linearGradient id="paint1_linear_0_398" x1="111.068" y1="24.1976" x2="124.548" y2="25.1621" gradientUnits="userSpaceOnUse">
<stop stop-color="#75B843"/>
<stop offset="1" stop-color="#4B9744"/>
</linearGradient>
<linearGradient id="paint2_linear_0_398" x1="145.238" y1="14.3216" x2="119.552" y2="17.9368" gradientUnits="userSpaceOnUse">
<stop stop-color="#C1DB74"/>
<stop offset="1" stop-color="#ACD259"/>
</linearGradient>
<linearGradient id="paint3_linear_0_398" x1="144.22" y1="13.1746" x2="122.023" y2="14.7101" gradientUnits="userSpaceOnUse">
<stop stop-color="#ACD259"/>
<stop offset="1" stop-color="#8AC443"/>
</linearGradient>
</defs>
</svg>
