<svg preserveAspectRatio="none" width="100%" height="100%" overflow="visible" style="display: block;" viewBox="0 0 39.5907 37.055" fill="none" xmlns="http://www.w3.org/2000/svg">
<g id="Group">
<path id="Vector" d="M38.9055 23.642C38.0955 26.3992 36.5935 28.8711 34.3957 31.0544C31.6298 33.8392 28.4016 35.5062 24.7144 36.0627C23.7936 36.2016 22.8455 36.2744 21.867 36.2744C16.9718 36.2744 12.7858 34.536 9.30454 31.0544C7.12089 28.8704 5.62935 26.3992 4.82557 23.642H38.9055ZM39.5896 19.5195C39.5585 20.145 39.4955 20.757 39.4046 21.3577L39.3568 21.6571H4.37746C4.2777 21.0601 4.20565 20.4522 4.1645 19.8311L4.14651 19.5195H39.5896ZM39.3561 15.3969C39.4565 15.9942 39.5289 16.6021 39.5704 17.223L39.5885 17.5345H4.14651C4.17728 16.9092 4.23974 16.2973 4.33002 15.6964L4.37746 15.3969H39.3561Z" fill="var(--fill-0, #2C2255)"/>
<path id="Vector_2" d="M38.9062 13.4115C38.097 10.6467 36.5946 8.16396 34.3957 5.96472C31.637 3.20607 28.4179 1.55102 24.7427 0.994136C23.8131 0.853103 22.8556 0.779142 21.867 0.779142C16.9718 0.779142 12.7854 2.50815 9.30454 5.96472C7.12016 8.16396 5.6279 10.6467 4.82449 13.4115" fill="var(--fill-0, #2C2255)"/>
<path id="Vector_3" d="M3.09257 18.5275C3.09257 9.16495 10.1243 1.38567 19.2718 0.0174025C19.0449 0.00906384 18.8168 0 18.5877 0C8.32238 0 0 8.29519 0 18.5275C0 28.7602 8.32202 37.055 18.5877 37.055C18.8175 37.055 19.0456 37.0463 19.2733 37.0379C10.1243 35.6697 3.09257 27.8904 3.09257 18.5275Z" fill="var(--fill-0, #F7941E)"/>
<path id="Vector_4" d="M33.9287 17.5341C33.8692 16.8014 33.746 16.0868 33.5618 15.3965H10.1736C9.98939 16.0865 9.86576 16.801 9.8063 17.5341H33.9287Z" fill="url(#paint0_linear_0_482)"/>
<path id="Vector_5" d="M33.9287 19.5195H9.80666C9.86612 20.2522 9.98903 20.9668 10.1736 21.6571H33.5622C33.7463 20.9668 33.8692 20.2522 33.9287 19.5195Z" fill="url(#paint1_linear_0_482)"/>
<path id="Vector_6" d="M21.8677 30.6324C26.7248 30.6324 30.9115 27.7708 32.8396 23.6421H10.8958C12.8238 27.7708 17.0106 30.6324 21.8677 30.6324Z" fill="url(#paint2_linear_0_482)"/>
<path id="Vector_7" d="M39.3521 21.6567C39.2328 22.3325 39.0766 22.9953 38.883 23.642H4.8252C4.63123 22.9949 4.496 22.3321 4.37709 21.6567H39.3521ZM39.5584 17.5341C39.578 17.876 39.5907 18.2194 39.5907 18.5656C39.5907 18.8857 39.5812 19.2037 39.5646 19.5195H4.14034C4.12366 19.2037 4.11423 18.8857 4.11423 18.5656C4.11423 18.2194 4.12692 17.8757 4.1465 17.5341H39.5584ZM38.767 13.4116C38.9638 14.0583 39.1215 14.7215 39.2441 15.3969H4.37745C4.49963 14.7211 4.62688 14.058 4.82411 13.4116H38.767Z" fill="var(--fill-0, white)"/>
</g>
<defs>
<linearGradient id="paint0_linear_0_482" x1="21.8674" y1="38.6835" x2="21.8674" y2="11.987" gradientUnits="userSpaceOnUse">
<stop offset="0.3033" stop-color="#473788"/>
<stop offset="0.872" stop-color="#2C2255"/>
</linearGradient>
<linearGradient id="paint1_linear_0_482" x1="21.8674" y1="38.6839" x2="21.8674" y2="11.9874" gradientUnits="userSpaceOnUse">
<stop offset="0.3033" stop-color="#473788"/>
<stop offset="0.872" stop-color="#2C2255"/>
</linearGradient>
<linearGradient id="paint2_linear_0_482" x1="21.8674" y1="38.6832" x2="21.8674" y2="11.988" gradientUnits="userSpaceOnUse">
<stop offset="0.3033" stop-color="#473788"/>
<stop offset="0.8631" stop-color="#2C2255"/>
</linearGradient>
</defs>
</svg>
