<svg preserveAspectRatio="none" width="100%" height="100%" overflow="visible" style="display: block;" viewBox="0 0 152 45.7598" fill="none" xmlns="http://www.w3.org/2000/svg">
<g id="Group">
<g id="Group_2">
<path id="Vector" fill-rule="evenodd" clip-rule="evenodd" d="M17.8257 3.79912C12.2799 2.68533 -0.759398 8.3627 0.0347112 14.7332C2.00748 15.3197 3.72542 16.0369 3.44466 16.7717H57.71C58.0362 14.5988 56.3312 12.9328 57.4849 11.1194C57.849 10.5467 58.1261 9.89347 58.3188 9.24206V5.71629C58.2901 5.69034 58.2586 5.66811 58.2252 5.65143C44.7504 10.0121 51.2941 9.0901 36.9131 5.65328C34.4177 2.52132 26.1347 0.252966 22.2735 0C20.7909 0 17.8257 3.79912 17.8257 3.79912Z" fill="url(#paint0_linear_0_416)"/>
<path id="Vector_2" fill-rule="evenodd" clip-rule="evenodd" d="M35.7094 14.9184V16.5863H3.47427C3.50393 17.0792 2.68943 17.5852 0.497986 18.0689C2.44388 20.4781 8.18797 22.7937 10.2274 23.0726C9.86236 23.1486 9.45743 23.2838 9.02655 23.4682C15.5481 24.2892 23.2584 24.5672 27.0928 24.6478H39.7439C39.6076 24.6172 39.4677 24.5867 39.3232 24.5552C36.509 24.0251 37.6339 24.4078 36.2653 23.6285C54.3825 19.267 43.8858 19.9119 58.2252 23.0726C58.6894 22.2386 56.4656 20.2001 57.4848 17.6065C57.8722 16.6196 57.7776 15.7412 57.5831 14.9184H35.7094Z" fill="url(#paint1_linear_0_416)"/>
<path id="Vector_3" fill-rule="evenodd" clip-rule="evenodd" d="M23.1074 21.4975V23.1654C20.0783 23.1024 14.8419 23.0672 9.89753 23.1543C6.63121 24.079 0.861174 29.0086 0.0346328 31.908V33.0885C0.060578 33.1497 0.0911563 33.209 0.127294 33.2655C1.8508 33.7779 3.37971 34.3895 3.55207 35.0261H27.8331V33.3582H57.6043C57.293 31.9775 56.662 30.7599 57.4848 29.4664C58.3308 27.6446 58.7274 26.3946 58.782 25.5709V25.2049C58.5448 22.1415 51.9001 27.0183 48.2186 27.0572C44.0489 26.315 44.8828 25.7599 39.3231 24.5553C36.509 24.0253 37.6339 24.408 36.2653 23.6287C39.7095 22.7994 42.1197 22.1517 43.8635 21.667V21.4975H23.1074Z" fill="url(#paint2_linear_0_416)"/>
<path id="Vector_4" fill-rule="evenodd" clip-rule="evenodd" d="M20.8836 8.33962H20.9762C23.1973 12.2731 21.7824 15.2929 20.6056 19.181C20.2739 19.9677 21.4711 20.5765 21.8102 19.737C22.7544 16.125 24.25 12.1545 22.4588 8.52495H22.6441C31.2181 8.59074 39.8949 10.1474 47.6628 13.8993C48.1789 14.0161 49.8394 15.2929 50.1646 14.27C46.4229 9.84445 31.863 7.32405 25.702 7.50474C25.4342 7.55571 24.793 7.47416 24.06 7.39355C23.4855 7.32961 22.8536 7.2666 22.2985 7.2666C21.2672 7.2666 20.5055 7.48714 20.8836 8.33962Z" fill="var(--fill-0, #974DFF)"/>
<path id="Vector_5" fill-rule="evenodd" clip-rule="evenodd" d="M20.8834 8.33922H20.976C22.315 10.8726 22.6588 13.9693 21.3467 16.5861H22.6439C23.3185 13.9573 23.5446 11.1404 22.366 8.61721C31.0419 8.64315 39.8438 10.0637 47.6625 13.9916C48.1768 14.0824 49.9355 15.4769 50.1644 14.3622C46.2319 9.85331 32.038 7.32458 25.7018 7.50434C25.396 7.56272 24.7603 7.47747 24.0468 7.3913C23.4964 7.32551 22.8988 7.25879 22.3715 7.25879C21.4023 7.25879 20.6665 7.4821 20.8834 8.33922Z" fill="var(--fill-0, #F1A5FF)"/>
<path id="Vector_6" fill-rule="evenodd" clip-rule="evenodd" d="M17.5477 8.80281H17.6403C19.4398 11.2519 19.3601 14.2124 18.1963 16.8644C17.8062 17.5093 18.7754 18.1542 19.1229 17.4203C19.7734 16.048 20.2219 14.4969 20.2349 12.9726C20.2478 11.2574 19.4648 9.4885 18.5669 8.06151C18.4493 7.84932 18.2788 7.76222 18.1036 7.76222C17.6552 7.76222 17.1854 8.33487 17.5477 8.80281Z" fill="var(--fill-0, #974DFF)"/>
<path id="Vector_7" fill-rule="evenodd" clip-rule="evenodd" d="M19.4935 16.5863C20.0309 14.3439 20.4294 11.9597 19.2155 9.82204C19.0459 9.47085 18.5456 8.45713 18.5669 8.06147C18.1805 7.34612 17.1519 8.05776 17.5476 8.7101H17.6403C19.2878 11.0628 19.4935 13.9946 18.2889 16.5863H19.4935Z" fill="var(--fill-0, #F1A5FF)"/>
<path id="Vector_8" fill-rule="evenodd" clip-rule="evenodd" d="M17.5476 8.71018H17.6403C19.2869 11.0629 19.4935 13.9956 18.2889 16.5864H19.4935C20.0309 14.344 20.4294 11.9598 19.2155 9.82212C19.046 9.47094 18.5447 8.45722 18.5669 8.06155C18.452 7.84936 18.2815 7.76318 18.1082 7.76318C17.6959 7.76318 17.2696 8.25151 17.5476 8.71018Z" fill="var(--fill-0, #F1A5FF)"/>
<path id="Vector_9" fill-rule="evenodd" clip-rule="evenodd" d="M27.7407 33.3579V35.0258H3.55228C3.69313 35.5475 2.92033 36.0868 0.59082 36.6011C5.07842 40.9617 10.6641 42.3387 15.6011 41.2341C16.3729 44.7136 22.8731 46.7049 27.1847 45.3112C27.244 44.4208 27.0855 43.5312 26.7214 42.7167C32.7472 43.7425 47.4525 39.1187 48.2189 38.7323C48.9129 38.6035 51.0478 39.3661 53.1707 40.1296C55.5827 40.9969 57.9789 41.8633 58.2254 41.4195C58.6896 40.5855 56.4657 38.547 57.485 35.9524C57.8575 35.0036 57.7843 34.1539 57.6045 33.3579H27.7407Z" fill="url(#paint3_linear_0_416)"/>
<path id="Vector_10" fill-rule="evenodd" clip-rule="evenodd" d="M20.8836 26.8718H20.9762C23.2186 30.8285 21.7398 33.8863 20.6056 37.8059C20.2739 38.5935 21.4711 39.2014 21.8102 38.3619C22.8239 34.7926 24.2111 30.8331 22.4588 27.2416L22.6441 27.1498C31.2153 27.2193 39.9024 28.6324 47.6628 32.4315C48.1789 32.5483 49.8394 33.8242 50.1646 32.8022C46.4229 28.3776 31.863 25.8563 25.702 26.0379C25.4342 26.0889 24.7939 26.0073 24.0619 25.9267C23.4864 25.8628 22.8536 25.7988 22.2985 25.7988C21.2672 25.7988 20.5055 26.0203 20.8836 26.8718Z" fill="var(--fill-0, #373FFF)"/>
<path id="Vector_11" fill-rule="evenodd" clip-rule="evenodd" d="M20.8834 26.8718H20.976C22.3029 29.3783 22.6578 32.4371 21.3467 35.0261H22.6439C23.3231 32.3982 23.5446 29.5803 22.366 27.0572C31.0326 27.0868 39.8095 28.6408 47.6626 32.4315C48.1768 32.5483 49.841 33.8252 50.1644 32.8022C46.4237 28.3776 31.8628 25.8554 25.7018 26.0379C25.434 26.0889 24.7946 26.0073 24.0617 25.9267C23.4862 25.8628 22.8534 25.7988 22.2983 25.7988C21.267 25.7988 20.5053 26.0203 20.8834 26.8718Z" fill="var(--fill-0, #F1A5FF)"/>
<path id="Vector_12" fill-rule="evenodd" clip-rule="evenodd" d="M17.5477 27.335H17.6404C19.4399 29.7841 19.3602 32.7446 18.1963 35.3966C17.8062 36.0415 18.7755 36.6864 19.123 35.9525C19.7734 34.5802 20.2219 33.03 20.2349 31.5048C20.271 29.7414 19.3907 28.0142 18.567 26.5011C18.1092 25.6958 16.9185 26.6975 17.5477 27.335Z" fill="var(--fill-0, #373FFF)"/>
<path id="Vector_13" fill-rule="evenodd" clip-rule="evenodd" d="M19.4938 35.026C19.7328 33.5091 20.3046 31.9682 19.9571 30.3929C19.9107 29.4765 17.6137 24.0419 17.3625 27.2424H17.6405C19.3038 29.5951 19.4956 32.5223 18.2892 35.1187L19.4938 35.026Z" fill="var(--fill-0, #F1A5FF)"/>
<path id="Vector_14" fill-rule="evenodd" clip-rule="evenodd" d="M17.3625 27.2416H17.6405C19.3038 29.5952 19.4956 32.5224 18.2892 35.1188L19.4938 35.0261C19.7328 33.5102 20.3046 31.9683 19.9571 30.393C19.9209 29.6805 18.5273 26.2437 17.7888 26.2437C17.5766 26.2437 17.4191 26.5272 17.3625 27.2416Z" fill="var(--fill-0, #F1A5FF)"/>
<path id="Vector_15" fill-rule="evenodd" clip-rule="evenodd" d="M10.0421 9.45117C11.4237 9.45117 12.544 10.5714 12.544 11.953C12.544 13.3346 11.4237 14.4549 10.0421 14.4549C8.66056 14.4549 7.54028 13.3346 7.54028 11.953C7.54028 10.5714 8.66056 9.45117 10.0421 9.45117Z" fill="var(--fill-0, black)"/>
<path id="Vector_16" fill-rule="evenodd" clip-rule="evenodd" d="M7.44773 11.7681C7.49869 10.2846 8.74221 9.12357 10.2257 9.17546C11.7092 9.22642 12.8703 10.4709 12.8184 11.9534C12.7693 13.3999 11.5823 14.547 10.1349 14.548C8.75704 14.6536 7.55429 13.6223 7.44866 12.2453C7.44773 12.2407 7.44773 12.2361 7.44773 12.2314C7.59228 13.2711 8.53465 14.0096 9.57894 13.8993C10.7557 13.8993 11.7102 12.9459 11.7102 11.7681C11.7102 10.5913 10.7557 9.63691 9.57894 9.63691C8.40214 9.63691 7.44773 10.5913 7.44773 11.7681Z" fill="var(--fill-0, white)"/>
<path id="Vector_17" fill-rule="evenodd" clip-rule="evenodd" d="M8.5599 11.7681C8.96853 11.7681 9.30119 12.0998 9.30119 12.5094C9.30119 12.9189 8.96853 13.2507 8.5599 13.2507C8.15033 13.2507 7.8186 12.9189 7.8186 12.5094C7.8186 12.0998 8.15033 11.7681 8.5599 11.7681Z" fill="var(--fill-0, white)"/>
<path id="Vector_18" fill-rule="evenodd" clip-rule="evenodd" d="M10.0421 27.9844C11.4237 27.9844 12.544 29.1037 12.544 30.4853C12.544 31.8669 11.4237 32.9872 10.0421 32.9872C8.66056 32.9872 7.54028 31.8669 7.54028 30.4853C7.54028 29.1037 8.66056 27.9844 10.0421 27.9844Z" fill="var(--fill-0, black)"/>
<path id="Vector_19" fill-rule="evenodd" clip-rule="evenodd" d="M7.44775 30.2071C7.49872 28.7236 8.74224 27.5626 10.2257 27.6145C11.7093 27.6654 12.8703 28.9099 12.8184 30.3925C12.7693 31.8398 11.5823 32.9861 10.1349 32.987C8.75706 33.0926 7.55431 32.0622 7.44868 30.6843C7.44775 30.6797 7.44775 30.6751 7.44775 30.6704C7.54412 31.7407 8.49112 32.5302 9.56136 32.4329C9.56785 32.4319 9.57248 32.431 9.57897 32.431C10.7558 32.4301 11.7093 31.4747 11.7083 30.2979C11.7074 29.1211 10.7521 28.1677 9.57434 28.1686C8.4346 28.1704 7.49779 29.0683 7.44775 30.2071Z" fill="var(--fill-0, white)"/>
<path id="Vector_20" fill-rule="evenodd" clip-rule="evenodd" d="M8.5599 30.3008C8.96853 30.3008 9.30119 30.6316 9.30119 31.0421C9.30119 31.4507 8.96853 31.7834 8.5599 31.7834C8.15033 31.7834 7.8186 31.4507 7.8186 31.0421C7.8186 30.6316 8.15033 30.3008 8.5599 30.3008Z" fill="var(--fill-0, white)"/>
</g>
<path id="Vector_21" fill-rule="evenodd" clip-rule="evenodd" d="M77.4074 10.5636C81.5771 10.5636 84.912 12.2315 86.3019 17.6058L81.8551 18.8104C80.9285 15.7526 79.5386 14.548 77.4074 14.548C75.2761 14.548 72.311 15.5673 72.311 21.7756C72.311 27.9849 75.2761 29.4665 77.5927 29.4665C79.9138 29.5277 81.8922 27.7921 82.1322 25.4821H78.2413V21.8683H86.6735V32.895H82.7817V29.8381H82.6891C81.6707 32.0731 79.3977 33.4667 76.944 33.3583C70.3651 33.3583 67.3999 28.4482 67.3999 21.8683C67.3999 15.0113 71.199 10.5636 77.4074 10.5636ZM127.723 16.7723C131.243 16.7723 133.653 19.0888 134.58 21.5907L130.595 22.8879C129.946 20.8494 129.02 20.2007 127.63 20.2007C126.24 20.2007 124.479 21.8686 124.479 25.0191C124.479 28.1687 125.406 29.8375 127.536 29.8375C129.668 29.8375 129.946 29.1889 130.688 27.0577L134.672 28.4476C133.64 31.4693 130.726 33.4374 127.536 33.2651C123.83 33.2651 119.754 31.1348 119.754 25.0191C119.754 18.7182 124.201 16.7723 127.723 16.7723ZM114.009 11.6751V17.1431H118.086V20.5716H114.009V27.4276C114.009 29.0955 114.472 29.6524 116.233 29.6524L117.807 29.4671V32.8956L114.657 33.1735C109.931 33.0809 109.283 31.412 109.283 28.4478V20.5716H106.596V17.1431H109.19V11.6751H114.009ZM95.4762 10.9344V32.8952H90.7504V10.9344H95.4762ZM104.094 17.1427V32.8952H99.368V17.1427H104.094ZM141.899 10.9344V19.5519C143.173 17.8052 145.205 16.7721 147.367 16.7721C150.054 16.7721 152 18.0693 152 21.4051V32.8952H147.181V22.8877C147.181 21.4978 146.626 20.7565 145.328 20.7565C144.032 20.8501 142.815 21.4098 141.899 22.3318V32.8952H137.082V10.9344H141.899ZM104.186 11.1197V14.9188H99.368V11.1197H104.186Z" fill="var(--fill-0, black)"/>
</g>
<defs>
<linearGradient id="paint0_linear_0_416" x1="28.3891" y1="-4.63308e-07" x2="28.3891" y2="16.6698" gradientUnits="userSpaceOnUse">
<stop stop-color="#E459FF"/>
<stop offset="1" stop-color="#914DFF"/>
</linearGradient>
<linearGradient id="paint1_linear_0_416" x1="14.152" y1="19.4567" x2="31.2253" y2="30.8584" gradientUnits="userSpaceOnUse">
<stop stop-color="#F0A5FF"/>
<stop offset="1" stop-color="#FF676B"/>
</linearGradient>
<linearGradient id="paint2_linear_0_416" x1="29.4083" y1="21.201" x2="29.4083" y2="35.443" gradientUnits="userSpaceOnUse">
<stop stop-color="#6E3BFF"/>
<stop offset="1" stop-color="#3633FF"/>
</linearGradient>
<linearGradient id="paint3_linear_0_416" x1="23.9992" y1="39.2701" x2="28.3948" y2="44.5344" gradientUnits="userSpaceOnUse">
<stop stop-color="#F0A5FF"/>
<stop offset="1" stop-color="#FF676B"/>
</linearGradient>
</defs>
</svg>
