<svg preserveAspectRatio="none" width="100%" height="100%" overflow="visible" style="display: block;" viewBox="0 0 262.769 40" fill="none" xmlns="http://www.w3.org/2000/svg">
<g id="Group">
<path id="Vector" d="M146.155 10.4419C148.065 10.4419 150.102 10.7124 152.265 11.2535C154.464 11.7945 156.698 12.5872 158.967 13.6314L155.018 20.1605L154.422 19.8874C152.666 19.0924 151.188 18.5166 149.989 18.1599C148.655 17.7291 147.375 17.5137 146.148 17.5137C145.355 17.5137 144.707 17.6395 144.203 17.8911C143.734 18.1082 143.499 18.4684 143.499 18.9715C143.499 19.261 143.572 19.5143 143.717 19.7314C143.861 19.9107 144.115 20.0906 144.477 20.2711C144.838 20.4514 145.326 20.6495 145.939 20.8656L146.346 20.9759C146.91 21.1259 147.568 21.2873 148.317 21.4601C150.353 21.9684 152.084 22.5087 153.512 23.0811L153.776 23.1888C155.255 23.7678 156.427 24.4174 157.292 25.1377C158.192 25.8235 158.823 26.6162 159.184 27.5157C159.58 28.3807 159.778 29.3888 159.778 30.5398C159.778 33.4589 158.661 35.7645 156.426 37.4566C154.228 39.1522 151.218 40 147.398 40L147.38 39.9783C146.191 39.9783 144.912 39.8882 143.542 39.7079C142.173 39.528 140.821 39.294 139.488 39.0059C138.192 38.7178 136.931 38.3756 135.704 37.9792C134.48 37.5471 133.419 37.0789 132.519 36.5747L136.469 29.6062C138.451 30.6505 140.343 31.4426 142.145 31.9826C143.947 32.523 145.624 32.7932 147.175 32.7932C148.977 32.7932 149.879 32.3429 149.879 31.4424C149.879 30.9737 149.518 30.5595 148.798 30.1997C148.078 29.8413 146.71 29.4105 144.694 28.9073L143.953 28.7056C142.259 28.2348 140.812 27.7627 139.612 27.2892C138.244 26.7516 137.146 26.1571 136.319 25.5058C135.488 24.8234 134.894 24.0859 134.536 23.2932C134.174 22.4661 133.993 21.5115 133.993 20.4293C133.993 18.9888 134.281 17.6568 134.858 16.4333C135.471 15.2099 136.317 14.1484 137.398 13.2489C138.479 12.3494 139.758 11.6653 141.236 11.1966C142.749 10.6934 144.388 10.4419 146.155 10.4419ZM114.664 10.4832C119.205 10.4832 122.701 11.493 125.152 13.5125C127.602 15.5321 128.827 18.558 128.827 22.5902V28.1009C128.827 29.0727 129.008 29.7568 129.37 30.1531C129.732 30.515 130.382 30.7321 131.319 30.8045V39.4479C130.382 39.6271 129.498 39.7529 128.669 39.8253C127.84 39.9356 127.1 39.9907 126.452 39.9907C124.614 39.9907 123.209 39.6667 122.235 39.0188C121.298 38.3365 120.684 37.3456 120.395 36.0464L120.178 35.0228C118.916 36.646 117.457 37.8884 115.799 38.75C114.142 39.5806 112.375 39.9959 110.501 39.9959L110.486 39.9783C109.08 39.9783 107.765 39.7439 106.539 39.2752C105.314 38.8076 104.251 38.1774 103.35 37.3848C102.485 36.5566 101.8 35.5842 101.296 34.4676C100.793 33.351 100.541 32.1444 100.541 30.8479C100.541 29.4074 100.848 28.0929 101.461 26.9046C102.075 25.7157 102.922 24.6892 104.005 23.8252C105.087 22.9608 106.367 22.2945 107.845 21.8261C109.358 21.3581 111.016 21.1241 112.819 21.1241C115.128 21.1241 117.039 21.4842 118.552 22.2045V21.3402C118.552 20.0075 118.155 19.017 117.363 18.3688C116.608 17.7209 115.365 17.3969 113.635 17.3969C112.117 17.3969 110.707 17.6341 109.407 18.1084L109.148 18.2064C107.78 18.7131 106.339 19.4695 104.826 20.4759L101.854 14.1019C105.602 11.6894 109.872 10.4832 114.664 10.4832ZM207.326 10.4812C209.739 10.4812 211.889 10.8602 213.775 11.6182L214.031 11.7239C215.878 12.4769 217.433 13.4897 218.698 14.7621L218.896 14.9652C220.159 16.2287 221.115 17.7026 221.763 19.3868L221.868 19.6694C222.55 21.4339 222.892 23.2898 222.892 25.237C222.892 25.778 222.855 26.3363 222.783 26.9119C222.745 27.4529 222.69 27.9389 222.618 28.3697H202.674C202.783 29.8826 203.342 30.982 204.351 31.6678C205.359 32.3157 206.458 32.6397 207.647 32.6397C208.767 32.6397 209.813 32.3881 210.785 31.8849C211.795 31.3818 212.462 30.6804 212.786 29.7809L221.491 32.2675C220.339 34.5386 218.555 36.3944 216.141 37.835C213.762 39.2756 210.825 39.9959 207.329 39.9959V39.9783C204.843 39.9783 202.626 39.6001 200.68 38.8436C198.734 38.0509 197.094 36.9884 195.761 35.6561C194.464 34.3237 193.473 32.793 192.789 31.064C192.103 29.3353 191.761 27.5165 191.761 25.6076C191.761 23.555 192.085 21.6102 192.733 19.7733C193.415 17.9364 194.406 16.3339 195.705 14.9657C197.039 13.5968 198.66 12.5164 200.57 11.7244C202.513 10.8956 204.766 10.4812 207.326 10.4812ZM236.374 0.000516949V27.4454C236.374 29.6062 237.256 30.6866 239.02 30.6866C239.451 30.6866 239.92 30.6143 240.426 30.4695C240.93 30.3258 241.398 30.1276 241.833 29.875L243.13 38.1411C241.903 38.7176 240.514 39.1679 238.964 39.4918C237.451 39.8158 236.008 39.9778 234.637 39.9778C231.897 39.9778 229.788 39.2756 228.309 37.8712C226.831 36.4685 226.091 34.4352 226.091 31.7712V0.0041356L226.107 0.000516949H236.374ZM256.013 0.000516949V27.4454C256.013 29.6062 256.895 30.6866 258.659 30.6866C259.09 30.6866 259.559 30.6143 260.065 30.4695C260.569 30.3258 261.037 30.1276 261.472 29.875L262.769 38.1411C261.542 38.7176 260.153 39.1679 258.602 39.4918C257.089 39.8158 255.647 39.9778 254.276 39.9778C251.536 39.9778 249.428 39.2756 247.953 37.8712C246.475 36.4685 245.736 34.4352 245.736 31.7712V0.0041356L245.741 0.000516949H256.013ZM73.229 1.08146V15.2355H86.0959V1.08146H96.6365V39.4381H86.0959V24.4197H73.229V39.437H62.6884V1.08146H73.229ZM173.509 0V21.5568L181.077 11.0214H191.889L182.104 23.4468L192.861 39.4381H181.996L175.563 29.0655L173.509 31.3349V39.437H163.237V0H173.509ZM114.591 26.6886C113.329 26.6886 112.283 26.9936 111.453 27.6036C110.622 28.2136 110.207 28.9873 110.207 29.9247C110.207 30.7173 110.514 31.3652 111.127 31.8684C111.775 32.3715 112.585 32.6231 113.557 32.6231L113.567 32.6309C114.179 32.6309 114.81 32.5409 115.459 32.361C116.107 32.1446 116.684 31.8744 117.188 31.5505C117.585 31.2623 117.909 30.9561 118.162 30.6318C118.414 30.2717 118.54 29.9116 118.54 29.5514V27.4448C117.927 27.2288 117.26 27.0487 116.54 26.9046C115.816 26.7606 115.166 26.6886 114.591 26.6886ZM207.166 17.7743C205.867 17.7743 204.803 18.1706 203.976 18.9633C203.149 19.7559 202.644 20.8363 202.462 22.2045H211.87C211.688 20.8363 211.183 19.7559 210.356 18.9633C209.525 18.1706 208.462 17.7743 207.166 17.7743Z" fill="var(--fill-0, #333333)" fill-opacity="0.937"/>
<g id="Group_2">
<path id="Vector_2" d="M0 39.4895L12.7914 20.3149L0 1.13965H9.59355L22.3849 20.3149L9.59355 39.4895H0Z" fill="var(--fill-0, #453A62)"/>
<path id="Vector_3" d="M12.7914 39.4895L25.5828 20.3149L12.7914 1.13965H22.3849L47.9667 39.4895H38.3742L30.3801 27.5056L22.3844 39.4895H12.7914Z" fill="var(--fill-0, #5E5086)"/>
<path id="Vector_4" d="M43.7039 28.3046L39.4401 21.9125H54.3634V28.3051H43.7039V28.3046ZM37.3082 18.7178L33.0444 12.3257H54.3634V18.7178H37.3082Z" fill="var(--fill-0, #8F4E8B)"/>
</g>
</g>
</svg>
