<svg preserveAspectRatio="none" width="100%" height="100%" overflow="visible" style="display: block;" viewBox="0 0 191.209 40" fill="none" xmlns="http://www.w3.org/2000/svg">
<g id="Group">
<path id="Vector" d="M101.287 2.34394C101.944 2.34124 102.598 2.43443 103.229 2.62062C103.816 2.79501 104.36 3.09098 104.825 3.48931C105.311 3.92327 105.691 4.46282 105.937 5.06653C106.232 5.8169 106.372 6.61914 106.349 7.42509C106.341 7.95883 106.291 8.49108 106.199 9.01688C106.097 9.64777 105.961 10.332 105.786 11.0794C105.611 11.8268 105.408 12.6275 105.17 13.4719C104.932 14.3164 104.684 15.1753 104.408 16.0537C105.401 15.9858 106.521 15.9178 107.766 15.8499L111.517 15.6509C112.006 14.0333 112.55 12.3654 113.148 10.6475C113.747 8.92952 114.376 7.23744 115.036 5.57125C115.226 5.07341 115.524 4.62414 115.909 4.25608C116.258 3.93536 116.717 3.76152 117.191 3.77078C117.389 3.77096 117.587 3.79873 117.778 3.85328C117.956 3.91116 118.121 4.0035 118.263 4.12505C118.413 4.24848 118.529 4.40683 118.603 4.58609C118.688 4.79534 118.73 5.02007 118.724 5.24609C118.724 5.50379 118.711 5.76132 118.685 6.01772C118.651 6.35005 118.572 6.67637 118.452 6.98832C118.229 7.58524 117.967 8.22584 117.744 8.90526C117.521 9.58468 117.259 10.2835 116.982 11.0066C116.705 11.7297 116.472 12.4625 116.215 13.2099C115.958 13.9572 115.73 14.7143 115.482 15.4568L117.074 15.3452L118.103 15.2675H118.656C118.892 15.2608 119.128 15.2903 119.355 15.3549C119.514 15.401 119.659 15.486 119.777 15.6024C119.878 15.7068 119.95 15.8356 119.986 15.9761C120.026 16.1347 120.045 16.2978 120.044 16.4614C120.047 16.6322 120.001 16.8003 119.913 16.9467C119.83 17.078 119.719 17.1891 119.588 17.2718C119.461 17.3528 119.322 17.4119 119.176 17.4465C119.041 17.4779 118.905 17.499 118.768 17.5096L118.19 17.5776L117.943 17.6067H117.438L116.773 17.6649L115.754 17.7668L114.793 17.8785C114.47 19.0691 114.2 20.1755 113.983 21.1979C113.796 22.0774 113.693 22.9729 113.677 23.8719C113.647 24.4178 113.793 24.959 114.094 25.4152C114.43 25.8126 114.94 26.0195 115.458 25.9684C115.759 25.9562 116.054 25.8853 116.327 25.7597C116.736 25.5814 117.124 25.3601 117.487 25.0997C117.994 24.7428 118.48 24.3572 118.943 23.9447C119.476 23.4691 120.072 22.9045 120.728 22.251C120.758 22.3092 120.816 22.4451 120.903 22.6538C120.95 22.7667 121.001 22.8923 121.059 23.043C121.174 22.4431 121.306 21.8283 121.452 21.1979C121.651 20.3341 121.869 19.4751 122.097 18.6161C122.325 17.7571 122.524 16.9661 122.699 16.243C122.767 15.9929 122.907 15.7683 123.102 15.5975C123.306 15.4164 123.539 15.2705 123.791 15.1656C124.046 15.0548 124.313 14.9718 124.587 14.9181C124.833 14.8686 125.083 14.8426 125.334 14.8405C125.627 14.8062 125.923 14.8861 126.159 15.0637C126.31 15.2267 126.389 15.4437 126.377 15.6655C126.362 15.9756 126.313 16.2831 126.232 16.5827C126.135 16.9807 126.013 17.4368 125.868 17.9415C125.722 18.4463 125.567 18.9946 125.407 19.577C125.247 20.1594 125.086 20.7466 124.921 21.3289C124.756 21.9113 124.659 22.484 124.562 23.0372C124.471 23.532 124.423 24.0337 124.417 24.5368C124.404 24.8872 124.453 25.2372 124.562 25.5705C124.647 25.8202 124.892 25.979 125.154 25.9538C125.566 25.9367 125.965 25.813 126.314 25.5947C126.766 25.3366 127.198 25.0446 127.605 24.7212C128.042 24.3815 128.464 24.0272 128.882 23.6584C129.296 23.2924 129.657 22.9838 129.971 22.723C129.976 22.6826 129.982 22.6415 129.988 22.6004C130.1 21.8094 130.24 21.0426 130.405 20.3001C130.569 19.5805 130.783 18.8734 131.046 18.1842C131.275 17.5586 131.603 16.9737 132.017 16.4517C132.415 15.9635 132.911 15.5636 133.472 15.2772C134.104 14.9725 134.8 14.8243 135.501 14.8453C136.06 14.8405 136.616 14.9207 137.151 15.0831C137.651 15.2369 138.11 15.5005 138.495 15.8548C138.9 16.241 139.212 16.7138 139.408 17.2379C139.648 17.9032 139.762 18.6077 139.743 19.3149C139.744 19.9603 139.646 20.602 139.451 21.2173C139.249 21.85 138.944 22.4451 138.549 22.979C138.102 23.5722 137.576 24.1013 136.986 24.5513C136.29 25.0738 135.534 25.512 134.734 25.8568L134.86 26.1771C135.757 26.1854 136.651 26.0876 137.525 25.8859C138.193 25.7325 138.843 25.5087 139.464 25.2184C139.459 25.1612 139.459 25.1038 139.461 25.0463C139.46 24.8209 139.521 24.5996 139.636 24.4057C139.748 24.2126 139.885 24.0348 140.043 23.8768C140.186 23.729 140.34 23.5927 140.504 23.4691C140.66 23.3381 140.776 23.2653 140.854 23.1779C141.393 22.6926 141.824 22.3287 142.169 22.0181C142.514 21.7075 142.795 21.426 143.038 21.1736C143.271 20.9268 143.492 20.6676 143.698 20.3972C143.892 20.1351 144.13 19.8294 144.397 19.4702L145.367 18.1599C145.755 17.6455 146.257 16.9984 146.872 16.2187C147.002 16.0482 147.143 15.8862 147.294 15.7334C147.45 15.5698 147.623 15.4219 147.808 15.2918C148.002 15.1618 148.21 15.0559 148.429 14.9764C148.674 14.8918 148.932 14.8508 149.191 14.855C149.553 14.8383 149.916 14.8893 150.259 15.0055C150.472 15.0794 150.662 15.2063 150.812 15.3743C150.922 15.504 150.993 15.6622 151.016 15.8305C151.034 15.9673 151.044 16.105 151.045 16.243C151.03 16.52 150.933 16.7865 150.769 17.0098C150.582 17.2913 150.38 17.5619 150.162 17.8202C149.939 18.0823 149.73 18.3055 149.531 18.5385C149.386 18.6752 149.27 18.8404 149.191 19.0238C149.189 19.2968 149.21 19.5696 149.254 19.8391C149.297 20.0836 149.356 20.3251 149.429 20.5622C149.502 20.8 149.575 21.0475 149.652 21.3144C149.73 21.5813 149.803 21.887 149.876 22.2365C149.956 22.6325 150.014 23.0327 150.05 23.4351C150.094 23.8913 150.118 24.4057 150.118 25.0415C150.476 24.8059 150.851 24.5967 151.239 24.4155L152.491 23.8282C152.923 23.6244 153.37 23.4012 153.831 23.1537C154.065 23.0253 154.295 22.8891 154.52 22.7452L154.573 23.1197C154.375 21.7913 154.281 20.4494 154.292 19.1063C154.292 18.5304 154.316 17.914 154.365 17.2573C154.413 16.5973 154.481 15.947 154.564 15.3161C154.277 15.2772 154.054 15.2433 153.894 15.2093L153.384 15.1074C153.205 15.0734 152.982 15.0346 152.705 14.9958C152.428 14.957 152.03 14.9084 151.511 14.855C151.323 14.837 151.141 14.7791 150.977 14.6852C150.861 14.6137 150.766 14.5134 150.701 14.394C150.643 14.2876 150.608 14.1702 150.599 14.0494V13.7388C150.598 13.5493 150.708 13.3768 150.88 13.2972C151.108 13.1843 151.352 13.1089 151.603 13.074C151.924 13.0226 152.249 12.995 152.574 12.9915H154.457C154.633 13.0073 154.81 13.0073 154.986 12.9915C155.235 11.7118 155.559 10.4478 155.956 9.20614C156.316 8.08384 156.767 6.99308 157.306 5.94493C157.725 5.10274 158.273 4.33146 158.931 3.65916C159.41 3.13741 160.077 2.82824 160.785 2.80013C161.19 2.79716 161.586 2.91733 161.921 3.14474C162.275 3.38933 162.574 3.70501 162.799 4.07167C163.052 4.49244 163.24 4.94888 163.357 5.42566C163.487 5.95455 163.552 6.49717 163.551 7.0417C163.547 7.54656 163.478 8.04881 163.348 8.53643C163.209 9.09043 163.03 9.63375 162.814 10.1622C162.571 10.7284 162.297 11.2808 161.994 11.8171C161.683 12.3752 161.348 12.9332 161.023 13.4816C161.11 13.4816 161.256 13.4816 161.455 13.5059H162.159L163.022 13.5447L163.915 13.5787L164.726 13.6078L165.352 13.6369C165.535 13.6474 165.696 13.76 165.769 13.9281C165.864 14.1468 165.909 14.3839 165.9 14.6221C165.912 14.9242 165.808 15.2194 165.609 15.4471C165.455 15.6416 165.222 15.7572 164.973 15.7625H159.397C159.116 16.1508 158.834 16.5293 158.548 16.903C158.262 17.2767 158 17.6067 157.762 17.9076C157.723 18.5045 157.689 19.0917 157.66 19.6741C157.66 19.9216 157.66 20.1594 157.631 20.4457L157.602 21.2367C157.602 21.4988 157.602 21.722 157.577 21.9889C157.553 22.2559 157.577 22.4742 157.577 22.6538C157.568 23.0983 157.617 23.542 157.723 23.9738C157.8 24.2907 157.942 24.5881 158.14 24.8474C158.318 25.0665 158.551 25.2341 158.815 25.3327C159.1 25.4345 159.4 25.4854 159.703 25.4831C159.963 25.4728 160.22 25.4237 160.465 25.3375C160.806 25.2265 161.14 25.0936 161.465 24.9396C161.824 24.7697 162.207 24.5707 162.605 24.3378C163.003 24.1049 163.406 23.8525 163.794 23.5807C164.175 23.3138 164.547 23.0234 164.896 22.728C164.896 22.7145 164.896 22.7011 164.896 22.6878C164.899 22.1132 164.952 21.5399 165.056 20.9747C165.163 20.369 165.325 19.7744 165.541 19.1985C165.758 18.6208 166.033 18.0664 166.361 17.5436C166.677 17.0275 167.064 16.5586 167.511 16.1508C167.939 15.7482 168.431 15.4202 168.967 15.1802C169.541 14.9357 170.159 14.8134 170.782 14.8211C171.297 14.8163 171.809 14.9051 172.292 15.0831C172.738 15.2479 173.148 15.4966 173.5 15.8159C173.844 16.1342 174.116 16.5211 174.301 16.9515C174.5 17.4225 174.6 17.9299 174.592 18.4414C174.584 19.0658 174.433 19.6801 174.15 20.237C173.835 20.8627 173.422 21.4344 172.927 21.9307C172.374 22.4858 171.747 22.9625 171.064 23.3478C170.332 23.7721 169.547 24.0984 168.73 24.3184C168.852 24.5476 168.995 24.7652 169.157 24.9687C169.277 25.1256 169.421 25.263 169.584 25.3763C169.722 25.4708 169.877 25.5398 170.04 25.5802C170.208 25.6203 170.381 25.6399 170.554 25.6384C171.18 25.6301 171.799 25.5118 172.384 25.289C173.032 25.0544 173.659 24.7637 174.257 24.4203C174.857 24.0826 175.433 23.7032 175.98 23.2847C176.368 22.9954 176.742 22.6872 177.1 22.3613L177.091 22.4209C177.169 21.7948 177.271 21.1542 177.382 20.4797C177.494 19.8051 177.611 19.2082 177.737 18.621C177.863 18.0338 177.989 17.4902 178.115 17.0001C178.215 16.5868 178.34 16.18 178.489 15.782C178.552 15.6134 178.63 15.451 178.722 15.2967C178.789 15.1806 178.88 15.0798 178.989 15.0006C179.102 14.9234 179.232 14.8735 179.367 14.855C179.746 14.8097 180.129 14.8097 180.508 14.855C180.631 14.8682 180.743 14.9314 180.818 15.0297C180.896 15.1483 180.94 15.286 180.945 15.4277V17.4417C180.945 17.9464 180.954 18.4463 180.974 18.9413H181.134L181.784 17.6455C182.022 17.174 182.303 16.7256 182.624 16.3061C182.93 15.9029 183.297 15.5494 183.711 15.2578C184.121 14.971 184.612 14.8215 185.113 14.8308C185.297 14.8298 185.479 14.861 185.652 14.923C185.82 14.9817 185.975 15.0723 186.108 15.1899C186.241 15.3087 186.346 15.4543 186.419 15.617C186.499 15.7971 186.538 15.9925 186.535 16.1896C186.528 16.4208 186.504 16.6512 186.462 16.8787C186.414 17.1699 186.36 17.4805 186.302 17.8057C186.244 18.1308 186.191 18.4414 186.142 18.7423C186.098 18.994 186.074 19.2488 186.069 19.5042C186.063 19.7971 186.097 20.0895 186.171 20.3729C186.223 20.5744 186.314 20.7639 186.438 20.931C186.537 21.0608 186.667 21.1628 186.817 21.227C186.957 21.2853 187.107 21.315 187.258 21.3144C187.721 21.3081 188.178 21.2091 188.603 21.0232C189.045 20.8417 189.472 20.6242 189.879 20.3729C190.344 20.0801 190.788 19.7558 191.209 19.4023L190.99 22.7994C190.743 22.9644 190.456 23.1488 190.141 23.3478C189.811 23.5589 189.469 23.7501 189.117 23.9204C188.754 24.1008 188.378 24.2517 187.991 24.3718C187.603 24.4917 187.199 24.5522 186.792 24.5513C186.179 24.5812 185.571 24.4274 185.045 24.1097C184.601 23.8183 184.237 23.4193 183.987 22.9498C183.715 22.4462 183.518 21.9048 183.405 21.3435C183.284 20.7514 183.182 20.1497 183.104 19.543H182.871L180.28 26.7643C180.169 27.0832 180.041 27.3959 179.896 27.7009C179.796 27.9146 179.672 28.1165 179.527 28.3027C179.418 28.4411 179.279 28.5524 179.12 28.6279C178.967 28.6932 178.801 28.7247 178.635 28.7201C178.293 28.7397 177.953 28.6514 177.664 28.4677C177.42 28.2952 177.228 28.0606 177.106 27.7883C176.971 27.4799 176.884 27.1525 176.849 26.8177C176.831 26.6029 176.821 26.3877 176.818 26.1723C176.72 26.2461 176.619 26.3189 176.519 26.3906C176.101 26.6818 175.655 26.9633 175.179 27.2447C174.695 27.5289 174.19 27.7771 173.67 27.9873C173.14 28.2077 172.593 28.383 172.034 28.5114C171.48 28.6497 170.912 28.7246 170.341 28.7346C169.52 28.7537 168.706 28.5878 167.958 28.2493C167.301 27.9377 166.721 27.4854 166.259 26.9245C165.958 26.5516 165.706 26.1432 165.508 25.7091C164.731 26.1595 164.031 26.5619 163.406 26.9099C162.683 27.3127 162.037 27.6524 161.465 27.9242C160.978 28.1621 160.475 28.3648 159.96 28.5308C159.574 28.6574 159.172 28.7261 158.766 28.7346C158.062 28.7448 157.375 28.5098 156.825 28.0698C156.21 27.5524 155.727 26.8951 155.418 26.1528C155.331 25.9492 155.251 25.7435 155.176 25.5358L155.214 25.5074C154.562 26.0026 153.867 26.4379 153.137 26.808C152.335 27.2213 151.507 27.5796 150.657 27.8805C149.813 28.1825 148.949 28.4241 148.07 28.6036C147.243 28.774 146.401 28.8634 145.556 28.8705C145.022 28.874 144.488 28.8204 143.965 28.7104C143.508 28.6236 143.07 28.4595 142.669 28.2251C142.301 28.0054 141.992 27.7009 141.766 27.337C141.73 27.2771 141.696 27.216 141.664 27.1539C141.288 27.4273 140.891 27.6702 140.475 27.8805C139.949 28.146 139.398 28.359 138.83 28.5162C138.277 28.6724 137.706 28.7525 137.132 28.754C137.047 28.7521 136.962 28.7423 136.879 28.7249L136.37 28.6036L135.292 28.4095C134.807 28.327 134.186 28.2299 133.385 28.1134V28.3706C133.4 29.9765 133.252 31.5798 132.943 33.1557C132.707 34.4335 132.309 35.6761 131.759 36.8537C131.355 37.7332 130.777 38.5222 130.061 39.1734C129.525 39.6823 128.82 39.976 128.081 39.9984C127.589 40.0168 127.105 39.8736 126.703 39.5908C126.323 39.3075 126.022 38.9315 125.829 38.4989C125.589 37.9904 125.425 37.449 125.344 36.8925C125.25 36.2497 125.205 35.6009 125.208 34.9513C125.215 34.4987 125.279 34.0488 125.397 33.6119C125.526 33.0813 125.688 32.5593 125.882 32.0492C126.096 31.5008 126.334 30.9476 126.601 30.3846C126.868 29.8217 127.139 29.2685 127.416 28.7395C127.75 28.1027 128.112 27.4551 128.5 26.7968L128.683 26.6721C128.151 27.0445 127.593 27.3786 127.013 27.6718C126.431 27.97 125.828 28.2247 125.208 28.4337C124.635 28.6247 124.036 28.7262 123.432 28.7346C123 28.7472 122.57 28.6763 122.165 28.5259C121.84 28.4039 121.551 28.202 121.325 27.9387C121.104 27.673 120.947 27.3588 120.869 27.0215C120.793 26.714 120.748 26.4 120.733 26.0841C120.38 26.4109 120.014 26.7252 119.637 27.0264C118.965 27.566 118.253 28.0527 117.506 28.4823C116.878 28.8441 116.215 29.1401 115.526 29.3655C114.962 29.5527 114.373 29.6526 113.779 29.6615C113.197 29.6671 112.62 29.5514 112.085 29.3218C111.569 29.1001 111.107 28.7689 110.731 28.3512C110.332 27.8788 110.026 27.3355 109.829 26.7497C109.597 26.0522 109.485 25.3203 109.499 24.5853C109.503 24.2312 109.53 23.8778 109.581 23.5273C109.639 23.1051 109.727 22.6198 109.838 22.0715C109.95 21.5231 110.081 20.9407 110.241 20.3001C110.401 19.6595 110.576 18.9801 110.77 18.2618L107.048 18.6404L103.505 18.9752C103.233 19.7873 102.965 20.58 102.7 21.3532C102.433 22.1297 102.18 22.8625 101.933 23.5419C101.685 24.2213 101.448 24.8425 101.253 25.4103L100.724 26.8662C100.395 27.6666 99.9265 28.4025 99.3413 29.0404C99.0305 29.3938 98.6002 29.6201 98.1329 29.6761C97.9014 29.6765 97.6716 29.6371 97.4535 29.5596C97.237 29.4849 97.035 29.3732 96.8566 29.2296C96.6839 29.0857 96.5434 28.9071 96.4441 28.7055C96.3408 28.4941 96.2893 28.2613 96.2936 28.0261C96.2932 27.8737 96.3128 27.722 96.3519 27.5748C96.7595 26.0994 97.2011 24.6743 97.6767 23.2993C98.1523 21.9242 98.6376 20.5848 99.1326 19.281C98.6206 19.2835 98.1092 19.2429 97.6039 19.1596C97.1345 19.083 96.6785 18.9391 96.2499 18.7326C95.8313 18.5252 95.4559 18.2403 95.1435 17.893C94.7932 17.492 94.52 17.0297 94.3379 16.5293C94.299 16.3595 94.2699 16.2042 94.2457 16.044C94.221 15.9112 94.208 15.7764 94.2068 15.6412C94.2068 15.2142 94.3573 15.0006 94.6582 15.0006C94.8893 15.0235 95.1045 15.1286 95.2648 15.2967C95.576 15.5959 95.8617 15.9205 96.1189 16.2673C96.5751 16.2673 97.0264 16.2333 97.4826 16.2236C97.9388 16.2139 98.4192 16.2236 98.9385 16.2236H100.326C100.676 15.3274 100.999 14.4603 101.297 13.6224C101.595 12.7844 101.886 11.9675 102.171 11.1716C102.333 10.6689 102.464 10.1568 102.564 9.63806C102.653 9.15785 102.7 8.67066 102.704 8.18216C102.71 7.83325 102.675 7.48488 102.603 7.14362C102.568 6.83689 102.465 6.54179 102.302 6.27978C102.149 6.05993 101.946 5.88012 101.71 5.75566C101.43 5.62173 101.122 5.55683 100.812 5.56639C100.471 5.57347 100.132 5.62237 99.8023 5.71198C99.3659 5.83397 98.9419 5.99645 98.5357 6.19728C98.015 6.44965 97.5109 6.73493 97.0264 7.05141C96.4115 7.45636 95.8186 7.89375 95.2502 8.36172C95.0654 8.52254 94.8577 8.65501 94.6339 8.75481C94.4733 8.82661 94.3002 8.86618 94.1243 8.87129C94.0467 8.87129 93.9884 8.74026 93.9496 8.48305C93.9068 8.16948 93.8873 7.85316 93.8914 7.53671C93.8859 7.02942 94.0077 6.52885 94.2457 6.08081C94.4984 5.61311 94.8263 5.19011 95.2163 4.82874C95.631 4.43803 96.0865 4.09309 96.5751 3.7999C97.083 3.49137 97.6153 3.22517 98.1669 3.00401C98.6958 2.79673 99.2413 2.63439 99.7975 2.51871C100.287 2.4081 100.786 2.34953 101.287 2.34394ZM81.5502 0C82.4311 0.00376401 83.2965 0.232627 84.0641 0.664861C84.9443 1.18201 85.6828 1.90891 86.2139 2.78077C86.9201 3.93735 87.4285 5.20354 87.7184 6.52729C88.1384 8.341 88.342 10.1981 88.325 12.0597C88.325 13.6321 88.27 15.1252 88.16 16.539C88.05 17.9529 87.8882 19.3069 87.6747 20.601C88.2619 20.965 88.8588 21.3241 89.4654 21.6687C90.0721 22.0132 90.6787 22.3675 91.295 22.712L91.7803 22.9887C91.9696 23.0954 92.1492 23.2071 92.3287 23.3284C92.4909 23.4364 92.6436 23.5582 92.7849 23.6924C92.8891 23.7709 92.9574 23.8881 92.9742 24.0175C92.9686 24.1228 92.9256 24.2226 92.8528 24.299C92.7649 24.3959 92.6673 24.4837 92.5617 24.561C92.4545 24.6375 92.3427 24.7072 92.2268 24.7697L91.9745 24.9008C91.7759 24.9938 91.5577 25.0372 91.3387 25.0269C90.6938 25.0024 90.0546 24.8964 89.4363 24.7115C88.6246 24.4781 87.8287 24.1928 87.0535 23.8574C86.6649 25.5265 86.154 27.1648 85.5248 28.7589C84.9842 30.1363 84.3351 31.4686 83.5836 32.7432C82.9395 33.839 82.1902 34.8694 81.3464 35.82C80.6311 36.63 79.8305 37.3605 78.9587 37.999C78.2143 38.5446 77.3977 38.984 76.5322 39.3045C75.7977 39.5799 75.0211 39.726 74.2367 39.7364C73.5025 39.7347 72.7779 39.5689 72.116 39.2511C71.4499 38.9285 70.8683 38.4549 70.4174 37.868C69.8986 37.1853 69.5118 36.4117 69.277 35.5871C68.9828 34.565 68.8373 33.5059 68.845 32.4423C68.8574 31.079 69.1104 29.7285 69.5924 28.4531C70.1036 27.0703 70.8184 25.7716 71.7132 24.5999C72.6566 23.3657 73.773 22.2739 75.0278 21.3581C76.3399 20.4001 77.803 19.6685 79.3566 19.1936C78.5494 18.5405 77.7813 17.8405 77.0563 17.0971C76.3702 16.4014 75.7451 15.648 75.1879 14.8453C74.6817 14.1252 74.2614 13.3483 73.9358 12.5304C73.6384 11.7913 73.4836 11.0026 73.4797 10.2059C73.4743 9.25955 73.5835 8.31606 73.8048 7.39597C74.0091 6.54267 74.3104 5.71552 74.7026 4.93065C75.0687 4.1953 75.5234 3.50753 76.0566 2.88268C76.5502 2.29497 77.1141 1.77014 77.7357 1.32002C78.3101 0.907877 78.9411 0.580961 79.609 0.349416C80.2313 0.122676 80.8879 0.00448677 81.5502 0ZM130.085 28.4629C129.883 28.8214 129.705 29.1926 129.551 29.5742C129.377 29.9915 129.215 30.4283 129.066 30.8845C128.915 31.3358 128.775 31.7872 128.649 32.2433C128.522 32.6995 128.416 33.1169 128.323 33.51C128.231 33.9031 128.158 34.2379 128.105 34.5243C128.053 34.72 128.017 34.9196 127.998 35.1212C128.004 35.2469 128.02 35.3719 128.047 35.4949C128.083 35.6733 128.139 35.8474 128.212 36.0141C128.285 36.1922 128.389 36.3563 128.518 36.4994C128.64 36.6371 128.819 36.712 129.003 36.7032C129.175 36.6922 129.328 36.5906 129.406 36.4363C129.529 36.2115 129.617 35.9693 129.668 35.7181C129.741 35.384 129.789 35.045 129.813 34.7038C129.842 34.3301 129.862 33.9419 129.881 33.5439C129.901 33.146 129.915 32.7626 129.92 32.3889C129.925 32.0152 129.92 31.6755 129.954 31.3747C129.983 30.8554 130.007 30.4041 130.022 30.0498C130.037 29.6955 130.046 29.3849 130.056 29.1471C130.066 28.9093 130.056 28.6618 130.085 28.4629ZM82.8702 21.6832C81.8866 21.8762 80.9376 22.2165 80.0555 22.6926C79.1663 23.1665 78.3315 23.7361 77.5659 24.3912C76.8022 25.0406 76.1062 25.7658 75.4888 26.5556C74.8935 27.3037 74.3626 28.1008 73.9019 28.9384C73.4839 29.6861 73.1441 30.4749 72.8876 31.2922C72.6729 31.9639 72.56 32.664 72.5527 33.3692C72.4982 34.1571 72.699 34.9417 73.1254 35.6065C73.4715 36.097 74.0394 36.3827 74.6395 36.3684C75.4273 36.3116 76.1798 36.019 76.7991 35.5288C77.7542 34.8127 78.5756 33.9338 79.2256 32.9325C80.1506 31.527 80.9234 30.0271 81.5308 28.458C82.3523 26.3737 82.9794 24.2178 83.4041 22.0181L82.8702 21.6832ZM146.425 21.3532L142.998 24.7353L143.019 25.1719C143.044 25.1942 143.066 25.2187 143.086 25.2453C143.227 25.3909 143.392 25.5511 143.572 25.7306C143.768 25.9139 143.983 26.0765 144.212 26.2159C144.461 26.3643 144.747 26.44 145.037 26.4343C145.358 26.4454 145.678 26.3805 145.969 26.245C146.202 26.1342 146.403 25.9675 146.556 25.7597C146.706 25.542 146.81 25.296 146.862 25.0366C146.917 24.752 146.945 24.4627 146.944 24.1728C146.945 23.9068 146.929 23.6409 146.896 23.3769C146.864 23.1084 146.82 22.8512 146.765 22.6053C146.711 22.3578 146.653 22.12 146.59 21.9113C146.527 21.7026 146.474 21.5085 146.425 21.3532ZM135.719 17.529C135.382 17.5234 135.052 17.6273 134.778 17.8251C134.49 18.0422 134.251 18.3165 134.074 18.6307C133.86 19.0086 133.697 19.4133 133.589 19.8342C133.452 20.3238 133.345 20.8213 133.269 21.3241C133.186 21.8531 133.128 22.4063 133.094 22.979C133.06 23.5516 133.036 24.1291 133.036 24.7212C133.571 24.4594 134.073 24.1335 134.53 23.7506C134.936 23.4119 135.3 23.0276 135.617 22.6053C135.917 22.2086 136.169 21.7787 136.37 21.3241C136.561 20.893 136.715 20.4466 136.831 19.9895C136.885 19.7453 136.917 19.4968 136.928 19.247C136.944 18.9755 136.915 18.7031 136.84 18.4414C136.771 18.1977 136.641 17.9757 136.462 17.796C136.26 17.6114 135.993 17.5153 135.719 17.529ZM169.307 18.4463C169.101 18.6982 168.937 18.9817 168.822 19.2858C168.702 19.5924 168.609 19.9091 168.545 20.2322C168.487 20.5385 168.446 20.848 168.424 21.1591C168.403 21.4211 168.4 21.644 168.4 21.8368L168.4 21.9404C168.792 21.9313 169.179 21.8404 169.535 21.6735C169.945 21.4951 170.331 21.2634 170.68 20.9844C171.018 20.7239 171.317 20.4167 171.569 20.072C171.794 19.7976 171.922 19.4563 171.933 19.1014C171.948 18.7309 171.866 18.3627 171.695 18.0338C171.594 17.7934 171.367 17.63 171.107 17.6115C170.409 17.5877 169.74 17.8976 169.307 18.4463ZM81.8705 3.05739C81.4931 3.06202 81.1215 3.15159 80.7834 3.31945C80.3959 3.50806 80.0365 3.7498 79.7158 4.0377C79.355 4.35612 79.0296 4.71244 78.7452 5.1005C78.4345 5.50475 78.1646 5.93879 77.9396 6.39626C77.7137 6.85026 77.5317 7.32477 77.396 7.81333C77.2592 8.2899 77.1889 8.78311 77.1873 9.27894C77.1844 10.0714 77.3498 10.8555 77.6727 11.5793C78.048 12.3945 78.5294 13.1565 79.1043 13.8456C79.7657 14.6458 80.493 15.3893 81.2784 16.0683C82.1164 16.8027 83.0417 17.5274 84.0544 18.2424C84.2194 16.8998 84.3504 15.4875 84.4474 14.0058C84.5445 12.524 84.593 10.9484 84.593 9.27894C84.6068 8.31183 84.5337 7.34544 84.3747 6.3914C84.2709 5.72001 84.0732 5.06654 83.7874 4.4502C83.5992 4.02265 83.2991 3.6538 82.9188 3.38254C82.6089 3.17353 82.2443 3.06044 81.8705 3.05739ZM160.504 6.03713C160.256 6.03713 160.018 6.26037 159.747 6.70199C159.446 7.24428 159.198 7.81482 159.009 8.4054C158.77 9.09452 158.548 9.85321 158.344 10.6815C158.14 11.5097 157.949 12.3185 157.771 13.108L158.203 13.1565L158.655 13.205C158.941 12.7197 159.242 12.181 159.557 11.6084C159.873 11.0357 160.154 10.4679 160.407 9.91468C160.659 9.36144 160.863 8.84217 161.028 8.35687C161.165 7.97483 161.24 7.57352 161.251 7.16788C161.257 7.04826 161.257 6.92838 161.251 6.80876C161.238 6.68214 161.207 6.55801 161.159 6.43993C161.109 6.32651 161.03 6.2279 160.931 6.15361C160.805 6.0682 160.655 6.02719 160.504 6.03713ZM126.363 8.35202C126.69 8.34839 127.016 8.38755 127.333 8.46849C127.615 8.53662 127.882 8.65677 128.12 8.82276C128.344 8.98635 128.524 9.20315 128.644 9.45365C128.782 9.74269 128.85 10.0603 128.843 10.3806C128.845 10.7108 128.791 11.0391 128.683 11.3512C128.58 11.657 128.415 11.9381 128.197 12.1762C127.947 12.4283 127.648 12.6265 127.319 12.7585C126.916 12.9188 126.485 12.9964 126.052 12.9866C125.37 13.0416 124.693 12.8254 124.169 12.3849C123.732 11.9631 123.492 11.3764 123.509 10.7688C123.516 10.5118 123.565 10.2577 123.655 10.0166C123.762 9.7247 123.927 9.45736 124.14 9.23041C124.382 8.96266 124.678 8.74929 125.009 8.60437C125.437 8.42424 125.899 8.33818 126.363 8.35202Z" fill="var(--fill-0, #343333)"/>
<g id="Group_2">
<path id="Vector_2" d="M33.9132 18.4992C33.9132 18.4992 5.11059 1.78548 2.621 12.1806C0.131413 22.5757 -2.66877 30.4764 5.00383 31.9372C12.6764 33.3979 33.9132 18.4992 33.9132 18.4992Z" fill="var(--fill-0, #3474AB)"/>
<path id="Vector_3" d="M28.934 15.9853C37.1841 11.7147 53.529 4.39638 55.3974 12.1466C57.9112 22.5757 60.7357 30.5104 53.0728 32.0003C47.6957 33.0436 35.602 25.9922 28.8952 21.7119C28.8854 16.6454 28.9437 20.9791 28.934 15.9853Z" fill="var(--fill-0, #4289C7)"/>
</g>
</g>
</svg>
