<svg preserveAspectRatio="none" width="100%" height="100%" overflow="visible" style="display: block;" viewBox="0 0 120.703 40" fill="none" xmlns="http://www.w3.org/2000/svg">
<g id="Group">
<path id="Vector" d="M55.4186 0H51.7217V4.68127H55.4186V0Z" fill="var(--fill-0, #F7941E)"/>
<path id="Vector_2" d="M70.8376 8.39453C73.5705 8.39453 75.7908 9.47929 77.498 11.6499C79.206 13.8201 80.0595 16.673 80.0595 20.2087C80.0595 23.7457 79.206 26.5986 77.498 28.7681C75.7908 30.9377 73.5705 32.0235 70.8376 32.0235C69.1902 32.0235 67.7737 31.6986 66.5881 31.0486C65.4026 30.3996 64.4208 29.4048 63.6442 28.0648V40H59.9273V8.93691H63.6442V12.3529C64.4215 11.014 65.4033 10.0188 66.5881 9.36907C67.7737 8.72047 69.1902 8.39453 70.8376 8.39453ZM11.0303 8.39598C14.058 8.39598 16.4519 9.37052 18.2132 11.3196C19.9752 13.2669 20.8558 15.916 20.8558 19.2646V21.0723H3.85756C4.01781 23.6185 4.78497 25.5567 6.15795 26.889C7.5313 28.2225 9.4434 28.8881 11.8943 28.8881C13.314 28.8881 14.6902 28.7145 16.0237 28.3668C17.3565 28.0191 18.6783 27.4959 19.9918 26.7991V30.2959C18.6656 30.8586 17.3061 31.2872 15.9128 31.5823C14.5195 31.8767 13.1066 32.0242 11.6735 32.0242C8.08383 32.0242 5.24069 30.9797 3.14442 28.8896C1.04814 26.7998 5.03944e-06 23.9748 5.03944e-06 20.4117C5.03944e-06 16.7282 0.994484 13.8042 2.98344 11.6412C4.97241 9.4782 7.65529 8.39598 11.0303 8.39598ZM110.878 8.39598C113.905 8.39598 116.3 9.37052 118.061 11.3196C119.822 13.2669 120.703 15.916 120.703 19.2646V21.0723H103.705C103.865 23.6185 104.632 25.5567 106.006 26.889C107.378 28.2225 109.291 28.8881 111.741 28.8881C113.162 28.8881 114.538 28.7145 115.871 28.3668C117.204 28.0191 118.526 27.4959 119.839 26.7991V30.2959C118.513 30.8586 117.153 31.2872 115.76 31.5823C114.367 31.8767 112.954 32.0242 111.522 32.0242C107.931 32.0242 105.088 30.9797 102.993 28.8896C100.896 26.7998 99.8476 23.9748 99.8476 20.4117C99.8476 16.7282 100.842 13.8042 102.831 11.6412C104.82 9.47784 107.504 8.39598 110.878 8.39598ZM33.5415 8.39453C34.6806 8.39453 35.7922 8.51272 36.8773 8.74657C37.9625 8.98078 39.0139 9.33282 40.0323 9.8016V13.2571C38.987 12.6813 37.9393 12.2495 36.8879 11.9613C35.8357 11.6731 34.7745 11.5295 33.7028 11.5295C31.3049 11.5295 29.4432 12.2894 28.1177 13.8096C26.7915 15.3298 26.1284 17.4634 26.1284 20.2087C26.1284 22.9546 26.7915 25.0882 28.1177 26.6084C29.4432 28.1293 31.3049 28.8885 33.7028 28.8885C34.7745 28.8885 35.8357 28.7449 36.8879 28.4578C37.9385 28.1696 38.987 27.7378 40.0323 27.1613V30.5766C39.0005 31.0587 37.932 31.4206 36.8273 31.6613C35.7215 31.9028 34.5472 32.0231 33.3008 32.0231C29.9116 32.0231 27.2197 30.958 25.2242 28.8283C23.228 26.6991 22.2302 23.8258 22.2302 20.2087C22.2302 16.5393 23.2378 13.6523 25.2539 11.5491C27.2697 9.44666 30.0331 8.39453 33.5415 8.39453ZM90.2541 8.39417C91.6205 8.39417 92.9061 8.4946 94.112 8.69509C95.3182 8.89739 96.4298 9.19831 97.4482 9.60038V13.0965C96.4026 12.561 95.3182 12.1589 94.1928 11.8906C93.0675 11.6231 91.9022 11.4893 90.6967 11.4893C88.8615 11.4893 87.4856 11.7703 86.5673 12.3333C85.6497 12.8956 85.1918 13.7396 85.1918 14.8646C85.1918 15.7213 85.5188 16.395 86.1757 16.884C86.8319 17.3728 88.1509 17.8379 90.1341 18.2806L91.3994 18.5616C94.0246 19.1246 95.8903 19.9175 96.9954 20.9428C98.1008 21.9674 98.6533 23.3973 98.6533 25.2318C98.6533 27.3216 97.826 28.9755 96.1709 30.1948C94.517 31.413 92.2434 32.0231 89.3502 32.0231C88.1451 32.0231 86.8889 31.9057 85.5822 31.6718C84.276 31.4376 82.9008 31.0856 81.4531 30.6168V26.7988C82.8203 27.5097 84.1657 28.0416 85.4919 28.3969C86.8182 28.7518 88.1306 28.9288 89.43 28.9288C91.1717 28.9288 92.5102 28.6315 93.4485 28.0351C94.3864 27.4383 94.8545 26.5983 94.8545 25.5135C94.8545 24.5089 94.5166 23.7388 93.8408 23.2022C93.1639 22.6668 91.6803 22.1508 89.3894 21.6549L88.1041 21.354C85.8139 20.8718 84.1592 20.1318 83.1415 19.134C82.1235 18.1363 81.6144 16.7669 81.6144 15.0249C81.6144 12.9083 82.3646 11.2746 83.8648 10.1228C85.3651 8.97063 87.495 8.39417 90.2541 8.39417ZM47.073 0.176928V31.4405H43.3754V0.176928H47.073ZM55.4186 8.93691V31.4405H51.7217V8.93691H55.4186ZM69.9327 11.4893C67.9767 11.4893 66.4395 12.2626 65.3217 13.8096C64.2033 15.357 63.6435 17.4895 63.6435 20.2087C63.6435 22.9285 64.2033 25.0621 65.3217 26.6084C66.4395 28.1562 67.9767 28.9288 69.9327 28.9288C71.889 28.9288 73.4259 28.1554 74.5443 26.6084C75.6628 25.0621 76.2222 22.9285 76.2222 20.2087C76.2222 17.4895 75.6628 15.3566 74.5443 13.8096C73.4259 12.2626 71.889 11.4893 69.9327 11.4893ZM11.0709 11.5295C9.00797 11.5295 7.35691 12.1121 6.11807 13.2777C4.87887 14.4426 4.16573 16.0839 3.97829 18.1998L17.1589 18.1798C17.1317 16.1575 16.5657 14.5431 15.461 13.3379C14.3556 12.1321 12.8924 11.5295 11.0709 11.5295ZM110.918 11.5295C108.856 11.5295 107.204 12.1121 105.966 13.2777C104.726 14.4426 104.012 16.0839 103.825 18.1998L117.006 18.1798C116.978 16.1575 116.413 14.5431 115.308 13.3379C114.202 12.1321 112.738 11.5295 110.918 11.5295Z" fill="var(--fill-0, #2C2255)"/>
</g>
</svg>
