<svg preserveAspectRatio="none" width="100%" height="100%" overflow="visible" style="display: block;" viewBox="0 0 215.703 40" fill="none" xmlns="http://www.w3.org/2000/svg">
<g id="Group">
<path id="Vector" d="M66.5751 34.0828C66.5751 34.0828 70.0049 32.6704 70.0049 26.5582C70.0049 20.2098 66.5738 18.5649 66.5738 18.5649V34.0828H66.5751ZM200.512 23.6259V14.7239C200.512 14.7239 198.934 14.8076 198.934 12.9027V11.1978H206.294C209.731 11.1978 215.703 12.0977 215.703 19.6623C215.703 21.3072 215.546 28.7531 207.529 28.7531C205.716 28.7531 204.638 28.0481 204.638 28.0481V36.2539C204.638 39.6575 200.512 39.255 200.512 39.255V28.0069C199.642 28.5381 198.533 28.9093 197.159 28.9093C194.151 28.9093 192.376 26.6757 192.376 24.0896V17.3512C192.376 15.0388 190.372 14.7251 189.793 14.7251C187.441 14.7251 186.134 16.8412 186.134 19.2711V28.4406H182.046V17.3512C182.046 15.0388 180.193 14.7251 179.615 14.7251C177.38 14.7251 176.067 16.8412 176.067 19.2711V28.4406H171.947V28.0356C171.089 28.5519 170.005 28.9106 168.667 28.9106C166.585 28.9106 165.08 27.8131 164.58 26.207C164.541 26.0895 164.541 26.0507 164.501 26.0507L164.384 26.1682C163.306 28.0881 161.111 29.1843 158.798 29.1843C156.128 29.1843 154.529 27.9744 153.575 26.4595C152.309 27.8019 150.032 29.1468 146.418 29.1468C143.041 29.1468 140.944 28.0169 139.651 26.512C138.865 27.6732 137.418 28.9118 135.083 28.9118C132.192 28.9118 131.653 26.207 131.653 26.207C131.613 26.0895 131.574 26.0895 131.534 26.0895L131.423 26.1682C130.339 28.0881 128.296 29.0681 125.982 29.0681C123.208 29.0681 121.56 27.8007 120.587 26.2395C119.159 27.6532 116.55 29.1456 112.721 29.1456C108.444 29.1456 106.079 27.7532 104.773 26.0057C103.402 27.4832 100.721 29.1456 96.6822 29.1456C87.2715 29.1456 87.1202 22.4059 87.1202 19.9761C87.1202 14.4114 90.59 10.4928 95.9523 10.4928H95.9848C96.531 10.4928 101.768 10.5716 101.768 16.0575V16.0975C101.768 16.645 101.617 22.3284 93.6724 22.3284C93.2124 22.3284 92.135 22.2497 91.865 22.171L91.7862 22.2097C91.7862 22.4059 91.8987 25.697 97.5297 25.697C99.5633 25.697 101.843 24.9608 103.406 22.8372C103.173 21.7047 103.161 20.666 103.161 19.9761C103.161 14.4114 106.63 10.4928 111.985 10.4928H112.025C112.564 10.4928 117.807 10.5716 117.807 16.0575V16.0975C117.807 16.645 117.657 22.3284 109.712 22.3284C109.252 22.3284 108.174 22.2497 107.905 22.171L107.827 22.2097C107.827 22.4059 107.938 25.697 113.569 25.697C115.581 25.697 117.835 24.9771 119.395 22.9059C119.295 22.3136 119.243 21.7142 119.24 21.1135C119.24 16.0975 121.822 10.4928 129.76 10.4928C130.109 10.4928 130.497 10.5328 130.878 10.5328V3.87068C130.878 3.87068 130.773 0.344618 133.355 0.344618H134.965V22.7184C134.965 23.0722 135.004 24.6783 136.509 24.6783C137.004 24.6783 137.626 24.4258 138.119 23.6371C137.815 22.6008 137.662 21.526 137.665 20.446C137.665 17.6637 138.631 10.5328 147.653 10.5328C149.697 10.5328 151.472 11.1203 151.472 11.1203V14.7326C151.472 17.4425 147.922 17.0762 147.922 17.0762V14.4114C147.922 14.4114 147.456 14.1764 146.61 14.1764C144.643 14.1764 141.91 15.8225 141.91 20.3685C141.91 23.3084 143.685 25.5808 147.115 25.5808C148.731 25.5808 150.839 24.9446 152.339 22.9097C152.249 22.3152 152.203 21.7148 152.2 21.1135C152.2 16.0975 154.789 10.4928 162.727 10.4928C165.08 10.4928 167.932 11.199 167.932 11.2378V22.4059C167.932 23.2284 168.241 24.7571 169.825 24.7571C170.462 24.7571 171.272 24.5158 171.947 23.6996V14.7251C171.947 14.7251 170.323 14.6789 170.323 12.8564V11.1978H173.661C176.008 11.1978 176.067 12.8439 176.067 12.8439C176.067 12.8439 177.572 10.8066 180.733 10.8066C182.664 10.8066 184.47 11.354 185.397 13.1952C185.397 13.1952 185.397 13.2352 185.476 13.2352L185.555 13.1564C185.667 12.9602 187.021 10.8066 190.911 10.8066C193.921 10.8066 196.463 12.4515 196.463 16.1738C196.463 16.1738 196.424 22.131 196.424 22.4834C196.424 23.3459 196.772 24.7171 198.349 24.7171C199.007 24.7171 199.824 24.4796 200.512 23.6259ZM62.599 14.6451C62.599 14.6451 60.7129 14.8763 60.7129 12.9952V11.1965H62.559C62.559 7.04176 62.599 5.12186 62.599 5.00437C62.599 -1.14655 71.0686 0.104631 71.0686 0.104631C71.0686 0.104631 70.8061 3.59319 68.8875 3.59319C66.9626 3.59319 66.5751 4.96562 66.5751 5.59309V11.1965H72.0485C72.0485 11.1965 72.2185 14.6439 69.9649 14.6439H69.3074C67.9613 14.6439 66.7251 14.6439 66.6463 14.6826C67.0338 14.8413 73.5135 17.1912 73.5135 26.5182C73.5122 37.7664 62.599 40 62.599 40V14.6451ZM76.0433 11.1978C78.8944 11.1978 78.1782 14.1751 78.1782 14.1751C78.1782 14.1751 78.1782 14.3326 78.2507 14.3326C78.2907 14.3326 78.3294 14.2939 78.4082 14.1751C78.4882 14.0576 80.6031 10.6878 85.1178 10.6878C85.4666 10.6878 86.1953 10.7266 86.4253 10.8841V15.6476C86.4253 18.1199 82.9555 17.8599 82.9555 17.8599V15.1163C81.4905 15.1163 80.4518 16.0563 79.7556 17.0362C78.5207 18.7999 78.4082 21.2685 78.4082 22.0522V28.4394H74.2822V11.1978H76.0433ZM111.409 14.0189C108.827 14.0189 107.479 16.4875 107.479 18.7599C107.479 18.8386 107.907 19.0349 109.293 19.0349C113.57 19.0349 113.649 16.37 113.649 15.9788C113.649 14.1364 111.954 14.0189 111.409 14.0189ZM130.879 14.2939C130.879 14.2939 130.34 14.0576 128.954 14.0576C127.067 14.0576 123.558 15.5076 123.558 20.5235C123.558 21.5422 123.598 24.9521 126.798 24.9521C129.413 24.9521 130.879 22.6784 130.879 20.6798V14.2926V14.2939ZM163.846 14.2939C163.846 14.2939 163.307 14.0576 161.921 14.0576C160.028 14.0576 156.519 15.5076 156.519 20.5235C156.519 21.5422 156.558 24.9908 159.759 24.9908C162.38 24.9908 163.846 22.6784 163.846 20.6798V14.2926V14.2939ZM205.795 14.6839C205.414 14.6839 205.026 14.6839 204.639 14.7239V24.1283C204.639 24.1283 205.256 25.2258 207.339 25.2258C210.579 25.2258 211.349 22.131 211.349 19.8186C211.349 15.3901 208.496 14.6839 205.795 14.6839ZM95.376 14.0189C92.7862 14.0189 91.4387 16.4875 91.4387 18.7599C91.4387 18.8386 91.8662 19.0349 93.2524 19.0349C97.5309 19.0349 97.6097 16.37 97.6097 15.9788C97.6097 14.1364 95.9135 14.0189 95.3748 14.0189H95.376Z" fill="var(--fill-0, #3D4D66)"/>
<path id="Vector_2" d="M15.9292 26.0956C17.5253 26.0956 18.2515 26.8543 18.3628 28.1267H18.384C18.38 28.1858 18.3767 28.245 18.374 28.3042C18.3765 28.3642 18.3778 28.4267 18.3778 28.4904V28.6729C18.4915 30.5753 19.9802 32.1165 21.8901 32.3577C22.0351 32.3415 22.1888 32.334 22.3501 32.334H22.9275C24.7612 32.0302 26.1699 30.5216 26.2811 28.6717V28.4904C26.2811 28.4117 26.2836 28.3367 26.2873 28.2617C26.2863 28.2167 26.2842 28.1716 26.2811 28.1267H26.2961C26.4086 26.8543 27.1336 26.0956 28.731 26.0956H31.1796V28.4904C31.1796 30.1428 30.3184 30.8853 28.7297 30.8853H28.306C26.5423 31.0815 25.1262 32.3852 24.7999 34.0664V34.7288C24.7999 35.0876 24.7587 35.4026 24.6799 35.6763V38.3824C24.6799 39.2711 23.9312 39.9998 23.0275 39.9998H21.4826C20.5727 39.9998 19.8314 39.2711 19.8314 38.3824V34.6789C19.8314 34.5264 19.8527 34.3789 19.8939 34.2376C19.6277 32.4752 18.1765 31.0878 16.3529 30.8853H15.9279C14.3405 30.8853 13.4793 30.1428 13.4793 28.4904V26.0956H15.9292ZM22.3513 26.0956C24.0937 26.0956 24.7999 27.5305 24.7999 28.4904C24.7999 30.1428 23.9375 30.8853 22.3501 30.8853C20.7626 30.8853 19.9014 29.9804 19.9014 28.4904C19.9014 27.0005 20.6077 26.0956 22.3513 26.0956ZM2.58986 19.3847C4.18603 19.3847 4.91224 20.1434 5.02348 21.4146H5.04598C5.04223 21.4746 5.03723 21.5333 5.03473 21.5933C5.03723 21.6545 5.03848 21.7158 5.03848 21.7795V21.9608C5.15347 23.8644 6.6509 25.4068 8.55954 25.6456C8.70204 25.6306 8.85328 25.6231 9.01202 25.6231H9.58574C11.3881 25.3269 12.7893 23.8644 12.9431 22.057V21.7795C12.9431 21.692 12.9456 21.6083 12.9506 21.5258L12.9431 21.4146H12.9581C13.0706 20.1434 13.803 19.3847 15.3992 19.3847H17.849V21.7795C17.849 23.432 16.9803 24.1732 15.3992 24.1732H14.9705C13.2093 24.3694 11.7881 25.6731 11.4606 27.3555V28.0167C11.4606 29.6691 10.6007 30.4103 9.01202 30.4103C7.02213 30.4103 6.5634 29.5066 6.5634 28.0167C6.5634 27.9017 6.56715 27.7917 6.5759 27.683C6.37591 25.8456 4.89099 24.3819 3.01859 24.1732H2.58986C1.00245 24.1732 0.139993 23.432 0.139993 21.7795V19.3847H2.58986ZM29.7397 19.3847C31.3358 19.3847 32.062 20.1434 32.1733 21.4146H32.1958C32.192 21.4746 32.187 21.5333 32.1845 21.5933C32.187 21.6545 32.1883 21.7158 32.1883 21.7795V21.9608C32.301 23.8264 33.7414 25.345 35.5953 25.6297L35.7087 25.6452L35.8541 25.6331C35.9529 25.6264 36.0552 25.6231 36.1618 25.6231H36.7355C38.5692 25.3231 39.9879 23.8119 40.1004 21.9608V21.7795C40.1004 21.717 40.1004 21.6545 40.1041 21.5933L40.0916 21.4146H40.1154C40.2266 20.1434 40.9528 19.3847 42.549 19.3847H44.9976V21.7795C44.9976 23.432 44.1301 24.1732 42.5477 24.1732H42.119C40.3591 24.3694 38.9379 25.6743 38.6104 27.3567V28.0167C38.6104 29.6691 37.7492 30.4103 36.1618 30.4103C34.1719 30.4103 33.712 29.5066 33.712 28.0167C33.712 27.9017 33.717 27.7917 33.7245 27.683C33.5245 25.8456 32.0408 24.3819 30.1684 24.1732H29.7397C28.1522 24.1732 27.2898 23.432 27.2898 21.7795V19.3847H29.7397ZM36.1618 19.3847C37.9055 19.3847 38.6117 20.8183 38.6117 21.7795C38.6117 23.432 37.7492 24.1732 36.1618 24.1732C34.5807 24.1732 33.712 23.2695 33.712 21.7795C33.712 20.2884 34.4182 19.3847 36.1618 19.3847ZM9.01327 19.3847C10.7557 19.3847 11.4606 20.8183 11.4606 21.7795C11.4606 23.3944 10.6393 24.139 9.11921 24.172L9.0126 24.1731L8.90361 24.1717C7.38501 24.1308 6.5634 23.2348 6.5634 21.7795C6.5634 20.2884 7.26961 19.3847 9.01327 19.3847ZM15.9292 12.8588C17.5241 12.8588 18.2515 13.6175 18.3615 14.8899H18.384L18.374 15.0674C18.3765 15.1286 18.3778 15.1911 18.3778 15.2549V15.4361C18.4928 17.3398 19.9827 18.8809 21.8938 19.1197C22.0376 19.1047 22.1901 19.0972 22.3501 19.0972H22.9225C24.7587 18.7947 26.1699 17.286 26.2811 15.4349V15.2536C26.2811 15.1761 26.2836 15.0999 26.2873 15.0249C26.2871 14.9798 26.2851 14.9348 26.2811 14.8899H26.2973C26.4073 13.6175 27.1348 12.8588 28.731 12.8588H31.1796V15.2536C31.1796 16.9061 30.3184 17.6485 28.7297 17.6485H28.306C26.5423 17.8447 25.1262 19.1484 24.7999 20.8308V21.4921C24.7999 23.1445 23.9375 23.8857 22.3501 23.8857C20.3602 23.8857 19.9014 22.982 19.9014 21.4921C19.9014 21.3771 19.9064 21.2671 19.9139 21.1583C19.7139 19.3209 18.2303 17.8572 16.3529 17.6485H15.9279C14.3405 17.6485 13.4793 16.9061 13.4793 15.2536V12.8588H15.9292ZM22.3513 12.8575C24.0937 12.8575 24.7999 14.2912 24.7999 15.2524C24.7999 16.9048 23.9375 17.6473 22.3501 17.6473C20.7626 17.6473 19.9014 16.7423 19.9014 15.2524C19.9014 13.7625 20.6077 12.8575 22.3513 12.8575ZM2.44987 6.45786C4.04478 6.45786 4.77225 7.21657 4.88224 8.489H4.90474L4.89349 8.66649C4.89599 8.72774 4.89724 8.78898 4.89724 8.85273V9.03272C5.01223 10.9376 6.50965 12.4813 8.4183 12.72V12.7188C8.56079 12.7038 8.71203 12.6963 8.87078 12.6963H9.4445C11.2794 12.3963 12.6993 10.8839 12.8093 9.03022V8.85273C12.8093 8.79023 12.8093 8.72774 12.8131 8.66774C12.81 8.60812 12.8063 8.54853 12.8018 8.489H12.8243C12.9356 7.21657 13.6618 6.45786 15.2579 6.45786H17.7078V8.85273C17.7078 10.5051 16.8391 11.2464 15.2579 11.2464H14.8292C13.0681 11.4426 11.6469 12.7463 11.3194 14.4287V15.0899C11.3194 16.7423 10.4594 17.4848 8.87078 17.4848C6.88838 17.4848 6.42216 16.5811 6.42216 15.0899C6.42216 14.9749 6.42591 14.8649 6.43466 14.7574C6.23467 12.92 4.751 11.4551 2.8786 11.2464H2.44862C0.862454 11.2464 0 10.5051 0 8.85273V6.45786H2.44987ZM44.9976 6.45661V8.85148C44.9976 10.5039 44.1301 11.2451 42.5477 11.2451H42.119C40.3591 11.4413 38.9379 12.7463 38.6104 14.4287V15.0886C38.6104 16.7411 37.7492 17.4835 36.1618 17.4835C34.1719 17.4835 33.712 16.5798 33.712 15.0886C33.712 14.9737 33.717 14.8637 33.7245 14.7549C33.5245 12.9175 32.0408 11.4551 30.1684 11.2451H29.7397C28.1522 11.2451 27.2898 10.5039 27.2898 8.85148V6.45786H29.7397C31.3358 6.45786 32.062 7.21657 32.1733 8.489H32.1958L32.1845 8.66649C32.187 8.72774 32.1883 8.78898 32.1883 8.85273V9.03272C32.3033 10.9376 33.8007 12.48 35.7093 12.72L35.7081 12.7188C35.8518 12.7038 36.0018 12.6963 36.1618 12.6963H36.7355C38.5692 12.3963 39.9879 10.8851 40.1004 9.03397V8.85148C40.1004 8.78898 40.1004 8.72649 40.1041 8.66524L40.0916 8.48775H40.1154C40.2254 7.21532 40.9528 6.45661 42.549 6.45661H44.9976ZM8.87203 6.45786C10.6144 6.45786 11.3194 7.89153 11.3194 8.85273C11.3194 10.5051 10.4594 11.2464 8.87078 11.2464C7.28961 11.2464 6.42216 10.3427 6.42216 8.85273C6.42216 7.36156 7.13462 6.45786 8.87203 6.45786ZM36.1618 6.45786C37.9055 6.45786 38.6117 7.89153 38.6117 8.85273C38.6117 10.5051 37.7492 11.2464 36.1618 11.2464C34.5807 11.2464 33.712 10.3427 33.712 8.85273C33.712 7.36156 34.4182 6.45786 36.1618 6.45786ZM15.9292 0.00195313C17.5253 0.00195313 18.2515 0.760663 18.3615 2.03309H18.384L18.374 2.21059C18.3765 2.27183 18.3778 2.33308 18.3778 2.39683V2.57932C18.4928 4.48296 19.9827 6.02413 21.8938 6.26287V6.26412C22.0376 6.24912 22.1901 6.24162 22.3501 6.24162H22.9225C24.7587 5.93914 26.1699 4.43047 26.2811 2.57932V2.39808C26.2811 2.32058 26.2836 2.24433 26.2873 2.16934C26.2871 2.12427 26.2851 2.07924 26.2811 2.03434H26.2973C26.4073 0.760663 27.1348 0.00195313 28.731 0.00195313H31.1796V2.39683C31.1796 4.04924 30.3184 4.7917 28.7297 4.7917H28.2997C26.5386 4.99169 25.1249 6.29412 24.7999 7.97278V8.63524C24.7999 10.2877 23.9375 11.0289 22.3501 11.0289C20.3602 11.0289 19.9014 10.1239 19.9014 8.63524C19.9014 8.52025 19.9064 8.41025 19.9139 8.30151C19.7139 6.46536 18.234 5.00294 16.3591 4.7917H15.9279C14.3405 4.7917 13.4793 4.04924 13.4793 2.39683V0.00195313H15.9292ZM22.3513 0.00195313C24.0937 0.00195313 24.7999 1.43563 24.7999 2.39683C24.7999 4.04924 23.9375 4.7917 22.3501 4.7917C20.7626 4.7917 19.9014 3.88675 19.9014 2.39683C19.9014 0.906905 20.6077 0.00195313 22.3513 0.00195313Z" fill="var(--fill-0, #38A1E7)"/>
</g>
</svg>
