<svg preserveAspectRatio="none" width="100%" height="100%" overflow="visible" style="display: block;" viewBox="0 0 152 42.5482" fill="none" xmlns="http://www.w3.org/2000/svg">
<g id="Group">
<path id="Vector" opacity="0.54" d="M45.4463 32.6413H42.5982V10.6466H55.533V13.3489H45.4466V20.57H54.5445V23.2099H45.4466V32.6414L45.4463 32.6413ZM60.8883 13.812C60.2093 14.4889 59.1432 14.5952 58.3422 14.066C57.5411 13.5368 57.2284 12.5194 57.5955 11.6365C57.9626 10.7536 58.9069 10.251 59.8508 10.4364C60.7947 10.6218 61.4752 11.4434 61.4758 12.3985C61.485 12.9304 61.2714 13.4423 60.8859 13.812H60.8883H60.8883ZM60.8883 32.6413H58.0402V17.5894H60.8883V32.6414V32.6413ZM67.1381 32.6413H64.29V17.5894H67.0124V20.0469H67.1357C67.4645 19.1809 68.0961 18.4612 68.9151 18.019C69.6973 17.5207 70.6019 17.2443 71.5311 17.2199C72.2605 17.1993 72.9866 17.325 73.6659 17.5894L72.5828 20.2293C72.0943 20.0679 71.581 19.9948 71.0669 20.0133C70.0225 20.0186 69.0286 20.4592 68.3276 21.2276C67.533 22.0372 67.1357 23.0971 67.1357 24.4074L67.1381 32.6414L67.1381 32.6413ZM81.4704 33.1213C79.18 33.1213 77.3183 32.3637 75.8854 30.8488C74.4525 29.334 73.7353 27.4227 73.7336 25.1156C73.6916 23.0384 74.4371 21.0213 75.8226 19.4639C77.1495 17.9138 79.1123 17.0438 81.1608 17.0973C83.4093 17.0973 85.2097 17.8245 86.562 19.2788C87.9143 20.7331 88.5897 22.6786 88.5877 25.1153L88.5563 25.6385H76.5765C76.6587 27.1535 77.1696 28.3535 78.1093 29.2382C78.9881 30.0944 80.1734 30.5692 81.4044 30.5582C83.4466 30.5582 84.8287 29.6979 85.5508 27.9783L88.0894 29.0223C87.575 30.2124 86.7265 31.2304 85.6451 31.9549C84.5089 32.7324 83.117 33.1212 81.4697 33.1212L81.4704 33.1213ZM85.5563 23.2819C85.495 22.4211 85.0978 21.602 84.3644 20.8244C83.631 20.0468 82.5406 19.6661 81.0932 19.6821C80.0893 19.6646 79.1141 20.0149 78.3539 20.666C77.5575 21.3587 77.0003 22.2821 76.7606 23.3059L85.5563 23.2818L85.5563 23.2819ZM98.8779 33.1213C97.8004 33.1425 96.7346 32.895 95.7784 32.4013C94.9387 31.9809 94.2281 31.3444 93.721 30.5583H93.5977V32.6414H90.8729V10.6466H93.721V17.5894L93.5977 19.6773H93.721C94.2282 18.8912 94.9387 18.2546 95.7785 17.8342C96.7332 17.3349 97.799 17.0816 98.878 17.0975C100.838 17.0975 102.53 17.8654 103.955 19.4014C105.38 20.9373 106.092 22.842 106.09 25.1154C106.088 27.3889 105.378 29.2936 103.955 30.8295C102.532 32.3654 100.84 33.1293 98.878 33.1213L98.8779 33.1213ZM98.4137 30.5414C99.7111 30.5516 100.951 30.009 101.818 29.0511C102.767 28.0576 103.242 26.7417 103.242 25.1033C103.242 23.465 102.767 22.1492 101.818 21.1556C100.941 20.2091 99.7052 19.6694 98.4096 19.6666C97.114 19.6639 95.8762 20.1984 94.995 21.1411C94.057 22.1234 93.5879 23.4442 93.5879 25.1033C93.5879 26.7624 94.0618 28.0871 95.0095 29.0774C95.8821 30.0318 97.125 30.5691 98.4233 30.5534L98.4136 30.5414L98.4137 30.5414ZM113.341 33.1213C111.729 33.1213 110.383 32.6605 109.303 31.739C108.223 30.8175 107.682 29.5991 107.678 28.084C107.678 26.4457 108.318 25.161 109.598 24.2298C110.878 23.2986 112.456 22.8331 114.332 22.8331C116.003 22.8331 117.374 23.1403 118.442 23.7546V23.3251C118.483 22.3134 118.062 21.3373 117.296 20.6684C116.516 20.0018 115.513 19.6499 114.484 19.6821C113.697 19.6724 112.922 19.8736 112.241 20.2653C111.603 20.6161 111.113 21.1836 110.863 21.8636L108.264 20.7572C108.615 19.8533 109.306 19.0149 110.341 18.2422C111.376 17.4695 112.735 17.0854 114.427 17.0903C116.361 17.0903 117.973 17.6502 119.263 18.7701C120.552 19.89 121.192 21.4772 121.182 23.5315V32.6414H118.45V30.5535H118.327C117.191 32.2654 115.53 33.1181 113.344 33.1181L113.341 33.1213ZM113.805 30.5414C115.002 30.5373 116.151 30.0738 117.011 29.2479C117.928 28.4807 118.458 27.352 118.461 26.1616C117.656 25.5057 116.447 25.1777 114.835 25.1777C113.452 25.1777 112.41 25.4745 111.709 26.068C111.054 26.5673 110.667 27.3368 110.657 28.1559C110.644 28.8687 111.012 29.5356 111.624 29.9078C112.269 30.3376 113.029 30.5628 113.805 30.5534V30.5414L113.805 30.5414ZM129.556 33.1213C127.864 33.1213 126.467 32.7117 125.364 31.8925C124.292 31.1062 123.456 30.0441 122.946 28.8207L125.485 27.7768C126.291 29.6615 127.661 30.6038 129.595 30.6038C130.364 30.6351 131.123 30.4315 131.771 30.0207C132.306 29.6913 132.628 29.1091 132.622 28.4848C132.622 27.5024 131.931 26.8369 130.544 26.4881L127.481 25.7513C126.473 25.4866 125.534 25.0103 124.727 24.3546C123.869 23.6899 123.385 22.6557 123.427 21.5756C123.427 20.2446 124.02 19.1645 125.206 18.3357C126.447 17.4902 127.925 17.0551 129.43 17.0926C130.686 17.0727 131.925 17.3867 133.018 18.0022C134.049 18.5836 134.847 19.5008 135.276 20.5988L132.803 21.6019C132.247 20.2709 131.091 19.6052 129.336 19.6052C128.589 19.5806 127.85 19.7617 127.201 20.1284C126.669 20.402 126.335 20.9472 126.335 21.5419C126.335 22.4027 127.006 22.9867 128.347 23.2938L131.347 24.0018C132.77 24.3218 133.823 24.8817 134.505 25.6817C135.165 26.429 135.528 27.3899 135.525 28.3839C135.538 29.7092 134.919 30.9625 133.854 31.7629C132.741 32.6685 131.307 33.1213 129.553 33.1213L129.556 33.1213ZM144.875 33.1213C142.585 33.1213 140.723 32.3637 139.29 30.8488C137.857 29.334 137.14 27.4184 137.138 25.1034C137.096 23.0262 137.842 21.0091 139.227 19.4517C140.559 17.9055 142.524 17.0401 144.573 17.0975C146.829 17.0975 148.63 17.8246 149.974 19.2789C151.318 20.7332 151.994 22.6787 152 25.1154L151.969 25.6386H139.979C140.061 27.1536 140.572 28.3536 141.512 29.2383C142.393 30.0945 143.581 30.5677 144.814 30.5534C146.856 30.5534 148.239 29.6931 148.961 27.9736L151.499 29.0175C150.985 30.2077 150.136 31.2257 149.055 31.9501C147.919 32.7309 146.525 33.1212 144.875 33.1212L144.875 33.1213ZM148.961 23.2819C148.9 22.4211 148.502 21.602 147.769 20.8244C147.036 20.0468 145.947 19.6661 144.503 19.6821C143.499 19.6649 142.524 20.0151 141.764 20.666C140.967 21.3587 140.41 22.2821 140.17 23.3059L148.961 23.2818V23.2819Z" fill="var(--fill-0, black)"/>
<g id="Group_2">
<path id="Vector_2" d="M0.0168801 34.3298L5.25395 0.818347C5.31797 0.40736 5.6376 0.0833747 6.04768 0.0137081C6.45776 -0.0559584 6.86641 0.144471 7.06249 0.511276L12.4785 10.613L14.6374 6.50267C14.8045 6.18485 15.1341 5.98585 15.4933 5.98585C15.8524 5.98585 16.182 6.18485 16.3492 6.50267L30.9651 34.3297H0.0168801V34.3298Z" fill="var(--fill-0, #FFA000)"/>
<path id="Vector_3" d="M18.1097 21.2757L12.4761 10.6082L0.0169678 34.3297L18.1097 21.2757Z" fill="var(--fill-0, #F57C00)"/>
<path id="Vector_4" d="M30.9655 34.3297L26.9543 9.508C26.8937 9.15155 26.6393 8.85873 26.2948 8.74835C25.9503 8.63798 25.5732 8.72985 25.3174 8.9854L0.01701 34.3293L14.0164 42.1801C14.8955 42.6709 15.9661 42.6709 16.8452 42.1801L30.9655 34.3293V34.3297Z" fill="var(--fill-0, #FFCA28)"/>
<path id="Vector_5" d="M26.9542 9.50807C26.8935 9.15162 26.6392 8.8588 26.2947 8.74843C25.9502 8.63805 25.5731 8.72992 25.3173 8.98548L20.2957 14.0198L16.347 6.50248C16.1799 6.18466 15.8503 5.98566 15.4911 5.98566C15.132 5.98566 14.8024 6.18466 14.6352 6.50248L12.4764 10.6128L7.06006 0.511247C6.86365 0.144345 6.45451 -0.0557602 6.04395 0.0144258C5.63338 0.0846118 5.31482 0.409409 5.25152 0.820721L0.016881 34.3297H0L0.016881 34.3491L0.154688 34.4168L25.31 9.23243C25.5657 8.97548 25.9437 8.88312 26.2891 8.99317C26.6345 9.10322 26.8893 9.39718 26.9493 9.75466L30.9267 34.3539L30.9654 34.3297L26.9542 9.50801L26.9542 9.50807ZM0.062817 34.2838L5.25395 1.0577C5.31719 0.646392 5.6365 0.321595 6.04671 0.251409C6.45692 0.181223 6.86609 0.381263 7.06281 0.74823L12.4785 10.85L14.6374 6.73962C14.8045 6.4218 15.1341 6.2228 15.4933 6.2228C15.8524 6.2228 16.182 6.4218 16.3492 6.73962L20.2178 14.0971L0.0625897 34.2838H0.062817Z" fill="var(--fill-0, white)" fill-opacity="0.2"/>
<path id="Vector_6" opacity="0.2" d="M16.8451 41.9436C15.966 42.4345 14.8954 42.4345 14.0163 41.9436L0.0507394 34.1147L0.0168801 34.3299L14.0162 42.1783C14.8953 42.6691 15.966 42.6691 16.8451 42.1783L30.9653 34.3299L30.9291 34.1075L16.8451 41.9437V41.9436Z" fill="var(--fill-0, #A52714)"/>
<path id="Vector_7" d="M26.9141 9.51317C26.8537 9.15682 26.6002 8.8639 26.2569 8.75418C25.9136 8.64445 25.5379 8.73567 25.2829 8.99116L20.2787 14.0229L16.3441 6.5091C16.1775 6.19142 15.849 5.99248 15.4912 5.99248C15.1333 5.99248 14.8049 6.19142 14.6383 6.5091L12.4867 10.6177L7.08964 0.520277C6.89389 0.153537 6.48621 -0.0465353 6.07743 0.0236831C5.66865 0.0939016 5.35045 0.418439 5.28744 0.829654L0.0710449 34.324L14.0215 42.1689C14.8975 42.6595 15.9644 42.6595 16.8405 42.1689L30.9113 34.324L26.9141 9.51311V9.51317Z" fill="url(#paint0_linear_0_495)"/>
</g>
</g>
<defs>
<linearGradient id="paint0_linear_0_495" x1="-1.00528" y1="7.24787" x2="37.4806" y2="27.5487" gradientUnits="userSpaceOnUse">
<stop stop-color="white" stop-opacity="0.1"/>
<stop offset="0.14" stop-color="white" stop-opacity="0.08"/>
<stop offset="0.61" stop-color="white" stop-opacity="0.02"/>
<stop offset="1" stop-color="white" stop-opacity="0"/>
</linearGradient>
</defs>
</svg>
