<svg preserveAspectRatio="none" width="100%" height="100%" overflow="visible" style="display: block;" viewBox="0 0 95 31.2183" fill="none" xmlns="http://www.w3.org/2000/svg">
<g id="Group">
<path id="Vector" d="M92.2052 19.0651L94.8492 20.8278C93.9911 22.0918 91.9385 24.2604 88.3899 24.2604C83.9832 24.2604 80.7013 20.851 80.7013 16.5138C80.7013 11.8983 84.0179 8.76724 88.0188 8.76724C92.0429 8.76724 94.0143 11.9679 94.6521 13.6958L95 14.5772L84.6326 18.868C85.4211 20.4219 86.6504 21.2105 88.3899 21.2105C90.1294 21.2105 91.3355 20.3523 92.2052 19.0651ZM84.0759 16.2703L90.9991 13.3943C90.6165 12.4318 89.48 11.7476 88.1232 11.7476C86.3953 11.7476 83.9948 13.2784 84.0759 16.2703Z" fill="var(--fill-0, white)"/>
<path id="Vector_2" d="M75.7031 0.869751H79.0429V23.5529H75.7031V0.869751Z" fill="var(--fill-0, white)"/>
<path id="Vector_3" d="M70.4382 9.37012H73.6621V23.147C73.6621 28.8641 70.2875 31.2183 66.2982 31.2183C62.5409 31.2183 60.2795 28.6902 59.433 26.6376L62.3901 25.4083C62.9236 26.6724 64.2108 28.1683 66.2982 28.1683C68.8611 28.1683 70.4382 26.5796 70.4382 23.6108V22.4976H70.3223C69.5569 23.4253 68.0957 24.2603 66.2402 24.2603C62.3669 24.2603 58.8184 20.8856 58.8184 16.5369C58.8184 12.1649 62.3669 8.75549 66.2402 8.75549C68.0841 8.75549 69.5569 9.57886 70.3223 10.4834H70.4382V9.37012ZM70.6702 16.5369C70.6702 13.8 68.8495 11.8054 66.5302 11.8054C64.1876 11.8054 62.2162 13.8 62.2162 16.5369C62.2162 19.2389 64.1876 21.1987 66.5302 21.1987C68.8495 21.2103 70.6702 19.2389 70.6702 16.5369Z" fill="var(--fill-0, white)"/>
<path id="Vector_4" d="M40.484 16.4789C40.484 20.9436 37.005 24.2254 32.7374 24.2254C28.4699 24.2254 24.9909 20.932 24.9909 16.4789C24.9909 11.991 28.4699 8.72069 32.7374 8.72069C37.005 8.72069 40.484 11.991 40.484 16.4789ZM37.0978 16.4789C37.0978 13.6957 35.08 11.7822 32.7374 11.7822C30.3949 11.7822 28.3771 13.6957 28.3771 16.4789C28.3771 19.2389 30.3949 21.1755 32.7374 21.1755C35.08 21.1755 37.0978 19.2389 37.0978 16.4789Z" fill="var(--fill-0, white)"/>
<path id="Vector_5" d="M57.4036 16.5138C57.4036 20.9785 53.9246 24.2604 49.657 24.2604C45.3894 24.2604 41.9104 20.9785 41.9104 16.5138C41.9104 12.0259 45.3894 8.76724 49.657 8.76724C53.9246 8.76724 57.4036 12.0143 57.4036 16.5138ZM54.0057 16.5138C54.0057 13.7306 51.9879 11.8172 49.6454 11.8172C47.3029 11.8172 45.285 13.7306 45.285 16.5138C45.285 19.2738 47.3029 21.2105 49.6454 21.2105C51.9995 21.2105 54.0057 19.2622 54.0057 16.5138Z" fill="var(--fill-0, white)"/>
<path id="Vector_6" d="M12.2577 20.8624C7.39868 20.8624 3.59497 16.9427 3.59497 12.0837C3.59497 7.22473 7.39868 3.30505 12.2577 3.30505C14.8785 3.30505 16.792 4.33716 18.2068 5.65918L20.5377 3.32825C18.5663 1.43799 15.9338 0 12.2577 0C5.6012 0 0 5.42725 0 12.0837C0 18.7402 5.6012 24.1675 12.2577 24.1675C15.8527 24.1675 18.5663 22.9846 20.6885 20.7813C22.8687 18.6011 23.5413 15.5396 23.5413 13.0579C23.5413 12.2809 23.4485 11.4807 23.3441 10.8893H12.2577V14.1132H20.155C19.9231 16.131 19.2853 17.511 18.3459 18.4503C17.2095 19.5984 15.412 20.8624 12.2577 20.8624Z" fill="var(--fill-0, white)"/>
</g>
</svg>
