<svg preserveAspectRatio="none" width="100%" height="100%" overflow="visible" style="display: block;" viewBox="0 0 69.0909 34.6263" fill="none" xmlns="http://www.w3.org/2000/svg">
<path id="Vector" d="M47.8978 28.8056C47.45 30.0103 46.8104 31.0443 45.9789 31.9079C45.1474 32.7714 44.1559 33.443 42.9939 33.912C41.8319 34.3811 40.5527 34.6263 39.1561 34.6263C36.9814 34.6263 35.1158 34.0826 33.57 33.0059C32.0242 31.9292 31.0115 30.458 30.5318 28.5818H33.6873C33.9964 29.264 34.3802 29.8184 34.8599 30.2341C35.329 30.6499 35.8407 30.9591 36.3737 31.1723C36.9068 31.3855 37.4185 31.5241 37.9195 31.5987C38.4206 31.6733 38.8257 31.7053 39.1668 31.7053C40.3288 31.7053 41.3096 31.5028 42.1304 31.087C42.9513 30.6712 43.6122 30.1382 44.1133 29.4879C44.625 28.8376 44.9874 28.102 45.2113 27.2705C45.4352 26.439 45.5525 25.6181 45.5525 24.7866V22.8677C44.8915 23.7632 44.0173 24.5308 42.9406 25.1597C41.8639 25.7887 40.6593 26.0979 39.3374 26.0979C38.0155 26.0979 36.7895 25.8527 35.6808 25.3516C34.5721 24.8506 33.602 24.1683 32.7918 23.2941C31.9709 22.42 31.3313 21.3966 30.8729 20.2452C30.4145 19.0832 30.18 17.8466 30.18 16.514C30.18 15.1815 30.4145 13.9449 30.8729 12.7722C31.3313 11.5995 31.9709 10.5868 32.7918 9.72328C33.6127 8.85978 34.5721 8.17751 35.6808 7.6658C36.7895 7.15409 38.0155 6.89824 39.3374 6.89824C40.6913 6.89824 41.9172 7.22872 43.0259 7.88967C44.1346 8.55062 45.0088 9.35016 45.6484 10.267V7.35664H48.5587V24.7866C48.5694 26.2684 48.3455 27.601 47.8978 28.8056ZM45.0621 13.9022C44.7316 13.0707 44.2839 12.3458 43.7082 11.7168C43.1432 11.0878 42.4822 10.5974 41.736 10.2456C40.9897 9.89385 40.1902 9.71262 39.3374 9.71262C38.4845 9.71262 37.685 9.89385 36.9281 10.2456C36.1712 10.5974 35.5209 11.0878 34.9772 11.7168C34.4335 12.3458 33.9964 13.0707 33.6766 13.9022C33.3568 14.7337 33.1969 15.6186 33.1969 16.5673C33.1969 17.4948 33.3568 18.369 33.6766 19.1898C33.9964 20.0214 34.4229 20.7356 34.9772 21.3539C35.5209 21.9722 36.1712 22.452 36.9281 22.8144C37.685 23.1662 38.4952 23.3474 39.3374 23.3474C40.1902 23.3474 40.9897 23.1662 41.736 22.8144C42.4822 22.4626 43.1432 21.9722 43.7082 21.3539C44.2732 20.7356 44.7209 20.0214 45.0621 19.1898C45.3925 18.3583 45.5631 17.4842 45.5631 16.5673C45.5525 15.6186 45.3925 14.7231 45.0621 13.9022ZM63.5368 7.6658C64.6561 8.17751 65.6262 8.87044 66.4471 9.7446C67.268 10.6188 67.9076 11.6422 68.3767 12.8148C68.8457 13.9875 69.0909 15.2348 69.0909 16.5567C69.0909 17.8786 68.8564 19.1152 68.3767 20.2665C67.9076 21.4179 67.2573 22.42 66.4471 23.2835C65.6262 24.147 64.6561 24.8293 63.5368 25.3196C62.4174 25.81 61.2021 26.0659 59.9015 26.0659C58.6009 26.0659 57.3963 25.8207 56.277 25.3196C55.1576 24.8186 54.1981 24.147 53.3666 23.2835C52.5351 22.42 51.8848 21.4179 51.4157 20.2665C50.9467 19.1152 50.7015 17.8786 50.7015 16.5567C50.7015 15.2348 50.936 13.9875 51.4157 12.8148C51.8848 11.6422 52.5351 10.6188 53.3666 9.7446C54.1981 8.87044 55.1683 8.17751 56.277 7.6658C57.3856 7.15409 58.6009 6.89824 59.9015 6.89824C61.2021 6.9089 62.4068 7.16475 63.5368 7.6658ZM62.2895 22.7718C63.0357 22.42 63.6967 21.9403 64.2617 21.3326C64.8267 20.725 65.2744 20.0107 65.5943 19.1898C65.9141 18.3583 66.074 17.4842 66.074 16.5673C66.074 15.6186 65.9141 14.7231 65.5943 13.8916C65.2744 13.0494 64.8267 12.3245 64.2617 11.7061C63.6967 11.0878 63.0357 10.5974 62.2895 10.235C61.5433 9.87253 60.7437 9.68064 59.8909 9.68064C59.038 9.68064 58.2385 9.86187 57.4923 10.235C56.746 10.5974 56.0957 11.0878 55.5414 11.7061C54.987 12.3245 54.5499 13.0494 54.2301 13.8916C53.9103 14.7337 53.7504 15.6292 53.7504 16.5673C53.7504 17.4948 53.9103 18.369 54.2301 19.1898C54.5499 20.0214 54.987 20.7356 55.5414 21.3326C56.0957 21.9403 56.746 22.42 57.4923 22.7718C58.2385 23.1236 59.038 23.3048 59.8909 23.3048C60.7544 23.3048 61.5433 23.1236 62.2895 22.7718ZM3.02759 30.2128C2.53721 30.2128 2.04682 30.0956 1.59908 29.8504C0.618311 29.328 0 28.3046 0 27.1852V15.1069C0 13.4331 1.35389 12.0899 3.01693 12.0899C4.67997 12.0899 6.03386 13.4438 6.03386 15.1069V21.5458L15.6923 15.1069L1.35389 5.53369C-0.0319816 4.60623 -0.4051 2.72997 0.511706 1.3441C1.43917 -0.041765 3.31543 -0.414884 4.7013 0.501922L22.8349 12.591C23.677 13.156 24.1781 14.0941 24.1781 15.1069C24.1781 16.1196 23.677 17.0577 22.8349 17.6227L4.71196 29.7118C4.20025 30.0423 3.61392 30.2128 3.02759 30.2128Z" fill="var(--fill-0, white)"/>
</svg>
