<svg width="135" height="135" viewBox="0 0 135 135" fill="none" xmlns="http://www.w3.org/2000/svg">
<g opacity="0.5">
<path d="M61.0842 70.1599H91.3367M42.9326 70.1599H45.6812M73.1852 94.3619H42.9326M88.1074 94.3619H91.2824" stroke="white" stroke-linecap="round" stroke-linejoin="round"/>
<path d="M103.438 3.60425V15.7053M30.832 3.60425V15.7053" stroke="#F5F5F5" stroke-linecap="round" stroke-linejoin="round"/>
<path d="M9.65527 65.5811C9.65527 39.2172 9.65527 26.0352 17.2312 17.845C24.8072 9.65479 37.0005 9.65479 61.3872 9.65479H72.8831C97.2698 9.65479 109.463 9.65479 117.039 17.845C124.615 26.0352 124.615 39.2172 124.615 65.5811V68.6882C124.615 95.0521 124.615 108.234 117.039 116.424C109.463 124.615 97.2698 124.615 72.8831 124.615H61.3872C37.0005 124.615 24.8072 124.615 17.2312 116.424C9.65527 108.234 9.65527 95.0521 9.65527 68.6882V65.5811Z" stroke="#F5F5F5" stroke-linecap="round" stroke-linejoin="round"/>
<path d="M0.5 56.4264C0.5 30.0624 0.5 16.8805 8.07596 8.69023C15.6519 0.5 27.8452 0.5 52.2319 0.5H82.0373C106.424 0.5 118.617 0.5 126.193 8.69023C133.769 16.8805 133.769 30.0624 133.769 56.4264V73.2655C133.769 104.207 133.769 117.389 126.193 125.579C118.617 133.769 106.424 133.769 82.0373 133.769H52.2319C27.8452 133.769 15.6519 133.769 8.07596 125.579C0.5 117.389 0.5 104.207 0.5 73.2655V56.4264Z" stroke="#FF7738" stroke-linecap="round" stroke-linejoin="round" stroke-dasharray="10 10"/>
<path d="M12.6807 39.9072H121.59" stroke="#FF7738" stroke-linecap="round" stroke-linejoin="round" stroke-dasharray="10 10"/>
</g>
</svg>
