<svg width="135" height="159" viewBox="0 0 135 159" fill="none" xmlns="http://www.w3.org/2000/svg">
<g opacity="0.5">
<path d="M158.449 79.4744C158.449 123.091 123.091 158.449 79.4744 158.449C35.858 158.449 0.5 123.091 0.5 79.4744C0.5 35.858 35.858 0.5 79.4744 0.5C123.091 0.5 158.449 35.858 158.449 79.4744Z" stroke="#F5F5F5"/>
<path d="M148.121 79.4744C148.121 117.387 117.387 148.122 79.4743 148.122C41.5615 148.122 10.8271 117.387 10.8271 79.4744C10.8271 41.5616 41.5615 10.8272 79.4743 10.8272C117.387 10.8272 148.121 41.5616 148.121 79.4744Z" stroke="#FF7738" stroke-dasharray="10 10"/>
<path d="M137.015 79.4744C137.015 111.254 111.253 137.016 79.474 137.016C47.6948 137.016 21.9326 111.254 21.9326 79.4744C21.9326 47.6952 47.6948 21.933 79.474 21.933C111.253 21.933 137.015 47.6952 137.015 79.4744Z" stroke="#F5F5F5"/>
<path d="M126.92 79.4744C126.92 105.678 105.678 126.92 79.4746 126.92C53.2713 126.92 32.0293 105.678 32.0293 79.4744C32.0293 53.2711 53.2713 32.0291 79.4746 32.0291C105.678 32.0291 126.92 53.2711 126.92 79.4744Z" stroke="#FF7738" stroke-dasharray="10 10"/>
<path d="M100.692 64.6885C100.692 64.9647 100.916 65.1885 101.192 65.1885C101.469 65.1885 101.692 64.9647 101.692 64.6885H101.192H100.692ZM56.2822 94.2633C56.2822 93.9872 56.0584 93.7633 55.7822 93.7633C55.5061 93.7633 55.2822 93.9872 55.2822 94.2633H55.7822H56.2822ZM79.9745 39.987C79.9745 39.7109 79.7507 39.487 79.4745 39.487C79.1984 39.487 78.9745 39.7109 78.9745 39.987L79.4745 39.987L79.9745 39.987ZM78.9745 118.961C78.9745 119.238 79.1984 119.461 79.4745 119.461C79.7507 119.461 79.9745 119.238 79.9745 118.961H79.4745H78.9745ZM79.4745 78.3384V77.8384C71.609 77.8384 66.3013 76.6259 62.9706 74.3961C59.6828 72.195 58.2566 68.9569 58.2566 64.6885H57.7566H57.2566C57.2566 69.2152 58.7919 72.8021 62.4143 75.2271C65.9939 77.6235 71.5452 78.8384 79.4745 78.8384V78.3384ZM57.7566 64.6885H58.2566C58.2566 60.4886 60.5772 56.644 64.4133 53.8312C68.2491 51.0185 73.5724 49.2637 79.4745 49.2637V48.7637V48.2637C73.3822 48.2637 67.8465 50.0737 63.822 53.0247C59.7977 55.9756 57.2566 60.0934 57.2566 64.6885H57.7566ZM79.4745 48.7637V49.2637C85.3767 49.2637 90.7 51.0185 94.5358 53.8312C98.3719 56.644 100.692 60.4886 100.692 64.6885H101.192H101.692C101.692 60.0934 99.1514 55.9756 95.1271 53.0247C91.1025 50.0737 85.5669 48.2637 79.4745 48.2637V48.7637ZM103.167 94.2633H102.667C102.667 99.7612 100.12 103.586 95.9712 106.062C91.7925 108.556 85.9719 109.688 79.4745 109.688V110.188V110.688C86.062 110.688 92.0876 109.545 96.4838 106.921C100.91 104.278 103.667 100.14 103.667 94.2633H103.167ZM79.4745 110.188V109.688C73.0179 109.688 67.1949 107.928 63.0005 105.109C58.8029 102.288 56.2822 98.4436 56.2822 94.2633H55.7822H55.2822C55.2822 98.8781 58.0652 102.997 62.4426 105.939C66.8231 108.883 72.8463 110.688 79.4745 110.688V110.188ZM79.4745 78.3384V78.8384C87.3441 78.8384 93.147 79.9758 96.9718 82.4549C100.751 84.9044 102.667 88.7102 102.667 94.2633H103.167H103.667C103.667 88.4415 101.634 84.2848 97.5157 81.6157C93.4431 78.976 87.3999 77.8384 79.4745 77.8384V78.3384ZM79.4745 48.7637H79.9745L79.9745 39.987L79.4745 39.987L78.9745 39.987L78.9745 48.7637L79.4745 48.7637ZM79.4745 110.188H78.9745V118.961H79.4745H79.9745V110.188H79.4745Z" fill="#FF7738"/>
</g>
</svg>
